<?xml version="1.0" encoding="utf-8" standalone="no"?>
<!DOCTYPE svg PUBLIC "-//W3C//DTD SVG 1.1//EN"
  "http://www.w3.org/Graphics/SVG/1.1/DTD/svg11.dtd">
<svg xmlns:xlink="http://www.w3.org/1999/xlink" width="712.8pt" height="496.8pt" viewBox="0 0 712.8 496.8" xmlns="http://www.w3.org/2000/svg" version="1.1">
 <metadata>
  <rdf:RDF xmlns:dc="http://purl.org/dc/elements/1.1/" xmlns:cc="http://creativecommons.org/ns#" xmlns:rdf="http://www.w3.org/1999/02/22-rdf-syntax-ns#">
   <cc:Work>
    <dc:type rdf:resource="http://purl.org/dc/dcmitype/StillImage"/>
    <dc:date>2026-02-13T12:02:33.460840</dc:date>
    <dc:format>image/svg+xml</dc:format>
    <dc:creator>
     <cc:Agent>
      <dc:title>Matplotlib v3.10.8, https://matplotlib.org/</dc:title>
     </cc:Agent>
    </dc:creator>
   </cc:Work>
  </rdf:RDF>
 </metadata>
 <defs>
  <style type="text/css">*{stroke-linejoin: round; stroke-linecap: butt}</style>
 </defs>
 <g id="figure_1">
  <g id="patch_1">
   <path d="M 0 496.8 
L 712.8 496.8 
L 712.8 0 
L 0 0 
z
" style="fill: #ffffff"/>
  </g>
  <g id="axes_1">
   <g id="text_1">
    <g id="patch_2">
     <path d="M 41.04 81.989812 
L 113.04 81.989812 
Q 119.04 81.989812 119.04 75.989812 
L 119.04 63.834187 
Q 119.04 57.834187 113.04 57.834187 
L 41.04 57.834187 
Q 35.04 57.834187 35.04 63.834187 
L 35.04 75.989812 
Q 35.04 81.989812 41.04 81.989812 
z
" style="fill: #e0e0e0; stroke: #000000; stroke-width: 1.5; stroke-linejoin: miter"/>
    </g>
    <!-- マップサイズ -->
    <g transform="translate(41.04 73.409812) scale(0.12 -0.12)">
     <defs>
      <path id="NotoSansCJKjp-Bold-30de" d="M 2720 966 
C 3136 538 3674 -58 3942 -416 
L 4691 179 
C 4442 480 4064 896 3699 1261 
C 4602 1990 5421 3014 5882 3763 
C 5933 3846 6010 3930 6099 4032 
L 5459 4557 
C 5325 4512 5107 4486 4864 4486 
C 4173 4486 1715 4486 1312 4486 
C 1094 4486 742 4518 576 4544 
L 576 3648 
C 710 3661 1056 3693 1312 3693 
C 1798 3693 4134 3693 4698 3693 
C 4397 3168 3795 2426 3072 1850 
C 2669 2202 2246 2547 1990 2739 
L 1312 2195 
C 1696 1920 2349 1344 2720 966 
z
" transform="scale(0.015625)"/>
      <path id="NotoSansCJKjp-Bold-30c3" d="M 3232 3802 
L 2470 3552 
C 2630 3219 2912 2445 2989 2131 
L 3757 2400 
C 3667 2694 3354 3526 3232 3802 
z
M 5594 3334 
L 4698 3622 
C 4621 2822 4314 1971 3878 1427 
C 3347 762 2458 275 1754 90 
L 2426 -595 
C 3174 -314 3974 224 4570 992 
C 5005 1555 5274 2221 5440 2867 
C 5478 2995 5517 3130 5594 3334 
z
M 1747 3462 
L 979 3187 
C 1133 2906 1453 2054 1562 1709 
L 2342 2003 
C 2214 2362 1907 3136 1747 3462 
z
" transform="scale(0.015625)"/>
      <path id="NotoSansCJKjp-Bold-30d7" d="M 5146 4691 
C 5146 4896 5312 5062 5517 5062 
C 5715 5062 5882 4896 5882 4691 
C 5882 4493 5715 4326 5517 4326 
C 5312 4326 5146 4493 5146 4691 
z
M 4749 4691 
L 4762 4570 
C 4627 4550 4486 4544 4397 4544 
C 4032 4544 1914 4544 1434 4544 
C 1222 4544 858 4570 672 4595 
L 672 3693 
C 832 3706 1139 3718 1434 3718 
C 1914 3718 4026 3718 4410 3718 
C 4326 3168 4083 2445 3661 1914 
C 3142 1261 2419 704 1152 410 
L 1850 -358 
C 2989 13 3840 646 4422 1414 
C 4960 2125 5235 3117 5382 3744 
L 5434 3936 
L 5517 3930 
C 5933 3930 6278 4275 6278 4691 
C 6278 5114 5933 5459 5517 5459 
C 5094 5459 4749 5114 4749 4691 
z
" transform="scale(0.015625)"/>
      <path id="NotoSansCJKjp-Bold-30b5" d="M 371 3885 
L 371 3014 
C 512 3027 742 3040 1062 3040 
L 1606 3040 
L 1606 2170 
C 1606 1882 1587 1626 1568 1498 
L 2464 1498 
C 2458 1626 2438 1888 2438 2170 
L 2438 3040 
L 3955 3040 
L 3955 2797 
C 3955 1222 3411 672 2176 243 
L 2861 -403 
C 4403 275 4787 1242 4787 2829 
L 4787 3040 
L 5261 3040 
C 5600 3040 5824 3034 5965 3021 
L 5965 3872 
C 5792 3840 5600 3827 5261 3827 
L 4787 3827 
L 4787 4499 
C 4787 4755 4813 4966 4826 5094 
L 3917 5094 
C 3936 4966 3955 4755 3955 4499 
L 3955 3827 
L 2438 3827 
L 2438 4461 
C 2438 4710 2458 4915 2477 5037 
L 1568 5037 
C 1587 4845 1606 4646 1606 4461 
L 1606 3827 
L 1062 3827 
C 742 3827 480 3866 371 3885 
z
" transform="scale(0.015625)"/>
      <path id="NotoSansCJKjp-Bold-30a4" d="M 397 2490 
L 800 1683 
C 1587 1914 2400 2259 3059 2605 
L 3059 557 
C 3059 275 3034 -128 3014 -282 
L 4026 -282 
C 3981 -122 3968 275 3968 557 
L 3968 3142 
C 4589 3552 5203 4051 5690 4531 
L 4998 5190 
C 4582 4685 3853 4045 3194 3635 
C 2483 3200 1542 2784 397 2490 
z
" transform="scale(0.015625)"/>
      <path id="NotoSansCJKjp-Bold-30ba" d="M 5722 5549 
L 5216 5338 
C 5389 5101 5600 4723 5734 4461 
L 6240 4678 
C 6125 4902 5894 5306 5722 5549 
z
M 5210 4186 
L 5062 4294 
L 5427 4448 
C 5318 4672 5082 5082 4915 5325 
L 4410 5114 
C 4525 4941 4653 4717 4762 4512 
L 4685 4570 
C 4557 4525 4301 4493 4026 4493 
C 3738 4493 2099 4493 1766 4493 
C 1574 4493 1184 4512 1011 4538 
L 1011 3629 
C 1146 3635 1498 3674 1766 3674 
C 2042 3674 3674 3674 3936 3674 
C 3795 3219 3405 2586 2982 2106 
C 2381 1434 1389 653 358 269 
L 1018 -422 
C 1894 -13 2746 659 3424 1370 
C 4026 794 4621 134 5037 -442 
L 5766 198 
C 5389 659 4614 1478 3981 2029 
C 4410 2605 4768 3283 4986 3782 
C 5043 3917 5158 4109 5210 4186 
z
" transform="scale(0.015625)"/>
     </defs>
     <use xlink:href="#NotoSansCJKjp-Bold-30de"/>
     <use xlink:href="#NotoSansCJKjp-Bold-30c3" transform="translate(99.999985 0)"/>
     <use xlink:href="#NotoSansCJKjp-Bold-30d7" transform="translate(199.999969 0)"/>
     <use xlink:href="#NotoSansCJKjp-Bold-30b5" transform="translate(299.999954 0)"/>
     <use xlink:href="#NotoSansCJKjp-Bold-30a4" transform="translate(399.999939 0)"/>
     <use xlink:href="#NotoSansCJKjp-Bold-30ba" transform="translate(499.999924 0)"/>
    </g>
   </g>
   <g id="text_2">
    <g id="patch_3">
     <path d="M 93.034844 87.577828 
L 130.885156 87.577828 
Q 136.385156 87.577828 136.385156 82.077828 
L 136.385156 57.746172 
Q 136.385156 52.246172 130.885156 52.246172 
L 93.034844 52.246172 
Q 87.534844 52.246172 87.534844 57.746172 
L 87.534844 82.077828 
Q 87.534844 87.577828 93.034844 87.577828 
z
" style="fill: #d0d0ff; stroke: #000000; stroke-width: 1.5; stroke-linejoin: miter"/>
    </g>
    <!-- 単純 -->
    <g transform="translate(100.96 66.523828) scale(0.11 -0.11)">
     <defs>
      <path id="NotoSansCJKjp-Bold-5358" d="M 1626 2675 
L 2790 2675 
L 2790 2240 
L 1626 2240 
L 1626 2675 
z
M 3584 2675 
L 4800 2675 
L 4800 2240 
L 3584 2240 
L 3584 2675 
z
M 1626 3693 
L 2790 3693 
L 2790 3258 
L 1626 3258 
L 1626 3693 
z
M 3584 3693 
L 4800 3693 
L 4800 3258 
L 3584 3258 
L 3584 3693 
z
M 4832 5440 
C 4698 5088 4442 4634 4224 4320 
L 3238 4320 
L 3706 4506 
C 3597 4774 3354 5171 3136 5466 
L 2451 5203 
C 2637 4928 2835 4582 2931 4320 
L 1798 4320 
L 2189 4506 
C 2061 4762 1779 5139 1542 5408 
L 877 5107 
C 1069 4877 1280 4563 1414 4320 
L 877 4320 
L 877 1606 
L 2790 1606 
L 2790 1190 
L 307 1190 
L 307 480 
L 2790 480 
L 2790 -570 
L 3584 -570 
L 3584 480 
L 6112 480 
L 6112 1190 
L 3584 1190 
L 3584 1606 
L 5594 1606 
L 5594 4320 
L 5088 4320 
C 5280 4576 5491 4883 5683 5190 
L 4832 5440 
z
" transform="scale(0.015625)"/>
      <path id="NotoSansCJKjp-Bold-7d14" d="M 1837 1555 
C 1984 1178 2144 678 2208 358 
L 2778 563 
C 2701 883 2534 1357 2374 1728 
L 1837 1555 
z
M 442 1677 
C 384 1133 282 557 102 179 
C 262 122 550 -13 685 -102 
C 864 307 1011 954 1075 1562 
L 442 1677 
z
M 5536 5030 
C 5312 4947 5043 4877 4749 4813 
L 4749 5427 
L 4026 5427 
L 4026 4678 
C 3546 4608 3040 4550 2560 4512 
C 2643 4352 2739 4077 2765 3904 
C 3168 3930 3597 3962 4026 4019 
L 4026 1901 
L 3552 1901 
L 3552 3590 
L 2867 3590 
L 2867 858 
L 3552 858 
L 3552 1210 
L 4026 1210 
L 4026 486 
C 4026 -83 4102 -224 4250 -346 
C 4390 -461 4608 -506 4787 -506 
C 4922 -506 5197 -506 5338 -506 
C 5491 -506 5677 -486 5798 -442 
C 5952 -384 6042 -301 6106 -160 
C 6170 -26 6214 256 6227 512 
C 5990 582 5734 717 5568 851 
C 5562 608 5542 403 5530 320 
C 5510 230 5466 198 5427 186 
C 5389 173 5325 166 5261 166 
C 5178 166 5030 166 4966 166 
C 4902 166 4851 173 4813 198 
C 4762 230 4749 326 4749 467 
L 4749 1210 
L 5235 1210 
L 5235 960 
L 5926 960 
L 5926 3590 
L 5235 3590 
L 5235 1901 
L 4749 1901 
L 4749 4122 
C 5235 4211 5696 4320 6086 4454 
L 5536 5030 
z
M 160 2618 
L 224 1946 
L 1158 2010 
L 1158 -576 
L 1830 -576 
L 1830 2054 
L 2150 2074 
C 2182 1958 2208 1850 2227 1754 
L 2771 1997 
C 2701 2362 2458 2925 2208 3354 
L 1702 3149 
C 1779 3008 1856 2848 1926 2682 
L 1306 2656 
C 1715 3181 2157 3827 2515 4390 
L 1888 4672 
C 1734 4358 1536 3994 1312 3635 
C 1248 3718 1178 3802 1101 3891 
C 1325 4243 1587 4742 1818 5184 
L 1152 5434 
C 1043 5094 864 4666 685 4307 
L 538 4442 
L 166 3917 
C 435 3661 736 3322 928 3046 
L 627 2630 
L 160 2618 
z
" transform="scale(0.015625)"/>
     </defs>
     <use xlink:href="#NotoSansCJKjp-Bold-5358"/>
     <use xlink:href="#NotoSansCJKjp-Bold-7d14" transform="translate(99.999985 0)"/>
    </g>
    <!-- (&lt;0.15) -->
    <g transform="translate(93.034844 79.712828) scale(0.11 -0.11)">
     <defs>
      <path id="NotoSansCJKjp-Bold-28" d="M 1504 -1293 
L 2086 -1043 
C 1549 -109 1306 966 1306 2016 
C 1306 3066 1549 4147 2086 5082 
L 1504 5331 
C 896 4339 544 3296 544 2016 
C 544 736 896 -307 1504 -1293 
z
" transform="scale(0.015625)"/>
      <path id="NotoSansCJKjp-Bold-3c" d="M 3526 806 
L 3526 1587 
L 2182 2048 
L 1197 2400 
L 1197 2426 
L 2182 2778 
L 3526 3232 
L 3526 4013 
L 250 2746 
L 250 2080 
L 3526 806 
z
" transform="scale(0.015625)"/>
      <path id="NotoSansCJKjp-Bold-30" d="M 1888 -90 
C 2854 -90 3494 755 3494 2394 
C 3494 4019 2854 4826 1888 4826 
C 922 4826 282 4026 282 2394 
C 282 755 922 -90 1888 -90 
z
M 1888 646 
C 1478 646 1171 1056 1171 2394 
C 1171 3712 1478 4102 1888 4102 
C 2298 4102 2598 3712 2598 2394 
C 2598 1056 2298 646 1888 646 
z
" transform="scale(0.015625)"/>
      <path id="NotoSansCJKjp-Bold-2e" d="M 1043 -90 
C 1376 -90 1626 179 1626 525 
C 1626 877 1376 1139 1043 1139 
C 704 1139 454 877 454 525 
C 454 179 704 -90 1043 -90 
z
" transform="scale(0.015625)"/>
      <path id="NotoSansCJKjp-Bold-31" d="M 525 0 
L 3373 0 
L 3373 768 
L 2483 768 
L 2483 4742 
L 1786 4742 
C 1485 4550 1165 4429 685 4346 
L 685 3757 
L 1549 3757 
L 1549 768 
L 525 768 
L 525 0 
z
" transform="scale(0.015625)"/>
      <path id="NotoSansCJKjp-Bold-35" d="M 1773 -90 
C 2637 -90 3424 518 3424 1574 
C 3424 2605 2765 3072 1965 3072 
C 1747 3072 1581 3034 1395 2944 
L 1485 3949 
L 3206 3949 
L 3206 4742 
L 672 4742 
L 544 2438 
L 973 2163 
C 1254 2342 1408 2406 1683 2406 
C 2157 2406 2483 2099 2483 1549 
C 2483 992 2138 678 1645 678 
C 1210 678 870 896 602 1158 
L 166 557 
C 525 205 1018 -90 1773 -90 
z
" transform="scale(0.015625)"/>
      <path id="NotoSansCJKjp-Bold-29" d="M 915 -1293 
C 1523 -307 1875 736 1875 2016 
C 1875 3296 1523 4339 915 5331 
L 333 5082 
C 870 4147 1114 3066 1114 2016 
C 1114 966 870 -109 333 -1043 
L 915 -1293 
z
" transform="scale(0.015625)"/>
     </defs>
     <use xlink:href="#NotoSansCJKjp-Bold-28"/>
     <use xlink:href="#NotoSansCJKjp-Bold-3c" transform="translate(37.799988 0)"/>
     <use xlink:href="#NotoSansCJKjp-Bold-30" transform="translate(96.799973 0)"/>
     <use xlink:href="#NotoSansCJKjp-Bold-2e" transform="translate(155.799957 0)"/>
     <use xlink:href="#NotoSansCJKjp-Bold-31" transform="translate(188.299942 0)"/>
     <use xlink:href="#NotoSansCJKjp-Bold-35" transform="translate(247.299927 0)"/>
     <use xlink:href="#NotoSansCJKjp-Bold-29" transform="translate(306.299911 0)"/>
    </g>
   </g>
   <g id="text_3">
    <g id="patch_4">
     <path d="M 257.322344 87.577828 
L 315.797656 87.577828 
Q 321.297656 87.577828 321.297656 82.077828 
L 321.297656 57.746172 
Q 321.297656 52.246172 315.797656 52.246172 
L 257.322344 52.246172 
Q 251.822344 52.246172 251.822344 57.746172 
L 251.822344 82.077828 
Q 251.822344 87.577828 257.322344 87.577828 
z
" style="fill: #d0d0ff; stroke: #000000; stroke-width: 1.5; stroke-linejoin: miter"/>
    </g>
    <!-- 中程度 -->
    <g transform="translate(270.06 66.523828) scale(0.11 -0.11)">
     <defs>
      <path id="NotoSansCJKjp-Bold-4e2d" d="M 2778 5440 
L 2778 4326 
L 563 4326 
L 563 1082 
L 1331 1082 
L 1331 1434 
L 2778 1434 
L 2778 -570 
L 3590 -570 
L 3590 1434 
L 5043 1434 
L 5043 1114 
L 5850 1114 
L 5850 4326 
L 3590 4326 
L 3590 5440 
L 2778 5440 
z
M 1331 2189 
L 1331 3571 
L 2778 3571 
L 2778 2189 
L 1331 2189 
z
M 5043 2189 
L 3590 2189 
L 3590 3571 
L 5043 3571 
L 5043 2189 
z
" transform="scale(0.015625)"/>
      <path id="NotoSansCJKjp-Bold-7a0b" d="M 3648 4550 
L 5146 4550 
L 5146 3667 
L 3648 3667 
L 3648 4550 
z
M 2938 5197 
L 2938 3021 
L 5888 3021 
L 5888 5197 
L 2938 5197 
z
M 2886 1446 
L 2886 800 
L 4006 800 
L 4006 237 
L 2483 237 
L 2483 -435 
L 6202 -435 
L 6202 237 
L 4774 237 
L 4774 800 
L 5907 800 
L 5907 1446 
L 4774 1446 
L 4774 1978 
L 6061 1978 
L 6061 2637 
L 2733 2637 
L 2733 1978 
L 4006 1978 
L 4006 1446 
L 2886 1446 
z
M 2176 5370 
C 1683 5152 896 4960 186 4845 
C 269 4685 365 4429 403 4256 
C 653 4288 915 4333 1184 4378 
L 1184 3635 
L 262 3635 
L 262 2925 
L 1082 2925 
C 851 2304 486 1613 128 1197 
C 250 1005 416 685 486 467 
C 736 787 979 1242 1184 1734 
L 1184 -570 
L 1926 -570 
L 1926 1939 
C 2080 1702 2234 1453 2310 1286 
L 2752 1894 
C 2630 2035 2099 2592 1926 2733 
L 1926 2925 
L 2611 2925 
L 2611 3635 
L 1926 3635 
L 1926 4544 
C 2202 4608 2464 4691 2694 4781 
L 2176 5370 
z
" transform="scale(0.015625)"/>
      <path id="NotoSansCJKjp-Bold-5ea6" d="M 2470 4058 
L 2470 3635 
L 1606 3635 
L 1606 3034 
L 2470 3034 
L 2470 2029 
L 5120 2029 
L 5120 3034 
L 6048 3034 
L 6048 3635 
L 5120 3635 
L 5120 4058 
L 4371 4058 
L 4371 3635 
L 3194 3635 
L 3194 4058 
L 2470 4058 
z
M 4371 3034 
L 4371 2605 
L 3194 2605 
L 3194 3034 
L 4371 3034 
z
M 4602 1171 
C 4390 960 4128 787 3834 640 
C 3533 787 3277 966 3078 1171 
L 4602 1171 
z
M 1651 1773 
L 1651 1171 
L 2611 1171 
L 2310 1062 
C 2515 787 2765 550 3046 346 
C 2541 198 1971 109 1376 58 
C 1491 -102 1638 -397 1696 -589 
C 2458 -493 3174 -339 3802 -90 
C 4365 -339 5024 -506 5760 -595 
C 5856 -397 6054 -96 6214 64 
C 5638 115 5101 205 4634 339 
C 5094 646 5472 1043 5734 1555 
L 5254 1798 
L 5120 1773 
L 1651 1773 
z
M 710 4858 
L 710 3059 
C 710 2118 666 781 134 -134 
C 307 -211 634 -429 762 -557 
C 1350 442 1446 2016 1446 3059 
L 1446 4173 
L 6086 4173 
L 6086 4858 
L 3802 4858 
L 3802 5440 
L 3002 5440 
L 3002 4858 
L 710 4858 
z
" transform="scale(0.015625)"/>
     </defs>
     <use xlink:href="#NotoSansCJKjp-Bold-4e2d"/>
     <use xlink:href="#NotoSansCJKjp-Bold-7a0b" transform="translate(99.999985 0)"/>
     <use xlink:href="#NotoSansCJKjp-Bold-5ea6" transform="translate(199.999969 0)"/>
    </g>
    <!-- (0.15-0.55) -->
    <g transform="translate(257.322344 79.712828) scale(0.11 -0.11)">
     <defs>
      <path id="NotoSansCJKjp-Bold-2d" d="M 314 1491 
L 2061 1491 
L 2061 2170 
L 314 2170 
L 314 1491 
z
" transform="scale(0.015625)"/>
     </defs>
     <use xlink:href="#NotoSansCJKjp-Bold-28"/>
     <use xlink:href="#NotoSansCJKjp-Bold-30" transform="translate(37.799988 0)"/>
     <use xlink:href="#NotoSansCJKjp-Bold-2e" transform="translate(96.799973 0)"/>
     <use xlink:href="#NotoSansCJKjp-Bold-31" transform="translate(129.299957 0)"/>
     <use xlink:href="#NotoSansCJKjp-Bold-35" transform="translate(188.299942 0)"/>
     <use xlink:href="#NotoSansCJKjp-Bold-2d" transform="translate(247.299927 0)"/>
     <use xlink:href="#NotoSansCJKjp-Bold-30" transform="translate(284.299911 0)"/>
     <use xlink:href="#NotoSansCJKjp-Bold-2e" transform="translate(343.299896 0)"/>
     <use xlink:href="#NotoSansCJKjp-Bold-35" transform="translate(375.799881 0)"/>
     <use xlink:href="#NotoSansCJKjp-Bold-35" transform="translate(434.799866 0)"/>
     <use xlink:href="#NotoSansCJKjp-Bold-29" transform="translate(493.79985 0)"/>
    </g>
   </g>
   <g id="text_4">
    <g id="patch_5">
     <path d="M 439.979844 87.577828 
L 482.340156 87.577828 
Q 487.840156 87.577828 487.840156 82.077828 
L 487.840156 57.746172 
Q 487.840156 52.246172 482.340156 52.246172 
L 439.979844 52.246172 
Q 434.479844 52.246172 434.479844 57.746172 
L 434.479844 82.077828 
Q 434.479844 87.577828 439.979844 87.577828 
z
" style="fill: #d0d0ff; stroke: #000000; stroke-width: 1.5; stroke-linejoin: miter"/>
    </g>
    <!-- 複雑 -->
    <g transform="translate(450.16 66.523828) scale(0.11 -0.11)">
     <defs>
      <path id="NotoSansCJKjp-Bold-8907" d="M 3642 2778 
L 5050 2778 
L 5050 2515 
L 3642 2515 
L 3642 2778 
z
M 3642 3482 
L 5050 3482 
L 5050 3219 
L 3642 3219 
L 3642 3482 
z
M 4787 1184 
C 4653 1024 4486 883 4294 755 
C 4102 883 3936 1024 3795 1184 
L 4787 1184 
z
M 2266 3059 
C 2189 2880 2054 2643 1926 2445 
L 1766 2643 
C 1984 3027 2170 3437 2310 3853 
C 2470 3750 2656 3584 2758 3462 
L 2944 3661 
L 2944 2042 
L 3597 2042 
C 3309 1683 2867 1318 2259 1043 
C 2413 941 2643 698 2746 538 
C 2931 634 3098 736 3258 845 
C 3373 698 3501 557 3642 429 
C 3213 256 2714 141 2182 70 
C 2310 -70 2496 -397 2566 -582 
C 3187 -467 3770 -294 4282 -32 
C 4723 -288 5248 -467 5837 -576 
C 5939 -371 6144 -64 6310 96 
C 5818 160 5363 262 4973 416 
C 5331 710 5619 1069 5824 1510 
L 5370 1766 
L 5242 1747 
L 4224 1747 
C 4301 1843 4371 1939 4435 2042 
L 5786 2042 
L 5786 3955 
L 3181 3955 
L 3379 4237 
L 6138 4237 
L 6138 4864 
L 3731 4864 
C 3808 5018 3872 5165 3936 5318 
L 3226 5440 
C 3066 4998 2778 4474 2362 4045 
L 1984 4288 
L 1862 4262 
L 1670 4262 
L 1670 5402 
L 979 5402 
L 979 4262 
L 294 4262 
L 294 3597 
L 1536 3597 
C 1210 2816 659 2048 102 1606 
C 218 1478 397 1120 454 928 
C 634 1088 813 1280 992 1491 
L 992 -576 
L 1677 -576 
L 1677 1869 
C 1837 1613 1997 1350 2086 1171 
L 2515 1677 
L 2214 2074 
C 2362 2266 2528 2509 2694 2746 
L 2266 3059 
z
" transform="scale(0.015625)"/>
      <path id="NotoSansCJKjp-Bold-96d1" d="M 1056 5440 
L 1056 4845 
L 1056 4794 
L 346 4794 
L 346 4134 
L 986 4134 
C 890 3699 659 3251 115 2886 
C 275 2790 512 2573 621 2432 
C 1306 2918 1562 3539 1651 4134 
L 2003 4134 
L 2003 3334 
C 2003 2963 2042 2835 2131 2733 
C 2227 2643 2381 2598 2515 2598 
C 2592 2598 2707 2598 2790 2598 
C 2880 2598 3002 2618 3072 2656 
C 3155 2694 3219 2752 3258 2835 
C 3302 2912 3328 3091 3347 3264 
C 3194 3309 3014 3405 2906 3494 
C 2899 3366 2893 3270 2880 3219 
C 2867 3181 2848 3155 2835 3142 
C 2822 3136 2797 3130 2771 3130 
C 2752 3130 2720 3130 2694 3130 
C 2669 3130 2656 3142 2643 3162 
C 2630 3181 2630 3238 2630 3341 
L 2630 4794 
L 1696 4794 
L 1696 4826 
L 1696 5440 
L 1056 5440 
z
M 1376 2803 
L 1376 2182 
L 288 2182 
L 288 1536 
L 1222 1536 
C 922 1050 493 570 96 307 
C 237 154 410 -128 499 -314 
C 794 -64 1101 275 1376 646 
L 1376 -557 
L 2074 -557 
L 2074 691 
C 2323 461 2579 198 2726 26 
L 3142 621 
C 2982 755 2349 1235 2074 1421 
L 2074 1536 
L 3085 1536 
L 3085 2182 
L 2074 2182 
L 2074 2803 
L 1376 2803 
z
M 4051 2502 
L 4659 2502 
L 4659 1862 
L 4051 1862 
L 4051 2502 
z
M 4051 3142 
L 4051 3757 
L 4659 3757 
L 4659 3142 
L 4051 3142 
z
M 5050 5408 
C 4979 5120 4845 4749 4710 4442 
L 4070 4442 
C 4211 4710 4339 4998 4442 5280 
L 3750 5466 
C 3533 4819 3149 4160 2714 3744 
C 2886 3654 3181 3456 3315 3334 
L 3347 3373 
L 3347 -563 
L 4051 -563 
L 4051 -282 
L 6214 -282 
L 6214 416 
L 5363 416 
L 5363 1222 
L 6054 1222 
L 6054 1862 
L 5363 1862 
L 5363 2502 
L 6048 2502 
L 6048 3142 
L 5363 3142 
L 5363 3757 
L 6144 3757 
L 6144 4442 
L 5453 4442 
C 5568 4685 5690 4960 5805 5229 
L 5050 5408 
z
M 4051 1222 
L 4659 1222 
L 4659 416 
L 4051 416 
L 4051 1222 
z
" transform="scale(0.015625)"/>
     </defs>
     <use xlink:href="#NotoSansCJKjp-Bold-8907"/>
     <use xlink:href="#NotoSansCJKjp-Bold-96d1" transform="translate(99.999985 0)"/>
    </g>
    <!-- (≥0.55) -->
    <g transform="translate(439.979844 79.712828) scale(0.11 -0.11)">
     <defs>
      <path id="NotoSansCJKjp-Bold-2265" d="M 826 544 
L 826 -58 
L 5574 -58 
L 5574 544 
L 826 544 
z
M 4064 3034 
L 787 1715 
L 1037 1107 
L 5786 3034 
L 5786 3053 
L 1037 4979 
L 787 4371 
L 4064 3053 
L 4064 3034 
z
" transform="scale(0.015625)"/>
     </defs>
     <use xlink:href="#NotoSansCJKjp-Bold-28"/>
     <use xlink:href="#NotoSansCJKjp-Bold-2265" transform="translate(37.799988 0)"/>
     <use xlink:href="#NotoSansCJKjp-Bold-30" transform="translate(137.799973 0)"/>
     <use xlink:href="#NotoSansCJKjp-Bold-2e" transform="translate(196.799957 0)"/>
     <use xlink:href="#NotoSansCJKjp-Bold-35" transform="translate(229.299942 0)"/>
     <use xlink:href="#NotoSansCJKjp-Bold-35" transform="translate(288.299927 0)"/>
     <use xlink:href="#NotoSansCJKjp-Bold-29" transform="translate(347.299911 0)"/>
    </g>
   </g>
   <g id="text_5">
    <g id="patch_6">
     <path d="M 28.148 145.465828 
L 84.028 145.465828 
Q 89.528 145.465828 89.528 139.965828 
L 89.528 115.634172 
Q 89.528 110.134172 84.028 110.134172 
L 28.148 110.134172 
Q 22.648 110.134172 22.648 115.634172 
L 22.648 139.965828 
Q 22.648 145.465828 28.148 145.465828 
z
" style="fill: #ffd0d0; stroke: #000000; stroke-width: 1.5; stroke-linejoin: miter"/>
    </g>
    <!-- Small -->
    <g transform="translate(40.638156 124.411828) scale(0.11 -0.11)">
     <defs>
      <path id="NotoSansCJKjp-Bold-53" d="M 1997 -90 
C 3091 -90 3738 570 3738 1344 
C 3738 2029 3360 2400 2784 2637 
L 2163 2886 
C 1760 3053 1427 3174 1427 3514 
C 1427 3827 1683 4013 2099 4013 
C 2496 4013 2810 3866 3110 3622 
L 3590 4211 
C 3206 4602 2656 4826 2099 4826 
C 1146 4826 461 4224 461 3456 
C 461 2765 947 2381 1427 2189 
L 2054 1914 
C 2477 1734 2771 1626 2771 1274 
C 2771 941 2509 730 2016 730 
C 1600 730 1146 941 813 1254 
L 269 602 
C 730 154 1363 -90 1997 -90 
z
" transform="scale(0.015625)"/>
      <path id="NotoSansCJKjp-Bold-6d" d="M 506 0 
L 1446 0 
L 1446 2464 
C 1696 2739 1926 2867 2131 2867 
C 2477 2867 2637 2675 2637 2118 
L 2637 0 
L 3571 0 
L 3571 2464 
C 3827 2739 4058 2867 4262 2867 
C 4602 2867 4762 2675 4762 2118 
L 4762 0 
L 5696 0 
L 5696 2234 
C 5696 3136 5350 3674 4589 3674 
C 4128 3674 3776 3392 3443 3046 
C 3277 3443 2976 3674 2464 3674 
C 1997 3674 1664 3418 1363 3104 
L 1344 3104 
L 1274 3584 
L 506 3584 
L 506 0 
z
" transform="scale(0.015625)"/>
      <path id="NotoSansCJKjp-Bold-61" d="M 1382 -90 
C 1798 -90 2157 109 2464 384 
L 2496 384 
L 2560 0 
L 3328 0 
L 3328 2093 
C 3328 3130 2861 3674 1952 3674 
C 1389 3674 877 3456 461 3200 
L 794 2573 
C 1126 2771 1446 2918 1779 2918 
C 2221 2918 2374 2650 2387 2298 
C 947 2144 326 1741 326 979 
C 326 365 742 -90 1382 -90 
z
M 1696 646 
C 1421 646 1222 768 1222 1050 
C 1222 1376 1510 1613 2387 1715 
L 2387 998 
C 2163 774 1965 646 1696 646 
z
" transform="scale(0.015625)"/>
      <path id="NotoSansCJKjp-Bold-6c" d="M 1395 -90 
C 1613 -90 1766 -51 1875 -6 
L 1760 691 
C 1696 678 1670 678 1632 678 
C 1542 678 1446 749 1446 966 
L 1446 5107 
L 506 5107 
L 506 1005 
C 506 339 736 -90 1395 -90 
z
" transform="scale(0.015625)"/>
     </defs>
     <use xlink:href="#NotoSansCJKjp-Bold-53"/>
     <use xlink:href="#NotoSansCJKjp-Bold-6d" transform="translate(62.399994 0)"/>
     <use xlink:href="#NotoSansCJKjp-Bold-61" transform="translate(158.799988 0)"/>
     <use xlink:href="#NotoSansCJKjp-Bold-6c" transform="translate(217.899979 0)"/>
     <use xlink:href="#NotoSansCJKjp-Bold-6c" transform="translate(249.399963 0)"/>
    </g>
    <!-- (20×20m) -->
    <g transform="translate(28.148 137.600828) scale(0.11 -0.11)">
     <defs>
      <path id="NotoSansCJKjp-Bold-32" d="M 275 0 
L 3450 0 
L 3450 794 
L 2426 794 
C 2202 794 1888 768 1645 736 
C 2509 1587 3226 2509 3226 3366 
C 3226 4250 2630 4826 1734 4826 
C 1088 4826 666 4576 224 4102 
L 749 3597 
C 986 3859 1267 4083 1613 4083 
C 2067 4083 2323 3789 2323 3322 
C 2323 2586 1568 1696 275 544 
L 275 0 
z
" transform="scale(0.015625)"/>
      <path id="NotoSansCJKjp-Bold-d7" d="M 4851 326 
L 5312 787 
L 3667 2432 
L 5312 4077 
L 4851 4538 
L 3206 2893 
L 1562 4538 
L 1101 4077 
L 2746 2432 
L 1101 787 
L 1562 326 
L 3206 1971 
L 4851 326 
z
" transform="scale(0.015625)"/>
     </defs>
     <use xlink:href="#NotoSansCJKjp-Bold-28"/>
     <use xlink:href="#NotoSansCJKjp-Bold-32" transform="translate(37.799988 0)"/>
     <use xlink:href="#NotoSansCJKjp-Bold-30" transform="translate(96.799973 0)"/>
     <use xlink:href="#NotoSansCJKjp-Bold-d7" transform="translate(155.799957 0)"/>
     <use xlink:href="#NotoSansCJKjp-Bold-32" transform="translate(255.799942 0)"/>
     <use xlink:href="#NotoSansCJKjp-Bold-30" transform="translate(314.799927 0)"/>
     <use xlink:href="#NotoSansCJKjp-Bold-6d" transform="translate(373.799911 0)"/>
     <use xlink:href="#NotoSansCJKjp-Bold-29" transform="translate(470.199905 0)"/>
    </g>
   </g>
   <g id="text_6">
    <g id="patch_7">
     <path d="M 28.148 203.353828 
L 84.028 203.353828 
Q 89.528 203.353828 89.528 197.853828 
L 89.528 173.522172 
Q 89.528 168.022172 84.028 168.022172 
L 28.148 168.022172 
Q 22.648 168.022172 22.648 173.522172 
L 22.648 197.853828 
Q 22.648 203.353828 28.148 203.353828 
z
" style="fill: #ffd0d0; stroke: #000000; stroke-width: 1.5; stroke-linejoin: miter"/>
    </g>
    <!-- Medium -->
    <g transform="translate(34.180812 182.299828) scale(0.11 -0.11)">
     <defs>
      <path id="NotoSansCJKjp-Bold-4d" d="M 582 0 
L 1434 0 
L 1434 1978 
C 1434 2432 1357 3085 1312 3533 
L 1338 3533 
L 1715 2419 
L 2451 429 
L 2995 429 
L 3725 2419 
L 4109 3533 
L 4141 3533 
C 4090 3085 4019 2432 4019 1978 
L 4019 0 
L 4883 0 
L 4883 4742 
L 3834 4742 
L 3040 2515 
C 2944 2227 2861 1914 2758 1613 
L 2726 1613 
C 2630 1914 2541 2227 2438 2515 
L 1632 4742 
L 582 4742 
L 582 0 
z
" transform="scale(0.015625)"/>
      <path id="NotoSansCJKjp-Bold-65" d="M 2067 -90 
C 2509 -90 2963 64 3315 307 
L 2995 883 
C 2733 723 2483 640 2195 640 
C 1658 640 1274 941 1197 1523 
L 3405 1523 
C 3430 1613 3450 1786 3450 1958 
C 3450 2957 2938 3674 1952 3674 
C 1101 3674 282 2950 282 1792 
C 282 608 1062 -90 2067 -90 
z
M 1178 2157 
C 1254 2675 1587 2944 1965 2944 
C 2432 2944 2643 2637 2643 2157 
L 1178 2157 
z
" transform="scale(0.015625)"/>
      <path id="NotoSansCJKjp-Bold-64" d="M 1766 -90 
C 2138 -90 2496 109 2758 371 
L 2784 371 
L 2854 0 
L 3622 0 
L 3622 5107 
L 2682 5107 
L 2682 3846 
L 2714 3283 
C 2458 3520 2208 3674 1805 3674 
C 1037 3674 301 2957 301 1792 
C 301 614 870 -90 1766 -90 
z
M 2010 685 
C 1536 685 1267 1056 1267 1805 
C 1267 2515 1606 2899 2010 2899 
C 2240 2899 2464 2829 2682 2630 
L 2682 1056 
C 2477 787 2259 685 2010 685 
z
" transform="scale(0.015625)"/>
      <path id="NotoSansCJKjp-Bold-69" d="M 506 0 
L 1446 0 
L 1446 3584 
L 506 3584 
L 506 0 
z
M 979 4166 
C 1299 4166 1523 4365 1523 4678 
C 1523 4986 1299 5190 979 5190 
C 646 5190 435 4986 435 4678 
C 435 4365 646 4166 979 4166 
z
" transform="scale(0.015625)"/>
      <path id="NotoSansCJKjp-Bold-75" d="M 1574 -90 
C 2067 -90 2406 154 2714 518 
L 2739 518 
L 2810 0 
L 3578 0 
L 3578 3584 
L 2637 3584 
L 2637 1165 
C 2394 845 2202 717 1914 717 
C 1562 717 1402 909 1402 1466 
L 1402 3584 
L 467 3584 
L 467 1350 
C 467 448 800 -90 1574 -90 
z
" transform="scale(0.015625)"/>
     </defs>
     <use xlink:href="#NotoSansCJKjp-Bold-4d"/>
     <use xlink:href="#NotoSansCJKjp-Bold-65" transform="translate(85.299988 0)"/>
     <use xlink:href="#NotoSansCJKjp-Bold-64" transform="translate(143.399979 0)"/>
     <use xlink:href="#NotoSansCJKjp-Bold-69" transform="translate(207.799973 0)"/>
     <use xlink:href="#NotoSansCJKjp-Bold-75" transform="translate(238.199966 0)"/>
     <use xlink:href="#NotoSansCJKjp-Bold-6d" transform="translate(301.899963 0)"/>
    </g>
    <!-- (50×50m) -->
    <g transform="translate(28.148 195.488828) scale(0.11 -0.11)">
     <use xlink:href="#NotoSansCJKjp-Bold-28"/>
     <use xlink:href="#NotoSansCJKjp-Bold-35" transform="translate(37.799988 0)"/>
     <use xlink:href="#NotoSansCJKjp-Bold-30" transform="translate(96.799973 0)"/>
     <use xlink:href="#NotoSansCJKjp-Bold-d7" transform="translate(155.799957 0)"/>
     <use xlink:href="#NotoSansCJKjp-Bold-35" transform="translate(255.799942 0)"/>
     <use xlink:href="#NotoSansCJKjp-Bold-30" transform="translate(314.799927 0)"/>
     <use xlink:href="#NotoSansCJKjp-Bold-6d" transform="translate(373.799911 0)"/>
     <use xlink:href="#NotoSansCJKjp-Bold-29" transform="translate(470.199905 0)"/>
    </g>
   </g>
   <g id="text_7">
    <g id="patch_8">
     <path d="M 21.658 261.241828 
L 90.518 261.241828 
Q 96.018 261.241828 96.018 255.741828 
L 96.018 231.102516 
Q 96.018 225.602516 90.518 225.602516 
L 21.658 225.602516 
Q 16.158 225.602516 16.158 231.102516 
L 16.158 255.741828 
Q 16.158 261.241828 21.658 261.241828 
z
" style="fill: #ffd0d0; stroke: #000000; stroke-width: 1.5; stroke-linejoin: miter"/>
    </g>
    <!-- Large -->
    <g transform="translate(40.782531 239.880172) scale(0.11 -0.11)">
     <defs>
      <path id="NotoSansCJKjp-Bold-4c" d="M 582 0 
L 3456 0 
L 3456 794 
L 1530 794 
L 1530 4742 
L 582 4742 
L 582 0 
z
" transform="scale(0.015625)"/>
      <path id="NotoSansCJKjp-Bold-72" d="M 506 0 
L 1446 0 
L 1446 2138 
C 1651 2656 1984 2842 2259 2842 
C 2413 2842 2515 2822 2643 2784 
L 2797 3597 
C 2694 3642 2579 3674 2381 3674 
C 2010 3674 1626 3418 1363 2950 
L 1344 2950 
L 1274 3584 
L 506 3584 
L 506 0 
z
" transform="scale(0.015625)"/>
      <path id="NotoSansCJKjp-Bold-67" d="M 1766 -1555 
C 2963 -1555 3718 -1005 3718 -282 
C 3718 346 3245 614 2381 614 
L 1766 614 
C 1350 614 1203 717 1203 902 
C 1203 1056 1267 1133 1357 1216 
C 1517 1158 1683 1133 1818 1133 
C 2592 1133 3206 1536 3206 2349 
C 3206 2573 3136 2771 3046 2893 
L 3654 2893 
L 3654 3584 
L 2368 3584 
C 2214 3635 2029 3674 1818 3674 
C 1062 3674 378 3219 378 2381 
C 378 1958 608 1619 858 1440 
L 858 1414 
C 640 1261 461 1011 461 749 
C 461 448 595 262 787 141 
L 787 109 
C 448 -77 275 -333 275 -634 
C 275 -1267 922 -1555 1766 -1555 
z
M 1818 1715 
C 1510 1715 1261 1952 1261 2381 
C 1261 2797 1504 3027 1818 3027 
C 2138 3027 2387 2797 2387 2381 
C 2387 1952 2138 1715 1818 1715 
z
M 1907 -954 
C 1389 -954 1056 -787 1056 -493 
C 1056 -339 1126 -198 1286 -70 
C 1421 -102 1568 -115 1779 -115 
L 2221 -115 
C 2605 -115 2816 -186 2816 -442 
C 2816 -717 2451 -954 1907 -954 
z
" transform="scale(0.015625)"/>
     </defs>
     <use xlink:href="#NotoSansCJKjp-Bold-4c"/>
     <use xlink:href="#NotoSansCJKjp-Bold-61" transform="translate(57.799988 0)"/>
     <use xlink:href="#NotoSansCJKjp-Bold-72" transform="translate(116.899979 0)"/>
     <use xlink:href="#NotoSansCJKjp-Bold-67" transform="translate(160.499969 0)"/>
     <use xlink:href="#NotoSansCJKjp-Bold-65" transform="translate(220.199966 0)"/>
    </g>
    <!-- (100×100m) -->
    <g transform="translate(21.658 253.376828) scale(0.11 -0.11)">
     <use xlink:href="#NotoSansCJKjp-Bold-28"/>
     <use xlink:href="#NotoSansCJKjp-Bold-31" transform="translate(37.799988 0)"/>
     <use xlink:href="#NotoSansCJKjp-Bold-30" transform="translate(96.799973 0)"/>
     <use xlink:href="#NotoSansCJKjp-Bold-30" transform="translate(155.799957 0)"/>
     <use xlink:href="#NotoSansCJKjp-Bold-d7" transform="translate(214.799942 0)"/>
     <use xlink:href="#NotoSansCJKjp-Bold-31" transform="translate(314.799927 0)"/>
     <use xlink:href="#NotoSansCJKjp-Bold-30" transform="translate(373.799911 0)"/>
     <use xlink:href="#NotoSansCJKjp-Bold-30" transform="translate(432.799896 0)"/>
     <use xlink:href="#NotoSansCJKjp-Bold-6d" transform="translate(491.799881 0)"/>
     <use xlink:href="#NotoSansCJKjp-Bold-29" transform="translate(588.199875 0)"/>
    </g>
   </g>
   <g id="text_8">
    <g id="patch_9">
     <path d="M 104.29 144.784297 
L 119.63 144.784297 
Q 130.03 144.784297 130.03 134.384297 
L 130.03 121.215703 
Q 130.03 110.815703 119.63 110.815703 
L 104.29 110.815703 
Q 93.89 110.815703 93.89 121.215703 
L 93.89 134.384297 
Q 93.89 144.784297 104.29 144.784297 
z
" style="fill: #e6ffe6; stroke: #000000; stroke-linejoin: miter"/>
    </g>
    <!-- 11 -->
    <g transform="translate(104.29 131.589297) scale(0.13 -0.13)">
     <use xlink:href="#NotoSansCJKjp-Bold-31"/>
     <use xlink:href="#NotoSansCJKjp-Bold-31" transform="translate(58.999985 0)"/>
    </g>
   </g>
   <g id="text_9">
    <g id="patch_10">
     <path d="M 278.89 144.784297 
L 294.23 144.784297 
Q 304.63 144.784297 304.63 134.384297 
L 304.63 121.215703 
Q 304.63 110.815703 294.23 110.815703 
L 278.89 110.815703 
Q 268.49 110.815703 268.49 121.215703 
L 268.49 134.384297 
Q 268.49 144.784297 278.89 144.784297 
z
" style="fill: #ffffcc; stroke: #000000; stroke-linejoin: miter"/>
    </g>
    <!-- 11 -->
    <g transform="translate(278.89 131.589297) scale(0.13 -0.13)">
     <use xlink:href="#NotoSansCJKjp-Bold-31"/>
     <use xlink:href="#NotoSansCJKjp-Bold-31" transform="translate(58.999985 0)"/>
    </g>
   </g>
   <g id="text_10">
    <g id="patch_11">
     <path d="M 453.49 144.784297 
L 468.83 144.784297 
Q 479.23 144.784297 479.23 134.384297 
L 479.23 121.215703 
Q 479.23 110.815703 468.83 110.815703 
L 453.49 110.815703 
Q 443.09 110.815703 443.09 121.215703 
L 443.09 134.384297 
Q 443.09 144.784297 453.49 144.784297 
z
" style="fill: #ffffcc; stroke: #000000; stroke-linejoin: miter"/>
    </g>
    <!-- 10 -->
    <g transform="translate(453.49 131.589297) scale(0.13 -0.13)">
     <use xlink:href="#NotoSansCJKjp-Bold-31"/>
     <use xlink:href="#NotoSansCJKjp-Bold-30" transform="translate(58.999985 0)"/>
    </g>
   </g>
   <g id="text_11">
    <g id="patch_12">
     <path d="M 104.29 202.672297 
L 119.63 202.672297 
Q 130.03 202.672297 130.03 192.272297 
L 130.03 179.103703 
Q 130.03 168.703703 119.63 168.703703 
L 104.29 168.703703 
Q 93.89 168.703703 93.89 179.103703 
L 93.89 192.272297 
Q 93.89 202.672297 104.29 202.672297 
z
" style="fill: #ffffcc; stroke: #000000; stroke-linejoin: miter"/>
    </g>
    <!-- 11 -->
    <g transform="translate(104.29 189.477297) scale(0.13 -0.13)">
     <use xlink:href="#NotoSansCJKjp-Bold-31"/>
     <use xlink:href="#NotoSansCJKjp-Bold-31" transform="translate(58.999985 0)"/>
    </g>
   </g>
   <g id="text_12">
    <g id="patch_13">
     <path d="M 278.89 202.672297 
L 294.23 202.672297 
Q 304.63 202.672297 304.63 192.272297 
L 304.63 179.103703 
Q 304.63 168.703703 294.23 168.703703 
L 278.89 168.703703 
Q 268.49 168.703703 268.49 179.103703 
L 268.49 192.272297 
Q 268.49 202.672297 278.89 202.672297 
z
" style="fill: #ffffcc; stroke: #000000; stroke-linejoin: miter"/>
    </g>
    <!-- 11 -->
    <g transform="translate(278.89 189.477297) scale(0.13 -0.13)">
     <use xlink:href="#NotoSansCJKjp-Bold-31"/>
     <use xlink:href="#NotoSansCJKjp-Bold-31" transform="translate(58.999985 0)"/>
    </g>
   </g>
   <g id="text_13">
    <g id="patch_14">
     <path d="M 453.49 202.672297 
L 468.83 202.672297 
Q 479.23 202.672297 479.23 192.272297 
L 479.23 179.103703 
Q 479.23 168.703703 468.83 168.703703 
L 453.49 168.703703 
Q 443.09 168.703703 443.09 179.103703 
L 443.09 192.272297 
Q 443.09 202.672297 453.49 202.672297 
z
" style="fill: #ffffcc; stroke: #000000; stroke-linejoin: miter"/>
    </g>
    <!-- 10 -->
    <g transform="translate(453.49 189.477297) scale(0.13 -0.13)">
     <use xlink:href="#NotoSansCJKjp-Bold-31"/>
     <use xlink:href="#NotoSansCJKjp-Bold-30" transform="translate(58.999985 0)"/>
    </g>
   </g>
   <g id="text_14">
    <g id="patch_15">
     <path d="M 104.29 260.560297 
L 119.63 260.560297 
Q 130.03 260.560297 130.03 250.160297 
L 130.03 236.991703 
Q 130.03 226.591703 119.63 226.591703 
L 104.29 226.591703 
Q 93.89 226.591703 93.89 236.991703 
L 93.89 250.160297 
Q 93.89 260.560297 104.29 260.560297 
z
" style="fill: #ffffcc; stroke: #000000; stroke-linejoin: miter"/>
    </g>
    <!-- 10 -->
    <g transform="translate(104.29 247.365297) scale(0.13 -0.13)">
     <use xlink:href="#NotoSansCJKjp-Bold-31"/>
     <use xlink:href="#NotoSansCJKjp-Bold-30" transform="translate(58.999985 0)"/>
    </g>
   </g>
   <g id="text_15">
    <g id="patch_16">
     <path d="M 278.89 260.560297 
L 294.23 260.560297 
Q 304.63 260.560297 304.63 250.160297 
L 304.63 236.991703 
Q 304.63 226.591703 294.23 226.591703 
L 278.89 226.591703 
Q 268.49 226.591703 268.49 236.991703 
L 268.49 250.160297 
Q 268.49 260.560297 278.89 260.560297 
z
" style="fill: #ffffcc; stroke: #000000; stroke-linejoin: miter"/>
    </g>
    <!-- 11 -->
    <g transform="translate(278.89 247.365297) scale(0.13 -0.13)">
     <use xlink:href="#NotoSansCJKjp-Bold-31"/>
     <use xlink:href="#NotoSansCJKjp-Bold-31" transform="translate(58.999985 0)"/>
    </g>
   </g>
   <g id="text_16">
    <g id="patch_17">
     <path d="M 453.49 260.560297 
L 468.83 260.560297 
Q 479.23 260.560297 479.23 250.160297 
L 479.23 236.991703 
Q 479.23 226.591703 468.83 226.591703 
L 453.49 226.591703 
Q 443.09 226.591703 443.09 236.991703 
L 443.09 250.160297 
Q 443.09 260.560297 453.49 260.560297 
z
" style="fill: #ffe6e6; stroke: #000000; stroke-linejoin: miter"/>
    </g>
    <!-- 11 -->
    <g transform="translate(453.49 247.365297) scale(0.13 -0.13)">
     <use xlink:href="#NotoSansCJKjp-Bold-31"/>
     <use xlink:href="#NotoSansCJKjp-Bold-31" transform="translate(58.999985 0)"/>
    </g>
   </g>
   <g id="text_17">
    <g id="patch_18">
     <path d="M 628.68 142.277813 
L 642.84 142.277813 
Q 651.24 142.277813 651.24 133.877813 
L 651.24 121.722188 
Q 651.24 113.322188 642.84 113.322188 
L 628.68 113.322188 
Q 620.28 113.322188 620.28 121.722188 
L 620.28 133.877813 
Q 620.28 142.277813 628.68 142.277813 
z
" style="fill: #e0e0e0; stroke: #000000; stroke-linejoin: miter"/>
    </g>
    <!-- 32 -->
    <g transform="translate(628.68 131.297813) scale(0.12 -0.12)">
     <defs>
      <path id="NotoSansCJKjp-Bold-33" d="M 1747 -90 
C 2656 -90 3418 410 3418 1280 
C 3418 1907 3008 2304 2477 2451 
L 2477 2483 
C 2976 2682 3264 3053 3264 3565 
C 3264 4378 2643 4826 1728 4826 
C 1171 4826 717 4602 307 4250 
L 794 3667 
C 1069 3930 1344 4083 1683 4083 
C 2086 4083 2317 3866 2317 3494 
C 2317 3066 2035 2771 1171 2771 
L 1171 2093 
C 2195 2093 2470 1805 2470 1338 
C 2470 915 2144 678 1664 678 
C 1229 678 890 890 608 1165 
L 166 570 
C 499 192 1005 -90 1747 -90 
z
" transform="scale(0.015625)"/>
     </defs>
     <use xlink:href="#NotoSansCJKjp-Bold-33"/>
     <use xlink:href="#NotoSansCJKjp-Bold-32" transform="translate(58.999985 0)"/>
    </g>
   </g>
   <g id="text_18">
    <g id="patch_19">
     <path d="M 628.68 200.165812 
L 642.84 200.165812 
Q 651.24 200.165812 651.24 191.765812 
L 651.24 179.610187 
Q 651.24 171.210187 642.84 171.210187 
L 628.68 171.210187 
Q 620.28 171.210187 620.28 179.610187 
L 620.28 191.765812 
Q 620.28 200.165812 628.68 200.165812 
z
" style="fill: #e0e0e0; stroke: #000000; stroke-linejoin: miter"/>
    </g>
    <!-- 32 -->
    <g transform="translate(628.68 189.185812) scale(0.12 -0.12)">
     <use xlink:href="#NotoSansCJKjp-Bold-33"/>
     <use xlink:href="#NotoSansCJKjp-Bold-32" transform="translate(58.999985 0)"/>
    </g>
   </g>
   <g id="text_19">
    <g id="patch_20">
     <path d="M 628.68 258.053812 
L 642.84 258.053812 
Q 651.24 258.053812 651.24 249.653812 
L 651.24 237.498187 
Q 651.24 229.098187 642.84 229.098187 
L 628.68 229.098187 
Q 620.28 229.098187 620.28 237.498187 
L 620.28 249.653812 
Q 620.28 258.053812 628.68 258.053812 
z
" style="fill: #e0e0e0; stroke: #000000; stroke-linejoin: miter"/>
    </g>
    <!-- 32 -->
    <g transform="translate(628.68 247.073812) scale(0.12 -0.12)">
     <use xlink:href="#NotoSansCJKjp-Bold-33"/>
     <use xlink:href="#NotoSansCJKjp-Bold-32" transform="translate(58.999985 0)"/>
    </g>
   </g>
   <g id="text_20">
    <g id="patch_21">
     <path d="M 104.88 315.941812 
L 119.04 315.941812 
Q 127.44 315.941812 127.44 307.541812 
L 127.44 295.386188 
Q 127.44 286.986187 119.04 286.986187 
L 104.88 286.986187 
Q 96.48 286.986187 96.48 295.386188 
L 96.48 307.541812 
Q 96.48 315.941812 104.88 315.941812 
z
" style="fill: #e0e0e0; stroke: #000000; stroke-linejoin: miter"/>
    </g>
    <!-- 32 -->
    <g transform="translate(104.88 304.961812) scale(0.12 -0.12)">
     <use xlink:href="#NotoSansCJKjp-Bold-33"/>
     <use xlink:href="#NotoSansCJKjp-Bold-32" transform="translate(58.999985 0)"/>
    </g>
   </g>
   <g id="text_21">
    <g id="patch_22">
     <path d="M 279.48 315.941812 
L 293.64 315.941812 
Q 302.04 315.941812 302.04 307.541812 
L 302.04 295.386188 
Q 302.04 286.986187 293.64 286.986187 
L 279.48 286.986187 
Q 271.08 286.986187 271.08 295.386188 
L 271.08 307.541812 
Q 271.08 315.941812 279.48 315.941812 
z
" style="fill: #e0e0e0; stroke: #000000; stroke-linejoin: miter"/>
    </g>
    <!-- 33 -->
    <g transform="translate(279.48 304.961812) scale(0.12 -0.12)">
     <use xlink:href="#NotoSansCJKjp-Bold-33"/>
     <use xlink:href="#NotoSansCJKjp-Bold-33" transform="translate(58.999985 0)"/>
    </g>
   </g>
   <g id="text_22">
    <g id="patch_23">
     <path d="M 454.08 315.941812 
L 468.24 315.941812 
Q 476.64 315.941812 476.64 307.541812 
L 476.64 295.386188 
Q 476.64 286.986187 468.24 286.986187 
L 454.08 286.986187 
Q 445.68 286.986187 445.68 295.386188 
L 445.68 307.541812 
Q 445.68 315.941812 454.08 315.941812 
z
" style="fill: #e0e0e0; stroke: #000000; stroke-linejoin: miter"/>
    </g>
    <!-- 31 -->
    <g transform="translate(454.08 304.961812) scale(0.12 -0.12)">
     <use xlink:href="#NotoSansCJKjp-Bold-33"/>
     <use xlink:href="#NotoSansCJKjp-Bold-31" transform="translate(58.999985 0)"/>
    </g>
   </g>
   <g id="text_23">
    <g id="patch_24">
     <path d="M 628.68 315.941812 
L 642.84 315.941812 
Q 651.24 315.941812 651.24 307.541812 
L 651.24 295.386188 
Q 651.24 286.986187 642.84 286.986187 
L 628.68 286.986187 
Q 620.28 286.986187 620.28 295.386188 
L 620.28 307.541812 
Q 620.28 315.941812 628.68 315.941812 
z
" style="fill: #ffcc99; stroke: #000000; stroke-width: 2; stroke-linejoin: miter"/>
    </g>
    <!-- 96 -->
    <g transform="translate(628.68 304.961812) scale(0.12 -0.12)">
     <defs>
      <path id="NotoSansCJKjp-Bold-39" d="M 1632 -90 
C 2573 -90 3450 685 3450 2477 
C 3450 4122 2650 4826 1747 4826 
C 934 4826 256 4218 256 3245 
C 256 2240 819 1754 1613 1754 
C 1933 1754 2336 1946 2586 2266 
C 2541 1082 2106 678 1581 678 
C 1299 678 1005 826 832 1018 
L 333 448 
C 614 160 1043 -90 1632 -90 
z
M 2573 2938 
C 2342 2566 2048 2426 1792 2426 
C 1382 2426 1120 2688 1120 3245 
C 1120 3827 1408 4115 1760 4115 
C 2163 4115 2490 3795 2573 2938 
z
" transform="scale(0.015625)"/>
      <path id="NotoSansCJKjp-Bold-36" d="M 2022 -90 
C 2829 -90 3507 525 3507 1498 
C 3507 2509 2938 2982 2144 2982 
C 1843 2982 1440 2803 1178 2483 
C 1222 3661 1664 4070 2214 4070 
C 2483 4070 2771 3910 2938 3725 
L 3437 4288 
C 3155 4582 2733 4826 2150 4826 
C 1197 4826 320 4070 320 2304 
C 320 640 1126 -90 2022 -90 
z
M 1197 1818 
C 1434 2176 1722 2317 1971 2317 
C 2381 2317 2650 2061 2650 1498 
C 2650 922 2362 621 2003 621 
C 1606 621 1286 954 1197 1818 
z
" transform="scale(0.015625)"/>
     </defs>
     <use xlink:href="#NotoSansCJKjp-Bold-39"/>
     <use xlink:href="#NotoSansCJKjp-Bold-36" transform="translate(58.999985 0)"/>
    </g>
   </g>
   <g id="text_24">
    <g id="patch_25">
     <path d="M 624.76 80.983328 
L 646.76 80.983328 
Q 652.26 80.983328 652.26 75.483328 
L 652.26 64.340672 
Q 652.26 58.840672 646.76 58.840672 
L 624.76 58.840672 
Q 619.26 58.840672 619.26 64.340672 
L 619.26 75.483328 
Q 619.26 80.983328 624.76 80.983328 
z
" style="fill: #e0e0e0; stroke: #000000; stroke-width: 1.5; stroke-linejoin: miter"/>
    </g>
    <!-- 合計 -->
    <g transform="translate(624.76 73.118328) scale(0.11 -0.11)">
     <defs>
      <path id="NotoSansCJKjp-Bold-5408" d="M 1606 3142 
L 1606 2694 
L 4813 2694 
L 4813 3142 
C 5133 2906 5472 2701 5798 2528 
C 5933 2765 6112 3021 6298 3219 
C 5274 3629 4237 4448 3546 5427 
L 2746 5427 
C 2272 4640 1235 3674 128 3136 
C 294 2976 512 2694 614 2515 
C 954 2701 1293 2912 1606 3142 
z
M 3181 4678 
C 3494 4250 3968 3789 4499 3373 
L 1907 3373 
C 2432 3789 2880 4250 3181 4678 
z
M 1184 2054 
L 1184 -582 
L 1939 -582 
L 1939 -346 
L 4474 -346 
L 4474 -582 
L 5267 -582 
L 5267 2054 
L 1184 2054 
z
M 1939 333 
L 1939 1382 
L 4474 1382 
L 4474 333 
L 1939 333 
z
" transform="scale(0.015625)"/>
      <path id="NotoSansCJKjp-Bold-8a08" d="M 506 3475 
L 506 2893 
L 2573 2893 
L 2573 3475 
L 506 3475 
z
M 544 5235 
L 544 4659 
L 2579 4659 
L 2579 5235 
L 544 5235 
z
M 506 2598 
L 506 2022 
L 2573 2022 
L 2573 2598 
L 506 2598 
z
M 192 4378 
L 192 3770 
L 2822 3770 
L 2822 4378 
L 192 4378 
z
M 4147 5408 
L 4147 3283 
L 2797 3283 
L 2797 2522 
L 4147 2522 
L 4147 -576 
L 4922 -576 
L 4922 2522 
L 6266 2522 
L 6266 3283 
L 4922 3283 
L 4922 5408 
L 4147 5408 
z
M 486 1715 
L 486 -486 
L 1152 -486 
L 1152 -237 
L 2554 -237 
L 2554 1715 
L 486 1715 
z
M 1152 1107 
L 1875 1107 
L 1875 371 
L 1152 371 
L 1152 1107 
z
" transform="scale(0.015625)"/>
     </defs>
     <use xlink:href="#NotoSansCJKjp-Bold-5408"/>
     <use xlink:href="#NotoSansCJKjp-Bold-8a08" transform="translate(99.999985 0)"/>
    </g>
   </g>
   <g id="text_25">
    <g id="patch_26">
     <path d="M 45.088 312.535328 
L 67.088 312.535328 
Q 72.588 312.535328 72.588 307.035328 
L 72.588 295.892672 
Q 72.588 290.392672 67.088 290.392672 
L 45.088 290.392672 
Q 39.588 290.392672 39.588 295.892672 
L 39.588 307.035328 
Q 39.588 312.535328 45.088 312.535328 
z
" style="fill: #e0e0e0; stroke: #000000; stroke-width: 1.5; stroke-linejoin: miter"/>
    </g>
    <!-- 合計 -->
    <g transform="translate(45.088 304.670328) scale(0.11 -0.11)">
     <use xlink:href="#NotoSansCJKjp-Bold-5408"/>
     <use xlink:href="#NotoSansCJKjp-Bold-8a08" transform="translate(99.999985 0)"/>
    </g>
   </g>
   <g id="text_26">
    <!-- Dataset3 シナリオ構成（96シナリオ） -->
    <g transform="translate(231.724531 42.491562) scale(0.14 -0.14)">
     <defs>
      <path id="NotoSansCJKjp-Bold-44" d="M 582 0 
L 1933 0 
C 3334 0 4224 794 4224 2394 
C 4224 3987 3334 4742 1882 4742 
L 582 4742 
L 582 0 
z
M 1530 768 
L 1530 3981 
L 1818 3981 
C 2707 3981 3258 3546 3258 2394 
C 3258 1242 2707 768 1818 768 
L 1530 768 
z
" transform="scale(0.015625)"/>
      <path id="NotoSansCJKjp-Bold-74" d="M 1818 -90 
C 2131 -90 2381 -13 2579 45 
L 2419 730 
C 2323 691 2182 653 2067 653 
C 1747 653 1574 845 1574 1254 
L 1574 2842 
L 2464 2842 
L 2464 3584 
L 1574 3584 
L 1574 4550 
L 800 4550 
L 691 3584 
L 134 3539 
L 134 2842 
L 640 2842 
L 640 1248 
C 640 454 966 -90 1818 -90 
z
" transform="scale(0.015625)"/>
      <path id="NotoSansCJKjp-Bold-73" d="M 1530 -90 
C 2458 -90 2957 410 2957 1043 
C 2957 1702 2432 1946 1958 2125 
C 1574 2266 1248 2362 1248 2624 
C 1248 2829 1402 2970 1728 2970 
C 1990 2970 2240 2842 2496 2662 
L 2918 3232 
C 2624 3462 2221 3674 1702 3674 
C 883 3674 365 3219 365 2579 
C 365 1978 870 1702 1325 1530 
C 1702 1382 2074 1261 2074 992 
C 2074 768 1914 614 1555 614 
C 1216 614 915 762 595 1005 
L 166 410 
C 525 115 1050 -90 1530 -90 
z
" transform="scale(0.015625)"/>
      <path id="NotoSansCJKjp-Bold-20" transform="scale(0.015625)"/>
      <path id="NotoSansCJKjp-Bold-30b7" d="M 1978 5069 
L 1510 4365 
C 1933 4128 2598 3693 2957 3443 
L 3437 4154 
C 3098 4384 2400 4838 1978 5069 
z
M 787 525 
L 1267 -320 
C 1837 -218 2752 102 3405 474 
C 4454 1075 5357 1888 5952 2771 
L 5459 3642 
C 4947 2726 4058 1850 2970 1242 
C 2272 858 1504 646 787 525 
z
M 992 3610 
L 525 2899 
C 954 2675 1619 2240 1984 1990 
L 2451 2707 
C 2125 2938 1421 3379 992 3610 
z
" transform="scale(0.015625)"/>
      <path id="NotoSansCJKjp-Bold-30ca" d="M 557 3654 
L 557 2771 
C 755 2784 1011 2803 1293 2803 
L 2925 2803 
C 2874 1722 2445 800 1190 230 
L 1984 -358 
C 3366 467 3770 1517 3808 2803 
L 5248 2803 
C 5504 2803 5818 2784 5952 2778 
L 5952 3648 
C 5818 3635 5549 3610 5254 3610 
L 3814 3610 
L 3814 4307 
C 3814 4512 3827 4864 3866 5062 
L 2848 5062 
C 2906 4864 2931 4531 2931 4314 
L 2931 3610 
L 1267 3610 
C 1011 3610 749 3635 557 3654 
z
" transform="scale(0.015625)"/>
      <path id="NotoSansCJKjp-Bold-30ea" d="M 5139 4966 
L 4173 4966 
C 4198 4787 4211 4582 4211 4326 
C 4211 4045 4211 3437 4211 3110 
C 4211 2112 4128 1632 3686 1152 
C 3302 736 2784 493 2150 346 
L 2816 -358 
C 3283 -211 3949 102 4371 563 
C 4845 1088 5114 1683 5114 3059 
C 5114 3373 5114 3994 5114 4326 
C 5114 4582 5126 4787 5139 4966 
z
M 2170 4915 
L 1248 4915 
C 1267 4768 1274 4544 1274 4422 
C 1274 4141 1274 2630 1274 2266 
C 1274 2074 1248 1824 1242 1702 
L 2170 1702 
C 2157 1850 2150 2099 2150 2259 
C 2150 2618 2150 4141 2150 4422 
C 2150 4627 2157 4768 2170 4915 
z
" transform="scale(0.015625)"/>
      <path id="NotoSansCJKjp-Bold-30aa" d="M 384 1018 
L 973 352 
C 1984 890 3021 1779 3584 2522 
L 3597 787 
C 3597 602 3533 518 3373 518 
C 3155 518 2810 544 2522 595 
L 2592 -237 
C 2957 -262 3315 -275 3706 -275 
C 4192 -275 4429 -38 4422 371 
L 4365 3238 
L 5190 3238 
C 5363 3238 5606 3226 5811 3219 
L 5811 4070 
C 5658 4045 5357 4019 5146 4019 
L 4346 4019 
L 4339 4480 
C 4339 4678 4352 4928 4378 5126 
L 3469 5126 
C 3494 4960 3514 4755 3533 4480 
L 3552 4019 
L 1434 4019 
C 1216 4019 909 4038 723 4064 
L 723 3213 
C 947 3226 1222 3238 1453 3238 
L 3200 3238 
C 2688 2509 1626 1606 384 1018 
z
" transform="scale(0.015625)"/>
      <path id="NotoSansCJKjp-Bold-69cb" d="M 2694 2605 
L 2694 1005 
L 2310 1005 
L 2310 442 
L 2694 442 
L 2694 -525 
L 3392 -525 
L 3392 442 
L 5190 442 
L 5190 166 
C 5190 90 5165 70 5088 70 
C 5005 70 4736 64 4506 77 
C 4589 -96 4672 -352 4704 -531 
C 5114 -531 5414 -525 5626 -429 
C 5837 -326 5901 -160 5901 160 
L 5901 442 
L 6253 442 
L 6253 1005 
L 5901 1005 
L 5901 2605 
L 4621 2605 
L 4621 2842 
L 6189 2842 
L 6189 3392 
L 5350 3392 
L 5350 3661 
L 5971 3661 
L 5971 4179 
L 5350 4179 
L 5350 4442 
L 6074 4442 
L 6074 4966 
L 5350 4966 
L 5350 5440 
L 4627 5440 
L 4627 4966 
L 3930 4966 
L 3930 5440 
L 3219 5440 
L 3219 4966 
L 2554 4966 
L 2554 4442 
L 3219 4442 
L 3219 4179 
L 2694 4179 
L 2694 3661 
L 3219 3661 
L 3219 3392 
L 2419 3392 
L 2419 2842 
L 3930 2842 
L 3930 2605 
L 2694 2605 
z
M 3930 3661 
L 4627 3661 
L 4627 3392 
L 3930 3392 
L 3930 3661 
z
M 3930 4179 
L 3930 4442 
L 4627 4442 
L 4627 4179 
L 3930 4179 
z
M 3930 1005 
L 3392 1005 
L 3392 1299 
L 3930 1299 
L 3930 1005 
z
M 4621 1005 
L 4621 1299 
L 5190 1299 
L 5190 1005 
L 4621 1005 
z
M 3930 1805 
L 3392 1805 
L 3392 2080 
L 3930 2080 
L 3930 1805 
z
M 4621 1805 
L 4621 2080 
L 5190 2080 
L 5190 1805 
L 4621 1805 
z
M 1069 5440 
L 1069 4109 
L 288 4109 
L 288 3398 
L 1011 3398 
C 838 2637 506 1754 141 1248 
C 250 1075 410 781 480 576 
C 704 896 902 1350 1069 1850 
L 1069 -570 
L 1760 -570 
L 1760 2163 
C 1901 1875 2048 1581 2125 1376 
L 2522 1926 
C 2419 2106 1933 2867 1760 3098 
L 1760 3398 
L 2406 3398 
L 2406 4109 
L 1760 4109 
L 1760 5440 
L 1069 5440 
z
" transform="scale(0.015625)"/>
      <path id="NotoSansCJKjp-Bold-6210" d="M 3290 5427 
C 3290 5114 3302 4794 3315 4480 
L 691 4480 
L 691 2598 
C 691 1766 653 640 160 -128 
C 333 -218 678 -499 813 -653 
C 1344 134 1478 1389 1498 2330 
L 2336 2330 
C 2323 1523 2298 1210 2227 1120 
C 2182 1062 2118 1043 2035 1043 
C 1926 1043 1715 1050 1485 1069 
C 1594 877 1677 576 1690 352 
C 1990 346 2266 352 2438 378 
C 2624 410 2758 467 2886 627 
C 3034 819 3066 1395 3091 2746 
C 3091 2835 3091 3027 3091 3027 
L 1498 3027 
L 1498 3725 
L 3360 3725 
C 3443 2758 3584 1856 3808 1126 
C 3437 704 2995 352 2496 83 
C 2662 -64 2944 -384 3053 -550 
C 3450 -307 3808 -19 4134 320 
C 4416 -205 4781 -525 5229 -525 
C 5824 -525 6080 -243 6202 954 
C 5997 1030 5722 1210 5549 1382 
C 5517 576 5440 256 5293 256 
C 5082 256 4877 525 4698 986 
C 5165 1619 5536 2362 5805 3200 
L 5030 3386 
C 4877 2867 4672 2387 4416 1958 
C 4301 2477 4211 3078 4154 3725 
L 6144 3725 
L 6144 4480 
L 5478 4480 
L 5792 4806 
C 5555 5024 5088 5312 4736 5498 
L 4269 5037 
C 4531 4883 4858 4666 5088 4480 
L 4109 4480 
C 4096 4794 4090 5107 4096 5427 
L 3290 5427 
z
" transform="scale(0.015625)"/>
      <path id="NotoSansCJKjp-Bold-ff08" d="M 4243 2432 
C 4243 1062 4813 38 5504 -640 
L 6112 -371 
C 5472 320 4966 1203 4966 2432 
C 4966 3661 5472 4544 6112 5235 
L 5504 5504 
C 4813 4826 4243 3802 4243 2432 
z
" transform="scale(0.015625)"/>
      <path id="NotoSansCJKjp-Bold-ff09" d="M 2157 2432 
C 2157 3802 1587 4826 896 5504 
L 288 5235 
C 928 4544 1434 3661 1434 2432 
C 1434 1203 928 320 288 -371 
L 896 -640 
C 1587 38 2157 1062 2157 2432 
z
" transform="scale(0.015625)"/>
     </defs>
     <use xlink:href="#NotoSansCJKjp-Bold-44"/>
     <use xlink:href="#NotoSansCJKjp-Bold-61" transform="translate(71.399994 0)"/>
     <use xlink:href="#NotoSansCJKjp-Bold-74" transform="translate(130.499985 0)"/>
     <use xlink:href="#NotoSansCJKjp-Bold-61" transform="translate(172.599976 0)"/>
     <use xlink:href="#NotoSansCJKjp-Bold-73" transform="translate(231.699966 0)"/>
     <use xlink:href="#NotoSansCJKjp-Bold-65" transform="translate(281.199951 0)"/>
     <use xlink:href="#NotoSansCJKjp-Bold-74" transform="translate(339.299942 0)"/>
     <use xlink:href="#NotoSansCJKjp-Bold-33" transform="translate(381.399933 0)"/>
     <use xlink:href="#NotoSansCJKjp-Bold-20" transform="translate(440.399918 0)"/>
     <use xlink:href="#NotoSansCJKjp-Bold-30b7" transform="translate(463.099915 0)"/>
     <use xlink:href="#NotoSansCJKjp-Bold-30ca" transform="translate(563.099899 0)"/>
     <use xlink:href="#NotoSansCJKjp-Bold-30ea" transform="translate(663.099884 0)"/>
     <use xlink:href="#NotoSansCJKjp-Bold-30aa" transform="translate(763.099869 0)"/>
     <use xlink:href="#NotoSansCJKjp-Bold-69cb" transform="translate(863.099854 0)"/>
     <use xlink:href="#NotoSansCJKjp-Bold-6210" transform="translate(963.099838 0)"/>
     <use xlink:href="#NotoSansCJKjp-Bold-ff08" transform="translate(1063.099823 0)"/>
     <use xlink:href="#NotoSansCJKjp-Bold-39" transform="translate(1163.099808 0)"/>
     <use xlink:href="#NotoSansCJKjp-Bold-36" transform="translate(1222.099792 0)"/>
     <use xlink:href="#NotoSansCJKjp-Bold-30b7" transform="translate(1281.099777 0)"/>
     <use xlink:href="#NotoSansCJKjp-Bold-30ca" transform="translate(1381.099762 0)"/>
     <use xlink:href="#NotoSansCJKjp-Bold-30ea" transform="translate(1481.099747 0)"/>
     <use xlink:href="#NotoSansCJKjp-Bold-30aa" transform="translate(1581.099731 0)"/>
     <use xlink:href="#NotoSansCJKjp-Bold-ff09" transform="translate(1681.099716 0)"/>
    </g>
   </g>
   <g id="text_27">
    <!-- マップサイズ（Small/Medium/Large）と地形複雑度（単純/中程度/複雑）の組み合わせ -->
    <g transform="translate(158.264062 459.567375) scale(0.1 -0.1)">
     <defs>
      <path id="NotoSansCJKjp-Regular-30de" d="M 2931 1018 
C 3334 602 3846 38 4083 -288 
L 4550 83 
C 4294 397 3840 877 3456 1261 
C 4512 2067 5325 3110 5786 3859 
C 5824 3917 5882 3987 5946 4058 
L 5542 4384 
C 5453 4352 5306 4333 5126 4333 
C 4486 4333 1638 4333 1312 4333 
C 1088 4333 838 4358 659 4384 
L 659 3808 
C 787 3821 1062 3846 1312 3846 
C 1683 3846 4506 3846 5075 3846 
C 4755 3270 4019 2330 3078 1626 
C 2643 2016 2118 2438 1882 2611 
L 1466 2278 
C 1805 2042 2547 1402 2931 1018 
z
" transform="scale(0.015625)"/>
      <path id="NotoSansCJKjp-Regular-30c3" d="M 3091 3686 
L 2624 3526 
C 2752 3238 3053 2426 3123 2138 
L 3597 2304 
C 3514 2586 3200 3430 3091 3686 
z
M 5408 3328 
L 4858 3501 
C 4762 2682 4429 1869 3974 1312 
C 3450 653 2637 166 1894 -51 
L 2317 -480 
C 3034 -205 3814 288 4403 1043 
C 4864 1619 5139 2304 5312 3008 
C 5338 3091 5363 3194 5408 3328 
z
M 1606 3366 
L 1133 3181 
C 1254 2957 1606 2074 1702 1741 
L 2189 1920 
C 2067 2253 1734 3091 1606 3366 
z
" transform="scale(0.015625)"/>
      <path id="NotoSansCJKjp-Regular-30d7" d="M 5152 4595 
C 5152 4832 5344 5024 5574 5024 
C 5811 5024 6003 4832 6003 4595 
C 6003 4365 5811 4173 5574 4173 
C 5344 4173 5152 4365 5152 4595 
z
M 4858 4595 
C 4858 4525 4870 4454 4890 4390 
L 4685 4384 
C 4390 4384 1837 4384 1472 4384 
C 1261 4384 1011 4403 832 4429 
L 832 3859 
C 998 3866 1216 3878 1472 3878 
C 1837 3878 4371 3878 4742 3878 
C 4659 3264 4358 2374 3904 1792 
C 3373 1107 2650 563 1408 256 
L 1843 -224 
C 3021 141 3782 736 4365 1485 
C 4870 2144 5184 3174 5318 3846 
L 5331 3917 
C 5408 3891 5491 3878 5574 3878 
C 5971 3878 6298 4198 6298 4595 
C 6298 4992 5971 5318 5574 5318 
C 5178 5318 4858 4992 4858 4595 
z
" transform="scale(0.015625)"/>
      <path id="NotoSansCJKjp-Regular-30b5" d="M 429 3699 
L 429 3142 
C 506 3149 794 3162 1069 3162 
L 1760 3162 
L 1760 2131 
C 1760 1888 1741 1613 1734 1549 
L 2298 1549 
C 2291 1613 2272 1894 2272 2131 
L 2272 3162 
L 4096 3162 
L 4096 2899 
C 4096 1107 3514 557 2349 109 
L 2778 -294 
C 4243 358 4608 1235 4608 2938 
L 4608 3162 
L 5312 3162 
C 5594 3162 5830 3155 5901 3149 
L 5901 3686 
C 5811 3674 5594 3654 5312 3654 
L 4608 3654 
L 4608 4454 
C 4608 4704 4634 4915 4640 4979 
L 4064 4979 
C 4077 4915 4096 4704 4096 4454 
L 4096 3654 
L 2272 3654 
L 2272 4474 
C 2272 4698 2298 4877 2304 4941 
L 1734 4941 
C 1754 4794 1760 4608 1760 4474 
L 1760 3654 
L 1069 3654 
C 800 3654 486 3686 429 3699 
z
" transform="scale(0.015625)"/>
      <path id="NotoSansCJKjp-Regular-30a4" d="M 550 2310 
L 806 1811 
C 1696 2086 2573 2470 3245 2854 
L 3245 486 
C 3245 243 3226 -77 3206 -198 
L 3834 -198 
C 3808 -70 3795 243 3795 486 
L 3795 3187 
C 4448 3622 5037 4109 5523 4614 
L 5094 5011 
C 4653 4480 4013 3923 3347 3507 
C 2637 3059 1658 2611 550 2310 
z
" transform="scale(0.015625)"/>
      <path id="NotoSansCJKjp-Regular-30ba" d="M 4845 5210 
L 4506 5062 
C 4678 4813 4890 4435 5018 4179 
L 5363 4333 
C 5242 4582 5005 4973 4845 5210 
z
M 5568 5434 
L 5235 5286 
C 5408 5050 5619 4685 5760 4410 
L 6106 4563 
C 5984 4800 5741 5197 5568 5434 
z
M 4992 4166 
L 4666 4416 
C 4563 4384 4397 4365 4186 4365 
C 3949 4365 1971 4365 1715 4365 
C 1523 4365 1158 4390 1069 4403 
L 1069 3827 
C 1139 3834 1491 3859 1715 3859 
C 1939 3859 3981 3859 4211 3859 
C 4051 3328 3584 2566 3149 2074 
C 2490 1338 1542 576 512 173 
L 922 -256 
C 1869 179 2733 877 3418 1619 
C 4070 1030 4749 282 5178 -288 
L 5626 102 
C 5210 602 4429 1434 3757 2010 
C 4211 2586 4614 3334 4832 3891 
C 4870 3974 4954 4115 4992 4166 
z
" transform="scale(0.015625)"/>
      <path id="NotoSansCJKjp-Regular-ff08" d="M 4448 2432 
C 4448 1184 4954 166 5722 -614 
L 6106 -416 
C 5370 346 4915 1293 4915 2432 
C 4915 3571 5370 4518 6106 5280 
L 5722 5478 
C 4954 4698 4448 3680 4448 2432 
z
" transform="scale(0.015625)"/>
      <path id="NotoSansCJKjp-Regular-53" d="M 1946 -83 
C 2925 -83 3539 506 3539 1248 
C 3539 1946 3117 2266 2573 2502 
L 1907 2790 
C 1542 2944 1126 3117 1126 3578 
C 1126 3994 1472 4256 2003 4256 
C 2438 4256 2784 4090 3072 3821 
L 3379 4198 
C 3053 4538 2560 4774 2003 4774 
C 1152 4774 525 4256 525 3533 
C 525 2848 1043 2515 1478 2330 
L 2150 2035 
C 2598 1837 2938 1683 2938 1197 
C 2938 742 2573 435 1952 435 
C 1466 435 992 666 659 1018 
L 307 608 
C 710 186 1280 -83 1946 -83 
z
" transform="scale(0.015625)"/>
      <path id="NotoSansCJKjp-Regular-6d" d="M 589 0 
L 1178 0 
L 1178 2522 
C 1491 2880 1786 3053 2048 3053 
C 2490 3053 2694 2778 2694 2125 
L 2694 0 
L 3277 0 
L 3277 2522 
C 3603 2880 3885 3053 4154 3053 
C 4595 3053 4800 2778 4800 2125 
L 4800 0 
L 5382 0 
L 5382 2202 
C 5382 3085 5043 3565 4333 3565 
C 3904 3565 3546 3290 3181 2899 
C 3040 3309 2758 3565 2221 3565 
C 1805 3565 1446 3302 1139 2970 
L 1126 2970 
L 1069 3475 
L 589 3475 
L 589 0 
z
" transform="scale(0.015625)"/>
      <path id="NotoSansCJKjp-Regular-61" d="M 1389 -83 
C 1818 -83 2208 141 2541 416 
L 2560 416 
L 2611 0 
L 3091 0 
L 3091 2138 
C 3091 3002 2739 3565 1888 3565 
C 1325 3565 838 3315 525 3110 
L 749 2707 
C 1024 2893 1389 3078 1792 3078 
C 2362 3078 2509 2650 2509 2202 
C 1030 2035 378 1658 378 902 
C 378 275 806 -83 1389 -83 
z
M 1555 390 
C 1210 390 941 544 941 941 
C 941 1389 1338 1677 2509 1811 
L 2509 845 
C 2170 544 1888 390 1555 390 
z
" transform="scale(0.015625)"/>
      <path id="NotoSansCJKjp-Regular-6c" d="M 1203 -83 
C 1363 -83 1459 -58 1542 -32 
L 1459 416 
C 1395 403 1370 403 1338 403 
C 1248 403 1178 474 1178 653 
L 1178 5094 
L 589 5094 
L 589 691 
C 589 198 768 -83 1203 -83 
z
" transform="scale(0.015625)"/>
      <path id="NotoSansCJKjp-Regular-2f" d="M 70 -1146 
L 499 -1146 
L 2413 5082 
L 1990 5082 
L 70 -1146 
z
" transform="scale(0.015625)"/>
      <path id="NotoSansCJKjp-Regular-4d" d="M 646 0 
L 1178 0 
L 1178 2598 
C 1178 3002 1139 3571 1101 3981 
L 1126 3981 
L 1504 2912 
L 2394 474 
L 2790 474 
L 3674 2912 
L 4051 3981 
L 4077 3981 
C 4045 3571 4000 3002 4000 2598 
L 4000 0 
L 4550 0 
L 4550 4691 
L 3840 4691 
L 2944 2182 
C 2835 1862 2739 1530 2618 1203 
L 2592 1203 
C 2477 1530 2374 1862 2253 2182 
L 1357 4691 
L 646 4691 
L 646 0 
z
" transform="scale(0.015625)"/>
      <path id="NotoSansCJKjp-Regular-65" d="M 1997 -83 
C 2464 -83 2835 70 3136 269 
L 2931 659 
C 2669 486 2400 384 2061 384 
C 1402 384 947 858 909 1600 
L 3251 1600 
C 3264 1690 3277 1805 3277 1933 
C 3277 2925 2778 3565 1888 3565 
C 1094 3565 333 2867 333 1734 
C 333 589 1069 -83 1997 -83 
z
M 902 2016 
C 973 2707 1408 3098 1901 3098 
C 2445 3098 2765 2720 2765 2016 
L 902 2016 
z
" transform="scale(0.015625)"/>
      <path id="NotoSansCJKjp-Regular-64" d="M 1773 -83 
C 2189 -83 2560 141 2829 410 
L 2848 410 
L 2899 0 
L 3379 0 
L 3379 5094 
L 2790 5094 
L 2790 3757 
L 2822 3162 
C 2515 3411 2253 3565 1843 3565 
C 1050 3565 339 2861 339 1734 
C 339 576 902 -83 1773 -83 
z
M 1901 410 
C 1293 410 941 902 941 1741 
C 941 2534 1389 3072 1946 3072 
C 2234 3072 2502 2970 2790 2707 
L 2790 883 
C 2502 563 2221 410 1901 410 
z
" transform="scale(0.015625)"/>
      <path id="NotoSansCJKjp-Regular-69" d="M 589 0 
L 1178 0 
L 1178 3475 
L 589 3475 
L 589 0 
z
M 883 4192 
C 1114 4192 1274 4346 1274 4582 
C 1274 4806 1114 4960 883 4960 
C 653 4960 499 4806 499 4582 
C 499 4346 653 4192 883 4192 
z
" transform="scale(0.015625)"/>
      <path id="NotoSansCJKjp-Regular-75" d="M 1606 -83 
C 2080 -83 2426 166 2752 544 
L 2771 544 
L 2816 0 
L 3302 0 
L 3302 3475 
L 2720 3475 
L 2720 1011 
C 2387 602 2138 422 1779 422 
C 1318 422 1126 698 1126 1344 
L 1126 3475 
L 538 3475 
L 538 1274 
C 538 384 870 -83 1606 -83 
z
" transform="scale(0.015625)"/>
      <path id="NotoSansCJKjp-Regular-4c" d="M 646 0 
L 3290 0 
L 3290 506 
L 1235 506 
L 1235 4691 
L 646 4691 
L 646 0 
z
" transform="scale(0.015625)"/>
      <path id="NotoSansCJKjp-Regular-72" d="M 589 0 
L 1178 0 
L 1178 2234 
C 1408 2822 1760 3040 2048 3040 
C 2195 3040 2272 3021 2387 2982 
L 2496 3488 
C 2387 3546 2278 3565 2125 3565 
C 1741 3565 1382 3283 1139 2842 
L 1126 2842 
L 1069 3475 
L 589 3475 
L 589 0 
z
" transform="scale(0.015625)"/>
      <path id="NotoSansCJKjp-Regular-67" d="M 1760 -1600 
C 2835 -1600 3520 -1043 3520 -397 
C 3520 179 3110 429 2310 429 
L 1626 429 
C 1158 429 1018 589 1018 806 
C 1018 998 1114 1114 1242 1222 
C 1395 1146 1587 1101 1754 1101 
C 2470 1101 3027 1568 3027 2310 
C 3027 2611 2912 2867 2746 3027 
L 3456 3027 
L 3456 3475 
L 2246 3475 
C 2125 3526 1952 3565 1754 3565 
C 1056 3565 454 3085 454 2323 
C 454 1907 678 1568 909 1389 
L 909 1363 
C 723 1235 525 1005 525 717 
C 525 442 659 256 838 147 
L 838 115 
C 512 -83 326 -371 326 -672 
C 326 -1267 915 -1600 1760 -1600 
z
M 1754 1498 
C 1357 1498 1018 1818 1018 2323 
C 1018 2835 1350 3136 1754 3136 
C 2170 3136 2496 2835 2496 2323 
C 2496 1818 2157 1498 1754 1498 
z
M 1843 -1197 
C 1210 -1197 838 -960 838 -589 
C 838 -390 941 -179 1190 0 
C 1344 -38 1510 -51 1638 -51 
L 2240 -51 
C 2701 -51 2944 -166 2944 -493 
C 2944 -851 2515 -1197 1843 -1197 
z
" transform="scale(0.015625)"/>
      <path id="NotoSansCJKjp-Regular-ff09" d="M 1952 2432 
C 1952 3680 1446 4698 678 5478 
L 294 5280 
C 1030 4518 1485 3571 1485 2432 
C 1485 1293 1030 346 294 -416 
L 678 -614 
C 1446 166 1952 1184 1952 2432 
z
" transform="scale(0.015625)"/>
      <path id="NotoSansCJKjp-Regular-3068" d="M 1971 4979 
L 1466 4768 
C 1760 4070 2099 3322 2394 2797 
C 1709 2317 1286 1798 1286 1139 
C 1286 179 2157 -179 3360 -179 
C 4160 -179 4896 -102 5382 -19 
L 5382 550 
C 4883 422 4032 333 3334 333 
C 2323 333 1818 666 1818 1197 
C 1818 1683 2176 2106 2771 2490 
C 3398 2906 4282 3328 4717 3552 
C 4902 3648 5062 3731 5210 3821 
L 4928 4275 
C 4794 4166 4659 4083 4474 3974 
C 4122 3782 3430 3443 2829 3078 
C 2547 3584 2227 4275 1971 4979 
z
" transform="scale(0.015625)"/>
      <path id="NotoSansCJKjp-Regular-5730" d="M 2746 4781 
L 2746 3027 
L 2054 2739 
L 2234 2310 
L 2746 2528 
L 2746 506 
C 2746 -192 2957 -365 3693 -365 
C 3859 -365 5094 -365 5274 -365 
C 5939 -365 6099 -83 6170 800 
C 6042 819 5850 896 5741 979 
C 5696 243 5632 70 5254 70 
C 4998 70 3923 70 3712 70 
C 3283 70 3206 141 3206 493 
L 3206 2726 
L 4064 3091 
L 4064 915 
L 4518 915 
L 4518 3283 
L 5414 3667 
C 5414 2637 5402 1926 5370 1773 
C 5338 1626 5280 1600 5178 1600 
C 5114 1600 4902 1600 4749 1613 
C 4806 1504 4845 1318 4864 1190 
C 5043 1190 5299 1190 5466 1242 
C 5658 1286 5779 1402 5818 1664 
C 5862 1914 5875 2874 5875 4077 
L 5901 4166 
L 5562 4294 
L 5472 4224 
L 5376 4134 
L 4518 3776 
L 4518 5376 
L 4064 5376 
L 4064 3584 
L 3206 3226 
L 3206 4781 
L 2746 4781 
z
M 211 986 
L 403 506 
C 966 755 1696 1082 2381 1402 
L 2272 1830 
L 1542 1523 
L 1542 3379 
L 2298 3379 
L 2298 3834 
L 1542 3834 
L 1542 5299 
L 1088 5299 
L 1088 3834 
L 269 3834 
L 269 3379 
L 1088 3379 
L 1088 1331 
C 755 1197 454 1075 211 986 
z
" transform="scale(0.015625)"/>
      <path id="NotoSansCJKjp-Regular-5f62" d="M 5414 5274 
C 5018 4755 4288 4211 3674 3904 
C 3795 3814 3936 3674 4019 3565 
C 4672 3923 5389 4499 5862 5088 
L 5414 5274 
z
M 5600 3507 
C 5171 2950 4397 2374 3738 2042 
C 3859 1946 4000 1798 4083 1702 
C 4768 2080 5542 2701 6035 3328 
L 5600 3507 
z
M 5747 1779 
C 5267 979 4358 269 3405 -122 
C 3533 -224 3674 -390 3750 -506 
C 4736 -51 5651 710 6195 1600 
L 5747 1779 
z
M 2586 4531 
L 2586 2874 
L 1555 2874 
L 1555 4531 
L 2586 4531 
z
M 262 2874 
L 262 2426 
L 1094 2426 
C 1069 1472 928 531 237 -230 
C 352 -294 518 -448 595 -550 
C 1363 288 1523 1350 1549 2426 
L 2586 2426 
L 2586 -506 
L 3059 -506 
L 3059 2426 
L 3750 2426 
L 3750 2874 
L 3059 2874 
L 3059 4531 
L 3667 4531 
L 3667 4979 
L 371 4979 
L 371 4531 
L 1101 4531 
L 1101 2874 
L 262 2874 
z
" transform="scale(0.015625)"/>
      <path id="NotoSansCJKjp-Regular-8907" d="M 3392 2842 
L 5261 2842 
L 5261 2413 
L 3392 2413 
L 3392 2842 
z
M 3392 3578 
L 5261 3578 
L 5261 3155 
L 3392 3155 
L 3392 3578 
z
M 5062 1306 
C 4870 1030 4608 794 4301 602 
C 4000 800 3750 1037 3565 1306 
L 5062 1306 
z
M 3290 5376 
C 3110 4877 2778 4237 2298 3757 
C 2406 3699 2554 3571 2637 3475 
C 2752 3597 2854 3718 2950 3846 
L 2950 2080 
L 3680 2080 
C 3386 1664 2899 1210 2240 864 
C 2342 800 2490 653 2560 550 
C 2816 698 3046 864 3251 1030 
C 3430 787 3642 570 3885 378 
C 3386 147 2810 -13 2202 -109 
C 2291 -198 2413 -403 2458 -518 
C 3110 -390 3744 -198 4282 96 
C 4755 -192 5318 -397 5933 -512 
C 6003 -390 6131 -198 6234 -96 
C 5670 -6 5158 147 4717 365 
C 5139 666 5485 1043 5715 1523 
L 5427 1696 
L 5338 1677 
L 3910 1677 
C 4026 1811 4128 1946 4218 2080 
L 5722 2080 
L 5722 3910 
L 3002 3910 
C 3098 4045 3187 4186 3270 4326 
L 6106 4326 
L 6106 4736 
L 3494 4736 
C 3590 4928 3674 5120 3744 5306 
L 3290 5376 
z
M 2278 2995 
C 2182 2803 2022 2528 1882 2317 
L 1664 2579 
C 1939 3027 2170 3520 2336 4019 
L 2086 4179 
L 2003 4160 
L 1574 4160 
L 1574 5344 
L 1133 5344 
L 1133 4160 
L 346 4160 
L 346 3738 
L 1798 3738 
C 1446 2861 806 1984 186 1485 
C 269 1408 390 1197 435 1082 
C 672 1293 922 1549 1152 1843 
L 1152 -512 
L 1587 -512 
L 1587 2138 
C 1805 1843 2054 1485 2157 1286 
L 2445 1613 
L 2080 2074 
C 2234 2272 2413 2541 2566 2784 
L 2278 2995 
z
" transform="scale(0.015625)"/>
      <path id="NotoSansCJKjp-Regular-96d1" d="M 1197 5382 
L 1197 4922 
L 1190 4672 
L 358 4672 
L 358 4243 
L 1146 4243 
C 1056 3738 813 3200 173 2758 
C 282 2694 435 2560 506 2464 
C 1235 2989 1485 3635 1568 4243 
L 2125 4243 
L 2125 3226 
C 2125 2912 2150 2816 2227 2739 
C 2298 2669 2419 2643 2528 2643 
C 2586 2643 2720 2643 2784 2643 
C 2867 2643 2963 2656 3021 2682 
C 3091 2707 3136 2758 3174 2822 
C 3206 2893 3226 3059 3238 3213 
C 3136 3245 3021 3302 2944 3360 
C 2938 3226 2931 3130 2918 3078 
C 2906 3040 2880 3014 2861 3002 
C 2842 2995 2803 2989 2765 2989 
C 2720 2989 2662 2989 2630 2989 
C 2598 2989 2566 2995 2554 3014 
C 2534 3034 2534 3098 2534 3200 
L 2534 4672 
L 1600 4672 
L 1606 4909 
L 1606 5382 
L 1197 5382 
z
M 1510 2784 
L 1510 2093 
L 339 2093 
L 339 1677 
L 1408 1677 
C 1101 1107 614 525 166 211 
C 262 115 378 -64 435 -179 
C 806 128 1197 589 1510 1075 
L 1510 -506 
L 1946 -506 
L 1946 1024 
C 2240 768 2618 422 2778 243 
L 3053 614 
C 2886 762 2208 1286 1946 1466 
L 1946 1677 
L 3040 1677 
L 3040 2093 
L 1946 2093 
L 1946 2784 
L 1510 2784 
z
M 3782 2598 
L 4666 2598 
L 4666 1690 
L 3782 1690 
L 3782 2598 
z
M 3782 3014 
L 3782 3898 
L 4666 3898 
L 4666 3014 
L 3782 3014 
z
M 5101 5357 
C 5005 5056 4851 4640 4698 4333 
L 3827 4333 
C 3987 4634 4128 4960 4243 5286 
L 3802 5402 
C 3584 4710 3200 4032 2752 3584 
C 2861 3526 3053 3398 3130 3322 
C 3200 3398 3270 3482 3341 3571 
L 3341 -499 
L 3782 -499 
L 3782 -198 
L 6163 -198 
L 6163 237 
L 5114 237 
L 5114 1274 
L 6035 1274 
L 6035 1690 
L 5114 1690 
L 5114 2598 
L 6016 2598 
L 6016 3014 
L 5114 3014 
L 5114 3898 
L 6080 3898 
L 6080 4333 
L 5165 4333 
C 5306 4608 5446 4941 5574 5235 
L 5101 5357 
z
M 3782 1274 
L 4666 1274 
L 4666 237 
L 3782 237 
L 3782 1274 
z
" transform="scale(0.015625)"/>
      <path id="NotoSansCJKjp-Regular-5ea6" d="M 2470 4141 
L 2470 3584 
L 1440 3584 
L 1440 3187 
L 2470 3187 
L 2470 2125 
L 4960 2125 
L 4960 3187 
L 5997 3187 
L 5997 3584 
L 4960 3584 
L 4960 4141 
L 4486 4141 
L 4486 3584 
L 2931 3584 
L 2931 4141 
L 2470 4141 
z
M 4486 3187 
L 4486 2509 
L 2931 2509 
L 2931 3187 
L 4486 3187 
z
M 4851 1318 
C 4582 986 4211 717 3770 506 
C 3334 723 2970 992 2720 1318 
L 4851 1318 
z
M 1530 1715 
L 1530 1318 
L 2502 1318 
L 2259 1222 
C 2515 858 2861 550 3270 301 
C 2662 90 1978 -38 1280 -109 
C 1357 -211 1453 -397 1485 -512 
C 2291 -416 3072 -243 3757 45 
C 4365 -237 5088 -422 5869 -525 
C 5933 -403 6048 -211 6150 -109 
C 5466 -38 4819 96 4269 294 
C 4813 608 5261 1024 5549 1574 
L 5248 1734 
L 5165 1715 
L 1530 1715 
z
M 774 4742 
L 774 2893 
C 774 1965 730 659 198 -256 
C 314 -307 512 -435 595 -518 
C 1152 448 1235 1901 1235 2893 
L 1235 4307 
L 6035 4307 
L 6035 4742 
L 3635 4742 
L 3635 5376 
L 3142 5376 
L 3142 4742 
L 774 4742 
z
" transform="scale(0.015625)"/>
      <path id="NotoSansCJKjp-Regular-5358" d="M 1414 2765 
L 2938 2765 
L 2938 2074 
L 1414 2074 
L 1414 2765 
z
M 3430 2765 
L 5024 2765 
L 5024 2074 
L 3430 2074 
L 3430 2765 
z
M 1414 3834 
L 2938 3834 
L 2938 3149 
L 1414 3149 
L 1414 3834 
z
M 3430 3834 
L 5024 3834 
L 5024 3149 
L 3430 3149 
L 3430 3834 
z
M 4973 5370 
C 4813 5024 4531 4550 4294 4237 
L 3130 4237 
L 3520 4397 
C 3437 4666 3200 5075 2989 5382 
L 2560 5222 
C 2765 4915 2976 4506 3059 4237 
L 1658 4237 
L 1997 4410 
C 1875 4666 1594 5043 1344 5312 
L 941 5126 
C 1165 4858 1421 4486 1542 4237 
L 947 4237 
L 947 1670 
L 2938 1670 
L 2938 1082 
L 346 1082 
L 346 634 
L 2938 634 
L 2938 -518 
L 3430 -518 
L 3430 634 
L 6074 634 
L 6074 1082 
L 3430 1082 
L 3430 1670 
L 5510 1670 
L 5510 4237 
L 4832 4237 
C 5050 4518 5286 4877 5491 5197 
L 4973 5370 
z
" transform="scale(0.015625)"/>
      <path id="NotoSansCJKjp-Regular-7d14" d="M 1907 1651 
C 2074 1274 2240 787 2304 467 
L 2669 595 
C 2605 909 2438 1395 2259 1760 
L 1907 1651 
z
M 582 1715 
C 506 1152 378 582 160 192 
C 269 154 454 64 544 6 
C 749 416 909 1037 992 1645 
L 582 1715 
z
M 5626 4909 
C 5357 4806 4992 4717 4589 4640 
L 4589 5370 
L 4134 5370 
L 4134 4563 
C 3622 4480 3072 4422 2573 4378 
C 2624 4275 2688 4096 2701 3987 
C 3155 4019 3648 4070 4134 4141 
L 4134 1760 
L 3373 1760 
L 3373 3571 
L 2938 3571 
L 2938 909 
L 3373 909 
L 3373 1318 
L 4134 1318 
L 4134 435 
C 4134 -115 4198 -237 4339 -326 
C 4461 -410 4659 -442 4813 -442 
C 4922 -442 5235 -442 5357 -442 
C 5510 -442 5690 -429 5811 -390 
C 5933 -346 6029 -275 6080 -147 
C 6131 -32 6163 262 6176 506 
C 6022 550 5856 627 5747 723 
C 5741 454 5722 250 5696 154 
C 5677 64 5619 32 5568 13 
C 5510 -6 5408 -13 5306 -13 
C 5184 -13 4986 -13 4902 -13 
C 4806 -13 4742 0 4678 26 
C 4608 64 4589 186 4589 378 
L 4589 1318 
L 5389 1318 
L 5389 992 
L 5830 992 
L 5830 3571 
L 5389 3571 
L 5389 1760 
L 4589 1760 
L 4589 4211 
C 5107 4294 5594 4410 5965 4544 
L 5626 4909 
z
M 218 2509 
L 262 2074 
L 1267 2138 
L 1267 -525 
L 1696 -525 
L 1696 2163 
L 2202 2195 
C 2259 2054 2298 1926 2323 1818 
L 2688 1978 
C 2598 2330 2342 2880 2080 3296 
L 1741 3155 
C 1850 2982 1952 2778 2042 2579 
L 1088 2541 
C 1523 3104 2010 3853 2374 4461 
L 1971 4646 
C 1798 4301 1568 3891 1312 3494 
C 1216 3622 1082 3770 941 3917 
C 1178 4269 1453 4781 1670 5203 
L 1248 5376 
C 1114 5018 883 4538 678 4179 
L 486 4346 
L 243 4026 
C 538 3763 870 3398 1069 3117 
C 928 2899 781 2694 646 2522 
L 218 2509 
z
" transform="scale(0.015625)"/>
      <path id="NotoSansCJKjp-Regular-4e2d" d="M 2931 5376 
L 2931 4230 
L 614 4230 
L 614 1190 
L 1094 1190 
L 1094 1587 
L 2931 1587 
L 2931 -506 
L 3437 -506 
L 3437 1587 
L 5280 1587 
L 5280 1222 
L 5773 1222 
L 5773 4230 
L 3437 4230 
L 3437 5376 
L 2931 5376 
z
M 1094 2061 
L 1094 3763 
L 2931 3763 
L 2931 2061 
L 1094 2061 
z
M 5280 2061 
L 3437 2061 
L 3437 3763 
L 5280 3763 
L 5280 2061 
z
" transform="scale(0.015625)"/>
      <path id="NotoSansCJKjp-Regular-7a0b" d="M 3405 4691 
L 5338 4691 
L 5338 3514 
L 3405 3514 
L 3405 4691 
z
M 2957 5107 
L 2957 3098 
L 5805 3098 
L 5805 5107 
L 2957 5107 
z
M 2867 1338 
L 2867 922 
L 4122 922 
L 4122 83 
L 2438 83 
L 2438 -339 
L 6163 -339 
L 6163 83 
L 4595 83 
L 4595 922 
L 5882 922 
L 5882 1338 
L 4595 1338 
L 4595 2112 
L 6022 2112 
L 6022 2534 
L 2720 2534 
L 2720 2112 
L 4122 2112 
L 4122 1338 
L 2867 1338 
z
M 2310 5286 
C 1837 5069 992 4883 275 4762 
C 333 4659 397 4499 416 4397 
C 717 4435 1037 4493 1357 4557 
L 1357 3571 
L 314 3571 
L 314 3123 
L 1293 3123 
C 1037 2387 595 1555 179 1101 
C 262 986 378 794 429 659 
C 755 1056 1094 1690 1357 2336 
L 1357 -499 
L 1830 -499 
L 1830 2259 
C 2048 1990 2304 1645 2413 1466 
L 2701 1843 
C 2573 1990 2016 2566 1830 2726 
L 1830 3123 
L 2630 3123 
L 2630 3571 
L 1830 3571 
L 1830 4666 
C 2131 4736 2413 4819 2643 4915 
L 2310 5286 
z
" transform="scale(0.015625)"/>
      <path id="NotoSansCJKjp-Regular-306e" d="M 3046 4109 
C 2976 3520 2848 2912 2688 2381 
C 2362 1299 2022 870 1722 870 
C 1434 870 1062 1229 1062 2035 
C 1062 2906 1818 3955 3046 4109 
z
M 3578 4122 
C 4666 4026 5286 3226 5286 2259 
C 5286 1152 4480 544 3661 358 
C 3514 326 3315 294 3110 275 
L 3411 -198 
C 4928 0 5811 896 5811 2240 
C 5811 3539 4858 4595 3360 4595 
C 1798 4595 563 3379 563 1990 
C 563 934 1133 282 1702 282 
C 2298 282 2803 954 3194 2272 
C 3373 2867 3494 3520 3578 4122 
z
" transform="scale(0.015625)"/>
      <path id="NotoSansCJKjp-Regular-7d44" d="M 1984 1626 
C 2157 1235 2330 717 2387 378 
L 2784 512 
C 2714 845 2528 1357 2342 1747 
L 1984 1626 
z
M 582 1715 
C 506 1152 378 582 160 192 
C 269 154 454 64 544 6 
C 749 416 909 1037 992 1645 
L 582 1715 
z
M 3578 2957 
L 5216 2957 
L 5216 1779 
L 3578 1779 
L 3578 2957 
z
M 3578 3398 
L 3578 4576 
L 5216 4576 
L 5216 3398 
L 3578 3398 
z
M 3578 1338 
L 5216 1338 
L 5216 109 
L 3578 109 
L 3578 1338 
z
M 2438 109 
L 2438 -326 
L 6189 -326 
L 6189 109 
L 5696 109 
L 5696 5018 
L 3117 5018 
L 3117 109 
L 2438 109 
z
M 230 2515 
L 269 2080 
L 1318 2138 
L 1318 -525 
L 1754 -525 
L 1754 2163 
L 2310 2195 
C 2362 2061 2406 1933 2438 1824 
L 2816 2003 
C 2720 2355 2445 2899 2176 3315 
L 1818 3162 
C 1926 2989 2035 2784 2131 2586 
L 1107 2547 
C 1555 3098 2061 3853 2445 4467 
L 2022 4646 
C 1843 4301 1600 3878 1331 3469 
C 1235 3603 1094 3763 947 3910 
C 1184 4269 1459 4781 1677 5210 
L 1248 5376 
C 1114 5018 883 4538 678 4173 
L 480 4346 
L 243 4026 
C 544 3757 883 3392 1082 3098 
C 941 2893 794 2694 653 2528 
L 230 2515 
z
" transform="scale(0.015625)"/>
      <path id="NotoSansCJKjp-Regular-307f" d="M 5427 3290 
L 4909 3347 
C 4922 3168 4915 2950 4909 2758 
C 4896 2605 4883 2445 4851 2278 
C 4339 2522 3744 2726 3098 2797 
C 3366 3392 3648 4045 3827 4333 
C 3878 4410 3936 4474 3994 4544 
L 3674 4806 
C 3590 4774 3475 4749 3354 4736 
C 3085 4717 2246 4672 1907 4672 
C 1779 4672 1594 4678 1427 4691 
L 1453 4173 
C 1606 4186 1786 4205 1926 4211 
C 2221 4230 3002 4262 3258 4275 
C 3059 3878 2816 3322 2592 2816 
C 1331 2784 461 2061 461 1120 
C 461 582 819 243 1293 243 
C 1626 243 1869 358 2099 685 
C 2342 1043 2656 1798 2906 2362 
C 3571 2304 4198 2074 4736 1773 
C 4531 1082 4070 397 3059 -32 
L 3482 -384 
C 4410 77 4902 685 5165 1517 
C 5414 1350 5638 1178 5830 1011 
L 6067 1562 
C 5862 1709 5600 1882 5293 2054 
C 5363 2426 5402 2835 5427 3290 
z
M 2394 2368 
C 2170 1869 1926 1274 1696 973 
C 1562 806 1459 749 1312 749 
C 1107 749 928 902 928 1184 
C 928 1734 1459 2298 2394 2368 
z
" transform="scale(0.015625)"/>
      <path id="NotoSansCJKjp-Regular-5408" d="M 1587 3283 
L 1587 2854 
L 4819 2854 
L 4819 3283 
L 1587 3283 
z
M 3187 4890 
C 3789 4070 4915 3168 5914 2637 
C 5997 2778 6118 2944 6234 3066 
C 5216 3520 4090 4410 3405 5363 
L 2912 5363 
C 2413 4531 1338 3552 218 2982 
C 320 2880 454 2714 518 2605 
C 1613 3194 2656 4109 3187 4890 
z
M 1254 2048 
L 1254 -518 
L 1728 -518 
L 1728 -250 
L 4685 -250 
L 4685 -518 
L 5171 -518 
L 5171 2048 
L 1254 2048 
z
M 1728 179 
L 1728 1613 
L 4685 1613 
L 4685 179 
L 1728 179 
z
" transform="scale(0.015625)"/>
      <path id="NotoSansCJKjp-Regular-308f" d="M 1875 4608 
L 1843 4000 
C 1510 3949 1133 3904 922 3891 
C 768 3885 646 3878 506 3885 
L 557 3354 
L 1811 3526 
L 1766 2906 
C 1446 2400 710 1402 352 954 
L 672 512 
C 979 947 1402 1555 1715 2022 
L 1709 1773 
C 1696 1075 1696 749 1690 134 
C 1690 32 1683 -154 1670 -243 
L 2227 -243 
C 2214 -128 2202 32 2195 147 
C 2163 717 2170 1107 2170 1690 
C 2170 1920 2176 2176 2189 2445 
C 2771 2989 3450 3360 4192 3360 
C 5037 3360 5427 2714 5427 2221 
C 5434 1120 4461 614 3379 461 
L 3616 -19 
C 5011 250 5952 922 5946 2208 
C 5939 3200 5152 3827 4269 3827 
C 3661 3827 2931 3603 2227 3021 
L 2259 3437 
C 2355 3597 2464 3770 2547 3885 
L 2355 4109 
L 2323 4096 
C 2368 4544 2419 4902 2451 5062 
L 1850 5082 
C 1875 4922 1875 4749 1875 4608 
z
" transform="scale(0.015625)"/>
      <path id="NotoSansCJKjp-Regular-305b" d="M 288 3200 
L 346 2675 
C 518 2701 794 2739 992 2765 
L 1677 2842 
C 1677 2202 1677 1523 1683 1248 
C 1715 230 1856 -109 3334 -109 
C 3981 -109 4762 -51 5190 -6 
L 5210 538 
C 4794 461 4000 384 3309 384 
C 2202 384 2189 627 2170 1318 
C 2163 1568 2163 2234 2170 2893 
C 2810 2957 3558 3034 4218 3085 
C 4205 2682 4179 2246 4147 2035 
C 4128 1888 4058 1862 3904 1862 
C 3757 1862 3482 1894 3264 1946 
L 3251 1504 
C 3424 1472 3866 1414 4096 1414 
C 4390 1414 4531 1498 4589 1779 
C 4653 2080 4666 2650 4678 3117 
C 4960 3136 5203 3149 5395 3155 
C 5555 3155 5798 3162 5901 3155 
L 5901 3654 
C 5747 3648 5568 3635 5402 3622 
L 4691 3578 
L 4704 4474 
C 4710 4608 4717 4826 4736 4934 
L 4192 4934 
C 4211 4826 4224 4595 4224 4454 
L 4224 3539 
C 3539 3482 2797 3411 2170 3354 
L 2176 4218 
C 2176 4416 2189 4589 2202 4736 
L 1645 4736 
C 1670 4538 1683 4390 1683 4192 
L 1677 3302 
L 954 3238 
C 723 3213 486 3200 288 3200 
z
" transform="scale(0.015625)"/>
     </defs>
     <use xlink:href="#NotoSansCJKjp-Regular-30de"/>
     <use xlink:href="#NotoSansCJKjp-Regular-30c3" transform="translate(99.999985 0)"/>
     <use xlink:href="#NotoSansCJKjp-Regular-30d7" transform="translate(199.999969 0)"/>
     <use xlink:href="#NotoSansCJKjp-Regular-30b5" transform="translate(299.999954 0)"/>
     <use xlink:href="#NotoSansCJKjp-Regular-30a4" transform="translate(399.999939 0)"/>
     <use xlink:href="#NotoSansCJKjp-Regular-30ba" transform="translate(499.999924 0)"/>
     <use xlink:href="#NotoSansCJKjp-Regular-ff08" transform="translate(599.999908 0)"/>
     <use xlink:href="#NotoSansCJKjp-Regular-53" transform="translate(699.999893 0)"/>
     <use xlink:href="#NotoSansCJKjp-Regular-6d" transform="translate(759.599884 0)"/>
     <use xlink:href="#NotoSansCJKjp-Regular-61" transform="translate(852.199875 0)"/>
     <use xlink:href="#NotoSansCJKjp-Regular-6c" transform="translate(908.499863 0)"/>
     <use xlink:href="#NotoSansCJKjp-Regular-6c" transform="translate(936.899857 0)"/>
     <use xlink:href="#NotoSansCJKjp-Regular-2f" transform="translate(965.29985 0)"/>
     <use xlink:href="#NotoSansCJKjp-Regular-4d" transform="translate(1004.499847 0)"/>
     <use xlink:href="#NotoSansCJKjp-Regular-65" transform="translate(1085.699829 0)"/>
     <use xlink:href="#NotoSansCJKjp-Regular-64" transform="translate(1141.099823 0)"/>
     <use xlink:href="#NotoSansCJKjp-Regular-69" transform="translate(1203.099808 0)"/>
     <use xlink:href="#NotoSansCJKjp-Regular-75" transform="translate(1230.599792 0)"/>
     <use xlink:href="#NotoSansCJKjp-Regular-6d" transform="translate(1291.299789 0)"/>
     <use xlink:href="#NotoSansCJKjp-Regular-2f" transform="translate(1383.89978 0)"/>
     <use xlink:href="#NotoSansCJKjp-Regular-4c" transform="translate(1423.099777 0)"/>
     <use xlink:href="#NotoSansCJKjp-Regular-61" transform="translate(1477.399765 0)"/>
     <use xlink:href="#NotoSansCJKjp-Regular-72" transform="translate(1533.699753 0)"/>
     <use xlink:href="#NotoSansCJKjp-Regular-67" transform="translate(1572.499741 0)"/>
     <use xlink:href="#NotoSansCJKjp-Regular-65" transform="translate(1628.899734 0)"/>
     <use xlink:href="#NotoSansCJKjp-Regular-ff09" transform="translate(1684.299728 0)"/>
     <use xlink:href="#NotoSansCJKjp-Regular-3068" transform="translate(1784.299713 0)"/>
     <use xlink:href="#NotoSansCJKjp-Regular-5730" transform="translate(1884.299698 0)"/>
     <use xlink:href="#NotoSansCJKjp-Regular-5f62" transform="translate(1984.299683 0)"/>
     <use xlink:href="#NotoSansCJKjp-Regular-8907" transform="translate(2084.299667 0)"/>
     <use xlink:href="#NotoSansCJKjp-Regular-96d1" transform="translate(2184.299652 0)"/>
     <use xlink:href="#NotoSansCJKjp-Regular-5ea6" transform="translate(2284.299637 0)"/>
     <use xlink:href="#NotoSansCJKjp-Regular-ff08" transform="translate(2384.299622 0)"/>
     <use xlink:href="#NotoSansCJKjp-Regular-5358" transform="translate(2484.299606 0)"/>
     <use xlink:href="#NotoSansCJKjp-Regular-7d14" transform="translate(2584.299591 0)"/>
     <use xlink:href="#NotoSansCJKjp-Regular-2f" transform="translate(2684.299576 0)"/>
     <use xlink:href="#NotoSansCJKjp-Regular-4e2d" transform="translate(2723.499573 0)"/>
     <use xlink:href="#NotoSansCJKjp-Regular-7a0b" transform="translate(2823.499557 0)"/>
     <use xlink:href="#NotoSansCJKjp-Regular-5ea6" transform="translate(2923.499542 0)"/>
     <use xlink:href="#NotoSansCJKjp-Regular-2f" transform="translate(3023.499527 0)"/>
     <use xlink:href="#NotoSansCJKjp-Regular-8907" transform="translate(3062.699524 0)"/>
     <use xlink:href="#NotoSansCJKjp-Regular-96d1" transform="translate(3162.699509 0)"/>
     <use xlink:href="#NotoSansCJKjp-Regular-ff09" transform="translate(3262.699493 0)"/>
     <use xlink:href="#NotoSansCJKjp-Regular-306e" transform="translate(3362.699478 0)"/>
     <use xlink:href="#NotoSansCJKjp-Regular-7d44" transform="translate(3462.699463 0)"/>
     <use xlink:href="#NotoSansCJKjp-Regular-307f" transform="translate(3562.699448 0)"/>
     <use xlink:href="#NotoSansCJKjp-Regular-5408" transform="translate(3662.699432 0)"/>
     <use xlink:href="#NotoSansCJKjp-Regular-308f" transform="translate(3762.699417 0)"/>
     <use xlink:href="#NotoSansCJKjp-Regular-305b" transform="translate(3862.699402 0)"/>
    </g>
   </g>
  </g>
 </g>
</svg>
