<?xml version="1.0" encoding="utf-8" standalone="no"?>
<!DOCTYPE svg PUBLIC "-//W3C//DTD SVG 1.1//EN"
  "http://www.w3.org/Graphics/SVG/1.1/DTD/svg11.dtd">
<svg xmlns:xlink="http://www.w3.org/1999/xlink" width="856.8pt" height="416.415925pt" viewBox="0 0 856.8 416.415925" xmlns="http://www.w3.org/2000/svg" version="1.1">
 <metadata>
  <rdf:RDF xmlns:dc="http://purl.org/dc/elements/1.1/" xmlns:cc="http://creativecommons.org/ns#" xmlns:rdf="http://www.w3.org/1999/02/22-rdf-syntax-ns#">
   <cc:Work>
    <dc:type rdf:resource="http://purl.org/dc/dcmitype/StillImage"/>
    <dc:date>2026-02-13T12:02:32.169753</dc:date>
    <dc:format>image/svg+xml</dc:format>
    <dc:creator>
     <cc:Agent>
      <dc:title>Matplotlib v3.10.8, https://matplotlib.org/</dc:title>
     </cc:Agent>
    </dc:creator>
   </cc:Work>
  </rdf:RDF>
 </metadata>
 <defs>
  <style type="text/css">*{stroke-linejoin: round; stroke-linecap: butt}</style>
 </defs>
 <g id="figure_1">
  <g id="patch_1">
   <path d="M 0 416.415925 
L 856.8 416.415925 
L 856.8 0 
L 0 0 
z
" style="fill: #ffffff"/>
  </g>
  <g id="axes_1">
   <g id="patch_2">
    <path d="M 7.2 272.23125 
L 423 272.23125 
L 423 22.75125 
L 7.2 22.75125 
z
" style="fill: #ffffff"/>
   </g>
   <g id="matplotlib.axis_1"/>
   <g id="matplotlib.axis_2"/>
   <g id="line2d_1">
    <path d="M 7.2 272.23125 
L 7.2 22.75125 
" clip-path="url(#ped83da223d)" style="fill: none; stroke: #e6e6e6; stroke-width: 0.6; stroke-linecap: square"/>
   </g>
   <g id="line2d_2">
    <path d="M 48.78 272.23125 
L 48.78 22.75125 
" clip-path="url(#ped83da223d)" style="fill: none; stroke: #e6e6e6; stroke-width: 0.6; stroke-linecap: square"/>
   </g>
   <g id="line2d_3">
    <path d="M 90.36 272.23125 
L 90.36 22.75125 
" clip-path="url(#ped83da223d)" style="fill: none; stroke: #e6e6e6; stroke-width: 0.6; stroke-linecap: square"/>
   </g>
   <g id="line2d_4">
    <path d="M 131.94 272.23125 
L 131.94 22.75125 
" clip-path="url(#ped83da223d)" style="fill: none; stroke: #e6e6e6; stroke-width: 0.6; stroke-linecap: square"/>
   </g>
   <g id="line2d_5">
    <path d="M 173.52 272.23125 
L 173.52 22.75125 
" clip-path="url(#ped83da223d)" style="fill: none; stroke: #e6e6e6; stroke-width: 0.6; stroke-linecap: square"/>
   </g>
   <g id="line2d_6">
    <path d="M 215.1 272.23125 
L 215.1 22.75125 
" clip-path="url(#ped83da223d)" style="fill: none; stroke: #e6e6e6; stroke-width: 0.6; stroke-linecap: square"/>
   </g>
   <g id="line2d_7">
    <path d="M 256.68 272.23125 
L 256.68 22.75125 
" clip-path="url(#ped83da223d)" style="fill: none; stroke: #e6e6e6; stroke-width: 0.6; stroke-linecap: square"/>
   </g>
   <g id="line2d_8">
    <path d="M 298.26 272.23125 
L 298.26 22.75125 
" clip-path="url(#ped83da223d)" style="fill: none; stroke: #e6e6e6; stroke-width: 0.6; stroke-linecap: square"/>
   </g>
   <g id="line2d_9">
    <path d="M 339.84 272.23125 
L 339.84 22.75125 
" clip-path="url(#ped83da223d)" style="fill: none; stroke: #e6e6e6; stroke-width: 0.6; stroke-linecap: square"/>
   </g>
   <g id="line2d_10">
    <path d="M 381.42 272.23125 
L 381.42 22.75125 
" clip-path="url(#ped83da223d)" style="fill: none; stroke: #e6e6e6; stroke-width: 0.6; stroke-linecap: square"/>
   </g>
   <g id="line2d_11">
    <path d="M 423 272.23125 
L 423 22.75125 
" clip-path="url(#ped83da223d)" style="fill: none; stroke: #e6e6e6; stroke-width: 0.6; stroke-linecap: square"/>
   </g>
   <g id="line2d_12">
    <path d="M 7.2 272.23125 
L 423 272.23125 
" clip-path="url(#ped83da223d)" style="fill: none; stroke: #e6e6e6; stroke-width: 0.6; stroke-linecap: square"/>
   </g>
   <g id="line2d_13">
    <path d="M 7.2 230.65125 
L 423 230.65125 
" clip-path="url(#ped83da223d)" style="fill: none; stroke: #e6e6e6; stroke-width: 0.6; stroke-linecap: square"/>
   </g>
   <g id="line2d_14">
    <path d="M 7.2 189.07125 
L 423 189.07125 
" clip-path="url(#ped83da223d)" style="fill: none; stroke: #e6e6e6; stroke-width: 0.6; stroke-linecap: square"/>
   </g>
   <g id="line2d_15">
    <path d="M 7.2 147.49125 
L 423 147.49125 
" clip-path="url(#ped83da223d)" style="fill: none; stroke: #e6e6e6; stroke-width: 0.6; stroke-linecap: square"/>
   </g>
   <g id="line2d_16">
    <path d="M 7.2 105.91125 
L 423 105.91125 
" clip-path="url(#ped83da223d)" style="fill: none; stroke: #e6e6e6; stroke-width: 0.6; stroke-linecap: square"/>
   </g>
   <g id="line2d_17">
    <path d="M 7.2 64.33125 
L 423 64.33125 
" clip-path="url(#ped83da223d)" style="fill: none; stroke: #e6e6e6; stroke-width: 0.6; stroke-linecap: square"/>
   </g>
   <g id="line2d_18">
    <path d="M 7.2 22.75125 
L 423 22.75125 
" clip-path="url(#ped83da223d)" style="fill: none; stroke: #e6e6e6; stroke-width: 0.6; stroke-linecap: square"/>
   </g>
   <g id="line2d_19">
    <path d="M 27.99 238.96725 
L 90.36 238.96725 
L 90.36 180.75525 
L 173.52 180.75525 
L 173.52 114.22725 
L 277.47 114.22725 
L 277.47 56.01525 
L 389.736 56.01525 
" clip-path="url(#ped83da223d)" style="fill: none; stroke: #4e5f7c; stroke-width: 3; stroke-linecap: square"/>
   </g>
   <g id="patch_3">
    <path d="M 7.2 272.23125 
L 7.2 22.75125 
" style="fill: none; stroke: #000000; stroke-width: 0.8; stroke-linejoin: miter; stroke-linecap: square"/>
   </g>
   <g id="patch_4">
    <path d="M 423 272.23125 
L 423 22.75125 
" style="fill: none; stroke: #000000; stroke-width: 0.8; stroke-linejoin: miter; stroke-linecap: square"/>
   </g>
   <g id="patch_5">
    <path d="M 7.2 272.23125 
L 423 272.23125 
" style="fill: none; stroke: #000000; stroke-width: 0.8; stroke-linejoin: miter; stroke-linecap: square"/>
   </g>
   <g id="patch_6">
    <path d="M 7.2 22.75125 
L 423 22.75125 
" style="fill: none; stroke: #000000; stroke-width: 0.8; stroke-linejoin: miter; stroke-linecap: square"/>
   </g>
   <g id="text_1">
    <!-- ・グリッド探索 -->
    <g style="fill: #333333" transform="translate(15.516 39.38325) scale(0.1 -0.1)">
     <defs>
      <path id="NotoSansCJKjp-Regular-30fb" d="M 3200 3110 
C 2822 3110 2522 2810 2522 2432 
C 2522 2054 2822 1754 3200 1754 
C 3578 1754 3878 2054 3878 2432 
C 3878 2810 3578 3110 3200 3110 
z
" transform="scale(0.015625)"/>
      <path id="NotoSansCJKjp-Regular-30b0" d="M 4896 5120 
L 4557 4973 
C 4730 4736 4947 4346 5075 4090 
L 5421 4243 
C 5286 4506 5056 4890 4896 5120 
z
M 5600 5376 
L 5261 5229 
C 5440 4992 5651 4627 5792 4352 
L 6131 4506 
C 6016 4742 5766 5139 5600 5376 
z
M 3174 4813 
L 2586 5011 
C 2547 4845 2451 4614 2387 4499 
C 2106 3930 1478 2995 371 2336 
L 819 2010 
C 1523 2470 2054 3040 2445 3584 
L 4602 3584 
C 4474 3002 4077 2170 3584 1587 
C 3002 902 2202 326 1024 -19 
L 1491 -442 
C 2688 6 3456 589 4038 1299 
C 4608 1997 4998 2861 5171 3507 
C 5203 3610 5267 3757 5318 3846 
L 4896 4102 
C 4794 4064 4653 4045 4480 4045 
L 2746 4045 
L 2893 4314 
C 2957 4429 3072 4646 3174 4813 
z
" transform="scale(0.015625)"/>
      <path id="NotoSansCJKjp-Regular-30ea" d="M 4966 4858 
L 4365 4858 
C 4384 4698 4397 4518 4397 4301 
C 4397 4077 4397 3533 4397 3290 
C 4397 2080 4320 1562 3866 1030 
C 3469 582 2925 326 2336 179 
L 2752 -262 
C 3219 -102 3859 173 4275 672 
C 4736 1222 4947 1728 4947 3264 
C 4947 3507 4947 4045 4947 4301 
C 4947 4518 4954 4698 4966 4858 
z
M 1997 4806 
L 1414 4806 
C 1427 4685 1440 4461 1440 4346 
C 1440 4154 1440 2483 1440 2214 
C 1440 2022 1421 1818 1408 1722 
L 1997 1722 
C 1984 1837 1971 2048 1971 2208 
C 1971 2477 1971 4154 1971 4346 
C 1971 4499 1984 4685 1997 4806 
z
" transform="scale(0.015625)"/>
      <path id="NotoSansCJKjp-Regular-30c3" d="M 3091 3686 
L 2624 3526 
C 2752 3238 3053 2426 3123 2138 
L 3597 2304 
C 3514 2586 3200 3430 3091 3686 
z
M 5408 3328 
L 4858 3501 
C 4762 2682 4429 1869 3974 1312 
C 3450 653 2637 166 1894 -51 
L 2317 -480 
C 3034 -205 3814 288 4403 1043 
C 4864 1619 5139 2304 5312 3008 
C 5338 3091 5363 3194 5408 3328 
z
M 1606 3366 
L 1133 3181 
C 1254 2957 1606 2074 1702 1741 
L 2189 1920 
C 2067 2253 1734 3091 1606 3366 
z
" transform="scale(0.015625)"/>
      <path id="NotoSansCJKjp-Regular-30c9" d="M 4198 4608 
L 3846 4448 
C 4058 4160 4256 3808 4416 3475 
L 4781 3642 
C 4634 3942 4358 4371 4198 4608 
z
M 4973 4928 
L 4621 4762 
C 4838 4480 5043 4141 5216 3802 
L 5574 3981 
C 5421 4275 5139 4704 4973 4928 
z
M 1952 480 
C 1952 243 1939 -70 1914 -275 
L 2528 -275 
C 2509 -70 2490 275 2490 480 
L 2490 2586 
C 3200 2368 4307 1939 4998 1562 
L 5222 2106 
C 4544 2445 3334 2899 2490 3155 
L 2490 4205 
C 2490 4397 2509 4672 2534 4870 
L 1901 4870 
C 1939 4672 1952 4384 1952 4205 
C 1952 3667 1952 838 1952 480 
z
" transform="scale(0.015625)"/>
      <path id="NotoSansCJKjp-Regular-63a2" d="M 4442 4403 
L 4442 3270 
C 4442 2842 4538 2720 5005 2720 
C 5094 2720 5542 2720 5638 2720 
C 5990 2720 6112 2880 6157 3514 
C 6035 3546 5856 3610 5760 3680 
C 5747 3174 5722 3117 5581 3117 
C 5491 3117 5133 3117 5062 3117 
C 4902 3117 4877 3136 4877 3270 
L 4877 4403 
L 4442 4403 
z
M 2394 5024 
L 2394 3872 
L 2816 3872 
L 2816 4602 
L 5594 4602 
L 5594 3891 
L 6022 3891 
L 6022 5024 
L 2394 5024 
z
M 3418 4397 
C 3366 3571 3174 3149 2246 2918 
C 2336 2842 2451 2682 2496 2573 
C 3552 2867 3795 3398 3859 4397 
L 3418 4397 
z
M 3923 2771 
L 3923 2074 
L 2291 2074 
L 2291 1638 
L 3622 1638 
C 3238 992 2611 422 1946 134 
C 2048 45 2182 -128 2253 -237 
C 2906 90 3514 672 3923 1357 
L 3923 -512 
L 4397 -512 
L 4397 1363 
C 4787 723 5357 128 5926 -205 
C 6003 -83 6150 83 6253 173 
C 5670 461 5069 1030 4704 1638 
L 6074 1638 
L 6074 2074 
L 4397 2074 
L 4397 2771 
L 3923 2771 
z
M 1069 5370 
L 1069 4083 
L 269 4083 
L 269 3635 
L 1069 3635 
L 1069 2323 
L 179 2054 
L 301 1594 
L 1069 1843 
L 1069 45 
C 1069 -45 1037 -70 960 -70 
C 883 -77 634 -77 358 -64 
C 416 -198 480 -397 493 -512 
C 902 -518 1146 -499 1299 -422 
C 1459 -352 1517 -218 1517 45 
L 1517 1990 
L 2221 2221 
L 2150 2662 
L 1517 2464 
L 1517 3635 
L 2208 3635 
L 2208 4083 
L 1517 4083 
L 1517 5370 
L 1069 5370 
z
" transform="scale(0.015625)"/>
      <path id="NotoSansCJKjp-Regular-7d22" d="M 4038 627 
C 4602 333 5299 -115 5626 -429 
L 6022 -141 
C 5658 179 4960 608 4410 877 
L 4038 627 
z
M 1856 883 
C 1472 506 858 128 282 -109 
C 397 -186 582 -352 666 -442 
C 1216 -173 1875 269 2310 710 
L 1856 883 
z
M 474 3776 
L 474 2566 
L 928 2566 
L 928 3354 
L 2611 3354 
C 2381 3110 2054 2822 1773 2598 
L 1440 2771 
L 1120 2496 
C 1530 2285 2016 1984 2336 1734 
L 1894 1459 
L 422 1453 
L 448 1005 
L 2950 1062 
L 2950 -525 
L 3424 -525 
L 3424 1075 
L 5254 1133 
C 5402 1011 5536 896 5638 794 
L 5971 1088 
C 5619 1427 4909 1920 4346 2246 
L 4026 1997 
C 4262 1856 4525 1677 4768 1498 
L 2630 1472 
C 3277 1875 3974 2374 4531 2822 
L 4090 3059 
C 3738 2733 3238 2349 2726 1997 
C 2560 2125 2349 2266 2125 2400 
C 2458 2637 2842 2957 3155 3258 
L 2957 3354 
L 5485 3354 
L 5485 2566 
L 5952 2566 
L 5952 3776 
L 3424 3776 
L 3424 4390 
L 5901 4390 
L 5901 4813 
L 3424 4813 
L 3424 5382 
L 2944 5382 
L 2944 4813 
L 486 4813 
L 486 4390 
L 2944 4390 
L 2944 3776 
L 474 3776 
z
" transform="scale(0.015625)"/>
     </defs>
     <use xlink:href="#NotoSansCJKjp-Regular-30fb"/>
     <use xlink:href="#NotoSansCJKjp-Regular-30b0" transform="translate(99.999985 0)"/>
     <use xlink:href="#NotoSansCJKjp-Regular-30ea" transform="translate(199.999969 0)"/>
     <use xlink:href="#NotoSansCJKjp-Regular-30c3" transform="translate(299.999954 0)"/>
     <use xlink:href="#NotoSansCJKjp-Regular-30c9" transform="translate(399.999939 0)"/>
     <use xlink:href="#NotoSansCJKjp-Regular-63a2" transform="translate(499.999924 0)"/>
     <use xlink:href="#NotoSansCJKjp-Regular-7d22" transform="translate(599.999908 0)"/>
    </g>
   </g>
   <g id="text_2">
    <!-- ・地形コスト Tc を考慮 -->
    <g style="fill: #333333" transform="translate(15.516 56.01525) scale(0.1 -0.1)">
     <defs>
      <path id="NotoSansCJKjp-Regular-5730" d="M 2746 4781 
L 2746 3027 
L 2054 2739 
L 2234 2310 
L 2746 2528 
L 2746 506 
C 2746 -192 2957 -365 3693 -365 
C 3859 -365 5094 -365 5274 -365 
C 5939 -365 6099 -83 6170 800 
C 6042 819 5850 896 5741 979 
C 5696 243 5632 70 5254 70 
C 4998 70 3923 70 3712 70 
C 3283 70 3206 141 3206 493 
L 3206 2726 
L 4064 3091 
L 4064 915 
L 4518 915 
L 4518 3283 
L 5414 3667 
C 5414 2637 5402 1926 5370 1773 
C 5338 1626 5280 1600 5178 1600 
C 5114 1600 4902 1600 4749 1613 
C 4806 1504 4845 1318 4864 1190 
C 5043 1190 5299 1190 5466 1242 
C 5658 1286 5779 1402 5818 1664 
C 5862 1914 5875 2874 5875 4077 
L 5901 4166 
L 5562 4294 
L 5472 4224 
L 5376 4134 
L 4518 3776 
L 4518 5376 
L 4064 5376 
L 4064 3584 
L 3206 3226 
L 3206 4781 
L 2746 4781 
z
M 211 986 
L 403 506 
C 966 755 1696 1082 2381 1402 
L 2272 1830 
L 1542 1523 
L 1542 3379 
L 2298 3379 
L 2298 3834 
L 1542 3834 
L 1542 5299 
L 1088 5299 
L 1088 3834 
L 269 3834 
L 269 3379 
L 1088 3379 
L 1088 1331 
C 755 1197 454 1075 211 986 
z
" transform="scale(0.015625)"/>
      <path id="NotoSansCJKjp-Regular-5f62" d="M 5414 5274 
C 5018 4755 4288 4211 3674 3904 
C 3795 3814 3936 3674 4019 3565 
C 4672 3923 5389 4499 5862 5088 
L 5414 5274 
z
M 5600 3507 
C 5171 2950 4397 2374 3738 2042 
C 3859 1946 4000 1798 4083 1702 
C 4768 2080 5542 2701 6035 3328 
L 5600 3507 
z
M 5747 1779 
C 5267 979 4358 269 3405 -122 
C 3533 -224 3674 -390 3750 -506 
C 4736 -51 5651 710 6195 1600 
L 5747 1779 
z
M 2586 4531 
L 2586 2874 
L 1555 2874 
L 1555 4531 
L 2586 4531 
z
M 262 2874 
L 262 2426 
L 1094 2426 
C 1069 1472 928 531 237 -230 
C 352 -294 518 -448 595 -550 
C 1363 288 1523 1350 1549 2426 
L 2586 2426 
L 2586 -506 
L 3059 -506 
L 3059 2426 
L 3750 2426 
L 3750 2874 
L 3059 2874 
L 3059 4531 
L 3667 4531 
L 3667 4979 
L 371 4979 
L 371 4531 
L 1101 4531 
L 1101 2874 
L 262 2874 
z
" transform="scale(0.015625)"/>
      <path id="NotoSansCJKjp-Regular-30b3" d="M 1018 858 
L 1018 275 
C 1190 288 1478 301 1741 301 
L 4870 301 
L 4858 -58 
L 5434 -58 
C 5427 45 5408 333 5408 563 
L 5408 3866 
C 5408 4019 5421 4218 5427 4365 
C 5299 4358 5107 4352 4954 4352 
L 1798 4352 
C 1594 4352 1312 4365 1101 4390 
L 1101 3821 
C 1248 3827 1568 3840 1805 3840 
L 4870 3840 
L 4870 819 
L 1728 819 
C 1459 819 1184 838 1018 858 
z
" transform="scale(0.015625)"/>
      <path id="NotoSansCJKjp-Regular-30b9" d="M 5120 4282 
L 4794 4531 
C 4691 4499 4525 4480 4314 4480 
C 4077 4480 2099 4480 1843 4480 
C 1651 4480 1286 4506 1197 4518 
L 1197 3936 
C 1267 3942 1619 3968 1843 3968 
C 2067 3968 4109 3968 4339 3968 
C 4179 3437 3712 2682 3277 2189 
C 2618 1453 1670 691 640 288 
L 1050 -141 
C 1997 288 2861 992 3546 1728 
C 4198 1146 4877 397 5306 -173 
L 5754 211 
C 5338 717 4557 1549 3885 2125 
C 4339 2701 4742 3450 4960 4000 
C 4998 4090 5082 4230 5120 4282 
z
" transform="scale(0.015625)"/>
      <path id="NotoSansCJKjp-Regular-30c8" d="M 2157 563 
C 2157 326 2144 13 2112 -192 
L 2733 -192 
C 2707 19 2694 365 2694 563 
L 2688 2675 
C 3398 2451 4506 2022 5203 1645 
L 5421 2189 
C 4749 2528 3533 2989 2688 3245 
L 2688 4288 
C 2688 4480 2714 4755 2733 4954 
L 2106 4954 
C 2144 4755 2157 4467 2157 4288 
C 2157 3750 2157 922 2157 563 
z
" transform="scale(0.015625)"/>
      <path id="NotoSansCJKjp-Regular-20" transform="scale(0.015625)"/>
      <path id="NotoSansCJKjp-Regular-54" d="M 1619 0 
L 2214 0 
L 2214 4192 
L 3635 4192 
L 3635 4691 
L 198 4691 
L 198 4192 
L 1619 4192 
L 1619 0 
z
" transform="scale(0.015625)"/>
      <path id="NotoSansCJKjp-Regular-63" d="M 1958 -83 
C 2374 -83 2771 83 3085 352 
L 2829 749 
C 2611 557 2330 403 2010 403 
C 1370 403 934 934 934 1734 
C 934 2534 1395 3072 2029 3072 
C 2298 3072 2522 2950 2720 2771 
L 3014 3155 
C 2771 3373 2458 3565 2003 3565 
C 1107 3565 333 2893 333 1734 
C 333 582 1037 -83 1958 -83 
z
" transform="scale(0.015625)"/>
      <path id="NotoSansCJKjp-Regular-3092" d="M 5645 2822 
L 5434 3302 
C 5254 3206 5101 3136 4909 3053 
C 4576 2899 4186 2746 3744 2534 
C 3648 2906 3309 3110 2893 3110 
C 2618 3110 2246 3027 2003 2874 
C 2221 3162 2432 3526 2579 3866 
C 3277 3891 4070 3942 4704 4045 
L 4710 4518 
C 4109 4410 3411 4352 2758 4320 
C 2854 4621 2906 4870 2944 5062 
L 2419 5107 
C 2406 4870 2349 4582 2259 4307 
L 1837 4301 
C 1542 4301 1094 4326 755 4371 
L 755 3891 
C 1107 3866 1530 3853 1805 3853 
L 2086 3853 
C 1843 3334 1414 2675 608 1894 
L 1043 1574 
C 1261 1830 1440 2067 1626 2240 
C 1914 2509 2323 2707 2726 2707 
C 3014 2707 3245 2586 3309 2310 
C 2560 1920 1798 1446 1798 691 
C 1798 -90 2534 -288 3450 -288 
C 4006 -288 4717 -237 5203 -173 
L 5216 339 
C 4653 243 3968 186 3469 186 
C 2810 186 2310 262 2310 762 
C 2310 1184 2726 1523 3322 1837 
C 3322 1504 3315 1088 3302 838 
L 3795 838 
L 3776 2067 
C 4262 2298 4717 2483 5075 2618 
C 5248 2688 5478 2778 5645 2822 
z
" transform="scale(0.015625)"/>
      <path id="NotoSansCJKjp-Regular-8003" d="M 1965 2637 
L 1933 2490 
C 1357 2195 755 1939 147 1728 
C 243 1638 397 1446 461 1344 
C 915 1517 1363 1715 1805 1933 
C 1702 1504 1587 1069 1485 762 
L 1965 691 
L 2054 1005 
L 4704 1005 
C 4595 365 4480 58 4346 -45 
C 4282 -96 4205 -109 4070 -109 
C 3917 -109 3494 -96 3098 -58 
C 3174 -192 3238 -371 3245 -506 
C 3642 -531 4026 -531 4218 -518 
C 4448 -512 4582 -480 4717 -365 
C 4928 -179 5069 250 5216 1197 
C 5235 1267 5242 1414 5242 1414 
L 2163 1414 
L 2285 1894 
C 3302 1971 4480 2112 5248 2323 
L 4941 2656 
C 4352 2496 3341 2342 2419 2253 
C 2861 2502 3290 2771 3699 3059 
L 5926 3059 
L 5926 3482 
L 4256 3482 
C 4774 3904 5254 4358 5664 4858 
L 5274 5082 
C 5056 4813 4806 4550 4544 4301 
L 4544 4621 
L 3008 4621 
L 3008 5376 
L 2534 5376 
L 2534 4621 
L 909 4621 
L 909 4211 
L 2534 4211 
L 2534 3482 
L 416 3482 
L 416 3059 
L 2931 3059 
C 2682 2906 2432 2752 2170 2618 
L 1965 2637 
z
M 3008 3482 
L 3008 4211 
L 4448 4211 
C 4173 3955 3872 3712 3552 3482 
L 3008 3482 
z
" transform="scale(0.015625)"/>
      <path id="NotoSansCJKjp-Regular-616e" d="M 2330 774 
L 2330 122 
C 2330 -307 2477 -410 3072 -410 
C 3200 -410 4051 -410 4179 -410 
C 4614 -410 4749 -282 4794 256 
C 4672 282 4499 339 4403 403 
C 4384 13 4346 -32 4128 -32 
C 3949 -32 3245 -32 3110 -32 
C 2816 -32 2771 -13 2771 128 
L 2771 774 
L 2330 774 
z
M 1664 749 
C 1568 371 1344 51 954 -115 
L 1274 -384 
C 1722 -173 1926 205 2042 627 
L 1664 749 
z
M 4774 640 
C 5152 358 5568 -64 5741 -365 
L 6125 -147 
C 5939 154 5517 557 5133 832 
L 4774 640 
z
M 794 4282 
L 794 2637 
C 794 1786 749 595 250 -256 
C 365 -301 570 -429 653 -499 
C 1178 390 1261 1715 1261 2637 
L 1261 3917 
L 2886 3917 
L 2886 3590 
L 1619 3533 
L 1632 3258 
L 2886 3315 
L 2886 3277 
C 2886 2874 3091 2797 3782 2797 
C 3930 2797 5171 2797 5338 2797 
C 5798 2797 5946 2899 5984 3309 
C 5869 3322 5715 3360 5619 3411 
C 5594 3130 5536 3085 5274 3085 
C 5024 3085 3987 3085 3802 3085 
C 3405 3085 3341 3117 3341 3270 
L 3341 3341 
L 4954 3418 
L 4941 3686 
L 3341 3610 
L 3341 3917 
L 5370 3917 
C 5306 3757 5235 3597 5171 3482 
L 5581 3341 
L 5619 3411 
C 5741 3629 5882 3930 5978 4205 
L 5632 4307 
L 5549 4282 
L 3366 4282 
L 3366 4627 
L 5542 4627 
L 5542 4973 
L 3366 4973 
L 3366 5376 
L 2893 5376 
L 2893 4282 
L 794 4282 
z
M 2176 1664 
L 3309 1664 
L 3309 1331 
L 2176 1331 
L 2176 1664 
z
M 3750 1664 
L 4922 1664 
L 4922 1331 
L 3750 1331 
L 3750 1664 
z
M 2176 2253 
L 3309 2253 
L 3309 1933 
L 2176 1933 
L 2176 2253 
z
M 3750 2253 
L 4922 2253 
L 4922 1933 
L 3750 1933 
L 3750 2253 
z
M 2893 877 
C 3206 736 3565 493 3731 301 
L 4026 570 
C 3872 730 3590 922 3315 1056 
L 5382 1056 
L 5382 2528 
L 1734 2528 
L 1734 1056 
L 3098 1056 
L 2893 877 
z
" transform="scale(0.015625)"/>
     </defs>
     <use xlink:href="#NotoSansCJKjp-Regular-30fb"/>
     <use xlink:href="#NotoSansCJKjp-Regular-5730" transform="translate(99.999985 0)"/>
     <use xlink:href="#NotoSansCJKjp-Regular-5f62" transform="translate(199.999969 0)"/>
     <use xlink:href="#NotoSansCJKjp-Regular-30b3" transform="translate(299.999954 0)"/>
     <use xlink:href="#NotoSansCJKjp-Regular-30b9" transform="translate(399.999939 0)"/>
     <use xlink:href="#NotoSansCJKjp-Regular-30c8" transform="translate(499.999924 0)"/>
     <use xlink:href="#NotoSansCJKjp-Regular-20" transform="translate(599.999908 0)"/>
     <use xlink:href="#NotoSansCJKjp-Regular-54" transform="translate(622.399902 0)"/>
     <use xlink:href="#NotoSansCJKjp-Regular-63" transform="translate(682.299896 0)"/>
     <use xlink:href="#NotoSansCJKjp-Regular-20" transform="translate(733.299881 0)"/>
     <use xlink:href="#NotoSansCJKjp-Regular-3092" transform="translate(755.699875 0)"/>
     <use xlink:href="#NotoSansCJKjp-Regular-8003" transform="translate(855.69986 0)"/>
     <use xlink:href="#NotoSansCJKjp-Regular-616e" transform="translate(955.699844 0)"/>
    </g>
   </g>
   <g id="text_3">
    <!-- ・経路が折れやすい -->
    <g style="fill: #333333" transform="translate(15.516 72.64725) scale(0.1 -0.1)">
     <defs>
      <path id="NotoSansCJKjp-Regular-7d4c" d="M 1907 1651 
C 2074 1274 2240 787 2304 467 
L 2669 595 
C 2605 909 2438 1395 2259 1760 
L 1907 1651 
z
M 582 1715 
C 506 1152 378 582 160 192 
C 269 154 454 64 544 6 
C 749 416 909 1037 992 1645 
L 582 1715 
z
M 5229 4621 
C 5018 4192 4710 3821 4346 3514 
C 3994 3827 3712 4198 3520 4621 
L 5229 4621 
z
M 2662 5043 
L 2662 4621 
L 3341 4621 
L 3072 4531 
C 3296 4032 3603 3603 3987 3245 
C 3546 2950 3046 2726 2528 2586 
C 2624 2483 2746 2304 2803 2182 
C 3360 2362 3891 2605 4358 2938 
C 4813 2605 5344 2362 5939 2202 
C 6003 2323 6138 2502 6234 2598 
C 5664 2726 5158 2938 4730 3226 
C 5229 3661 5626 4218 5875 4922 
L 5555 5062 
L 5459 5043 
L 2662 5043 
z
M 4134 2522 
L 4134 1594 
L 2912 1594 
L 2912 1165 
L 4134 1165 
L 4134 109 
L 2496 109 
L 2496 -320 
L 6157 -320 
L 6157 109 
L 4608 109 
L 4608 1165 
L 5875 1165 
L 5875 1594 
L 4608 1594 
L 4608 2522 
L 4134 2522 
z
M 218 2509 
L 262 2074 
L 1267 2138 
L 1267 -525 
L 1696 -525 
L 1696 2163 
L 2202 2195 
C 2259 2054 2298 1926 2323 1818 
L 2688 1978 
C 2598 2330 2342 2880 2080 3296 
L 1741 3155 
C 1850 2982 1952 2778 2042 2579 
L 1088 2541 
C 1523 3104 2010 3853 2374 4461 
L 1971 4646 
C 1798 4301 1568 3891 1312 3494 
C 1216 3622 1082 3770 941 3917 
C 1178 4269 1453 4781 1670 5203 
L 1248 5376 
C 1114 5018 883 4538 678 4179 
L 486 4346 
L 243 4026 
C 538 3763 870 3398 1069 3117 
C 928 2899 781 2694 646 2522 
L 218 2509 
z
" transform="scale(0.015625)"/>
      <path id="NotoSansCJKjp-Regular-8def" d="M 998 4685 
L 2208 4685 
L 2208 3558 
L 998 3558 
L 998 4685 
z
M 243 269 
L 326 -198 
C 1005 -38 1926 186 2803 410 
L 2758 838 
L 1914 640 
L 1914 1786 
L 2592 1786 
C 2682 1696 2771 1562 2822 1466 
C 2950 1523 3078 1581 3206 1651 
L 3206 -499 
L 3654 -499 
L 3654 -262 
L 5267 -262 
L 5267 -480 
L 5722 -480 
L 5722 1638 
L 5926 1542 
C 5997 1670 6131 1856 6227 1946 
C 5645 2163 5158 2502 4755 2893 
C 5165 3373 5491 3942 5702 4608 
L 5402 4742 
L 5312 4723 
L 4070 4723 
C 4147 4902 4211 5082 4275 5267 
L 3821 5382 
C 3578 4608 3155 3878 2650 3405 
L 2650 5107 
L 570 5107 
L 570 3136 
L 1478 3136 
L 1478 538 
L 979 422 
L 979 2534 
L 570 2534 
L 570 333 
L 243 269 
z
M 3654 160 
L 3654 1395 
L 5267 1395 
L 5267 160 
L 3654 160 
z
M 5101 4301 
C 4934 3904 4710 3546 4448 3226 
C 4179 3539 3968 3872 3814 4192 
L 3872 4301 
L 5101 4301 
z
M 3494 1811 
C 3834 2022 4166 2272 4461 2573 
C 4736 2291 5050 2029 5408 1811 
L 3494 1811 
z
M 4160 2906 
C 3731 2470 3226 2131 2714 1907 
L 2714 2214 
L 1914 2214 
L 1914 3136 
L 2650 3136 
L 2650 3341 
C 2758 3264 2918 3130 2989 3053 
C 3194 3258 3392 3507 3571 3789 
C 3731 3501 3923 3200 4160 2906 
z
" transform="scale(0.015625)"/>
      <path id="NotoSansCJKjp-Regular-304c" d="M 4915 4230 
L 4448 4019 
C 4902 3494 5402 2381 5594 1722 
L 6086 1958 
C 5875 2554 5312 3712 4915 4230 
z
M 4992 5158 
L 4646 5018 
C 4819 4774 5037 4384 5165 4128 
L 5517 4282 
C 5382 4538 5152 4934 4992 5158 
z
M 5696 5414 
L 5357 5274 
C 5536 5030 5747 4666 5888 4390 
L 6234 4544 
C 6112 4781 5862 5184 5696 5414 
z
M 410 3565 
L 467 3014 
C 627 3040 896 3072 1043 3091 
L 1856 3174 
C 1638 2317 1158 858 506 -13 
L 1024 -224 
C 1702 858 2138 2310 2374 3226 
C 2650 3251 2906 3270 3059 3270 
C 3469 3270 3738 3162 3738 2579 
C 3738 1888 3642 1050 3437 621 
C 3309 339 3110 288 2874 288 
C 2694 288 2362 339 2093 422 
L 2176 -115 
C 2381 -160 2682 -205 2931 -205 
C 3341 -205 3661 -102 3866 326 
C 4128 858 4237 1875 4237 2637 
C 4237 3507 3770 3725 3194 3725 
C 3040 3725 2778 3706 2477 3680 
L 2643 4589 
C 2662 4717 2688 4851 2714 4973 
L 2125 5030 
C 2125 4595 2054 4096 1958 3635 
C 1568 3603 1197 3571 986 3565 
C 781 3558 614 3558 410 3565 
z
" transform="scale(0.015625)"/>
      <path id="NotoSansCJKjp-Regular-6298" d="M 2854 4883 
L 2854 2835 
C 2854 1901 2771 717 1997 -141 
C 2112 -205 2291 -371 2349 -480 
C 3200 442 3328 1760 3334 2752 
L 4602 2752 
L 4602 -506 
L 5082 -506 
L 5082 2752 
L 6157 2752 
L 6157 3213 
L 3334 3213 
L 3334 4397 
C 4218 4506 5229 4691 5914 4922 
L 5542 5306 
C 5018 5114 4134 4934 3315 4806 
L 2854 4883 
z
M 1197 5376 
L 1197 4083 
L 282 4083 
L 282 3629 
L 1197 3629 
L 1197 2259 
L 179 1984 
L 320 1517 
L 1197 1779 
L 1197 51 
C 1197 -38 1158 -64 1075 -70 
C 992 -70 723 -70 435 -64 
C 499 -192 563 -390 582 -506 
C 1011 -512 1267 -493 1440 -422 
C 1600 -346 1664 -218 1664 58 
L 1664 1920 
L 2477 2170 
L 2419 2618 
L 1664 2394 
L 1664 3629 
L 2406 3629 
L 2406 4083 
L 1664 4083 
L 1664 5376 
L 1197 5376 
z
" transform="scale(0.015625)"/>
      <path id="NotoSansCJKjp-Regular-308c" d="M 1875 4608 
L 1843 4000 
C 1510 3942 1133 3904 922 3891 
C 768 3885 646 3878 506 3885 
L 557 3360 
L 1811 3533 
L 1766 2899 
C 1446 2400 704 1402 346 954 
L 672 512 
C 979 947 1402 1555 1715 2022 
L 1709 1773 
C 1696 1075 1696 749 1690 134 
C 1690 32 1683 -128 1670 -243 
L 2227 -243 
C 2214 -128 2202 32 2195 147 
C 2163 717 2170 1107 2170 1690 
C 2170 1920 2176 2176 2189 2445 
C 2778 3072 3552 3674 4070 3674 
C 4397 3674 4589 3520 4589 3149 
C 4589 2522 4346 1472 4346 762 
C 4346 230 4634 -45 5056 -45 
C 5491 -45 5894 147 6234 486 
L 6150 1037 
C 5824 691 5491 506 5184 506 
C 4954 506 4851 685 4851 896 
C 4851 1549 5088 2650 5088 3290 
C 5088 3808 4794 4147 4198 4147 
C 3552 4147 2726 3526 2227 3066 
L 2259 3437 
C 2355 3597 2464 3770 2547 3885 
L 2362 4109 
L 2323 4096 
C 2368 4544 2419 4902 2451 5062 
L 1850 5082 
C 1875 4922 1875 4749 1875 4608 
z
" transform="scale(0.015625)"/>
      <path id="NotoSansCJKjp-Regular-3084" d="M 3552 4064 
L 3917 4352 
C 3674 4602 3187 5005 2976 5165 
L 2611 4902 
C 2886 4698 3302 4307 3552 4064 
z
M 384 2746 
L 627 2221 
C 922 2355 1370 2586 1862 2822 
L 2106 2291 
C 2470 1453 2778 422 2976 -333 
L 3526 -186 
C 3309 518 2906 1709 2554 2502 
L 2310 3034 
C 3053 3379 3840 3680 4403 3680 
C 5030 3680 5331 3334 5331 2957 
C 5331 2496 5037 2112 4339 2112 
C 4000 2112 3680 2208 3430 2317 
L 3411 1818 
C 3654 1728 4013 1638 4371 1638 
C 5370 1638 5843 2195 5843 2931 
C 5843 3629 5299 4134 4416 4134 
C 3750 4134 2886 3789 2112 3450 
C 1984 3718 1856 3974 1741 4186 
C 1670 4301 1562 4512 1517 4614 
L 992 4403 
C 1094 4275 1222 4077 1306 3949 
C 1414 3770 1536 3526 1670 3245 
C 1382 3117 1126 3002 909 2918 
C 794 2874 570 2790 384 2746 
z
" transform="scale(0.015625)"/>
      <path id="NotoSansCJKjp-Regular-3059" d="M 3635 2381 
C 3693 1779 3443 1478 3072 1478 
C 2714 1478 2419 1715 2419 2112 
C 2419 2528 2733 2790 3066 2790 
C 3322 2790 3533 2669 3635 2381 
z
M 614 4179 
L 627 3686 
C 1427 3744 2515 3789 3488 3795 
L 3494 3149 
C 3366 3194 3226 3219 3066 3219 
C 2458 3219 1939 2739 1939 2106 
C 1939 1408 2451 1037 2989 1037 
C 3206 1037 3392 1094 3546 1210 
C 3290 627 2701 269 1850 77 
L 2278 -346 
C 3770 102 4192 1062 4192 1926 
C 4192 2246 4122 2528 3987 2746 
L 3974 3802 
L 4064 3802 
C 4998 3802 5581 3789 5939 3770 
L 5946 4243 
C 5638 4243 4851 4250 4070 4250 
L 3974 4250 
L 3981 4666 
C 3987 4749 4000 4998 4013 5069 
L 3430 5069 
C 3437 5018 3462 4832 3469 4666 
L 3482 4243 
C 2528 4230 1325 4192 614 4179 
z
" transform="scale(0.015625)"/>
      <path id="NotoSansCJKjp-Regular-3044" d="M 1427 4467 
L 806 4480 
C 845 4326 851 4058 851 3910 
C 851 3539 858 2758 922 2202 
C 1094 544 1677 -58 2285 -58 
C 2714 -58 3104 314 3488 1402 
L 3085 1856 
C 2918 1216 2618 550 2291 550 
C 1837 550 1523 1261 1421 2330 
C 1376 2861 1370 3443 1376 3846 
C 1376 4013 1402 4314 1427 4467 
z
M 4762 4288 
L 4262 4115 
C 4877 3366 5261 2054 5376 896 
L 5888 1107 
C 5792 2189 5331 3546 4762 4288 
z
" transform="scale(0.015625)"/>
     </defs>
     <use xlink:href="#NotoSansCJKjp-Regular-30fb"/>
     <use xlink:href="#NotoSansCJKjp-Regular-7d4c" transform="translate(99.999985 0)"/>
     <use xlink:href="#NotoSansCJKjp-Regular-8def" transform="translate(199.999969 0)"/>
     <use xlink:href="#NotoSansCJKjp-Regular-304c" transform="translate(299.999954 0)"/>
     <use xlink:href="#NotoSansCJKjp-Regular-6298" transform="translate(399.999939 0)"/>
     <use xlink:href="#NotoSansCJKjp-Regular-308c" transform="translate(499.999924 0)"/>
     <use xlink:href="#NotoSansCJKjp-Regular-3084" transform="translate(599.999908 0)"/>
     <use xlink:href="#NotoSansCJKjp-Regular-3059" transform="translate(699.999893 0)"/>
     <use xlink:href="#NotoSansCJKjp-Regular-3044" transform="translate(799.999878 0)"/>
    </g>
   </g>
   <g id="text_4">
    <!-- ・計算時間が長い -->
    <g style="fill: #333333" transform="translate(15.516 89.27925) scale(0.1 -0.1)">
     <defs>
      <path id="NotoSansCJKjp-Regular-8a08" d="M 550 3437 
L 550 3059 
L 2547 3059 
L 2547 3437 
L 550 3437 
z
M 582 5152 
L 582 4768 
L 2554 4768 
L 2554 5152 
L 582 5152 
z
M 550 2586 
L 550 2202 
L 2547 2202 
L 2547 2586 
L 550 2586 
z
M 243 4314 
L 243 3910 
L 2790 3910 
L 2790 4314 
L 243 4314 
z
M 4288 5357 
L 4288 3187 
L 2784 3187 
L 2784 2714 
L 4288 2714 
L 4288 -512 
L 4768 -512 
L 4768 2714 
L 6214 2714 
L 6214 3187 
L 4768 3187 
L 4768 5357 
L 4288 5357 
z
M 538 1722 
L 538 -442 
L 966 -442 
L 966 -147 
L 2528 -147 
L 2528 1722 
L 538 1722 
z
M 966 1318 
L 2099 1318 
L 2099 250 
L 966 250 
L 966 1318 
z
" transform="scale(0.015625)"/>
      <path id="NotoSansCJKjp-Regular-7b97" d="M 1613 2925 
L 4890 2925 
L 4890 2547 
L 1613 2547 
L 1613 2925 
z
M 1613 2240 
L 4890 2240 
L 4890 1856 
L 1613 1856 
L 1613 2240 
z
M 1613 3597 
L 4890 3597 
L 4890 3232 
L 1613 3232 
L 1613 3597 
z
M 3686 5408 
C 3507 4915 3181 4448 2790 4141 
C 2899 4096 3085 3994 3181 3923 
L 1894 3923 
L 2259 4058 
C 2214 4179 2118 4352 2016 4506 
L 3117 4506 
L 3117 4902 
L 1427 4902 
C 1498 5030 1562 5158 1619 5286 
L 1171 5408 
C 966 4909 614 4410 224 4083 
C 333 4019 525 3891 614 3814 
C 813 4000 1011 4243 1184 4506 
L 1517 4506 
C 1645 4314 1773 4077 1837 3923 
L 1133 3923 
L 1133 1530 
L 1990 1530 
L 1990 1114 
L 1984 973 
L 358 973 
L 358 576 
L 1830 576 
C 1651 307 1267 38 461 -160 
C 563 -250 698 -416 762 -518 
C 1786 -224 2214 179 2381 576 
L 4109 576 
L 4109 -499 
L 4602 -499 
L 4602 576 
L 6067 576 
L 6067 973 
L 4602 973 
L 4602 1530 
L 5389 1530 
L 5389 3923 
L 4749 3923 
L 5094 4083 
C 5030 4205 4915 4358 4787 4506 
L 6016 4506 
L 6016 4902 
L 3968 4902 
C 4038 5030 4096 5165 4147 5299 
L 3686 5408 
z
M 4109 973 
L 2470 973 
L 2477 1101 
L 2477 1530 
L 4109 1530 
L 4109 973 
z
M 3232 3923 
C 3405 4083 3578 4282 3731 4506 
L 4243 4506 
C 4416 4320 4595 4090 4678 3923 
L 3232 3923 
z
" transform="scale(0.015625)"/>
      <path id="NotoSansCJKjp-Regular-6642" d="M 2848 1338 
C 3174 998 3520 525 3661 211 
L 4070 461 
C 3923 781 3558 1235 3232 1562 
L 2848 1338 
z
M 4038 5382 
L 4038 4614 
L 2694 4614 
L 2694 4186 
L 4038 4186 
L 4038 3373 
L 2426 3373 
L 2426 2938 
L 4883 2938 
L 4883 2214 
L 2458 2214 
L 2458 1786 
L 4883 1786 
L 4883 64 
C 4883 -32 4851 -58 4749 -58 
C 4646 -64 4282 -64 3891 -51 
C 3962 -186 4032 -378 4051 -506 
C 4570 -506 4890 -499 5094 -422 
C 5293 -352 5357 -218 5357 58 
L 5357 1786 
L 6106 1786 
L 6106 2214 
L 5357 2214 
L 5357 2938 
L 6170 2938 
L 6170 3373 
L 4512 3373 
L 4512 4186 
L 5901 4186 
L 5901 4614 
L 4512 4614 
L 4512 5382 
L 4038 5382 
z
M 1862 2662 
L 1862 1184 
L 934 1184 
L 934 2662 
L 1862 2662 
z
M 1862 3098 
L 934 3098 
L 934 4518 
L 1862 4518 
L 1862 3098 
z
M 486 4960 
L 486 224 
L 934 224 
L 934 749 
L 2317 749 
L 2317 4960 
L 486 4960 
z
" transform="scale(0.015625)"/>
      <path id="NotoSansCJKjp-Regular-9593" d="M 3936 1082 
L 3936 461 
L 2432 461 
L 2432 1082 
L 3936 1082 
z
M 3936 1453 
L 2432 1453 
L 2432 2042 
L 3936 2042 
L 3936 1453 
z
M 1997 2419 
L 1997 -243 
L 2432 -243 
L 2432 83 
L 4384 83 
L 4384 2419 
L 1997 2419 
z
M 2451 3840 
L 2451 3270 
L 1056 3270 
L 1056 3840 
L 2451 3840 
z
M 2451 4192 
L 1056 4192 
L 1056 4730 
L 2451 4730 
L 2451 4192 
z
M 5376 3840 
L 5376 3264 
L 3936 3264 
L 3936 3840 
L 5376 3840 
z
M 5376 4192 
L 3936 4192 
L 3936 4730 
L 5376 4730 
L 5376 4192 
z
M 5619 5101 
L 3482 5101 
L 3482 2893 
L 5376 2893 
L 5376 128 
C 5376 13 5338 -19 5229 -26 
C 5114 -26 4723 -32 4333 -19 
C 4403 -154 4474 -378 4499 -512 
C 5030 -512 5376 -506 5581 -422 
C 5792 -339 5862 -186 5862 122 
L 5862 5101 
L 5619 5101 
z
M 576 5101 
L 576 -518 
L 1056 -518 
L 1056 2906 
L 2899 2906 
L 2899 5101 
L 576 5101 
z
" transform="scale(0.015625)"/>
      <path id="NotoSansCJKjp-Regular-9577" d="M 1466 5120 
L 1466 2304 
L 339 2304 
L 339 1875 
L 1466 1875 
L 1466 96 
L 646 -26 
L 762 -474 
C 1536 -339 2637 -154 3661 32 
L 3642 461 
L 1958 179 
L 1958 1875 
L 2874 1875 
C 3411 621 4397 -186 5862 -531 
C 5933 -397 6067 -205 6170 -102 
C 5440 38 4826 307 4333 685 
C 4800 915 5357 1242 5779 1555 
L 5389 1824 
C 5050 1542 4493 1197 4026 947 
C 3757 1216 3533 1523 3360 1875 
L 6067 1875 
L 6067 2304 
L 1958 2304 
L 1958 2861 
L 5242 2861 
L 5242 3251 
L 1958 3251 
L 1958 3789 
L 5242 3789 
L 5242 4173 
L 1958 4173 
L 1958 4710 
L 5440 4710 
L 5440 5120 
L 1466 5120 
z
" transform="scale(0.015625)"/>
     </defs>
     <use xlink:href="#NotoSansCJKjp-Regular-30fb"/>
     <use xlink:href="#NotoSansCJKjp-Regular-8a08" transform="translate(99.999985 0)"/>
     <use xlink:href="#NotoSansCJKjp-Regular-7b97" transform="translate(199.999969 0)"/>
     <use xlink:href="#NotoSansCJKjp-Regular-6642" transform="translate(299.999954 0)"/>
     <use xlink:href="#NotoSansCJKjp-Regular-9593" transform="translate(399.999939 0)"/>
     <use xlink:href="#NotoSansCJKjp-Regular-304c" transform="translate(499.999924 0)"/>
     <use xlink:href="#NotoSansCJKjp-Regular-9577" transform="translate(599.999908 0)"/>
     <use xlink:href="#NotoSansCJKjp-Regular-3044" transform="translate(699.999893 0)"/>
    </g>
   </g>
   <g id="text_5">
    <!-- TA* -->
    <g transform="translate(205.055625 16.75125) scale(0.12 -0.12)">
     <defs>
      <path id="NotoSansCJKjp-Regular-41" d="M 26 0 
L 621 0 
L 1075 1434 
L 2790 1434 
L 3238 0 
L 3866 0 
L 2272 4691 
L 1613 4691 
L 26 0 
z
M 1222 1901 
L 1453 2624 
C 1619 3155 1773 3661 1920 4211 
L 1946 4211 
C 2099 3667 2246 3155 2419 2624 
L 2643 1901 
L 1222 1901 
z
" transform="scale(0.015625)"/>
      <path id="NotoSansCJKjp-Regular-2a" d="M 986 3014 
L 1498 3622 
L 1997 3014 
L 2278 3213 
L 1869 3885 
L 2566 4179 
L 2458 4506 
L 1728 4326 
L 1664 5094 
L 1318 5094 
L 1254 4320 
L 525 4506 
L 416 4179 
L 1107 3885 
L 704 3213 
L 986 3014 
z
" transform="scale(0.015625)"/>
     </defs>
     <use xlink:href="#NotoSansCJKjp-Regular-54"/>
     <use xlink:href="#NotoSansCJKjp-Regular-41" transform="translate(59.899994 0)"/>
     <use xlink:href="#NotoSansCJKjp-Regular-2a" transform="translate(120.699982 0)"/>
    </g>
   </g>
  </g>
  <g id="axes_2">
   <g id="patch_7">
    <path d="M 433.8 272.23125 
L 849.6 272.23125 
L 849.6 22.75125 
L 433.8 22.75125 
z
" style="fill: #ffffff"/>
   </g>
   <g id="matplotlib.axis_3"/>
   <g id="matplotlib.axis_4"/>
   <g id="line2d_20">
    <path d="M 433.8 272.23125 
L 433.8 22.75125 
" clip-path="url(#pa8e0377f3d)" style="fill: none; stroke: #e6e6e6; stroke-width: 0.6; stroke-linecap: square"/>
   </g>
   <g id="line2d_21">
    <path d="M 475.38 272.23125 
L 475.38 22.75125 
" clip-path="url(#pa8e0377f3d)" style="fill: none; stroke: #e6e6e6; stroke-width: 0.6; stroke-linecap: square"/>
   </g>
   <g id="line2d_22">
    <path d="M 516.96 272.23125 
L 516.96 22.75125 
" clip-path="url(#pa8e0377f3d)" style="fill: none; stroke: #e6e6e6; stroke-width: 0.6; stroke-linecap: square"/>
   </g>
   <g id="line2d_23">
    <path d="M 558.54 272.23125 
L 558.54 22.75125 
" clip-path="url(#pa8e0377f3d)" style="fill: none; stroke: #e6e6e6; stroke-width: 0.6; stroke-linecap: square"/>
   </g>
   <g id="line2d_24">
    <path d="M 600.12 272.23125 
L 600.12 22.75125 
" clip-path="url(#pa8e0377f3d)" style="fill: none; stroke: #e6e6e6; stroke-width: 0.6; stroke-linecap: square"/>
   </g>
   <g id="line2d_25">
    <path d="M 641.7 272.23125 
L 641.7 22.75125 
" clip-path="url(#pa8e0377f3d)" style="fill: none; stroke: #e6e6e6; stroke-width: 0.6; stroke-linecap: square"/>
   </g>
   <g id="line2d_26">
    <path d="M 683.28 272.23125 
L 683.28 22.75125 
" clip-path="url(#pa8e0377f3d)" style="fill: none; stroke: #e6e6e6; stroke-width: 0.6; stroke-linecap: square"/>
   </g>
   <g id="line2d_27">
    <path d="M 724.86 272.23125 
L 724.86 22.75125 
" clip-path="url(#pa8e0377f3d)" style="fill: none; stroke: #e6e6e6; stroke-width: 0.6; stroke-linecap: square"/>
   </g>
   <g id="line2d_28">
    <path d="M 766.44 272.23125 
L 766.44 22.75125 
" clip-path="url(#pa8e0377f3d)" style="fill: none; stroke: #e6e6e6; stroke-width: 0.6; stroke-linecap: square"/>
   </g>
   <g id="line2d_29">
    <path d="M 808.02 272.23125 
L 808.02 22.75125 
" clip-path="url(#pa8e0377f3d)" style="fill: none; stroke: #e6e6e6; stroke-width: 0.6; stroke-linecap: square"/>
   </g>
   <g id="line2d_30">
    <path d="M 849.6 272.23125 
L 849.6 22.75125 
" clip-path="url(#pa8e0377f3d)" style="fill: none; stroke: #e6e6e6; stroke-width: 0.6; stroke-linecap: square"/>
   </g>
   <g id="line2d_31">
    <path d="M 433.8 272.23125 
L 849.6 272.23125 
" clip-path="url(#pa8e0377f3d)" style="fill: none; stroke: #e6e6e6; stroke-width: 0.6; stroke-linecap: square"/>
   </g>
   <g id="line2d_32">
    <path d="M 433.8 230.65125 
L 849.6 230.65125 
" clip-path="url(#pa8e0377f3d)" style="fill: none; stroke: #e6e6e6; stroke-width: 0.6; stroke-linecap: square"/>
   </g>
   <g id="line2d_33">
    <path d="M 433.8 189.07125 
L 849.6 189.07125 
" clip-path="url(#pa8e0377f3d)" style="fill: none; stroke: #e6e6e6; stroke-width: 0.6; stroke-linecap: square"/>
   </g>
   <g id="line2d_34">
    <path d="M 433.8 147.49125 
L 849.6 147.49125 
" clip-path="url(#pa8e0377f3d)" style="fill: none; stroke: #e6e6e6; stroke-width: 0.6; stroke-linecap: square"/>
   </g>
   <g id="line2d_35">
    <path d="M 433.8 105.91125 
L 849.6 105.91125 
" clip-path="url(#pa8e0377f3d)" style="fill: none; stroke: #e6e6e6; stroke-width: 0.6; stroke-linecap: square"/>
   </g>
   <g id="line2d_36">
    <path d="M 433.8 64.33125 
L 849.6 64.33125 
" clip-path="url(#pa8e0377f3d)" style="fill: none; stroke: #e6e6e6; stroke-width: 0.6; stroke-linecap: square"/>
   </g>
   <g id="line2d_37">
    <path d="M 433.8 22.75125 
L 849.6 22.75125 
" clip-path="url(#pa8e0377f3d)" style="fill: none; stroke: #e6e6e6; stroke-width: 0.6; stroke-linecap: square"/>
   </g>
   <g id="line2d_38">
    <path d="M 458.748 238.96725 
L 464.138774 238.86934 
L 469.529548 238.575828 
L 474.920322 238.087374 
L 480.311095 237.405072 
L 485.701869 236.530452 
L 491.092643 235.465477 
L 496.483417 234.212534 
L 501.874191 232.774433 
L 507.264965 231.1544 
L 512.655739 229.356067 
L 519.843437 226.687962 
L 527.031136 223.720731 
L 534.218834 220.466202 
L 541.406533 216.937348 
L 548.594231 213.148236 
L 555.78193 209.113972 
L 562.969628 204.850637 
L 571.954251 199.225308 
L 580.938874 193.303703 
L 589.923497 187.122698 
L 600.705045 179.417381 
L 613.283518 170.118176 
L 629.455839 157.847195 
L 663.597407 131.835389 
L 676.175879 122.577714 
L 686.957427 114.920675 
L 695.94205 108.788519 
L 704.926673 102.923275 
L 713.911296 97.361469 
L 721.098995 93.153842 
L 728.286693 89.179395 
L 735.474392 85.453972 
L 742.66209 81.992422 
L 749.849789 78.808545 
L 757.037487 75.915032 
L 764.225186 73.323418 
L 769.61596 71.58409 
L 775.006734 70.024317 
L 780.397508 68.647598 
L 785.788281 67.457019 
L 791.179055 66.455252 
L 796.569829 65.644541 
L 801.960603 65.026707 
L 807.351377 64.603133 
L 812.742151 64.37477 
L 816.336 64.33125 
L 816.336 64.33125 
" clip-path="url(#pa8e0377f3d)" style="fill: none; stroke: #6b7fa8; stroke-width: 3; stroke-linecap: square"/>
   </g>
   <g id="patch_8">
    <path d="M 433.8 272.23125 
L 433.8 22.75125 
" style="fill: none; stroke: #000000; stroke-width: 0.8; stroke-linejoin: miter; stroke-linecap: square"/>
   </g>
   <g id="patch_9">
    <path d="M 849.6 272.23125 
L 849.6 22.75125 
" style="fill: none; stroke: #000000; stroke-width: 0.8; stroke-linejoin: miter; stroke-linecap: square"/>
   </g>
   <g id="patch_10">
    <path d="M 433.8 272.23125 
L 849.6 272.23125 
" style="fill: none; stroke: #000000; stroke-width: 0.8; stroke-linejoin: miter; stroke-linecap: square"/>
   </g>
   <g id="patch_11">
    <path d="M 433.8 22.75125 
L 849.6 22.75125 
" style="fill: none; stroke: #000000; stroke-width: 0.8; stroke-linejoin: miter; stroke-linecap: square"/>
   </g>
   <g id="text_6">
    <!-- ・補間点を生成 -->
    <g style="fill: #333333" transform="translate(442.116 39.38325) scale(0.1 -0.1)">
     <defs>
      <path id="NotoSansCJKjp-Regular-88dc" d="M 4838 5056 
C 5158 4890 5549 4640 5747 4454 
L 6016 4749 
C 5818 4934 5414 5171 5094 5318 
L 4838 5056 
z
M 5530 2995 
L 5530 2310 
L 4576 2310 
L 4576 2995 
L 5530 2995 
z
M 4122 5370 
L 4122 4442 
L 2541 4442 
L 2541 4013 
L 4122 4013 
L 4122 3405 
L 2739 3405 
L 2739 -512 
L 3194 -512 
L 3194 819 
L 4122 819 
L 4122 -486 
L 4576 -486 
L 4576 819 
L 5530 819 
L 5530 -6 
C 5530 -77 5510 -96 5440 -96 
C 5370 -96 5165 -96 4928 -90 
C 4998 -205 5062 -403 5088 -518 
C 5414 -518 5645 -512 5792 -435 
C 5939 -358 5984 -237 5984 -6 
L 5984 3405 
L 4576 3405 
L 4576 4013 
L 6118 4013 
L 6118 4442 
L 4576 4442 
L 4576 5370 
L 4122 5370 
z
M 5530 1920 
L 5530 1216 
L 4576 1216 
L 4576 1920 
L 5530 1920 
z
M 3194 1920 
L 4122 1920 
L 4122 1216 
L 3194 1216 
L 3194 1920 
z
M 3194 2310 
L 3194 2995 
L 4122 2995 
L 4122 2310 
L 3194 2310 
z
M 2362 2989 
C 2266 2797 2093 2528 1946 2317 
L 1715 2598 
C 1990 3040 2234 3526 2400 4026 
L 2144 4186 
L 2054 4166 
L 1606 4166 
L 1606 5357 
L 1165 5357 
L 1165 4166 
L 339 4166 
L 339 3731 
L 1843 3731 
C 1478 2861 819 1997 192 1504 
C 269 1421 390 1203 442 1088 
C 685 1293 934 1555 1178 1850 
L 1178 -518 
L 1626 -518 
L 1626 2144 
C 1856 1843 2118 1466 2240 1267 
L 2534 1594 
L 2150 2080 
C 2310 2272 2496 2534 2656 2778 
L 2362 2989 
z
" transform="scale(0.015625)"/>
      <path id="NotoSansCJKjp-Regular-70b9" d="M 1517 2976 
L 4864 2976 
L 4864 1830 
L 1517 1830 
L 1517 2976 
z
M 2176 819 
C 2259 403 2310 -134 2310 -454 
L 2797 -390 
C 2790 -83 2726 448 2630 858 
L 2176 819 
z
M 3501 813 
C 3686 416 3878 -122 3949 -442 
L 4416 -320 
C 4339 0 4134 518 3936 909 
L 3501 813 
z
M 4806 864 
C 5126 461 5485 -109 5632 -461 
L 6086 -269 
C 5926 83 5555 627 5235 1030 
L 4806 864 
z
M 1133 992 
C 934 518 608 0 269 -294 
L 704 -506 
C 1056 -166 1382 371 1587 870 
L 1133 992 
z
M 1062 3430 
L 1062 1382 
L 5344 1382 
L 5344 3430 
L 3392 3430 
L 3392 4243 
L 5824 4243 
L 5824 4698 
L 3392 4698 
L 3392 5376 
L 2912 5376 
L 2912 3430 
L 1062 3430 
z
" transform="scale(0.015625)"/>
      <path id="NotoSansCJKjp-Regular-751f" d="M 1530 5274 
C 1286 4358 870 3469 346 2899 
C 467 2835 678 2694 774 2611 
C 1018 2899 1242 3264 1446 3667 
L 2963 3667 
L 2963 2253 
L 1056 2253 
L 1056 1792 
L 2963 1792 
L 2963 160 
L 352 160 
L 352 -307 
L 6074 -307 
L 6074 160 
L 3462 160 
L 3462 1792 
L 5536 1792 
L 5536 2253 
L 3462 2253 
L 3462 3667 
L 5766 3667 
L 5766 4134 
L 3462 4134 
L 3462 5376 
L 2963 5376 
L 2963 4134 
L 1658 4134 
C 1798 4461 1920 4813 2016 5165 
L 1530 5274 
z
" transform="scale(0.015625)"/>
      <path id="NotoSansCJKjp-Regular-6210" d="M 3482 5370 
C 3482 5005 3494 4640 3514 4288 
L 819 4288 
L 819 2490 
C 819 1658 762 550 230 -237 
C 346 -294 550 -461 634 -557 
C 1222 288 1318 1581 1318 2483 
L 1318 2528 
L 2490 2528 
C 2464 1427 2432 1018 2349 922 
C 2298 864 2240 851 2144 851 
C 2035 851 1760 851 1466 883 
C 1542 762 1594 570 1600 435 
C 1914 416 2208 416 2374 429 
C 2547 448 2656 493 2758 614 
C 2893 787 2925 1331 2957 2771 
C 2957 2835 2963 2976 2963 2976 
L 1318 2976 
L 1318 3821 
L 3546 3821 
C 3622 2784 3776 1837 4019 1101 
C 3597 614 3104 218 2534 -83 
C 2637 -179 2810 -378 2886 -480 
C 3379 -186 3821 166 4211 589 
C 4506 -70 4890 -467 5382 -467 
C 5875 -467 6054 -147 6138 947 
C 6010 992 5830 1101 5722 1210 
C 5683 358 5606 26 5421 26 
C 5094 26 4806 390 4570 1018 
C 5043 1632 5421 2362 5696 3200 
L 5216 3322 
C 5011 2675 4736 2093 4390 1581 
C 4224 2202 4102 2963 4032 3821 
L 6086 3821 
L 6086 4288 
L 4006 4288 
C 3987 4640 3981 4998 3981 5370 
L 3482 5370 
z
M 4294 5056 
C 4704 4845 5197 4518 5440 4288 
L 5741 4621 
C 5491 4838 4986 5152 4582 5350 
L 4294 5056 
z
" transform="scale(0.015625)"/>
     </defs>
     <use xlink:href="#NotoSansCJKjp-Regular-30fb"/>
     <use xlink:href="#NotoSansCJKjp-Regular-88dc" transform="translate(99.999985 0)"/>
     <use xlink:href="#NotoSansCJKjp-Regular-9593" transform="translate(199.999969 0)"/>
     <use xlink:href="#NotoSansCJKjp-Regular-70b9" transform="translate(299.999954 0)"/>
     <use xlink:href="#NotoSansCJKjp-Regular-3092" transform="translate(399.999939 0)"/>
     <use xlink:href="#NotoSansCJKjp-Regular-751f" transform="translate(499.999924 0)"/>
     <use xlink:href="#NotoSansCJKjp-Regular-6210" transform="translate(599.999908 0)"/>
    </g>
   </g>
   <g id="text_7">
    <!-- ・滑らかな経路 -->
    <g style="fill: #333333" transform="translate(442.116 56.01525) scale(0.1 -0.1)">
     <defs>
      <path id="NotoSansCJKjp-Regular-6ed1" d="M 582 4973 
C 992 4787 1485 4480 1728 4243 
L 2003 4640 
C 1754 4864 1254 5146 845 5318 
L 582 4973 
z
M 243 3238 
C 659 3059 1158 2771 1408 2554 
L 1683 2957 
C 1427 3168 915 3443 506 3597 
L 243 3238 
z
M 429 -115 
L 845 -422 
C 1197 179 1619 986 1939 1664 
L 1574 1965 
C 1222 1229 755 384 429 -115 
z
M 3053 1370 
L 4998 1370 
L 4998 915 
L 3053 915 
L 3053 1370 
z
M 3053 1741 
L 3053 2189 
L 4998 2189 
L 4998 1741 
L 3053 1741 
z
M 2605 2573 
L 2605 -512 
L 3053 -512 
L 3053 550 
L 4998 550 
L 4998 -26 
C 4998 -109 4966 -134 4883 -134 
C 4794 -141 4486 -141 4166 -128 
C 4224 -243 4282 -403 4301 -518 
C 4762 -518 5043 -512 5222 -448 
C 5395 -384 5446 -269 5446 -26 
L 5446 2573 
L 2605 2573 
z
M 3738 4320 
L 3738 3411 
L 3066 3411 
L 3066 4755 
L 4973 4755 
L 4973 4320 
L 3738 4320 
z
M 4115 3411 
L 4115 3994 
L 4973 3994 
L 4973 3411 
L 4115 3411 
z
M 2630 5139 
L 2630 3411 
L 1965 3411 
L 1965 2323 
L 2406 2323 
L 2406 3021 
L 5619 3021 
L 5619 2323 
L 6080 2323 
L 6080 3411 
L 5427 3411 
L 5427 5139 
L 2630 5139 
z
" transform="scale(0.015625)"/>
      <path id="NotoSansCJKjp-Regular-3089" d="M 2144 5018 
L 2016 4531 
C 2502 4397 3891 4115 4499 4032 
L 4621 4525 
C 4058 4576 2694 4845 2144 5018 
z
M 2003 3853 
L 1466 3923 
C 1427 3251 1267 1907 1139 1325 
L 1613 1210 
C 1651 1312 1709 1421 1805 1530 
C 2253 2067 2944 2387 3789 2387 
C 4442 2387 4915 2022 4915 1510 
C 4915 634 3930 51 1907 301 
L 2061 -224 
C 4442 -422 5453 352 5453 1498 
C 5453 2246 4800 2835 3821 2835 
C 3053 2835 2349 2592 1734 2054 
C 1805 2464 1914 3418 2003 3853 
z
" transform="scale(0.015625)"/>
      <path id="NotoSansCJKjp-Regular-304b" d="M 5005 4314 
L 4538 4102 
C 4992 3571 5491 2445 5677 1786 
L 6176 2022 
C 5958 2618 5402 3795 5005 4314 
z
M 499 3590 
L 550 3034 
C 717 3059 979 3091 1126 3110 
L 1939 3200 
C 1722 2342 1242 883 589 6 
L 1114 -198 
C 1786 883 2221 2330 2458 3251 
C 2739 3277 2995 3296 3149 3296 
C 3552 3296 3827 3187 3827 2598 
C 3827 1907 3725 1075 3520 640 
C 3392 365 3200 314 2963 314 
C 2784 314 2445 358 2176 442 
L 2259 -90 
C 2464 -141 2771 -186 3014 -186 
C 3430 -186 3744 -77 3949 352 
C 4218 883 4320 1901 4320 2662 
C 4320 3526 3853 3744 3283 3744 
C 3130 3744 2861 3725 2560 3699 
L 2726 4614 
C 2752 4736 2778 4877 2803 4992 
L 2208 5056 
C 2208 4621 2144 4122 2042 3661 
C 1658 3629 1280 3597 1069 3590 
C 864 3584 698 3578 499 3590 
z
" transform="scale(0.015625)"/>
      <path id="NotoSansCJKjp-Regular-306a" d="M 5677 2931 
L 5965 3354 
C 5664 3584 4934 4000 4474 4205 
L 4211 3814 
C 4640 3622 5331 3226 5677 2931 
z
M 3981 1056 
L 3987 768 
C 3987 416 3808 134 3277 134 
C 2778 134 2534 339 2534 640 
C 2534 934 2854 1152 3322 1152 
C 3552 1152 3776 1120 3981 1056 
z
M 4397 3104 
L 3898 3104 
C 3910 2650 3942 2016 3968 1491 
C 3770 1536 3558 1555 3341 1555 
C 2618 1555 2061 1184 2061 595 
C 2061 -38 2637 -326 3341 -326 
C 4134 -326 4461 90 4461 602 
L 4454 870 
C 4870 666 5216 378 5491 134 
L 5766 570 
C 5434 851 4986 1165 4435 1363 
L 4390 2413 
C 4384 2643 4384 2842 4397 3104 
z
M 2886 5082 
L 2323 5133 
C 2310 4787 2221 4384 2125 4026 
C 1875 4006 1632 3994 1402 3994 
C 1133 3994 858 4006 621 4038 
L 653 3558 
C 896 3546 1165 3539 1402 3539 
C 1587 3539 1779 3546 1971 3558 
C 1677 2810 1133 1786 602 1165 
L 1094 909 
C 1606 1600 2176 2707 2490 3610 
C 2912 3667 3315 3750 3654 3846 
L 3642 4326 
C 3315 4218 2970 4141 2637 4090 
C 2739 4461 2829 4851 2886 5082 
z
" transform="scale(0.015625)"/>
     </defs>
     <use xlink:href="#NotoSansCJKjp-Regular-30fb"/>
     <use xlink:href="#NotoSansCJKjp-Regular-6ed1" transform="translate(99.999985 0)"/>
     <use xlink:href="#NotoSansCJKjp-Regular-3089" transform="translate(199.999969 0)"/>
     <use xlink:href="#NotoSansCJKjp-Regular-304b" transform="translate(299.999954 0)"/>
     <use xlink:href="#NotoSansCJKjp-Regular-306a" transform="translate(399.999939 0)"/>
     <use xlink:href="#NotoSansCJKjp-Regular-7d4c" transform="translate(499.999924 0)"/>
     <use xlink:href="#NotoSansCJKjp-Regular-8def" transform="translate(599.999908 0)"/>
    </g>
   </g>
   <g id="text_8">
    <!-- ・地形コスト Tc を補間して計算 -->
    <g style="fill: #333333" transform="translate(442.116 72.64725) scale(0.1 -0.1)">
     <defs>
      <path id="NotoSansCJKjp-Regular-3057" d="M 2176 4986 
L 1530 4992 
C 1568 4806 1581 4576 1581 4339 
C 1581 3667 1517 2048 1517 1101 
C 1517 58 2150 -326 3072 -326 
C 4480 -326 5306 480 5747 1088 
L 5382 1523 
C 4922 858 4262 198 3091 198 
C 2483 198 2042 448 2042 1152 
C 2042 2106 2086 3616 2118 4339 
C 2125 4550 2144 4774 2176 4986 
z
" transform="scale(0.015625)"/>
      <path id="NotoSansCJKjp-Regular-3066" d="M 544 4250 
L 602 3693 
C 1293 3840 2925 3994 3610 4070 
C 3021 3718 2413 2906 2413 1907 
C 2413 480 3763 -154 4947 -198 
L 5133 333 
C 4090 371 2925 768 2925 2022 
C 2925 2778 3482 3750 4390 4045 
C 4717 4141 5280 4147 5645 4147 
L 5645 4659 
C 5216 4640 4614 4608 3917 4544 
C 2739 4448 1530 4326 1114 4282 
C 992 4269 787 4256 544 4250 
z
" transform="scale(0.015625)"/>
     </defs>
     <use xlink:href="#NotoSansCJKjp-Regular-30fb"/>
     <use xlink:href="#NotoSansCJKjp-Regular-5730" transform="translate(99.999985 0)"/>
     <use xlink:href="#NotoSansCJKjp-Regular-5f62" transform="translate(199.999969 0)"/>
     <use xlink:href="#NotoSansCJKjp-Regular-30b3" transform="translate(299.999954 0)"/>
     <use xlink:href="#NotoSansCJKjp-Regular-30b9" transform="translate(399.999939 0)"/>
     <use xlink:href="#NotoSansCJKjp-Regular-30c8" transform="translate(499.999924 0)"/>
     <use xlink:href="#NotoSansCJKjp-Regular-20" transform="translate(599.999908 0)"/>
     <use xlink:href="#NotoSansCJKjp-Regular-54" transform="translate(622.399902 0)"/>
     <use xlink:href="#NotoSansCJKjp-Regular-63" transform="translate(682.299896 0)"/>
     <use xlink:href="#NotoSansCJKjp-Regular-20" transform="translate(733.299881 0)"/>
     <use xlink:href="#NotoSansCJKjp-Regular-3092" transform="translate(755.699875 0)"/>
     <use xlink:href="#NotoSansCJKjp-Regular-88dc" transform="translate(855.69986 0)"/>
     <use xlink:href="#NotoSansCJKjp-Regular-9593" transform="translate(955.699844 0)"/>
     <use xlink:href="#NotoSansCJKjp-Regular-3057" transform="translate(1055.699829 0)"/>
     <use xlink:href="#NotoSansCJKjp-Regular-3066" transform="translate(1155.699814 0)"/>
     <use xlink:href="#NotoSansCJKjp-Regular-8a08" transform="translate(1255.699799 0)"/>
     <use xlink:href="#NotoSansCJKjp-Regular-7b97" transform="translate(1355.699783 0)"/>
    </g>
   </g>
   <g id="text_9">
    <!-- ・高速 -->
    <g style="fill: #333333" transform="translate(442.116 89.27925) scale(0.1 -0.1)">
     <defs>
      <path id="NotoSansCJKjp-Regular-9ad8" d="M 1939 3635 
L 4448 3635 
L 4448 3021 
L 1939 3021 
L 1939 3635 
z
M 1478 3987 
L 1478 2662 
L 4928 2662 
L 4928 3987 
L 1478 3987 
z
M 2918 5382 
L 2918 4768 
L 416 4768 
L 416 4346 
L 5978 4346 
L 5978 4768 
L 3411 4768 
L 3411 5382 
L 2918 5382 
z
M 704 2266 
L 704 -512 
L 1171 -512 
L 1171 1856 
L 5261 1856 
L 5261 70 
C 5261 -19 5235 -45 5120 -51 
C 5018 -58 4653 -58 4237 -45 
C 4301 -179 4371 -365 4390 -499 
C 4922 -499 5267 -499 5478 -422 
C 5683 -346 5741 -205 5741 64 
L 5741 2266 
L 704 2266 
z
M 2406 1088 
L 3994 1088 
L 3994 435 
L 2406 435 
L 2406 1088 
z
M 1984 1440 
L 1984 -243 
L 2406 -243 
L 2406 83 
L 4422 83 
L 4422 1440 
L 1984 1440 
z
" transform="scale(0.015625)"/>
      <path id="NotoSansCJKjp-Regular-901f" d="M 384 4934 
C 794 4646 1274 4218 1478 3904 
L 1862 4224 
C 1632 4531 1152 4947 730 5222 
L 384 4934 
z
M 1677 2848 
L 314 2848 
L 314 2400 
L 1210 2400 
L 1210 768 
C 890 499 518 230 230 32 
L 480 -461 
C 826 -173 1152 102 1459 378 
C 1869 -128 2445 -358 3283 -390 
C 3994 -416 5318 -403 6016 -371 
C 6035 -224 6118 6 6176 115 
C 5414 64 3981 45 3283 77 
C 2541 102 1978 326 1677 794 
L 1677 2848 
z
M 2752 3379 
L 3757 3379 
L 3757 2560 
L 2752 2560 
L 2752 3379 
z
M 4224 3379 
L 5286 3379 
L 5286 2560 
L 4224 2560 
L 4224 3379 
z
M 3757 5370 
L 3757 4710 
L 2035 4710 
L 2035 4294 
L 3757 4294 
L 3757 3763 
L 2304 3763 
L 2304 2176 
L 3501 2176 
C 3130 1638 2502 1120 1920 870 
C 2022 781 2163 621 2227 506 
C 2778 787 3360 1306 3757 1875 
L 3757 314 
L 4224 314 
L 4224 1850 
C 4640 1318 5235 800 5754 525 
C 5824 640 5971 806 6080 896 
C 5510 1146 4845 1658 4442 2176 
L 5754 2176 
L 5754 3763 
L 4224 3763 
L 4224 4294 
L 6048 4294 
L 6048 4710 
L 4224 4710 
L 4224 5370 
L 3757 5370 
z
" transform="scale(0.015625)"/>
     </defs>
     <use xlink:href="#NotoSansCJKjp-Regular-30fb"/>
     <use xlink:href="#NotoSansCJKjp-Regular-9ad8" transform="translate(99.999985 0)"/>
     <use xlink:href="#NotoSansCJKjp-Regular-901f" transform="translate(199.999969 0)"/>
    </g>
   </g>
   <g id="text_10">
    <!-- Field D* Hybrid -->
    <g transform="translate(599.47125 16.75125) scale(0.12 -0.12)">
     <defs>
      <path id="NotoSansCJKjp-Regular-46" d="M 646 0 
L 1235 0 
L 1235 2106 
L 3027 2106 
L 3027 2605 
L 1235 2605 
L 1235 4192 
L 3347 4192 
L 3347 4691 
L 646 4691 
L 646 0 
z
" transform="scale(0.015625)"/>
      <path id="NotoSansCJKjp-Regular-69" d="M 589 0 
L 1178 0 
L 1178 3475 
L 589 3475 
L 589 0 
z
M 883 4192 
C 1114 4192 1274 4346 1274 4582 
C 1274 4806 1114 4960 883 4960 
C 653 4960 499 4806 499 4582 
C 499 4346 653 4192 883 4192 
z
" transform="scale(0.015625)"/>
      <path id="NotoSansCJKjp-Regular-65" d="M 1997 -83 
C 2464 -83 2835 70 3136 269 
L 2931 659 
C 2669 486 2400 384 2061 384 
C 1402 384 947 858 909 1600 
L 3251 1600 
C 3264 1690 3277 1805 3277 1933 
C 3277 2925 2778 3565 1888 3565 
C 1094 3565 333 2867 333 1734 
C 333 589 1069 -83 1997 -83 
z
M 902 2016 
C 973 2707 1408 3098 1901 3098 
C 2445 3098 2765 2720 2765 2016 
L 902 2016 
z
" transform="scale(0.015625)"/>
      <path id="NotoSansCJKjp-Regular-6c" d="M 1203 -83 
C 1363 -83 1459 -58 1542 -32 
L 1459 416 
C 1395 403 1370 403 1338 403 
C 1248 403 1178 474 1178 653 
L 1178 5094 
L 589 5094 
L 589 691 
C 589 198 768 -83 1203 -83 
z
" transform="scale(0.015625)"/>
      <path id="NotoSansCJKjp-Regular-64" d="M 1773 -83 
C 2189 -83 2560 141 2829 410 
L 2848 410 
L 2899 0 
L 3379 0 
L 3379 5094 
L 2790 5094 
L 2790 3757 
L 2822 3162 
C 2515 3411 2253 3565 1843 3565 
C 1050 3565 339 2861 339 1734 
C 339 576 902 -83 1773 -83 
z
M 1901 410 
C 1293 410 941 902 941 1741 
C 941 2534 1389 3072 1946 3072 
C 2234 3072 2502 2970 2790 2707 
L 2790 883 
C 2502 563 2221 410 1901 410 
z
" transform="scale(0.015625)"/>
      <path id="NotoSansCJKjp-Regular-44" d="M 646 0 
L 1843 0 
C 3258 0 4026 877 4026 2362 
C 4026 3859 3258 4691 1818 4691 
L 646 4691 
L 646 0 
z
M 1235 486 
L 1235 4211 
L 1766 4211 
C 2874 4211 3418 3552 3418 2362 
C 3418 1178 2874 486 1766 486 
L 1235 486 
z
" transform="scale(0.015625)"/>
      <path id="NotoSansCJKjp-Regular-48" d="M 646 0 
L 1235 0 
L 1235 2214 
L 3424 2214 
L 3424 0 
L 4019 0 
L 4019 4691 
L 3424 4691 
L 3424 2726 
L 1235 2726 
L 1235 4691 
L 646 4691 
L 646 0 
z
" transform="scale(0.015625)"/>
      <path id="NotoSansCJKjp-Regular-79" d="M 646 -1498 
C 1338 -1498 1702 -973 1946 -294 
L 3251 3475 
L 2682 3475 
L 2054 1549 
C 1965 1235 1862 883 1773 563 
L 1741 563 
C 1619 890 1504 1242 1395 1549 
L 691 3475 
L 83 3475 
L 1478 -6 
L 1402 -269 
C 1254 -698 1011 -1018 621 -1018 
C 525 -1018 422 -986 352 -960 
L 237 -1427 
C 346 -1472 486 -1498 646 -1498 
z
" transform="scale(0.015625)"/>
      <path id="NotoSansCJKjp-Regular-62" d="M 2118 -83 
C 2912 -83 3629 602 3629 1792 
C 3629 2867 3142 3565 2246 3565 
C 1856 3565 1472 3347 1152 3078 
L 1178 3699 
L 1178 5094 
L 589 5094 
L 589 0 
L 1056 0 
L 1107 358 
L 1133 358 
C 1434 83 1798 -83 2118 -83 
z
M 2022 410 
C 1792 410 1478 499 1178 768 
L 1178 2598 
C 1504 2906 1811 3072 2099 3072 
C 2765 3072 3021 2560 3021 1786 
C 3021 928 2598 410 2022 410 
z
" transform="scale(0.015625)"/>
      <path id="NotoSansCJKjp-Regular-72" d="M 589 0 
L 1178 0 
L 1178 2234 
C 1408 2822 1760 3040 2048 3040 
C 2195 3040 2272 3021 2387 2982 
L 2496 3488 
C 2387 3546 2278 3565 2125 3565 
C 1741 3565 1382 3283 1139 2842 
L 1126 2842 
L 1069 3475 
L 589 3475 
L 589 0 
z
" transform="scale(0.015625)"/>
     </defs>
     <use xlink:href="#NotoSansCJKjp-Regular-46"/>
     <use xlink:href="#NotoSansCJKjp-Regular-69" transform="translate(55.199997 0)"/>
     <use xlink:href="#NotoSansCJKjp-Regular-65" transform="translate(82.699982 0)"/>
     <use xlink:href="#NotoSansCJKjp-Regular-6c" transform="translate(138.099976 0)"/>
     <use xlink:href="#NotoSansCJKjp-Regular-64" transform="translate(166.499969 0)"/>
     <use xlink:href="#NotoSansCJKjp-Regular-20" transform="translate(228.499954 0)"/>
     <use xlink:href="#NotoSansCJKjp-Regular-44" transform="translate(250.899948 0)"/>
     <use xlink:href="#NotoSansCJKjp-Regular-2a" transform="translate(319.699936 0)"/>
     <use xlink:href="#NotoSansCJKjp-Regular-20" transform="translate(366.399933 0)"/>
     <use xlink:href="#NotoSansCJKjp-Regular-48" transform="translate(388.799927 0)"/>
     <use xlink:href="#NotoSansCJKjp-Regular-79" transform="translate(461.599915 0)"/>
     <use xlink:href="#NotoSansCJKjp-Regular-62" transform="translate(513.699905 0)"/>
     <use xlink:href="#NotoSansCJKjp-Regular-72" transform="translate(575.499893 0)"/>
     <use xlink:href="#NotoSansCJKjp-Regular-69" transform="translate(614.299881 0)"/>
     <use xlink:href="#NotoSansCJKjp-Regular-64" transform="translate(641.799866 0)"/>
    </g>
   </g>
  </g>
  <g id="axes_3">
   <g id="table_1">
    <g id="patch_12">
     <path d="M 28.26 338.182159 
L 238.86 338.182159 
L 238.86 315.054886 
L 28.26 315.054886 
z
" style="fill: #f2f4f7; stroke: #cfcfcf; stroke-width: 0.8; stroke-linejoin: miter"/>
    </g>
    <g id="text_11">
     <!-- 手法特徴 -->
     <g transform="translate(113.56 329.533366) scale(0.1 -0.1)">
      <defs>
       <path id="NotoSansCJKjp-Bold-624b" d="M 269 2144 
L 269 1389 
L 2810 1389 
L 2810 358 
C 2810 230 2752 186 2611 179 
C 2458 179 1920 179 1446 198 
C 1568 -6 1715 -346 1760 -563 
C 2413 -570 2880 -550 3187 -435 
C 3494 -314 3610 -109 3610 346 
L 3610 1389 
L 6150 1389 
L 6150 2144 
L 3610 2144 
L 3610 2899 
L 5766 2899 
L 5766 3635 
L 3610 3635 
L 3610 4467 
C 4320 4550 4992 4666 5568 4813 
L 5011 5453 
C 3955 5171 2189 5005 646 4941 
C 723 4768 813 4461 838 4262 
C 1466 4288 2144 4326 2810 4384 
L 2810 3635 
L 710 3635 
L 710 2899 
L 2810 2899 
L 2810 2144 
L 269 2144 
z
" transform="scale(0.015625)"/>
       <path id="NotoSansCJKjp-Bold-6cd5" d="M 550 4845 
C 973 4672 1498 4358 1754 4134 
L 2202 4762 
C 1926 4986 1389 5261 973 5414 
L 550 4845 
z
M 186 3104 
C 608 2938 1146 2656 1402 2438 
L 1824 3085 
C 1542 3290 998 3546 582 3686 
L 186 3104 
z
M 358 6 
L 1024 -486 
C 1382 134 1760 864 2074 1536 
L 1498 2029 
C 1139 1286 678 493 358 6 
z
M 4435 1344 
C 4608 1120 4787 864 4947 608 
L 3296 518 
C 3539 1005 3789 1594 3994 2131 
L 3942 2144 
L 6131 2144 
L 6131 2874 
L 4429 2874 
L 4429 3782 
L 5824 3782 
L 5824 4518 
L 4429 4518 
L 4429 5440 
L 3635 5440 
L 3635 4518 
L 2298 4518 
L 2298 3782 
L 3635 3782 
L 3635 2874 
L 1978 2874 
L 1978 2144 
L 3078 2144 
C 2925 1606 2694 966 2470 480 
L 1984 461 
L 2080 -320 
C 2957 -256 4179 -166 5338 -64 
C 5427 -250 5504 -422 5555 -576 
L 6285 -179 
C 6086 365 5568 1126 5094 1696 
L 4435 1344 
z
" transform="scale(0.015625)"/>
       <path id="NotoSansCJKjp-Bold-7279" d="M 474 5107 
C 422 4346 314 3546 109 3034 
C 256 2950 538 2778 653 2682 
C 742 2912 826 3194 890 3501 
L 1318 3501 
L 1318 2323 
C 890 2202 486 2099 173 2029 
L 358 1293 
L 1318 1574 
L 1318 -576 
L 2022 -576 
L 2022 1786 
L 2586 1965 
L 2586 1632 
L 3366 1632 
L 2816 1286 
C 3091 979 3418 550 3546 275 
L 4154 672 
C 4006 947 3674 1344 3386 1632 
L 4730 1632 
L 4730 294 
C 4730 211 4698 192 4595 186 
C 4493 186 4141 186 3827 198 
C 3930 -13 4026 -346 4058 -563 
C 4538 -563 4902 -550 5165 -435 
C 5421 -314 5491 -102 5491 282 
L 5491 1632 
L 6138 1632 
L 6138 2336 
L 5491 2336 
L 5491 2918 
L 6195 2918 
L 6195 3629 
L 4736 3629 
L 4736 4173 
L 5914 4173 
L 5914 4870 
L 4736 4870 
L 4736 5440 
L 3974 5440 
L 3974 4870 
L 2829 4870 
L 2829 4173 
L 3974 4173 
L 3974 3629 
L 2560 3629 
L 2560 4230 
L 2022 4230 
L 2022 5434 
L 1318 5434 
L 1318 4230 
L 1024 4230 
C 1062 4486 1094 4742 1120 4998 
L 474 5107 
z
M 4730 2918 
L 4730 2336 
L 2669 2336 
L 2618 2682 
L 2022 2515 
L 2022 3501 
L 2451 3501 
L 2451 2918 
L 4730 2918 
z
" transform="scale(0.015625)"/>
       <path id="NotoSansCJKjp-Bold-5fb4" d="M 1184 5440 
C 966 5043 518 4531 115 4218 
C 237 4077 416 3789 499 3629 
C 992 4019 1523 4627 1869 5184 
L 1184 5440 
z
M 4896 3546 
L 5293 3546 
C 5248 3008 5184 2515 5069 2086 
C 4966 2477 4890 2906 4832 3347 
L 4896 3546 
z
M 1286 4090 
C 992 3456 525 2803 70 2374 
C 198 2214 410 1837 480 1677 
C 602 1798 723 1939 845 2093 
L 845 -576 
L 1542 -576 
L 1542 3098 
C 1658 3296 1773 3501 1869 3693 
L 1869 3187 
L 4032 3187 
C 3968 3053 3898 2931 3821 2816 
L 1894 2816 
L 1894 2221 
L 2656 2221 
L 2656 1798 
L 1990 1798 
L 1990 1222 
L 2656 1222 
L 2656 730 
L 1754 672 
L 1856 13 
L 3981 237 
C 3840 122 3680 19 3507 -77 
C 3648 -198 3904 -461 3987 -589 
C 4429 -314 4781 26 5056 429 
C 5261 38 5510 -288 5830 -538 
C 5933 -352 6150 -83 6298 38 
C 5926 282 5645 653 5421 1101 
C 5709 1766 5875 2573 5965 3546 
L 6221 3546 
L 6221 4186 
L 5069 4186 
C 5158 4557 5222 4941 5280 5325 
L 4576 5434 
C 4493 4678 4346 3942 4102 3354 
L 4102 4883 
L 3565 4883 
L 3565 3776 
L 3283 3776 
L 3283 5434 
L 2662 5434 
L 2662 3776 
L 2387 3776 
L 2387 4896 
L 1869 4896 
L 1869 3878 
L 1286 4090 
z
M 4032 2522 
C 4128 2387 4218 2253 4262 2170 
C 4326 2259 4384 2355 4442 2458 
C 4518 2003 4614 1574 4742 1190 
C 4576 864 4365 582 4102 339 
L 4096 838 
L 3302 774 
L 3302 1222 
L 3962 1222 
L 3962 1798 
L 3302 1798 
L 3302 2221 
L 4032 2221 
L 4032 2522 
z
" transform="scale(0.015625)"/>
      </defs>
      <use xlink:href="#NotoSansCJKjp-Bold-624b"/>
      <use xlink:href="#NotoSansCJKjp-Bold-6cd5" transform="translate(99.999985 0)"/>
      <use xlink:href="#NotoSansCJKjp-Bold-7279" transform="translate(199.999969 0)"/>
      <use xlink:href="#NotoSansCJKjp-Bold-5fb4" transform="translate(299.999954 0)"/>
     </g>
    </g>
    <g id="patch_13">
     <path d="M 238.86 338.182159 
L 533.7 338.182159 
L 533.7 315.054886 
L 238.86 315.054886 
z
" style="fill: #f2f4f7; stroke: #cfcfcf; stroke-width: 0.8; stroke-linejoin: miter"/>
    </g>
    <g id="text_12">
     <!-- TA* -->
     <g transform="translate(377.415156 329.533366) scale(0.1 -0.1)">
      <defs>
       <path id="NotoSansCJKjp-Bold-54" d="M 1523 0 
L 2470 0 
L 2470 3949 
L 3808 3949 
L 3808 4742 
L 192 4742 
L 192 3949 
L 1523 3949 
L 1523 0 
z
" transform="scale(0.015625)"/>
       <path id="NotoSansCJKjp-Bold-41" d="M -26 0 
L 934 0 
L 1267 1216 
L 2797 1216 
L 3130 0 
L 4128 0 
L 2611 4742 
L 1491 4742 
L -26 0 
z
M 1472 1952 
L 1613 2470 
C 1754 2963 1888 3501 2016 4019 
L 2042 4019 
C 2182 3514 2310 2963 2458 2470 
L 2598 1952 
L 1472 1952 
z
" transform="scale(0.015625)"/>
       <path id="NotoSansCJKjp-Bold-2a" d="M 1056 2675 
L 1619 3315 
L 2189 2675 
L 2592 2970 
L 2157 3699 
L 2925 4038 
L 2771 4512 
L 1952 4333 
L 1875 5171 
L 1370 5171 
L 1280 4333 
L 474 4512 
L 320 4038 
L 1075 3699 
L 653 2970 
L 1056 2675 
z
" transform="scale(0.015625)"/>
      </defs>
      <use xlink:href="#NotoSansCJKjp-Bold-54"/>
      <use xlink:href="#NotoSansCJKjp-Bold-41" transform="translate(62.499985 0)"/>
      <use xlink:href="#NotoSansCJKjp-Bold-2a" transform="translate(126.599976 0)"/>
     </g>
    </g>
    <g id="patch_14">
     <path d="M 533.7 338.182159 
L 828.54 338.182159 
L 828.54 315.054886 
L 533.7 315.054886 
z
" style="fill: #f2f4f7; stroke: #cfcfcf; stroke-width: 0.8; stroke-linejoin: miter"/>
    </g>
    <g id="text_13">
     <!-- Field D* Hybrid -->
     <g transform="translate(643.802812 329.552898) scale(0.1 -0.1)">
      <defs>
       <path id="NotoSansCJKjp-Bold-46" d="M 582 0 
L 1530 0 
L 1530 1920 
L 3213 1920 
L 3213 2714 
L 1530 2714 
L 1530 3949 
L 3501 3949 
L 3501 4742 
L 582 4742 
L 582 0 
z
" transform="scale(0.015625)"/>
       <path id="NotoSansCJKjp-Bold-69" d="M 506 0 
L 1446 0 
L 1446 3584 
L 506 3584 
L 506 0 
z
M 979 4166 
C 1299 4166 1523 4365 1523 4678 
C 1523 4986 1299 5190 979 5190 
C 646 5190 435 4986 435 4678 
C 435 4365 646 4166 979 4166 
z
" transform="scale(0.015625)"/>
       <path id="NotoSansCJKjp-Bold-65" d="M 2067 -90 
C 2509 -90 2963 64 3315 307 
L 2995 883 
C 2733 723 2483 640 2195 640 
C 1658 640 1274 941 1197 1523 
L 3405 1523 
C 3430 1613 3450 1786 3450 1958 
C 3450 2957 2938 3674 1952 3674 
C 1101 3674 282 2950 282 1792 
C 282 608 1062 -90 2067 -90 
z
M 1178 2157 
C 1254 2675 1587 2944 1965 2944 
C 2432 2944 2643 2637 2643 2157 
L 1178 2157 
z
" transform="scale(0.015625)"/>
       <path id="NotoSansCJKjp-Bold-6c" d="M 1395 -90 
C 1613 -90 1766 -51 1875 -6 
L 1760 691 
C 1696 678 1670 678 1632 678 
C 1542 678 1446 749 1446 966 
L 1446 5107 
L 506 5107 
L 506 1005 
C 506 339 736 -90 1395 -90 
z
" transform="scale(0.015625)"/>
       <path id="NotoSansCJKjp-Bold-64" d="M 1766 -90 
C 2138 -90 2496 109 2758 371 
L 2784 371 
L 2854 0 
L 3622 0 
L 3622 5107 
L 2682 5107 
L 2682 3846 
L 2714 3283 
C 2458 3520 2208 3674 1805 3674 
C 1037 3674 301 2957 301 1792 
C 301 614 870 -90 1766 -90 
z
M 2010 685 
C 1536 685 1267 1056 1267 1805 
C 1267 2515 1606 2899 2010 2899 
C 2240 2899 2464 2829 2682 2630 
L 2682 1056 
C 2477 787 2259 685 2010 685 
z
" transform="scale(0.015625)"/>
       <path id="NotoSansCJKjp-Bold-20" transform="scale(0.015625)"/>
       <path id="NotoSansCJKjp-Bold-44" d="M 582 0 
L 1933 0 
C 3334 0 4224 794 4224 2394 
C 4224 3987 3334 4742 1882 4742 
L 582 4742 
L 582 0 
z
M 1530 768 
L 1530 3981 
L 1818 3981 
C 2707 3981 3258 3546 3258 2394 
C 3258 1242 2707 768 1818 768 
L 1530 768 
z
" transform="scale(0.015625)"/>
       <path id="NotoSansCJKjp-Bold-48" d="M 582 0 
L 1530 0 
L 1530 2048 
L 3322 2048 
L 3322 0 
L 4262 0 
L 4262 4742 
L 3322 4742 
L 3322 2867 
L 1530 2867 
L 1530 4742 
L 582 4742 
L 582 0 
z
" transform="scale(0.015625)"/>
       <path id="NotoSansCJKjp-Bold-79" d="M 819 -1434 
C 1619 -1434 2003 -954 2317 -109 
L 3590 3584 
L 2688 3584 
L 2195 1920 
C 2106 1587 2016 1242 1939 909 
L 1907 909 
C 1805 1254 1715 1600 1606 1920 
L 1037 3584 
L 90 3584 
L 1485 70 
L 1421 -147 
C 1318 -461 1114 -691 749 -691 
C 666 -691 563 -666 499 -646 
L 326 -1370 
C 467 -1408 608 -1434 819 -1434 
z
" transform="scale(0.015625)"/>
       <path id="NotoSansCJKjp-Bold-62" d="M 2304 -90 
C 3091 -90 3827 621 3827 1856 
C 3827 2950 3296 3674 2413 3674 
C 2061 3674 1702 3501 1414 3245 
L 1446 3821 
L 1446 5107 
L 506 5107 
L 506 0 
L 1242 0 
L 1318 378 
L 1350 378 
C 1638 77 1984 -90 2304 -90 
z
M 2099 685 
C 1901 685 1664 755 1446 954 
L 1446 2534 
C 1690 2778 1907 2899 2150 2899 
C 2643 2899 2861 2522 2861 1837 
C 2861 1056 2522 685 2099 685 
z
" transform="scale(0.015625)"/>
       <path id="NotoSansCJKjp-Bold-72" d="M 506 0 
L 1446 0 
L 1446 2138 
C 1651 2656 1984 2842 2259 2842 
C 2413 2842 2515 2822 2643 2784 
L 2797 3597 
C 2694 3642 2579 3674 2381 3674 
C 2010 3674 1626 3418 1363 2950 
L 1344 2950 
L 1274 3584 
L 506 3584 
L 506 0 
z
" transform="scale(0.015625)"/>
      </defs>
      <use xlink:href="#NotoSansCJKjp-Bold-46"/>
      <use xlink:href="#NotoSansCJKjp-Bold-69" transform="translate(58.499985 0)"/>
      <use xlink:href="#NotoSansCJKjp-Bold-65" transform="translate(88.899979 0)"/>
      <use xlink:href="#NotoSansCJKjp-Bold-6c" transform="translate(146.999969 0)"/>
      <use xlink:href="#NotoSansCJKjp-Bold-64" transform="translate(178.499954 0)"/>
      <use xlink:href="#NotoSansCJKjp-Bold-20" transform="translate(242.899948 0)"/>
      <use xlink:href="#NotoSansCJKjp-Bold-44" transform="translate(265.599945 0)"/>
      <use xlink:href="#NotoSansCJKjp-Bold-2a" transform="translate(336.999939 0)"/>
      <use xlink:href="#NotoSansCJKjp-Bold-20" transform="translate(387.699936 0)"/>
      <use xlink:href="#NotoSansCJKjp-Bold-48" transform="translate(410.399933 0)"/>
      <use xlink:href="#NotoSansCJKjp-Bold-79" transform="translate(486.099915 0)"/>
      <use xlink:href="#NotoSansCJKjp-Bold-62" transform="translate(543.499908 0)"/>
      <use xlink:href="#NotoSansCJKjp-Bold-72" transform="translate(607.899902 0)"/>
      <use xlink:href="#NotoSansCJKjp-Bold-69" transform="translate(651.499893 0)"/>
      <use xlink:href="#NotoSansCJKjp-Bold-64" transform="translate(681.899887 0)"/>
     </g>
    </g>
    <g id="patch_15">
     <path d="M 28.26 361.309432 
L 238.86 361.309432 
L 238.86 338.182159 
L 28.26 338.182159 
z
" style="fill: #ffffff; stroke: #cfcfcf; stroke-width: 0.8; stroke-linejoin: miter"/>
    </g>
    <g id="text_14">
     <!-- 詳細な地形回避 -->
     <g transform="translate(98.56 352.58017) scale(0.1 -0.1)">
      <defs>
       <path id="NotoSansCJKjp-Regular-8a73" d="M 550 3437 
L 550 3059 
L 2458 3059 
L 2458 3437 
L 550 3437 
z
M 576 5152 
L 576 4768 
L 2445 4768 
L 2445 5152 
L 576 5152 
z
M 550 2586 
L 550 2202 
L 2458 2202 
L 2458 2586 
L 550 2586 
z
M 243 4314 
L 243 3910 
L 2682 3910 
L 2682 4314 
L 243 4314 
z
M 3104 5197 
C 3296 4877 3488 4454 3565 4147 
L 2829 4147 
L 2829 3712 
L 4173 3712 
L 4173 2874 
L 2944 2874 
L 2944 2438 
L 4173 2438 
L 4173 1530 
L 2624 1530 
L 2624 1082 
L 4173 1082 
L 4173 -512 
L 4646 -512 
L 4646 1082 
L 6163 1082 
L 6163 1530 
L 4646 1530 
L 4646 2438 
L 5933 2438 
L 5933 2874 
L 4646 2874 
L 4646 3712 
L 6067 3712 
L 6067 4147 
L 5222 4147 
C 5402 4442 5606 4864 5786 5229 
L 5318 5389 
C 5210 5043 4992 4550 4826 4243 
L 5082 4147 
L 3744 4147 
L 4000 4250 
C 3917 4550 3706 4998 3494 5344 
L 3104 5197 
z
M 538 1722 
L 538 -442 
L 960 -442 
L 960 -147 
L 2451 -147 
L 2451 1722 
L 538 1722 
z
M 960 1318 
L 2029 1318 
L 2029 250 
L 960 250 
L 960 1318 
z
" transform="scale(0.015625)"/>
       <path id="NotoSansCJKjp-Regular-7d30" d="M 1990 1626 
C 2163 1229 2342 710 2400 371 
L 2797 506 
C 2726 838 2541 1357 2355 1747 
L 1990 1626 
z
M 595 1722 
C 518 1165 397 589 192 198 
C 294 160 486 70 570 13 
C 768 422 922 1043 1005 1651 
L 595 1722 
z
M 4186 4416 
L 4186 2643 
L 3360 2643 
L 3360 4416 
L 4186 4416 
z
M 4621 4416 
L 5498 4416 
L 5498 2643 
L 4621 2643 
L 4621 4416 
z
M 4186 2208 
L 4186 365 
L 3360 365 
L 3360 2208 
L 4186 2208 
z
M 4621 2208 
L 5498 2208 
L 5498 365 
L 4621 365 
L 4621 2208 
z
M 2925 4864 
L 2925 -429 
L 3360 -429 
L 3360 -83 
L 5498 -83 
L 5498 -378 
L 5952 -378 
L 5952 4864 
L 2925 4864 
z
M 192 2547 
L 269 2112 
L 1325 2208 
L 1325 -506 
L 1760 -506 
L 1760 2246 
L 2349 2298 
C 2426 2125 2483 1965 2522 1830 
L 2906 2016 
C 2803 2368 2515 2918 2234 3334 
L 1875 3181 
C 1978 3027 2074 2854 2163 2675 
L 1165 2611 
C 1606 3149 2093 3866 2464 4448 
L 2054 4640 
C 1869 4282 1606 3853 1331 3443 
C 1235 3578 1101 3738 947 3898 
C 1184 4256 1466 4774 1696 5210 
L 1267 5382 
C 1126 5024 890 4531 678 4160 
L 480 4333 
L 243 4013 
C 550 3744 896 3360 1082 3078 
C 954 2899 826 2726 698 2579 
L 192 2547 
z
" transform="scale(0.015625)"/>
       <path id="NotoSansCJKjp-Regular-56de" d="M 2394 3200 
L 3955 3200 
L 3955 1734 
L 2394 1734 
L 2394 3200 
z
M 1939 3635 
L 1939 1306 
L 4429 1306 
L 4429 3635 
L 1939 3635 
z
M 525 5114 
L 525 -506 
L 1018 -506 
L 1018 -160 
L 5370 -160 
L 5370 -506 
L 5882 -506 
L 5882 5114 
L 525 5114 
z
M 1018 294 
L 1018 4634 
L 5370 4634 
L 5370 294 
L 1018 294 
z
" transform="scale(0.015625)"/>
       <path id="NotoSansCJKjp-Regular-907f" d="M 307 4986 
C 646 4653 1005 4179 1152 3853 
L 1562 4096 
C 1414 4422 1037 4890 691 5216 
L 307 4986 
z
M 4134 4083 
C 4256 3770 4346 3373 4358 3104 
L 4730 3194 
C 4717 3450 4614 3859 4480 4160 
L 4134 4083 
z
M 1990 5082 
L 1990 3987 
C 1990 3200 1926 2106 1421 1280 
L 1421 2848 
L 275 2848 
L 275 2413 
L 986 2413 
L 986 717 
C 730 442 442 173 198 -26 
L 448 -467 
C 723 -179 992 96 1235 371 
C 1645 -134 2234 -358 3091 -390 
C 3840 -416 5274 -403 6016 -378 
C 6042 -243 6112 -32 6170 70 
C 5370 19 3821 0 3085 32 
C 2323 58 1734 282 1421 762 
L 1421 1222 
C 1510 1165 1658 1024 1709 941 
C 1926 1267 2080 1651 2182 2042 
L 2182 442 
L 2586 442 
L 2586 781 
L 3718 781 
L 3718 2643 
L 2310 2643 
C 2342 2874 2368 3098 2381 3315 
L 3629 3315 
L 3629 5082 
L 1990 5082 
z
M 2400 3699 
L 2406 3981 
L 2406 4698 
L 3213 4698 
L 3213 3699 
L 2400 3699 
z
M 2586 2259 
L 3302 2259 
L 3302 1165 
L 2586 1165 
L 2586 2259 
z
M 4717 5376 
L 4717 4589 
L 3853 4589 
L 3853 4192 
L 6022 4192 
L 6022 4589 
L 5158 4589 
L 5158 5376 
L 4717 5376 
z
M 3795 3091 
L 3795 2688 
L 4717 2688 
L 4717 1971 
L 3878 1971 
L 3878 1574 
L 4717 1574 
L 4717 365 
L 5158 365 
L 5158 1574 
L 6003 1574 
L 6003 1971 
L 5158 1971 
L 5158 2688 
L 6074 2688 
L 6074 3091 
L 3795 3091 
z
M 5402 4186 
C 5344 3891 5222 3450 5133 3181 
L 5459 3091 
C 5568 3347 5690 3744 5805 4090 
L 5402 4186 
z
" transform="scale(0.015625)"/>
      </defs>
      <use xlink:href="#NotoSansCJKjp-Regular-8a73"/>
      <use xlink:href="#NotoSansCJKjp-Regular-7d30" transform="translate(99.999985 0)"/>
      <use xlink:href="#NotoSansCJKjp-Regular-306a" transform="translate(199.999969 0)"/>
      <use xlink:href="#NotoSansCJKjp-Regular-5730" transform="translate(299.999954 0)"/>
      <use xlink:href="#NotoSansCJKjp-Regular-5f62" transform="translate(399.999939 0)"/>
      <use xlink:href="#NotoSansCJKjp-Regular-56de" transform="translate(499.999924 0)"/>
      <use xlink:href="#NotoSansCJKjp-Regular-907f" transform="translate(599.999908 0)"/>
     </g>
    </g>
    <g id="patch_16">
     <path d="M 238.86 361.309432 
L 533.7 361.309432 
L 533.7 338.182159 
L 238.86 338.182159 
z
" style="fill: #ffffff; stroke: #cfcfcf; stroke-width: 0.8; stroke-linejoin: miter"/>
    </g>
    <g id="text_15">
     <!-- ○ -->
     <g transform="translate(381.28 352.58017) scale(0.1 -0.1)">
      <defs>
       <path id="NotoSansCJKjp-Regular-25cb" d="M 320 2432 
C 320 838 1606 -448 3200 -448 
C 4794 -448 6080 838 6080 2432 
C 6080 4026 4794 5312 3200 5312 
C 1606 5312 320 4026 320 2432 
z
M 3200 -211 
C 1741 -211 557 973 557 2432 
C 557 3891 1741 5075 3200 5075 
C 4659 5075 5843 3891 5843 2432 
C 5843 973 4659 -211 3200 -211 
z
" transform="scale(0.015625)"/>
      </defs>
      <use xlink:href="#NotoSansCJKjp-Regular-25cb"/>
     </g>
    </g>
    <g id="patch_17">
     <path d="M 533.7 361.309432 
L 828.54 361.309432 
L 828.54 338.182159 
L 533.7 338.182159 
z
" style="fill: #ffffff; stroke: #cfcfcf; stroke-width: 0.8; stroke-linejoin: miter"/>
    </g>
    <g id="text_16">
     <!-- ○ -->
     <g transform="translate(676.12 352.58017) scale(0.1 -0.1)">
      <use xlink:href="#NotoSansCJKjp-Regular-25cb"/>
     </g>
    </g>
    <g id="patch_18">
     <path d="M 28.26 384.436705 
L 238.86 384.436705 
L 238.86 361.309432 
L 28.26 361.309432 
z
" style="fill: #ffffff; stroke: #cfcfcf; stroke-width: 0.8; stroke-linejoin: miter"/>
    </g>
    <g id="text_17">
     <!-- 高速＋滑らか -->
     <g transform="translate(103.56 375.707443) scale(0.1 -0.1)">
      <defs>
       <path id="NotoSansCJKjp-Regular-ff0b" d="M 5523 2182 
L 5523 2624 
L 3418 2624 
L 3418 4730 
L 2982 4730 
L 2982 2624 
L 877 2624 
L 877 2182 
L 2982 2182 
L 2982 77 
L 3418 77 
L 3418 2182 
L 5523 2182 
z
" transform="scale(0.015625)"/>
      </defs>
      <use xlink:href="#NotoSansCJKjp-Regular-9ad8"/>
      <use xlink:href="#NotoSansCJKjp-Regular-901f" transform="translate(99.999985 0)"/>
      <use xlink:href="#NotoSansCJKjp-Regular-ff0b" transform="translate(199.999969 0)"/>
      <use xlink:href="#NotoSansCJKjp-Regular-6ed1" transform="translate(299.999954 0)"/>
      <use xlink:href="#NotoSansCJKjp-Regular-3089" transform="translate(399.999939 0)"/>
      <use xlink:href="#NotoSansCJKjp-Regular-304b" transform="translate(499.999924 0)"/>
     </g>
    </g>
    <g id="patch_19">
     <path d="M 238.86 384.436705 
L 533.7 384.436705 
L 533.7 361.309432 
L 238.86 361.309432 
z
" style="fill: #ffffff; stroke: #cfcfcf; stroke-width: 0.8; stroke-linejoin: miter"/>
    </g>
    <g id="text_18">
     <!-- △ -->
     <g transform="translate(381.28 375.707443) scale(0.1 -0.1)">
      <defs>
       <path id="NotoSansCJKjp-Regular-25b3" d="M 6208 77 
L 3200 5286 
L 192 77 
L 6208 77 
z
M 602 314 
L 3200 4813 
L 5798 314 
L 602 314 
z
" transform="scale(0.015625)"/>
      </defs>
      <use xlink:href="#NotoSansCJKjp-Regular-25b3"/>
     </g>
    </g>
    <g id="patch_20">
     <path d="M 533.7 384.436705 
L 828.54 384.436705 
L 828.54 361.309432 
L 533.7 361.309432 
z
" style="fill: #ffffff; stroke: #cfcfcf; stroke-width: 0.8; stroke-linejoin: miter"/>
    </g>
    <g id="text_19">
     <!-- ◎ -->
     <g transform="translate(676.12 375.707443) scale(0.1 -0.1)">
      <defs>
       <path id="NotoSansCJKjp-Regular-25ce" d="M 3200 5312 
C 1606 5312 320 4026 320 2432 
C 320 838 1606 -448 3200 -448 
C 4794 -448 6080 838 6080 2432 
C 6080 4026 4794 5312 3200 5312 
z
M 3200 5075 
C 4659 5075 5843 3891 5843 2432 
C 5843 973 4659 -211 3200 -211 
C 1741 -211 557 973 557 2432 
C 557 3891 1741 5075 3200 5075 
z
M 3200 4326 
C 2150 4326 1306 3482 1306 2432 
C 1306 1382 2150 538 3200 538 
C 4250 538 5094 1382 5094 2432 
C 5094 3482 4250 4326 3200 4326 
z
M 3200 4128 
C 4134 4128 4896 3366 4896 2432 
C 4896 1498 4134 736 3200 736 
C 2266 736 1504 1498 1504 2432 
C 1504 3366 2266 4128 3200 4128 
z
" transform="scale(0.015625)"/>
      </defs>
      <use xlink:href="#NotoSansCJKjp-Regular-25ce"/>
     </g>
    </g>
   </g>
  </g>
 </g>
 <defs>
  <clipPath id="ped83da223d">
   <rect x="7.2" y="22.75125" width="415.8" height="249.48"/>
  </clipPath>
  <clipPath id="pa8e0377f3d">
   <rect x="433.8" y="22.75125" width="415.8" height="249.48"/>
  </clipPath>
 </defs>
</svg>
