<?xml version="1.0" encoding="utf-8" standalone="no"?>
<!DOCTYPE svg PUBLIC "-//W3C//DTD SVG 1.1//EN"
  "http://www.w3.org/Graphics/SVG/1.1/DTD/svg11.dtd">
<svg xmlns:xlink="http://www.w3.org/1999/xlink" width="855.143539pt" height="425.21125pt" viewBox="0 0 855.143539 425.21125" xmlns="http://www.w3.org/2000/svg" version="1.1">
 <metadata>
  <rdf:RDF xmlns:dc="http://purl.org/dc/elements/1.1/" xmlns:cc="http://creativecommons.org/ns#" xmlns:rdf="http://www.w3.org/1999/02/22-rdf-syntax-ns#">
   <cc:Work>
    <dc:type rdf:resource="http://purl.org/dc/dcmitype/StillImage"/>
    <dc:date>2026-02-13T12:02:33.013696</dc:date>
    <dc:format>image/svg+xml</dc:format>
    <dc:creator>
     <cc:Agent>
      <dc:title>Matplotlib v3.10.8, https://matplotlib.org/</dc:title>
     </cc:Agent>
    </dc:creator>
   </cc:Work>
  </rdf:RDF>
 </metadata>
 <defs>
  <style type="text/css">*{stroke-linejoin: round; stroke-linecap: butt}</style>
 </defs>
 <g id="figure_1">
  <g id="patch_1">
   <path d="M 0 425.21125 
L 855.143539 425.21125 
L 855.143539 0 
L 0 0 
z
" style="fill: #ffffff"/>
  </g>
  <g id="axes_1">
   <g id="patch_2">
    <path d="M 48.785313 400.71125 
L 847.943539 400.71125 
L 847.943539 22.75125 
L 48.785313 22.75125 
z
" style="fill: #ffffff"/>
   </g>
   <g id="patch_3">
    <path d="M 85.110686 115282.241935 
L 238.059629 115282.241935 
L 238.059629 39.93125 
L 85.110686 39.93125 
z
" clip-path="url(#p778a9708b2)" style="fill: #6b7fa8; stroke: #4e5f7c; stroke-linejoin: miter"/>
   </g>
   <g id="patch_4">
    <path d="M 276.296865 115282.241935 
L 429.245808 115282.241935 
L 429.245808 263.946143 
L 276.296865 263.946143 
z
" clip-path="url(#p778a9708b2)" style="fill: #8fa6c8; stroke: #4e5f7c; stroke-linejoin: miter"/>
   </g>
   <g id="patch_5">
    <path d="M 467.483044 115282.241935 
L 620.431987 115282.241935 
L 620.431987 249.422393 
L 467.483044 249.422393 
z
" clip-path="url(#p778a9708b2)" style="fill: #9fb7d5; stroke: #4e5f7c; stroke-linejoin: miter"/>
   </g>
   <g id="patch_6">
    <path d="M 658.669222 115282.241935 
L 811.618165 115282.241935 
L 811.618165 383.53125 
L 658.669222 383.53125 
z
" clip-path="url(#p778a9708b2)" style="fill: #b8cbe4; stroke: #4e5f7c; stroke-linejoin: miter"/>
   </g>
   <g id="matplotlib.axis_1">
    <g id="xtick_1">
     <g id="line2d_1">
      <defs>
       <path id="mbc56106c68" d="M 0 0 
L 0 3.5 
" style="stroke: #000000; stroke-width: 0.8"/>
      </defs>
      <g>
       <use xlink:href="#mbc56106c68" x="161.585158" y="400.71125" style="stroke: #000000; stroke-width: 0.8"/>
      </g>
     </g>
     <g id="text_1">
      <!-- TA* -->
      <g transform="translate(153.214845 415.670625) scale(0.1 -0.1)">
       <defs>
        <path id="NotoSansCJKjp-Regular-54" d="M 1619 0 
L 2214 0 
L 2214 4192 
L 3635 4192 
L 3635 4691 
L 198 4691 
L 198 4192 
L 1619 4192 
L 1619 0 
z
" transform="scale(0.015625)"/>
        <path id="NotoSansCJKjp-Regular-41" d="M 26 0 
L 621 0 
L 1075 1434 
L 2790 1434 
L 3238 0 
L 3866 0 
L 2272 4691 
L 1613 4691 
L 26 0 
z
M 1222 1901 
L 1453 2624 
C 1619 3155 1773 3661 1920 4211 
L 1946 4211 
C 2099 3667 2246 3155 2419 2624 
L 2643 1901 
L 1222 1901 
z
" transform="scale(0.015625)"/>
        <path id="NotoSansCJKjp-Regular-2a" d="M 986 3014 
L 1498 3622 
L 1997 3014 
L 2278 3213 
L 1869 3885 
L 2566 4179 
L 2458 4506 
L 1728 4326 
L 1664 5094 
L 1318 5094 
L 1254 4320 
L 525 4506 
L 416 4179 
L 1107 3885 
L 704 3213 
L 986 3014 
z
" transform="scale(0.015625)"/>
       </defs>
       <use xlink:href="#NotoSansCJKjp-Regular-54"/>
       <use xlink:href="#NotoSansCJKjp-Regular-41" transform="translate(59.899994 0)"/>
       <use xlink:href="#NotoSansCJKjp-Regular-2a" transform="translate(120.699982 0)"/>
      </g>
     </g>
    </g>
    <g id="xtick_2">
     <g id="line2d_2">
      <g>
       <use xlink:href="#mbc56106c68" x="352.771337" y="400.71125" style="stroke: #000000; stroke-width: 0.8"/>
      </g>
     </g>
     <g id="text_2">
      <!-- Field D* Hybrid -->
      <g transform="translate(317.580712 415.670625) scale(0.1 -0.1)">
       <defs>
        <path id="NotoSansCJKjp-Regular-46" d="M 646 0 
L 1235 0 
L 1235 2106 
L 3027 2106 
L 3027 2605 
L 1235 2605 
L 1235 4192 
L 3347 4192 
L 3347 4691 
L 646 4691 
L 646 0 
z
" transform="scale(0.015625)"/>
        <path id="NotoSansCJKjp-Regular-69" d="M 589 0 
L 1178 0 
L 1178 3475 
L 589 3475 
L 589 0 
z
M 883 4192 
C 1114 4192 1274 4346 1274 4582 
C 1274 4806 1114 4960 883 4960 
C 653 4960 499 4806 499 4582 
C 499 4346 653 4192 883 4192 
z
" transform="scale(0.015625)"/>
        <path id="NotoSansCJKjp-Regular-65" d="M 1997 -83 
C 2464 -83 2835 70 3136 269 
L 2931 659 
C 2669 486 2400 384 2061 384 
C 1402 384 947 858 909 1600 
L 3251 1600 
C 3264 1690 3277 1805 3277 1933 
C 3277 2925 2778 3565 1888 3565 
C 1094 3565 333 2867 333 1734 
C 333 589 1069 -83 1997 -83 
z
M 902 2016 
C 973 2707 1408 3098 1901 3098 
C 2445 3098 2765 2720 2765 2016 
L 902 2016 
z
" transform="scale(0.015625)"/>
        <path id="NotoSansCJKjp-Regular-6c" d="M 1203 -83 
C 1363 -83 1459 -58 1542 -32 
L 1459 416 
C 1395 403 1370 403 1338 403 
C 1248 403 1178 474 1178 653 
L 1178 5094 
L 589 5094 
L 589 691 
C 589 198 768 -83 1203 -83 
z
" transform="scale(0.015625)"/>
        <path id="NotoSansCJKjp-Regular-64" d="M 1773 -83 
C 2189 -83 2560 141 2829 410 
L 2848 410 
L 2899 0 
L 3379 0 
L 3379 5094 
L 2790 5094 
L 2790 3757 
L 2822 3162 
C 2515 3411 2253 3565 1843 3565 
C 1050 3565 339 2861 339 1734 
C 339 576 902 -83 1773 -83 
z
M 1901 410 
C 1293 410 941 902 941 1741 
C 941 2534 1389 3072 1946 3072 
C 2234 3072 2502 2970 2790 2707 
L 2790 883 
C 2502 563 2221 410 1901 410 
z
" transform="scale(0.015625)"/>
        <path id="NotoSansCJKjp-Regular-20" transform="scale(0.015625)"/>
        <path id="NotoSansCJKjp-Regular-44" d="M 646 0 
L 1843 0 
C 3258 0 4026 877 4026 2362 
C 4026 3859 3258 4691 1818 4691 
L 646 4691 
L 646 0 
z
M 1235 486 
L 1235 4211 
L 1766 4211 
C 2874 4211 3418 3552 3418 2362 
C 3418 1178 2874 486 1766 486 
L 1235 486 
z
" transform="scale(0.015625)"/>
        <path id="NotoSansCJKjp-Regular-48" d="M 646 0 
L 1235 0 
L 1235 2214 
L 3424 2214 
L 3424 0 
L 4019 0 
L 4019 4691 
L 3424 4691 
L 3424 2726 
L 1235 2726 
L 1235 4691 
L 646 4691 
L 646 0 
z
" transform="scale(0.015625)"/>
        <path id="NotoSansCJKjp-Regular-79" d="M 646 -1498 
C 1338 -1498 1702 -973 1946 -294 
L 3251 3475 
L 2682 3475 
L 2054 1549 
C 1965 1235 1862 883 1773 563 
L 1741 563 
C 1619 890 1504 1242 1395 1549 
L 691 3475 
L 83 3475 
L 1478 -6 
L 1402 -269 
C 1254 -698 1011 -1018 621 -1018 
C 525 -1018 422 -986 352 -960 
L 237 -1427 
C 346 -1472 486 -1498 646 -1498 
z
" transform="scale(0.015625)"/>
        <path id="NotoSansCJKjp-Regular-62" d="M 2118 -83 
C 2912 -83 3629 602 3629 1792 
C 3629 2867 3142 3565 2246 3565 
C 1856 3565 1472 3347 1152 3078 
L 1178 3699 
L 1178 5094 
L 589 5094 
L 589 0 
L 1056 0 
L 1107 358 
L 1133 358 
C 1434 83 1798 -83 2118 -83 
z
M 2022 410 
C 1792 410 1478 499 1178 768 
L 1178 2598 
C 1504 2906 1811 3072 2099 3072 
C 2765 3072 3021 2560 3021 1786 
C 3021 928 2598 410 2022 410 
z
" transform="scale(0.015625)"/>
        <path id="NotoSansCJKjp-Regular-72" d="M 589 0 
L 1178 0 
L 1178 2234 
C 1408 2822 1760 3040 2048 3040 
C 2195 3040 2272 3021 2387 2982 
L 2496 3488 
C 2387 3546 2278 3565 2125 3565 
C 1741 3565 1382 3283 1139 2842 
L 1126 2842 
L 1069 3475 
L 589 3475 
L 589 0 
z
" transform="scale(0.015625)"/>
       </defs>
       <use xlink:href="#NotoSansCJKjp-Regular-46"/>
       <use xlink:href="#NotoSansCJKjp-Regular-69" transform="translate(55.199997 0)"/>
       <use xlink:href="#NotoSansCJKjp-Regular-65" transform="translate(82.699982 0)"/>
       <use xlink:href="#NotoSansCJKjp-Regular-6c" transform="translate(138.099976 0)"/>
       <use xlink:href="#NotoSansCJKjp-Regular-64" transform="translate(166.499969 0)"/>
       <use xlink:href="#NotoSansCJKjp-Regular-20" transform="translate(228.499954 0)"/>
       <use xlink:href="#NotoSansCJKjp-Regular-44" transform="translate(250.899948 0)"/>
       <use xlink:href="#NotoSansCJKjp-Regular-2a" transform="translate(319.699936 0)"/>
       <use xlink:href="#NotoSansCJKjp-Regular-20" transform="translate(366.399933 0)"/>
       <use xlink:href="#NotoSansCJKjp-Regular-48" transform="translate(388.799927 0)"/>
       <use xlink:href="#NotoSansCJKjp-Regular-79" transform="translate(461.599915 0)"/>
       <use xlink:href="#NotoSansCJKjp-Regular-62" transform="translate(513.699905 0)"/>
       <use xlink:href="#NotoSansCJKjp-Regular-72" transform="translate(575.499893 0)"/>
       <use xlink:href="#NotoSansCJKjp-Regular-69" transform="translate(614.299881 0)"/>
       <use xlink:href="#NotoSansCJKjp-Regular-64" transform="translate(641.799866 0)"/>
      </g>
     </g>
    </g>
    <g id="xtick_3">
     <g id="line2d_3">
      <g>
       <use xlink:href="#mbc56106c68" x="543.957515" y="400.71125" style="stroke: #000000; stroke-width: 0.8"/>
      </g>
     </g>
     <g id="text_3">
      <!-- Theta* -->
      <g transform="translate(528.121578 415.670625) scale(0.1 -0.1)">
       <defs>
        <path id="NotoSansCJKjp-Regular-68" d="M 589 0 
L 1178 0 
L 1178 2522 
C 1523 2874 1766 3053 2125 3053 
C 2586 3053 2784 2778 2784 2125 
L 2784 0 
L 3366 0 
L 3366 2202 
C 3366 3085 3034 3565 2304 3565 
C 1830 3565 1472 3302 1152 2982 
L 1178 3699 
L 1178 5094 
L 589 5094 
L 589 0 
z
" transform="scale(0.015625)"/>
        <path id="NotoSansCJKjp-Regular-74" d="M 1677 -83 
C 1894 -83 2125 -19 2323 45 
L 2208 486 
C 2093 435 1939 390 1811 390 
C 1408 390 1274 634 1274 1056 
L 1274 3002 
L 2221 3002 
L 2221 3475 
L 1274 3475 
L 1274 4454 
L 787 4454 
L 723 3475 
L 173 3443 
L 173 3002 
L 691 3002 
L 691 1075 
C 691 378 941 -83 1677 -83 
z
" transform="scale(0.015625)"/>
        <path id="NotoSansCJKjp-Regular-61" d="M 1389 -83 
C 1818 -83 2208 141 2541 416 
L 2560 416 
L 2611 0 
L 3091 0 
L 3091 2138 
C 3091 3002 2739 3565 1888 3565 
C 1325 3565 838 3315 525 3110 
L 749 2707 
C 1024 2893 1389 3078 1792 3078 
C 2362 3078 2509 2650 2509 2202 
C 1030 2035 378 1658 378 902 
C 378 275 806 -83 1389 -83 
z
M 1555 390 
C 1210 390 941 544 941 941 
C 941 1389 1338 1677 2509 1811 
L 2509 845 
C 2170 544 1888 390 1555 390 
z
" transform="scale(0.015625)"/>
       </defs>
       <use xlink:href="#NotoSansCJKjp-Regular-54"/>
       <use xlink:href="#NotoSansCJKjp-Regular-68" transform="translate(59.899994 0)"/>
       <use xlink:href="#NotoSansCJKjp-Regular-65" transform="translate(120.599991 0)"/>
       <use xlink:href="#NotoSansCJKjp-Regular-74" transform="translate(175.999985 0)"/>
       <use xlink:href="#NotoSansCJKjp-Regular-61" transform="translate(213.699982 0)"/>
       <use xlink:href="#NotoSansCJKjp-Regular-2a" transform="translate(269.999969 0)"/>
      </g>
     </g>
    </g>
    <g id="xtick_4">
     <g id="line2d_4">
      <g>
       <use xlink:href="#mbc56106c68" x="735.143694" y="400.71125" style="stroke: #000000; stroke-width: 0.8"/>
      </g>
     </g>
     <g id="text_4">
      <!-- AHA* -->
      <g transform="translate(723.089006 415.670625) scale(0.1 -0.1)">
       <use xlink:href="#NotoSansCJKjp-Regular-41"/>
       <use xlink:href="#NotoSansCJKjp-Regular-48" transform="translate(60.799988 0)"/>
       <use xlink:href="#NotoSansCJKjp-Regular-41" transform="translate(133.599976 0)"/>
       <use xlink:href="#NotoSansCJKjp-Regular-2a" transform="translate(194.399963 0)"/>
      </g>
     </g>
    </g>
   </g>
   <g id="matplotlib.axis_2">
    <g id="ytick_1">
     <g id="line2d_5">
      <path d="M 48.785313 291.921141 
L 847.943539 291.921141 
" clip-path="url(#p778a9708b2)" style="fill: none; stroke-dasharray: 1.85,0.8; stroke-dashoffset: 0; stroke: #d0d0d0; stroke-width: 0.5"/>
     </g>
     <g id="line2d_6">
      <defs>
       <path id="mcc12d336c1" d="M 0 0 
L -3.5 0 
" style="stroke: #000000; stroke-width: 0.8"/>
      </defs>
      <g>
       <use xlink:href="#mcc12d336c1" x="48.785313" y="291.921141" style="stroke: #000000; stroke-width: 0.8"/>
      </g>
     </g>
     <g id="text_5">
      <!-- $\mathdefault{10^{-1}}$ -->
      <g transform="translate(22.485313 295.900829) scale(0.1 -0.1)">
       <defs>
        <path id="NotoSansCJKjp-Regular-31" d="M 563 0 
L 3136 0 
L 3136 486 
L 2195 486 
L 2195 4691 
L 1747 4691 
C 1491 4544 1190 4435 774 4358 
L 774 3987 
L 1613 3987 
L 1613 486 
L 563 486 
L 563 0 
z
" transform="scale(0.015625)"/>
        <path id="NotoSansCJKjp-Regular-30" d="M 1779 -83 
C 2669 -83 3238 723 3238 2362 
C 3238 3987 2669 4774 1779 4774 
C 883 4774 320 3987 320 2362 
C 320 723 883 -83 1779 -83 
z
M 1779 390 
C 1248 390 883 986 883 2362 
C 883 3731 1248 4314 1779 4314 
C 2310 4314 2675 3731 2675 2362 
C 2675 986 2310 390 1779 390 
z
" transform="scale(0.015625)"/>
        <path id="NotoSansCJKjp-Regular-2212" d="M 243 2144 
L 3315 2144 
L 3315 2579 
L 243 2579 
L 243 2144 
z
" transform="scale(0.015625)"/>
       </defs>
       <use xlink:href="#NotoSansCJKjp-Regular-31" transform="translate(0 0.684375)"/>
       <use xlink:href="#NotoSansCJKjp-Regular-30" transform="translate(55.499985 0.684375)"/>
       <use xlink:href="#NotoSansCJKjp-Regular-2212" transform="translate(111.950165 38.692188) scale(0.7)"/>
       <use xlink:href="#NotoSansCJKjp-Regular-31" transform="translate(150.800154 38.692188) scale(0.7)"/>
      </g>
     </g>
    </g>
    <g id="ytick_2">
     <g id="line2d_7">
      <path d="M 48.785313 176.815715 
L 847.943539 176.815715 
" clip-path="url(#p778a9708b2)" style="fill: none; stroke-dasharray: 1.85,0.8; stroke-dashoffset: 0; stroke: #d0d0d0; stroke-width: 0.5"/>
     </g>
     <g id="line2d_8">
      <g>
       <use xlink:href="#mcc12d336c1" x="48.785313" y="176.815715" style="stroke: #000000; stroke-width: 0.8"/>
      </g>
     </g>
     <g id="text_6">
      <!-- $\mathdefault{10^{0}}$ -->
      <g transform="translate(26.385313 180.795403) scale(0.1 -0.1)">
       <use xlink:href="#NotoSansCJKjp-Regular-31" transform="translate(0 0.776563)"/>
       <use xlink:href="#NotoSansCJKjp-Regular-30" transform="translate(55.499985 0.776563)"/>
       <use xlink:href="#NotoSansCJKjp-Regular-30" transform="translate(111.950165 38.784375) scale(0.7)"/>
      </g>
     </g>
    </g>
    <g id="ytick_3">
     <g id="line2d_9">
      <path d="M 48.785313 61.710289 
L 847.943539 61.710289 
" clip-path="url(#p778a9708b2)" style="fill: none; stroke-dasharray: 1.85,0.8; stroke-dashoffset: 0; stroke: #d0d0d0; stroke-width: 0.5"/>
     </g>
     <g id="line2d_10">
      <g>
       <use xlink:href="#mcc12d336c1" x="48.785313" y="61.710289" style="stroke: #000000; stroke-width: 0.8"/>
      </g>
     </g>
     <g id="text_7">
      <!-- $\mathdefault{10^{1}}$ -->
      <g transform="translate(26.385313 65.689976) scale(0.1 -0.1)">
       <use xlink:href="#NotoSansCJKjp-Regular-31" transform="translate(0 0.684375)"/>
       <use xlink:href="#NotoSansCJKjp-Regular-30" transform="translate(55.499985 0.684375)"/>
       <use xlink:href="#NotoSansCJKjp-Regular-31" transform="translate(111.950165 38.692188) scale(0.7)"/>
      </g>
     </g>
    </g>
    <g id="ytick_4">
     <g id="line2d_11">
      <path d="M 48.785313 372.376382 
L 847.943539 372.376382 
" clip-path="url(#p778a9708b2)" style="fill: none; stroke-dasharray: 1.85,0.8; stroke-dashoffset: 0; stroke: #d0d0d0; stroke-width: 0.5"/>
     </g>
     <g id="line2d_12">
      <defs>
       <path id="m0f6db4ad21" d="M 0 0 
L -2 0 
" style="stroke: #000000; stroke-width: 0.6"/>
      </defs>
      <g>
       <use xlink:href="#m0f6db4ad21" x="48.785313" y="372.376382" style="stroke: #000000; stroke-width: 0.6"/>
      </g>
     </g>
    </g>
    <g id="ytick_5">
     <g id="line2d_13">
      <path d="M 48.785313 352.107322 
L 847.943539 352.107322 
" clip-path="url(#p778a9708b2)" style="fill: none; stroke-dasharray: 1.85,0.8; stroke-dashoffset: 0; stroke: #d0d0d0; stroke-width: 0.5"/>
     </g>
     <g id="line2d_14">
      <g>
       <use xlink:href="#m0f6db4ad21" x="48.785313" y="352.107322" style="stroke: #000000; stroke-width: 0.6"/>
      </g>
     </g>
    </g>
    <g id="ytick_6">
     <g id="line2d_15">
      <path d="M 48.785313 337.726196 
L 847.943539 337.726196 
" clip-path="url(#p778a9708b2)" style="fill: none; stroke-dasharray: 1.85,0.8; stroke-dashoffset: 0; stroke: #d0d0d0; stroke-width: 0.5"/>
     </g>
     <g id="line2d_16">
      <g>
       <use xlink:href="#m0f6db4ad21" x="48.785313" y="337.726196" style="stroke: #000000; stroke-width: 0.6"/>
      </g>
     </g>
    </g>
    <g id="ytick_7">
     <g id="line2d_17">
      <path d="M 48.785313 326.571327 
L 847.943539 326.571327 
" clip-path="url(#p778a9708b2)" style="fill: none; stroke-dasharray: 1.85,0.8; stroke-dashoffset: 0; stroke: #d0d0d0; stroke-width: 0.5"/>
     </g>
     <g id="line2d_18">
      <g>
       <use xlink:href="#m0f6db4ad21" x="48.785313" y="326.571327" style="stroke: #000000; stroke-width: 0.6"/>
      </g>
     </g>
    </g>
    <g id="ytick_8">
     <g id="line2d_19">
      <path d="M 48.785313 317.457136 
L 847.943539 317.457136 
" clip-path="url(#p778a9708b2)" style="fill: none; stroke-dasharray: 1.85,0.8; stroke-dashoffset: 0; stroke: #d0d0d0; stroke-width: 0.5"/>
     </g>
     <g id="line2d_20">
      <g>
       <use xlink:href="#m0f6db4ad21" x="48.785313" y="317.457136" style="stroke: #000000; stroke-width: 0.6"/>
      </g>
     </g>
    </g>
    <g id="ytick_9">
     <g id="line2d_21">
      <path d="M 48.785313 309.751198 
L 847.943539 309.751198 
" clip-path="url(#p778a9708b2)" style="fill: none; stroke-dasharray: 1.85,0.8; stroke-dashoffset: 0; stroke: #d0d0d0; stroke-width: 0.5"/>
     </g>
     <g id="line2d_22">
      <g>
       <use xlink:href="#m0f6db4ad21" x="48.785313" y="309.751198" style="stroke: #000000; stroke-width: 0.6"/>
      </g>
     </g>
    </g>
    <g id="ytick_10">
     <g id="line2d_23">
      <path d="M 48.785313 303.07601 
L 847.943539 303.07601 
" clip-path="url(#p778a9708b2)" style="fill: none; stroke-dasharray: 1.85,0.8; stroke-dashoffset: 0; stroke: #d0d0d0; stroke-width: 0.5"/>
     </g>
     <g id="line2d_24">
      <g>
       <use xlink:href="#m0f6db4ad21" x="48.785313" y="303.07601" style="stroke: #000000; stroke-width: 0.6"/>
      </g>
     </g>
    </g>
    <g id="ytick_11">
     <g id="line2d_25">
      <path d="M 48.785313 297.188077 
L 847.943539 297.188077 
" clip-path="url(#p778a9708b2)" style="fill: none; stroke-dasharray: 1.85,0.8; stroke-dashoffset: 0; stroke: #d0d0d0; stroke-width: 0.5"/>
     </g>
     <g id="line2d_26">
      <g>
       <use xlink:href="#m0f6db4ad21" x="48.785313" y="297.188077" style="stroke: #000000; stroke-width: 0.6"/>
      </g>
     </g>
    </g>
    <g id="ytick_12">
     <g id="line2d_27">
      <path d="M 48.785313 257.270955 
L 847.943539 257.270955 
" clip-path="url(#p778a9708b2)" style="fill: none; stroke-dasharray: 1.85,0.8; stroke-dashoffset: 0; stroke: #d0d0d0; stroke-width: 0.5"/>
     </g>
     <g id="line2d_28">
      <g>
       <use xlink:href="#m0f6db4ad21" x="48.785313" y="257.270955" style="stroke: #000000; stroke-width: 0.6"/>
      </g>
     </g>
    </g>
    <g id="ytick_13">
     <g id="line2d_29">
      <path d="M 48.785313 237.001896 
L 847.943539 237.001896 
" clip-path="url(#p778a9708b2)" style="fill: none; stroke-dasharray: 1.85,0.8; stroke-dashoffset: 0; stroke: #d0d0d0; stroke-width: 0.5"/>
     </g>
     <g id="line2d_30">
      <g>
       <use xlink:href="#m0f6db4ad21" x="48.785313" y="237.001896" style="stroke: #000000; stroke-width: 0.6"/>
      </g>
     </g>
    </g>
    <g id="ytick_14">
     <g id="line2d_31">
      <path d="M 48.785313 222.620769 
L 847.943539 222.620769 
" clip-path="url(#p778a9708b2)" style="fill: none; stroke-dasharray: 1.85,0.8; stroke-dashoffset: 0; stroke: #d0d0d0; stroke-width: 0.5"/>
     </g>
     <g id="line2d_32">
      <g>
       <use xlink:href="#m0f6db4ad21" x="48.785313" y="222.620769" style="stroke: #000000; stroke-width: 0.6"/>
      </g>
     </g>
    </g>
    <g id="ytick_15">
     <g id="line2d_33">
      <path d="M 48.785313 211.465901 
L 847.943539 211.465901 
" clip-path="url(#p778a9708b2)" style="fill: none; stroke-dasharray: 1.85,0.8; stroke-dashoffset: 0; stroke: #d0d0d0; stroke-width: 0.5"/>
     </g>
     <g id="line2d_34">
      <g>
       <use xlink:href="#m0f6db4ad21" x="48.785313" y="211.465901" style="stroke: #000000; stroke-width: 0.6"/>
      </g>
     </g>
    </g>
    <g id="ytick_16">
     <g id="line2d_35">
      <path d="M 48.785313 202.35171 
L 847.943539 202.35171 
" clip-path="url(#p778a9708b2)" style="fill: none; stroke-dasharray: 1.85,0.8; stroke-dashoffset: 0; stroke: #d0d0d0; stroke-width: 0.5"/>
     </g>
     <g id="line2d_36">
      <g>
       <use xlink:href="#m0f6db4ad21" x="48.785313" y="202.35171" style="stroke: #000000; stroke-width: 0.6"/>
      </g>
     </g>
    </g>
    <g id="ytick_17">
     <g id="line2d_37">
      <path d="M 48.785313 194.645771 
L 847.943539 194.645771 
" clip-path="url(#p778a9708b2)" style="fill: none; stroke-dasharray: 1.85,0.8; stroke-dashoffset: 0; stroke: #d0d0d0; stroke-width: 0.5"/>
     </g>
     <g id="line2d_38">
      <g>
       <use xlink:href="#m0f6db4ad21" x="48.785313" y="194.645771" style="stroke: #000000; stroke-width: 0.6"/>
      </g>
     </g>
    </g>
    <g id="ytick_18">
     <g id="line2d_39">
      <path d="M 48.785313 187.970584 
L 847.943539 187.970584 
" clip-path="url(#p778a9708b2)" style="fill: none; stroke-dasharray: 1.85,0.8; stroke-dashoffset: 0; stroke: #d0d0d0; stroke-width: 0.5"/>
     </g>
     <g id="line2d_40">
      <g>
       <use xlink:href="#m0f6db4ad21" x="48.785313" y="187.970584" style="stroke: #000000; stroke-width: 0.6"/>
      </g>
     </g>
    </g>
    <g id="ytick_19">
     <g id="line2d_41">
      <path d="M 48.785313 182.082651 
L 847.943539 182.082651 
" clip-path="url(#p778a9708b2)" style="fill: none; stroke-dasharray: 1.85,0.8; stroke-dashoffset: 0; stroke: #d0d0d0; stroke-width: 0.5"/>
     </g>
     <g id="line2d_42">
      <g>
       <use xlink:href="#m0f6db4ad21" x="48.785313" y="182.082651" style="stroke: #000000; stroke-width: 0.6"/>
      </g>
     </g>
    </g>
    <g id="ytick_20">
     <g id="line2d_43">
      <path d="M 48.785313 142.165529 
L 847.943539 142.165529 
" clip-path="url(#p778a9708b2)" style="fill: none; stroke-dasharray: 1.85,0.8; stroke-dashoffset: 0; stroke: #d0d0d0; stroke-width: 0.5"/>
     </g>
     <g id="line2d_44">
      <g>
       <use xlink:href="#m0f6db4ad21" x="48.785313" y="142.165529" style="stroke: #000000; stroke-width: 0.6"/>
      </g>
     </g>
    </g>
    <g id="ytick_21">
     <g id="line2d_45">
      <path d="M 48.785313 121.89647 
L 847.943539 121.89647 
" clip-path="url(#p778a9708b2)" style="fill: none; stroke-dasharray: 1.85,0.8; stroke-dashoffset: 0; stroke: #d0d0d0; stroke-width: 0.5"/>
     </g>
     <g id="line2d_46">
      <g>
       <use xlink:href="#m0f6db4ad21" x="48.785313" y="121.89647" style="stroke: #000000; stroke-width: 0.6"/>
      </g>
     </g>
    </g>
    <g id="ytick_22">
     <g id="line2d_47">
      <path d="M 48.785313 107.515343 
L 847.943539 107.515343 
" clip-path="url(#p778a9708b2)" style="fill: none; stroke-dasharray: 1.85,0.8; stroke-dashoffset: 0; stroke: #d0d0d0; stroke-width: 0.5"/>
     </g>
     <g id="line2d_48">
      <g>
       <use xlink:href="#m0f6db4ad21" x="48.785313" y="107.515343" style="stroke: #000000; stroke-width: 0.6"/>
      </g>
     </g>
    </g>
    <g id="ytick_23">
     <g id="line2d_49">
      <path d="M 48.785313 96.360475 
L 847.943539 96.360475 
" clip-path="url(#p778a9708b2)" style="fill: none; stroke-dasharray: 1.85,0.8; stroke-dashoffset: 0; stroke: #d0d0d0; stroke-width: 0.5"/>
     </g>
     <g id="line2d_50">
      <g>
       <use xlink:href="#m0f6db4ad21" x="48.785313" y="96.360475" style="stroke: #000000; stroke-width: 0.6"/>
      </g>
     </g>
    </g>
    <g id="ytick_24">
     <g id="line2d_51">
      <path d="M 48.785313 87.246284 
L 847.943539 87.246284 
" clip-path="url(#p778a9708b2)" style="fill: none; stroke-dasharray: 1.85,0.8; stroke-dashoffset: 0; stroke: #d0d0d0; stroke-width: 0.5"/>
     </g>
     <g id="line2d_52">
      <g>
       <use xlink:href="#m0f6db4ad21" x="48.785313" y="87.246284" style="stroke: #000000; stroke-width: 0.6"/>
      </g>
     </g>
    </g>
    <g id="ytick_25">
     <g id="line2d_53">
      <path d="M 48.785313 79.540345 
L 847.943539 79.540345 
" clip-path="url(#p778a9708b2)" style="fill: none; stroke-dasharray: 1.85,0.8; stroke-dashoffset: 0; stroke: #d0d0d0; stroke-width: 0.5"/>
     </g>
     <g id="line2d_54">
      <g>
       <use xlink:href="#m0f6db4ad21" x="48.785313" y="79.540345" style="stroke: #000000; stroke-width: 0.6"/>
      </g>
     </g>
    </g>
    <g id="ytick_26">
     <g id="line2d_55">
      <path d="M 48.785313 72.865157 
L 847.943539 72.865157 
" clip-path="url(#p778a9708b2)" style="fill: none; stroke-dasharray: 1.85,0.8; stroke-dashoffset: 0; stroke: #d0d0d0; stroke-width: 0.5"/>
     </g>
     <g id="line2d_56">
      <g>
       <use xlink:href="#m0f6db4ad21" x="48.785313" y="72.865157" style="stroke: #000000; stroke-width: 0.6"/>
      </g>
     </g>
    </g>
    <g id="ytick_27">
     <g id="line2d_57">
      <path d="M 48.785313 66.977224 
L 847.943539 66.977224 
" clip-path="url(#p778a9708b2)" style="fill: none; stroke-dasharray: 1.85,0.8; stroke-dashoffset: 0; stroke: #d0d0d0; stroke-width: 0.5"/>
     </g>
     <g id="line2d_58">
      <g>
       <use xlink:href="#m0f6db4ad21" x="48.785313" y="66.977224" style="stroke: #000000; stroke-width: 0.6"/>
      </g>
     </g>
    </g>
    <g id="ytick_28">
     <g id="line2d_59">
      <path d="M 48.785313 27.060103 
L 847.943539 27.060103 
" clip-path="url(#p778a9708b2)" style="fill: none; stroke-dasharray: 1.85,0.8; stroke-dashoffset: 0; stroke: #d0d0d0; stroke-width: 0.5"/>
     </g>
     <g id="line2d_60">
      <g>
       <use xlink:href="#m0f6db4ad21" x="48.785313" y="27.060103" style="stroke: #000000; stroke-width: 0.6"/>
      </g>
     </g>
    </g>
    <g id="text_8">
     <!-- 計算時間 [s]（対数スケール） -->
     <g transform="translate(15.965625 285.255078) rotate(-90) scale(0.11 -0.11)">
      <defs>
       <path id="NotoSansCJKjp-Regular-8a08" d="M 550 3437 
L 550 3059 
L 2547 3059 
L 2547 3437 
L 550 3437 
z
M 582 5152 
L 582 4768 
L 2554 4768 
L 2554 5152 
L 582 5152 
z
M 550 2586 
L 550 2202 
L 2547 2202 
L 2547 2586 
L 550 2586 
z
M 243 4314 
L 243 3910 
L 2790 3910 
L 2790 4314 
L 243 4314 
z
M 4288 5357 
L 4288 3187 
L 2784 3187 
L 2784 2714 
L 4288 2714 
L 4288 -512 
L 4768 -512 
L 4768 2714 
L 6214 2714 
L 6214 3187 
L 4768 3187 
L 4768 5357 
L 4288 5357 
z
M 538 1722 
L 538 -442 
L 966 -442 
L 966 -147 
L 2528 -147 
L 2528 1722 
L 538 1722 
z
M 966 1318 
L 2099 1318 
L 2099 250 
L 966 250 
L 966 1318 
z
" transform="scale(0.015625)"/>
       <path id="NotoSansCJKjp-Regular-7b97" d="M 1613 2925 
L 4890 2925 
L 4890 2547 
L 1613 2547 
L 1613 2925 
z
M 1613 2240 
L 4890 2240 
L 4890 1856 
L 1613 1856 
L 1613 2240 
z
M 1613 3597 
L 4890 3597 
L 4890 3232 
L 1613 3232 
L 1613 3597 
z
M 3686 5408 
C 3507 4915 3181 4448 2790 4141 
C 2899 4096 3085 3994 3181 3923 
L 1894 3923 
L 2259 4058 
C 2214 4179 2118 4352 2016 4506 
L 3117 4506 
L 3117 4902 
L 1427 4902 
C 1498 5030 1562 5158 1619 5286 
L 1171 5408 
C 966 4909 614 4410 224 4083 
C 333 4019 525 3891 614 3814 
C 813 4000 1011 4243 1184 4506 
L 1517 4506 
C 1645 4314 1773 4077 1837 3923 
L 1133 3923 
L 1133 1530 
L 1990 1530 
L 1990 1114 
L 1984 973 
L 358 973 
L 358 576 
L 1830 576 
C 1651 307 1267 38 461 -160 
C 563 -250 698 -416 762 -518 
C 1786 -224 2214 179 2381 576 
L 4109 576 
L 4109 -499 
L 4602 -499 
L 4602 576 
L 6067 576 
L 6067 973 
L 4602 973 
L 4602 1530 
L 5389 1530 
L 5389 3923 
L 4749 3923 
L 5094 4083 
C 5030 4205 4915 4358 4787 4506 
L 6016 4506 
L 6016 4902 
L 3968 4902 
C 4038 5030 4096 5165 4147 5299 
L 3686 5408 
z
M 4109 973 
L 2470 973 
L 2477 1101 
L 2477 1530 
L 4109 1530 
L 4109 973 
z
M 3232 3923 
C 3405 4083 3578 4282 3731 4506 
L 4243 4506 
C 4416 4320 4595 4090 4678 3923 
L 3232 3923 
z
" transform="scale(0.015625)"/>
       <path id="NotoSansCJKjp-Regular-6642" d="M 2848 1338 
C 3174 998 3520 525 3661 211 
L 4070 461 
C 3923 781 3558 1235 3232 1562 
L 2848 1338 
z
M 4038 5382 
L 4038 4614 
L 2694 4614 
L 2694 4186 
L 4038 4186 
L 4038 3373 
L 2426 3373 
L 2426 2938 
L 4883 2938 
L 4883 2214 
L 2458 2214 
L 2458 1786 
L 4883 1786 
L 4883 64 
C 4883 -32 4851 -58 4749 -58 
C 4646 -64 4282 -64 3891 -51 
C 3962 -186 4032 -378 4051 -506 
C 4570 -506 4890 -499 5094 -422 
C 5293 -352 5357 -218 5357 58 
L 5357 1786 
L 6106 1786 
L 6106 2214 
L 5357 2214 
L 5357 2938 
L 6170 2938 
L 6170 3373 
L 4512 3373 
L 4512 4186 
L 5901 4186 
L 5901 4614 
L 4512 4614 
L 4512 5382 
L 4038 5382 
z
M 1862 2662 
L 1862 1184 
L 934 1184 
L 934 2662 
L 1862 2662 
z
M 1862 3098 
L 934 3098 
L 934 4518 
L 1862 4518 
L 1862 3098 
z
M 486 4960 
L 486 224 
L 934 224 
L 934 749 
L 2317 749 
L 2317 4960 
L 486 4960 
z
" transform="scale(0.015625)"/>
       <path id="NotoSansCJKjp-Regular-9593" d="M 3936 1082 
L 3936 461 
L 2432 461 
L 2432 1082 
L 3936 1082 
z
M 3936 1453 
L 2432 1453 
L 2432 2042 
L 3936 2042 
L 3936 1453 
z
M 1997 2419 
L 1997 -243 
L 2432 -243 
L 2432 83 
L 4384 83 
L 4384 2419 
L 1997 2419 
z
M 2451 3840 
L 2451 3270 
L 1056 3270 
L 1056 3840 
L 2451 3840 
z
M 2451 4192 
L 1056 4192 
L 1056 4730 
L 2451 4730 
L 2451 4192 
z
M 5376 3840 
L 5376 3264 
L 3936 3264 
L 3936 3840 
L 5376 3840 
z
M 5376 4192 
L 3936 4192 
L 3936 4730 
L 5376 4730 
L 5376 4192 
z
M 5619 5101 
L 3482 5101 
L 3482 2893 
L 5376 2893 
L 5376 128 
C 5376 13 5338 -19 5229 -26 
C 5114 -26 4723 -32 4333 -19 
C 4403 -154 4474 -378 4499 -512 
C 5030 -512 5376 -506 5581 -422 
C 5792 -339 5862 -186 5862 122 
L 5862 5101 
L 5619 5101 
z
M 576 5101 
L 576 -518 
L 1056 -518 
L 1056 2906 
L 2899 2906 
L 2899 5101 
L 576 5101 
z
" transform="scale(0.015625)"/>
       <path id="NotoSansCJKjp-Regular-5b" d="M 678 -1088 
L 1946 -1088 
L 1946 -755 
L 1114 -755 
L 1114 4730 
L 1946 4730 
L 1946 5069 
L 678 5069 
L 678 -1088 
z
" transform="scale(0.015625)"/>
       <path id="NotoSansCJKjp-Regular-73" d="M 1498 -83 
C 2317 -83 2758 384 2758 947 
C 2758 1606 2208 1811 1702 2003 
C 1312 2150 954 2278 954 2605 
C 954 2880 1158 3110 1600 3110 
C 1907 3110 2150 2976 2387 2803 
L 2669 3168 
C 2406 3386 2022 3565 1594 3565 
C 832 3565 397 3130 397 2579 
C 397 1984 922 1754 1408 1574 
C 1792 1434 2202 1267 2202 915 
C 2202 614 1978 371 1517 371 
C 1101 371 794 538 486 787 
L 205 397 
C 531 122 1005 -83 1498 -83 
z
" transform="scale(0.015625)"/>
       <path id="NotoSansCJKjp-Regular-5d" d="M 218 -1088 
L 1491 -1088 
L 1491 5069 
L 218 5069 
L 218 4730 
L 1050 4730 
L 1050 -755 
L 218 -755 
L 218 -1088 
z
" transform="scale(0.015625)"/>
       <path id="NotoSansCJKjp-Regular-ff08" d="M 4448 2432 
C 4448 1184 4954 166 5722 -614 
L 6106 -416 
C 5370 346 4915 1293 4915 2432 
C 4915 3571 5370 4518 6106 5280 
L 5722 5478 
C 4954 4698 4448 3680 4448 2432 
z
" transform="scale(0.015625)"/>
       <path id="NotoSansCJKjp-Regular-5bfe" d="M 3213 2522 
C 3514 2067 3802 1459 3904 1075 
L 4326 1286 
C 4224 1670 3917 2259 3603 2701 
L 3213 2522 
z
M 4896 5376 
L 4896 3834 
L 3136 3834 
L 3136 3373 
L 4896 3373 
L 4896 141 
C 4896 26 4851 -6 4742 -13 
C 4634 -13 4275 -19 3872 0 
C 3936 -147 4006 -371 4032 -506 
C 4576 -506 4902 -493 5094 -410 
C 5293 -326 5370 -179 5370 141 
L 5370 3373 
L 6138 3373 
L 6138 3834 
L 5370 3834 
L 5370 5376 
L 4896 5376 
z
M 1581 5370 
L 1581 4320 
L 352 4320 
L 352 3866 
L 3334 3866 
L 3334 4320 
L 2042 4320 
L 2042 5370 
L 1581 5370 
z
M 2310 3718 
C 2214 3110 2080 2560 1901 2074 
C 1581 2477 1229 2874 896 3226 
L 557 2950 
C 934 2547 1338 2061 1690 1581 
C 1350 870 870 314 205 -90 
C 307 -173 480 -365 538 -461 
C 1165 -45 1638 493 1997 1158 
C 2227 813 2426 493 2554 218 
L 2938 550 
C 2778 864 2528 1248 2227 1645 
C 2470 2227 2650 2899 2778 3654 
L 2310 3718 
z
" transform="scale(0.015625)"/>
       <path id="NotoSansCJKjp-Regular-6570" d="M 2803 5254 
C 2688 4998 2483 4627 2317 4403 
L 2643 4243 
C 2816 4454 3027 4781 3219 5075 
L 2803 5254 
z
M 531 5075 
C 704 4806 870 4454 928 4230 
L 1312 4397 
C 1248 4627 1075 4973 890 5222 
L 531 5075 
z
M 4026 5382 
C 3846 4243 3507 3162 2970 2490 
C 3078 2413 3283 2246 3360 2163 
C 3533 2394 3693 2669 3827 2970 
C 3974 2310 4160 1709 4410 1184 
C 4090 698 3667 314 3110 19 
C 2912 166 2656 326 2374 480 
C 2598 774 2746 1126 2829 1562 
L 3398 1562 
L 3398 1958 
L 1677 1958 
L 1894 2413 
L 1779 2438 
L 2061 2438 
L 2061 3398 
C 2374 3168 2771 2854 2938 2701 
L 3206 3046 
C 3034 3174 2336 3616 2061 3776 
L 2061 3802 
L 3373 3802 
L 3373 4198 
L 2061 4198 
L 2061 5382 
L 1613 5382 
L 1613 4198 
L 288 4198 
L 288 3802 
L 1485 3802 
C 1171 3379 678 2982 218 2784 
C 314 2694 422 2528 480 2419 
C 870 2637 1293 2989 1613 3373 
L 1613 2477 
L 1440 2515 
L 1178 1958 
L 250 1958 
L 250 1562 
L 979 1562 
C 806 1222 627 896 486 653 
L 909 506 
L 1005 678 
C 1222 589 1434 493 1638 384 
C 1306 147 858 -13 269 -109 
C 352 -211 448 -384 480 -512 
C 1171 -365 1683 -154 2061 160 
C 2355 -13 2611 -186 2810 -352 
L 2963 -192 
C 3046 -301 3136 -448 3174 -531 
C 3802 -205 4288 205 4666 710 
C 4979 192 5370 -224 5862 -512 
C 5939 -378 6093 -192 6208 -96 
C 5690 173 5280 614 4960 1165 
C 5350 1856 5594 2707 5754 3750 
L 6144 3750 
L 6144 4198 
L 4262 4198 
C 4358 4557 4442 4928 4506 5312 
L 4026 5382 
z
M 1478 1562 
L 2368 1562 
C 2285 1216 2157 928 1965 698 
C 1715 819 1459 934 1197 1030 
L 1478 1562 
z
M 4134 3750 
L 5254 3750 
C 5139 2950 4966 2266 4698 1696 
C 4435 2298 4250 3002 4134 3750 
z
" transform="scale(0.015625)"/>
       <path id="NotoSansCJKjp-Regular-30b9" d="M 5120 4282 
L 4794 4531 
C 4691 4499 4525 4480 4314 4480 
C 4077 4480 2099 4480 1843 4480 
C 1651 4480 1286 4506 1197 4518 
L 1197 3936 
C 1267 3942 1619 3968 1843 3968 
C 2067 3968 4109 3968 4339 3968 
C 4179 3437 3712 2682 3277 2189 
C 2618 1453 1670 691 640 288 
L 1050 -141 
C 1997 288 2861 992 3546 1728 
C 4198 1146 4877 397 5306 -173 
L 5754 211 
C 5338 717 4557 1549 3885 2125 
C 4339 2701 4742 3450 4960 4000 
C 4998 4090 5082 4230 5120 4282 
z
" transform="scale(0.015625)"/>
       <path id="NotoSansCJKjp-Regular-30b1" d="M 2637 4947 
L 2022 5069 
C 2010 4902 1978 4723 1926 4557 
C 1856 4314 1741 3981 1562 3661 
C 1344 3270 883 2618 422 2285 
L 928 1984 
C 1306 2291 1734 2874 1997 3354 
L 3635 3354 
C 3546 1728 2854 890 2227 416 
C 2086 301 1888 192 1709 122 
L 2253 -250 
C 3354 454 4070 1523 4173 3354 
L 5254 3354 
C 5402 3354 5651 3347 5856 3334 
L 5856 3885 
C 5670 3859 5414 3853 5254 3853 
L 2234 3853 
C 2336 4083 2413 4314 2477 4499 
C 2522 4634 2586 4800 2637 4947 
z
" transform="scale(0.015625)"/>
       <path id="NotoSansCJKjp-Regular-30fc" d="M 653 2771 
L 653 2144 
C 851 2163 1190 2176 1542 2176 
C 2022 2176 4576 2176 5056 2176 
C 5344 2176 5613 2150 5741 2144 
L 5741 2771 
C 5600 2758 5370 2739 5050 2739 
C 4576 2739 2016 2739 1542 2739 
C 1184 2739 845 2758 653 2771 
z
" transform="scale(0.015625)"/>
       <path id="NotoSansCJKjp-Regular-30eb" d="M 3354 134 
L 3693 -147 
C 3738 -109 3808 -58 3910 0 
C 4653 365 5542 1024 6093 1773 
L 5792 2208 
C 5299 1485 4512 902 3923 634 
C 3923 832 3923 3923 3923 4326 
C 3923 4570 3942 4749 3949 4800 
L 3360 4800 
C 3366 4749 3392 4570 3392 4326 
C 3392 3923 3392 787 3392 493 
C 3392 365 3379 237 3354 134 
z
M 422 166 
L 902 -154 
C 1440 288 1850 915 2042 1600 
C 2214 2240 2240 3610 2240 4320 
C 2240 4512 2266 4704 2272 4781 
L 1683 4781 
C 1709 4646 1728 4506 1728 4314 
C 1728 3603 1722 2323 1536 1741 
C 1344 1120 960 550 422 166 
z
" transform="scale(0.015625)"/>
       <path id="NotoSansCJKjp-Regular-ff09" d="M 1952 2432 
C 1952 3680 1446 4698 678 5478 
L 294 5280 
C 1030 4518 1485 3571 1485 2432 
C 1485 1293 1030 346 294 -416 
L 678 -614 
C 1446 166 1952 1184 1952 2432 
z
" transform="scale(0.015625)"/>
      </defs>
      <use xlink:href="#NotoSansCJKjp-Regular-8a08"/>
      <use xlink:href="#NotoSansCJKjp-Regular-7b97" transform="translate(99.999985 0)"/>
      <use xlink:href="#NotoSansCJKjp-Regular-6642" transform="translate(199.999969 0)"/>
      <use xlink:href="#NotoSansCJKjp-Regular-9593" transform="translate(299.999954 0)"/>
      <use xlink:href="#NotoSansCJKjp-Regular-20" transform="translate(399.999939 0)"/>
      <use xlink:href="#NotoSansCJKjp-Regular-5b" transform="translate(422.399933 0)"/>
      <use xlink:href="#NotoSansCJKjp-Regular-73" transform="translate(456.199921 0)"/>
      <use xlink:href="#NotoSansCJKjp-Regular-5d" transform="translate(502.999908 0)"/>
      <use xlink:href="#NotoSansCJKjp-Regular-ff08" transform="translate(536.799896 0)"/>
      <use xlink:href="#NotoSansCJKjp-Regular-5bfe" transform="translate(636.799881 0)"/>
      <use xlink:href="#NotoSansCJKjp-Regular-6570" transform="translate(736.799866 0)"/>
      <use xlink:href="#NotoSansCJKjp-Regular-30b9" transform="translate(836.79985 0)"/>
      <use xlink:href="#NotoSansCJKjp-Regular-30b1" transform="translate(936.799835 0)"/>
      <use xlink:href="#NotoSansCJKjp-Regular-30fc" transform="translate(1036.79982 0)"/>
      <use xlink:href="#NotoSansCJKjp-Regular-30eb" transform="translate(1136.799805 0)"/>
      <use xlink:href="#NotoSansCJKjp-Regular-ff09" transform="translate(1236.799789 0)"/>
     </g>
    </g>
   </g>
   <g id="patch_7">
    <path d="M 48.785313 400.71125 
L 48.785313 22.75125 
" style="fill: none; stroke: #000000; stroke-width: 0.8; stroke-linejoin: miter; stroke-linecap: square"/>
   </g>
   <g id="patch_8">
    <path d="M 847.943539 400.71125 
L 847.943539 22.75125 
" style="fill: none; stroke: #000000; stroke-width: 0.8; stroke-linejoin: miter; stroke-linecap: square"/>
   </g>
   <g id="patch_9">
    <path d="M 48.785313 400.71125 
L 847.943539 400.71125 
" style="fill: none; stroke: #000000; stroke-width: 0.8; stroke-linejoin: miter; stroke-linecap: square"/>
   </g>
   <g id="patch_10">
    <path d="M 48.785313 22.75125 
L 847.943539 22.75125 
" style="fill: none; stroke: #000000; stroke-width: 0.8; stroke-linejoin: miter; stroke-linecap: square"/>
   </g>
   <g id="text_9">
    <!-- 15.46 -->
    <g style="fill: #333333" transform="translate(149.095314 28.526434) scale(0.1 -0.1)">
     <defs>
      <path id="NotoSansCJKjp-Regular-35" d="M 1677 -83 
C 2464 -83 3213 499 3213 1523 
C 3213 2560 2573 3021 1798 3021 
C 1517 3021 1306 2950 1094 2835 
L 1216 4192 
L 2982 4192 
L 2982 4691 
L 704 4691 
L 550 2502 
L 864 2304 
C 1133 2483 1331 2579 1645 2579 
C 2234 2579 2618 2182 2618 1510 
C 2618 826 2176 403 1619 403 
C 1075 403 730 653 467 922 
L 173 538 
C 493 224 941 -83 1677 -83 
z
" transform="scale(0.015625)"/>
      <path id="NotoSansCJKjp-Regular-2e" d="M 890 -83 
C 1120 -83 1312 96 1312 358 
C 1312 627 1120 806 890 806 
C 653 806 467 627 467 358 
C 467 96 653 -83 890 -83 
z
" transform="scale(0.015625)"/>
      <path id="NotoSansCJKjp-Regular-34" d="M 2176 0 
L 2726 0 
L 2726 1293 
L 3354 1293 
L 3354 1760 
L 2726 1760 
L 2726 4691 
L 2080 4691 
L 128 1677 
L 128 1293 
L 2176 1293 
L 2176 0 
z
M 2176 1760 
L 736 1760 
L 1805 3360 
C 1939 3590 2067 3827 2182 4051 
L 2208 4051 
C 2195 3814 2176 3430 2176 3200 
L 2176 1760 
z
" transform="scale(0.015625)"/>
      <path id="NotoSansCJKjp-Regular-36" d="M 1926 -83 
C 2656 -83 3277 531 3277 1440 
C 3277 2426 2765 2912 1971 2912 
C 1606 2912 1197 2701 909 2349 
C 934 3802 1466 4294 2118 4294 
C 2400 4294 2682 4154 2861 3936 
L 3194 4294 
C 2931 4576 2579 4774 2093 4774 
C 1184 4774 358 4077 358 2240 
C 358 691 1030 -83 1926 -83 
z
M 922 1882 
C 1229 2317 1587 2477 1875 2477 
C 2445 2477 2720 2074 2720 1440 
C 2720 800 2374 378 1926 378 
C 1338 378 986 909 922 1882 
z
" transform="scale(0.015625)"/>
     </defs>
     <use xlink:href="#NotoSansCJKjp-Regular-31"/>
     <use xlink:href="#NotoSansCJKjp-Regular-35" transform="translate(55.499985 0)"/>
     <use xlink:href="#NotoSansCJKjp-Regular-2e" transform="translate(110.999969 0)"/>
     <use xlink:href="#NotoSansCJKjp-Regular-34" transform="translate(138.799957 0)"/>
     <use xlink:href="#NotoSansCJKjp-Regular-36" transform="translate(194.299942 0)"/>
    </g>
   </g>
   <g id="text_10">
    <!-- 0.175 -->
    <g style="fill: #333333" transform="translate(340.281493 252.541327) scale(0.1 -0.1)">
     <defs>
      <path id="NotoSansCJKjp-Regular-37" d="M 1267 0 
L 1875 0 
C 1952 1837 2150 2931 3251 4339 
L 3251 4691 
L 314 4691 
L 314 4192 
L 2592 4192 
C 1670 2912 1350 1779 1267 0 
z
" transform="scale(0.015625)"/>
     </defs>
     <use xlink:href="#NotoSansCJKjp-Regular-30"/>
     <use xlink:href="#NotoSansCJKjp-Regular-2e" transform="translate(55.499985 0)"/>
     <use xlink:href="#NotoSansCJKjp-Regular-31" transform="translate(83.299973 0)"/>
     <use xlink:href="#NotoSansCJKjp-Regular-37" transform="translate(138.799957 0)"/>
     <use xlink:href="#NotoSansCJKjp-Regular-35" transform="translate(194.299942 0)"/>
    </g>
   </g>
   <g id="text_11">
    <!-- 0.234 -->
    <g style="fill: #333333" transform="translate(531.467672 238.017577) scale(0.1 -0.1)">
     <defs>
      <path id="NotoSansCJKjp-Regular-32" d="M 282 0 
L 3232 0 
L 3232 506 
L 1933 506 
C 1696 506 1408 480 1165 461 
C 2266 1504 3008 2458 3008 3398 
C 3008 4230 2477 4774 1638 4774 
C 1043 4774 634 4506 256 4090 
L 595 3757 
C 858 4070 1184 4301 1568 4301 
C 2150 4301 2432 3910 2432 3373 
C 2432 2566 1754 1632 282 346 
L 282 0 
z
" transform="scale(0.015625)"/>
      <path id="NotoSansCJKjp-Regular-33" d="M 1683 -83 
C 2522 -83 3194 416 3194 1254 
C 3194 1901 2752 2310 2202 2445 
L 2202 2477 
C 2701 2650 3034 3034 3034 3603 
C 3034 4346 2458 4774 1664 4774 
C 1126 4774 710 4538 358 4218 
L 672 3846 
C 941 4115 1267 4301 1645 4301 
C 2138 4301 2438 4006 2438 3558 
C 2438 3053 2112 2662 1139 2662 
L 1139 2214 
C 2227 2214 2598 1843 2598 1274 
C 2598 736 2208 403 1645 403 
C 1114 403 762 659 486 941 
L 186 563 
C 493 224 954 -83 1683 -83 
z
" transform="scale(0.015625)"/>
     </defs>
     <use xlink:href="#NotoSansCJKjp-Regular-30"/>
     <use xlink:href="#NotoSansCJKjp-Regular-2e" transform="translate(55.499985 0)"/>
     <use xlink:href="#NotoSansCJKjp-Regular-32" transform="translate(83.299973 0)"/>
     <use xlink:href="#NotoSansCJKjp-Regular-33" transform="translate(138.799957 0)"/>
     <use xlink:href="#NotoSansCJKjp-Regular-34" transform="translate(194.299942 0)"/>
    </g>
   </g>
   <g id="text_12">
    <!-- 0.016 -->
    <g style="fill: #333333" transform="translate(722.65385 372.126434) scale(0.1 -0.1)">
     <use xlink:href="#NotoSansCJKjp-Regular-30"/>
     <use xlink:href="#NotoSansCJKjp-Regular-2e" transform="translate(55.499985 0)"/>
     <use xlink:href="#NotoSansCJKjp-Regular-30" transform="translate(83.299973 0)"/>
     <use xlink:href="#NotoSansCJKjp-Regular-31" transform="translate(138.799957 0)"/>
     <use xlink:href="#NotoSansCJKjp-Regular-36" transform="translate(194.299942 0)"/>
    </g>
   </g>
   <g id="text_13">
    <!-- 計算時間の比較（対数スケール） -->
    <g transform="translate(358.364426 16.75125) scale(0.12 -0.12)">
     <defs>
      <path id="NotoSansCJKjp-Regular-306e" d="M 3046 4109 
C 2976 3520 2848 2912 2688 2381 
C 2362 1299 2022 870 1722 870 
C 1434 870 1062 1229 1062 2035 
C 1062 2906 1818 3955 3046 4109 
z
M 3578 4122 
C 4666 4026 5286 3226 5286 2259 
C 5286 1152 4480 544 3661 358 
C 3514 326 3315 294 3110 275 
L 3411 -198 
C 4928 0 5811 896 5811 2240 
C 5811 3539 4858 4595 3360 4595 
C 1798 4595 563 3379 563 1990 
C 563 934 1133 282 1702 282 
C 2298 282 2803 954 3194 2272 
C 3373 2867 3494 3520 3578 4122 
z
" transform="scale(0.015625)"/>
      <path id="NotoSansCJKjp-Regular-6bd4" d="M 250 128 
L 397 -371 
C 1197 -179 2278 77 3290 326 
L 3245 787 
C 2694 659 2125 525 1600 410 
L 1600 2925 
L 3046 2925 
L 3046 3398 
L 1600 3398 
L 1600 5344 
L 1107 5344 
L 1107 301 
L 250 128 
z
M 3520 5344 
L 3520 512 
C 3520 -186 3693 -371 4320 -371 
C 4448 -371 5261 -371 5395 -371 
C 6003 -371 6138 -13 6202 1037 
C 6061 1069 5869 1152 5747 1248 
C 5709 320 5670 83 5370 83 
C 5190 83 4506 83 4371 83 
C 4064 83 4013 147 4013 499 
L 4013 2586 
C 4691 2874 5414 3219 5952 3571 
L 5594 3974 
C 5216 3674 4608 3328 4013 3046 
L 4013 5344 
L 3520 5344 
z
" transform="scale(0.015625)"/>
      <path id="NotoSansCJKjp-Regular-8f03" d="M 4954 3789 
C 5280 3366 5645 2803 5792 2438 
L 6202 2662 
C 6042 3021 5664 3571 5331 3981 
L 4954 3789 
z
M 3763 3955 
C 3558 3469 3238 2989 2867 2662 
C 2982 2598 3168 2464 3258 2387 
C 3616 2746 3981 3290 4211 3840 
L 3763 3955 
z
M 3014 4538 
L 3014 4102 
L 6125 4102 
L 6125 4538 
L 4806 4538 
L 4806 5382 
L 4339 5382 
L 4339 4538 
L 3014 4538 
z
M 5133 2720 
C 5018 2195 4826 1728 4557 1325 
C 4288 1741 4083 2208 3936 2707 
L 3520 2605 
C 3706 1990 3955 1427 4269 947 
C 3866 474 3341 109 2688 -166 
C 2784 -250 2931 -422 2995 -531 
C 3622 -250 4134 115 4544 570 
C 4922 96 5376 -282 5907 -531 
C 5978 -410 6118 -230 6227 -141 
C 5683 83 5216 461 4838 934 
C 5178 1408 5427 1971 5587 2624 
L 5133 2720 
z
M 461 3782 
L 461 1555 
L 1414 1555 
L 1414 1030 
L 250 1030 
L 250 608 
L 1414 608 
L 1414 -518 
L 1850 -518 
L 1850 608 
L 3046 608 
L 3046 1030 
L 1850 1030 
L 1850 1555 
L 2822 1555 
L 2822 3782 
L 1850 3782 
L 1850 4256 
L 2912 4256 
L 2912 4678 
L 1850 4678 
L 1850 5376 
L 1414 5376 
L 1414 4678 
L 320 4678 
L 320 4256 
L 1414 4256 
L 1414 3782 
L 461 3782 
z
M 832 2502 
L 1453 2502 
L 1453 1914 
L 832 1914 
L 832 2502 
z
M 1811 2502 
L 2438 2502 
L 2438 1914 
L 1811 1914 
L 1811 2502 
z
M 832 3424 
L 1453 3424 
L 1453 2848 
L 832 2848 
L 832 3424 
z
M 1811 3424 
L 2438 3424 
L 2438 2848 
L 1811 2848 
L 1811 3424 
z
" transform="scale(0.015625)"/>
     </defs>
     <use xlink:href="#NotoSansCJKjp-Regular-8a08"/>
     <use xlink:href="#NotoSansCJKjp-Regular-7b97" transform="translate(99.999985 0)"/>
     <use xlink:href="#NotoSansCJKjp-Regular-6642" transform="translate(199.999969 0)"/>
     <use xlink:href="#NotoSansCJKjp-Regular-9593" transform="translate(299.999954 0)"/>
     <use xlink:href="#NotoSansCJKjp-Regular-306e" transform="translate(399.999939 0)"/>
     <use xlink:href="#NotoSansCJKjp-Regular-6bd4" transform="translate(499.999924 0)"/>
     <use xlink:href="#NotoSansCJKjp-Regular-8f03" transform="translate(599.999908 0)"/>
     <use xlink:href="#NotoSansCJKjp-Regular-ff08" transform="translate(699.999893 0)"/>
     <use xlink:href="#NotoSansCJKjp-Regular-5bfe" transform="translate(799.999878 0)"/>
     <use xlink:href="#NotoSansCJKjp-Regular-6570" transform="translate(899.999863 0)"/>
     <use xlink:href="#NotoSansCJKjp-Regular-30b9" transform="translate(999.999847 0)"/>
     <use xlink:href="#NotoSansCJKjp-Regular-30b1" transform="translate(1099.999832 0)"/>
     <use xlink:href="#NotoSansCJKjp-Regular-30fc" transform="translate(1199.999817 0)"/>
     <use xlink:href="#NotoSansCJKjp-Regular-30eb" transform="translate(1299.999802 0)"/>
     <use xlink:href="#NotoSansCJKjp-Regular-ff09" transform="translate(1399.999786 0)"/>
    </g>
   </g>
  </g>
 </g>
 <defs>
  <clipPath id="p778a9708b2">
   <rect x="48.785313" y="22.75125" width="799.158227" height="377.96"/>
  </clipPath>
 </defs>
</svg>
