<?xml version="1.0" encoding="utf-8" standalone="no"?>
<!DOCTYPE svg PUBLIC "-//W3C//DTD SVG 1.1//EN"
  "http://www.w3.org/Graphics/SVG/1.1/DTD/svg11.dtd">
<svg xmlns:xlink="http://www.w3.org/1999/xlink" width="856.8pt" height="424.8pt" viewBox="0 0 856.8 424.8" xmlns="http://www.w3.org/2000/svg" version="1.1">
 <metadata>
  <rdf:RDF xmlns:dc="http://purl.org/dc/elements/1.1/" xmlns:cc="http://creativecommons.org/ns#" xmlns:rdf="http://www.w3.org/1999/02/22-rdf-syntax-ns#">
   <cc:Work>
    <dc:type rdf:resource="http://purl.org/dc/dcmitype/StillImage"/>
    <dc:date>2026-02-12T21:00:06.398396</dc:date>
    <dc:format>image/svg+xml</dc:format>
    <dc:creator>
     <cc:Agent>
      <dc:title>Matplotlib v3.10.8, https://matplotlib.org/</dc:title>
     </cc:Agent>
    </dc:creator>
   </cc:Work>
  </rdf:RDF>
 </metadata>
 <defs>
  <style type="text/css">*{stroke-linejoin: round; stroke-linecap: butt}</style>
 </defs>
 <g id="figure_1">
  <g id="patch_1">
   <path d="M 0 424.8 
L 856.8 424.8 
L 856.8 0 
L 0 0 
z
" style="fill: #ffffff"/>
  </g>
  <g id="axes_1">
   <g id="table_1">
    <g id="patch_2">
     <path d="M 49.32 182.78961 
L 234.648 182.78961 
L 234.648 153.179221 
L 49.32 153.179221 
z
" style="fill: #f2f4f7; stroke: #cfcfcf; stroke-width: 0.8; stroke-linejoin: miter"/>
    </g>
    <g id="text_1">
     <!-- 手法 -->
     <g transform="translate(129.984 171.482228) scale(0.12 -0.12)">
      <defs>
       <path id="NotoSansCJKjp-Bold-624b" d="M 269 2144 
L 269 1389 
L 2810 1389 
L 2810 358 
C 2810 230 2752 186 2611 179 
C 2458 179 1920 179 1446 198 
C 1568 -6 1715 -346 1760 -563 
C 2413 -570 2880 -550 3187 -435 
C 3494 -314 3610 -109 3610 346 
L 3610 1389 
L 6150 1389 
L 6150 2144 
L 3610 2144 
L 3610 2899 
L 5766 2899 
L 5766 3635 
L 3610 3635 
L 3610 4467 
C 4320 4550 4992 4666 5568 4813 
L 5011 5453 
C 3955 5171 2189 5005 646 4941 
C 723 4768 813 4461 838 4262 
C 1466 4288 2144 4326 2810 4384 
L 2810 3635 
L 710 3635 
L 710 2899 
L 2810 2899 
L 2810 2144 
L 269 2144 
z
" transform="scale(0.015625)"/>
       <path id="NotoSansCJKjp-Bold-6cd5" d="M 550 4845 
C 973 4672 1498 4358 1754 4134 
L 2202 4762 
C 1926 4986 1389 5261 973 5414 
L 550 4845 
z
M 186 3104 
C 608 2938 1146 2656 1402 2438 
L 1824 3085 
C 1542 3290 998 3546 582 3686 
L 186 3104 
z
M 358 6 
L 1024 -486 
C 1382 134 1760 864 2074 1536 
L 1498 2029 
C 1139 1286 678 493 358 6 
z
M 4435 1344 
C 4608 1120 4787 864 4947 608 
L 3296 518 
C 3539 1005 3789 1594 3994 2131 
L 3942 2144 
L 6131 2144 
L 6131 2874 
L 4429 2874 
L 4429 3782 
L 5824 3782 
L 5824 4518 
L 4429 4518 
L 4429 5440 
L 3635 5440 
L 3635 4518 
L 2298 4518 
L 2298 3782 
L 3635 3782 
L 3635 2874 
L 1978 2874 
L 1978 2144 
L 3078 2144 
C 2925 1606 2694 966 2470 480 
L 1984 461 
L 2080 -320 
C 2957 -256 4179 -166 5338 -64 
C 5427 -250 5504 -422 5555 -576 
L 6285 -179 
C 6086 365 5568 1126 5094 1696 
L 4435 1344 
z
" transform="scale(0.015625)"/>
      </defs>
      <use xlink:href="#NotoSansCJKjp-Bold-624b"/>
      <use xlink:href="#NotoSansCJKjp-Bold-6cd5" transform="translate(99.999985 0)"/>
     </g>
    </g>
    <g id="patch_3">
     <path d="M 234.648 182.78961 
L 403.128 182.78961 
L 403.128 153.179221 
L 234.648 153.179221 
z
" style="fill: #f2f4f7; stroke: #cfcfcf; stroke-width: 0.8; stroke-linejoin: miter"/>
    </g>
    <g id="text_2">
     <!-- 経路長 [m] -->
     <g transform="translate(289.205812 171.536603) scale(0.12 -0.12)">
      <defs>
       <path id="NotoSansCJKjp-Bold-7d4c" d="M 1837 1555 
C 1984 1178 2144 678 2208 358 
L 2778 563 
C 2701 883 2534 1357 2374 1728 
L 1837 1555 
z
M 442 1677 
C 384 1133 282 557 102 179 
C 262 122 550 -13 685 -102 
C 864 307 1011 954 1075 1562 
L 442 1677 
z
M 4979 4480 
C 4813 4198 4602 3942 4352 3718 
C 4096 3942 3891 4198 3738 4480 
L 4979 4480 
z
M 160 2618 
L 224 1946 
L 1158 2010 
L 1158 -576 
L 1830 -576 
L 1830 2054 
L 2150 2074 
C 2182 1958 2208 1850 2227 1754 
L 2771 1997 
C 2733 2202 2637 2477 2515 2752 
C 2656 2592 2835 2317 2918 2131 
C 3450 2298 3949 2522 4384 2810 
C 4800 2528 5274 2310 5818 2163 
C 5920 2349 6131 2637 6285 2784 
C 5798 2886 5350 3059 4966 3277 
C 5427 3712 5786 4262 6016 4947 
L 5504 5171 
L 5363 5139 
L 2701 5139 
L 2701 4480 
L 3437 4480 
L 3027 4346 
C 3232 3949 3482 3603 3782 3302 
C 3398 3072 2963 2893 2502 2771 
C 2413 2976 2310 3174 2208 3354 
L 1702 3149 
C 1779 3008 1856 2848 1926 2682 
L 1306 2656 
C 1715 3181 2157 3827 2515 4390 
L 1888 4672 
C 1734 4358 1536 3994 1312 3635 
C 1248 3718 1178 3802 1101 3891 
C 1325 4243 1587 4742 1818 5184 
L 1152 5434 
C 1043 5094 864 4666 685 4307 
L 538 4442 
L 166 3917 
C 435 3661 736 3322 928 3046 
L 627 2630 
L 160 2618 
z
M 4026 2470 
L 4026 1702 
L 2938 1702 
L 2938 1030 
L 4026 1030 
L 4026 275 
L 2554 275 
L 2554 -397 
L 6195 -397 
L 6195 275 
L 4781 275 
L 4781 1030 
L 5926 1030 
L 5926 1702 
L 4781 1702 
L 4781 2470 
L 4026 2470 
z
" transform="scale(0.015625)"/>
       <path id="NotoSansCJKjp-Bold-8def" d="M 1165 4544 
L 2010 4544 
L 2010 3725 
L 1165 3725 
L 1165 4544 
z
M 166 410 
L 301 -333 
C 1030 -160 1997 70 2906 288 
L 2829 966 
L 2074 800 
L 2074 1651 
L 2778 1651 
L 2778 1837 
C 2874 1715 2970 1574 3021 1472 
L 3168 1536 
L 3168 -557 
L 3872 -557 
L 3872 -339 
L 5082 -339 
L 5082 -538 
L 5818 -538 
L 5818 1568 
L 5830 1562 
C 5933 1754 6157 2061 6310 2208 
C 5792 2368 5350 2624 4986 2918 
C 5370 3398 5677 3974 5869 4646 
L 5382 4858 
L 5248 4832 
L 4352 4832 
C 4410 4973 4467 5114 4512 5261 
L 3782 5440 
C 3571 4736 3187 4051 2714 3610 
L 2714 5197 
L 499 5197 
L 499 3072 
L 1395 3072 
L 1395 653 
L 1075 582 
L 1075 2618 
L 454 2618 
L 454 461 
L 166 410 
z
M 3872 320 
L 3872 1171 
L 5082 1171 
L 5082 320 
L 3872 320 
z
M 4922 4179 
C 4794 3910 4640 3654 4461 3424 
C 4275 3642 4122 3866 3994 4090 
L 4045 4179 
L 4922 4179 
z
M 3706 1818 
C 3987 1984 4250 2182 4493 2400 
C 4730 2182 4998 1984 5293 1818 
L 3706 1818 
z
M 4006 2925 
C 3642 2586 3226 2310 2778 2118 
L 2778 2323 
L 2074 2323 
L 2074 3072 
L 2714 3072 
L 2714 3488 
C 2886 3360 3130 3155 3232 3040 
C 3360 3174 3488 3322 3610 3488 
C 3725 3302 3859 3110 4006 2925 
z
" transform="scale(0.015625)"/>
       <path id="NotoSansCJKjp-Bold-9577" d="M 1370 5216 
L 1370 2413 
L 301 2413 
L 301 1734 
L 1370 1734 
L 1370 269 
L 582 166 
L 755 -538 
C 1530 -422 2598 -262 3584 -96 
L 3546 576 
L 2157 378 
L 2157 1734 
L 2893 1734 
C 3430 518 4288 -243 5741 -582 
C 5843 -378 6061 -58 6227 109 
C 5632 218 5133 403 4723 659 
C 5107 864 5542 1126 5907 1389 
L 5408 1734 
L 6106 1734 
L 6106 2413 
L 2157 2413 
L 2157 2739 
L 5254 2739 
L 5254 3334 
L 2157 3334 
L 2157 3661 
L 5254 3661 
L 5254 4256 
L 2157 4256 
L 2157 4589 
L 5427 4589 
L 5427 5216 
L 1370 5216 
z
M 3693 1734 
L 5184 1734 
C 4915 1517 4544 1267 4205 1069 
C 4006 1267 3834 1485 3693 1734 
z
" transform="scale(0.015625)"/>
       <path id="NotoSansCJKjp-Bold-20" transform="scale(0.015625)"/>
       <path id="NotoSansCJKjp-Bold-5b" d="M 646 -1101 
L 2112 -1101 
L 2112 -602 
L 1350 -602 
L 1350 4634 
L 2112 4634 
L 2112 5139 
L 646 5139 
L 646 -1101 
z
" transform="scale(0.015625)"/>
       <path id="NotoSansCJKjp-Bold-6d" d="M 506 0 
L 1446 0 
L 1446 2464 
C 1696 2739 1926 2867 2131 2867 
C 2477 2867 2637 2675 2637 2118 
L 2637 0 
L 3571 0 
L 3571 2464 
C 3827 2739 4058 2867 4262 2867 
C 4602 2867 4762 2675 4762 2118 
L 4762 0 
L 5696 0 
L 5696 2234 
C 5696 3136 5350 3674 4589 3674 
C 4128 3674 3776 3392 3443 3046 
C 3277 3443 2976 3674 2464 3674 
C 1997 3674 1664 3418 1363 3104 
L 1344 3104 
L 1274 3584 
L 506 3584 
L 506 0 
z
" transform="scale(0.015625)"/>
       <path id="NotoSansCJKjp-Bold-5d" d="M 307 -1101 
L 1766 -1101 
L 1766 5139 
L 307 5139 
L 307 4634 
L 1069 4634 
L 1069 -602 
L 307 -602 
L 307 -1101 
z
" transform="scale(0.015625)"/>
      </defs>
      <use xlink:href="#NotoSansCJKjp-Bold-7d4c"/>
      <use xlink:href="#NotoSansCJKjp-Bold-8def" transform="translate(99.999985 0)"/>
      <use xlink:href="#NotoSansCJKjp-Bold-9577" transform="translate(199.999969 0)"/>
      <use xlink:href="#NotoSansCJKjp-Bold-20" transform="translate(299.999954 0)"/>
      <use xlink:href="#NotoSansCJKjp-Bold-5b" transform="translate(322.699951 0)"/>
      <use xlink:href="#NotoSansCJKjp-Bold-6d" transform="translate(360.499939 0)"/>
      <use xlink:href="#NotoSansCJKjp-Bold-5d" transform="translate(456.899933 0)"/>
     </g>
    </g>
    <g id="patch_4">
     <path d="M 403.128 182.78961 
L 537.912 182.78961 
L 537.912 153.179221 
L 403.128 153.179221 
z
" style="fill: #f2f4f7; stroke: #cfcfcf; stroke-width: 0.8; stroke-linejoin: miter"/>
    </g>
    <g id="text_3">
     <!-- 地形コスト -->
     <g transform="translate(440.52 171.482228) scale(0.12 -0.12)">
      <defs>
       <path id="NotoSansCJKjp-Bold-5730" d="M 2694 4819 
L 2694 3130 
L 2061 2861 
L 2342 2182 
L 2694 2336 
L 2694 672 
C 2694 -211 2938 -448 3814 -448 
C 4013 -448 4973 -448 5184 -448 
C 5933 -448 6157 -147 6259 762 
C 6048 806 5754 928 5587 1037 
C 5530 384 5466 237 5120 237 
C 4915 237 4064 237 3872 237 
C 3482 237 3424 294 3424 672 
L 3424 2650 
L 3955 2880 
L 3955 922 
L 4672 922 
L 4672 3194 
L 5229 3430 
C 5229 2522 5216 2048 5203 1952 
C 5184 1837 5139 1811 5062 1811 
C 5005 1811 4864 1811 4755 1824 
C 4838 1664 4896 1370 4915 1178 
C 5126 1178 5395 1184 5587 1267 
C 5786 1350 5894 1510 5914 1805 
C 5946 2067 5958 2835 5958 4058 
L 5984 4186 
L 5453 4378 
L 5312 4288 
L 5190 4198 
L 4672 3974 
L 4672 5440 
L 3955 5440 
L 3955 3667 
L 3424 3443 
L 3424 4819 
L 2694 4819 
z
M 134 1101 
L 442 333 
C 1030 602 1766 947 2451 1286 
L 2278 1965 
L 1683 1715 
L 1683 3226 
L 2336 3226 
L 2336 3955 
L 1683 3955 
L 1683 5350 
L 966 5350 
L 966 3955 
L 218 3955 
L 218 3226 
L 966 3226 
L 966 1421 
C 653 1293 365 1184 134 1101 
z
" transform="scale(0.015625)"/>
       <path id="NotoSansCJKjp-Bold-5f62" d="M 5261 5344 
C 4902 4826 4198 4307 3610 4013 
C 3802 3866 4026 3635 4154 3469 
C 4813 3853 5510 4416 5990 5050 
L 5261 5344 
z
M 5395 3584 
C 5018 3034 4301 2483 3699 2157 
C 3891 2010 4109 1786 4237 1619 
C 4896 2029 5606 2637 6099 3290 
L 5395 3584 
z
M 5504 1875 
C 5069 1088 4224 435 3366 64 
C 3558 -102 3782 -365 3904 -557 
C 4845 -77 5690 659 6234 1594 
L 5504 1875 
z
M 2400 4352 
L 2400 2970 
L 1664 2970 
L 1664 4352 
L 2400 4352 
z
M 205 2970 
L 205 2259 
L 941 2259 
C 909 1408 749 563 128 -96 
C 301 -211 570 -467 691 -621 
C 1453 166 1626 1210 1658 2259 
L 2400 2259 
L 2400 -570 
L 3149 -570 
L 3149 2259 
L 3770 2259 
L 3770 2970 
L 3149 2970 
L 3149 4352 
L 3686 4352 
L 3686 5062 
L 320 5062 
L 320 4352 
L 947 4352 
L 947 2970 
L 205 2970 
z
" transform="scale(0.015625)"/>
       <path id="NotoSansCJKjp-Bold-30b3" d="M 922 1069 
L 922 154 
C 1133 173 1498 192 1747 192 
L 4666 192 
L 4659 -141 
L 5587 -141 
C 5574 51 5562 390 5562 614 
L 5562 3930 
C 5562 4115 5574 4371 5581 4518 
C 5472 4512 5203 4506 5018 4506 
L 1792 4506 
C 1574 4506 1242 4518 1005 4544 
L 1005 3654 
C 1184 3667 1530 3680 1798 3680 
L 4672 3680 
L 4672 1030 
L 1722 1030 
C 1434 1030 1146 1050 922 1069 
z
" transform="scale(0.015625)"/>
       <path id="NotoSansCJKjp-Bold-30b9" d="M 5338 4339 
L 4813 4730 
C 4685 4685 4429 4646 4154 4646 
C 3866 4646 2227 4646 1894 4646 
C 1702 4646 1312 4666 1139 4691 
L 1139 3782 
C 1274 3789 1626 3827 1894 3827 
C 2170 3827 3802 3827 4064 3827 
C 3923 3373 3533 2739 3110 2259 
C 2509 1587 1517 806 486 422 
L 1146 -269 
C 2022 147 2874 813 3552 1523 
C 4154 947 4749 294 5165 -282 
L 5894 352 
C 5517 813 4742 1632 4109 2182 
C 4538 2765 4896 3443 5114 3942 
C 5171 4070 5286 4269 5338 4339 
z
" transform="scale(0.015625)"/>
       <path id="NotoSansCJKjp-Bold-30c8" d="M 2010 614 
C 2010 358 1984 -26 1946 -282 
L 2944 -282 
C 2918 -19 2886 429 2886 614 
L 2886 2426 
C 3578 2189 4538 1818 5197 1472 
L 5562 2355 
C 4973 2643 3744 3098 2886 3347 
L 2886 4294 
C 2886 4557 2918 4838 2944 5062 
L 1946 5062 
C 1990 4838 2010 4518 2010 4294 
C 2010 3750 2010 1101 2010 614 
z
" transform="scale(0.015625)"/>
      </defs>
      <use xlink:href="#NotoSansCJKjp-Bold-5730"/>
      <use xlink:href="#NotoSansCJKjp-Bold-5f62" transform="translate(99.999985 0)"/>
      <use xlink:href="#NotoSansCJKjp-Bold-30b3" transform="translate(199.999969 0)"/>
      <use xlink:href="#NotoSansCJKjp-Bold-30b9" transform="translate(299.999954 0)"/>
      <use xlink:href="#NotoSansCJKjp-Bold-30c8" transform="translate(399.999939 0)"/>
     </g>
    </g>
    <g id="patch_5">
     <path d="M 537.912 182.78961 
L 689.544 182.78961 
L 689.544 153.179221 
L 537.912 153.179221 
z
" style="fill: #f2f4f7; stroke: #cfcfcf; stroke-width: 0.8; stroke-linejoin: miter"/>
    </g>
    <g id="text_4">
     <!-- 計算時間 [s] -->
     <g transform="translate(580.860188 171.584416) scale(0.12 -0.12)">
      <defs>
       <path id="NotoSansCJKjp-Bold-8a08" d="M 506 3475 
L 506 2893 
L 2573 2893 
L 2573 3475 
L 506 3475 
z
M 544 5235 
L 544 4659 
L 2579 4659 
L 2579 5235 
L 544 5235 
z
M 506 2598 
L 506 2022 
L 2573 2022 
L 2573 2598 
L 506 2598 
z
M 192 4378 
L 192 3770 
L 2822 3770 
L 2822 4378 
L 192 4378 
z
M 4147 5408 
L 4147 3283 
L 2797 3283 
L 2797 2522 
L 4147 2522 
L 4147 -576 
L 4922 -576 
L 4922 2522 
L 6266 2522 
L 6266 3283 
L 4922 3283 
L 4922 5408 
L 4147 5408 
z
M 486 1715 
L 486 -486 
L 1152 -486 
L 1152 -237 
L 2554 -237 
L 2554 1715 
L 486 1715 
z
M 1152 1107 
L 1875 1107 
L 1875 371 
L 1152 371 
L 1152 1107 
z
" transform="scale(0.015625)"/>
       <path id="NotoSansCJKjp-Bold-7b97" d="M 1824 2829 
L 4678 2829 
L 4678 2592 
L 1824 2592 
L 1824 2829 
z
M 1824 2157 
L 4678 2157 
L 4678 1920 
L 1824 1920 
L 1824 2157 
z
M 1824 3482 
L 4678 3482 
L 4678 3258 
L 1824 3258 
L 1824 3482 
z
M 3725 5491 
C 3597 5139 3373 4787 3110 4512 
L 3110 5018 
L 1690 5018 
L 1830 5293 
L 1120 5491 
C 909 5005 531 4518 128 4211 
C 307 4115 608 3910 749 3789 
C 934 3955 1126 4173 1306 4416 
L 1440 4416 
C 1536 4262 1638 4083 1696 3942 
L 1050 3942 
L 1050 1466 
L 1837 1466 
L 1837 1082 
L 307 1082 
L 307 467 
L 1587 467 
C 1382 282 1018 109 390 -13 
C 557 -154 768 -410 870 -576 
C 1882 -314 2336 58 2515 467 
L 3955 467 
L 3955 -563 
L 4755 -563 
L 4755 467 
L 6106 467 
L 6106 1082 
L 4755 1082 
L 4755 1466 
L 5485 1466 
L 5485 3942 
L 4915 3942 
L 5350 4134 
C 5299 4218 5229 4314 5139 4416 
L 6086 4416 
L 6086 5018 
L 4320 5018 
C 4371 5114 4416 5216 4454 5312 
L 3725 5491 
z
M 3955 1082 
L 2611 1082 
L 2611 1466 
L 3955 1466 
L 3955 1082 
z
M 3354 3942 
L 1965 3942 
L 2394 4096 
C 2362 4186 2298 4301 2227 4416 
L 3021 4416 
C 2950 4346 2880 4288 2803 4230 
C 2950 4166 3187 4045 3354 3942 
z
M 3552 3942 
C 3686 4077 3827 4237 3955 4416 
L 4294 4416 
C 4422 4262 4557 4090 4646 3942 
L 3552 3942 
z
" transform="scale(0.015625)"/>
       <path id="NotoSansCJKjp-Bold-6642" d="M 2797 1203 
C 3085 883 3411 429 3526 122 
L 4192 512 
C 4051 819 3706 1248 3405 1555 
L 2797 1203 
z
M 3981 5440 
L 3981 4755 
L 2739 4755 
L 2739 4090 
L 3981 4090 
L 3981 3526 
L 2528 3526 
L 2528 2854 
L 4787 2854 
L 4787 2310 
L 2541 2310 
L 2541 1638 
L 4787 1638 
L 4787 256 
C 4787 166 4755 141 4659 141 
C 4557 141 4211 141 3898 154 
C 4000 -51 4109 -358 4141 -563 
C 4621 -563 4966 -550 5216 -442 
C 5466 -326 5542 -128 5542 237 
L 5542 1638 
L 6157 1638 
L 6157 2310 
L 5542 2310 
L 5542 2854 
L 6202 2854 
L 6202 3526 
L 4736 3526 
L 4736 4090 
L 6016 4090 
L 6016 4755 
L 4736 4755 
L 4736 5440 
L 3981 5440 
z
M 1702 2554 
L 1702 1350 
L 1114 1350 
L 1114 2554 
L 1702 2554 
z
M 1702 3226 
L 1114 3226 
L 1114 4358 
L 1702 4358 
L 1702 3226 
z
M 403 5043 
L 403 96 
L 1114 96 
L 1114 666 
L 2413 666 
L 2413 5043 
L 403 5043 
z
" transform="scale(0.015625)"/>
       <path id="NotoSansCJKjp-Bold-9593" d="M 3712 986 
L 3712 589 
L 2656 589 
L 2656 986 
L 3712 986 
z
M 3712 1530 
L 2656 1530 
L 2656 1914 
L 3712 1914 
L 3712 1530 
z
M 5568 5190 
L 3405 5190 
L 3405 2854 
L 5158 2854 
L 5158 346 
C 5158 237 5120 198 5005 198 
C 4922 192 4685 192 4435 198 
L 4435 2483 
L 1958 2483 
L 1958 -307 
L 2656 -307 
L 2656 26 
L 4250 26 
C 4326 -173 4397 -416 4416 -576 
C 4966 -576 5338 -557 5600 -429 
C 5850 -301 5933 -77 5933 333 
L 5933 5190 
L 5568 5190 
z
M 2253 3782 
L 2253 3418 
L 1267 3418 
L 1267 3782 
L 2253 3782 
z
M 2253 4301 
L 1267 4301 
L 1267 4634 
L 2253 4634 
L 2253 4301 
z
M 5158 3782 
L 5158 3405 
L 4134 3405 
L 4134 3782 
L 5158 3782 
z
M 5158 4301 
L 4134 4301 
L 4134 4634 
L 5158 4634 
L 5158 4301 
z
M 506 5190 
L 506 -576 
L 1267 -576 
L 1267 2867 
L 2976 2867 
L 2976 5190 
L 506 5190 
z
" transform="scale(0.015625)"/>
       <path id="NotoSansCJKjp-Bold-73" d="M 1530 -90 
C 2458 -90 2957 410 2957 1043 
C 2957 1702 2432 1946 1958 2125 
C 1574 2266 1248 2362 1248 2624 
C 1248 2829 1402 2970 1728 2970 
C 1990 2970 2240 2842 2496 2662 
L 2918 3232 
C 2624 3462 2221 3674 1702 3674 
C 883 3674 365 3219 365 2579 
C 365 1978 870 1702 1325 1530 
C 1702 1382 2074 1261 2074 992 
C 2074 768 1914 614 1555 614 
C 1216 614 915 762 595 1005 
L 166 410 
C 525 115 1050 -90 1530 -90 
z
" transform="scale(0.015625)"/>
      </defs>
      <use xlink:href="#NotoSansCJKjp-Bold-8a08"/>
      <use xlink:href="#NotoSansCJKjp-Bold-7b97" transform="translate(99.999985 0)"/>
      <use xlink:href="#NotoSansCJKjp-Bold-6642" transform="translate(199.999969 0)"/>
      <use xlink:href="#NotoSansCJKjp-Bold-9593" transform="translate(299.999954 0)"/>
      <use xlink:href="#NotoSansCJKjp-Bold-20" transform="translate(399.999939 0)"/>
      <use xlink:href="#NotoSansCJKjp-Bold-5b" transform="translate(422.699936 0)"/>
      <use xlink:href="#NotoSansCJKjp-Bold-73" transform="translate(460.499924 0)"/>
      <use xlink:href="#NotoSansCJKjp-Bold-5d" transform="translate(509.999908 0)"/>
     </g>
    </g>
    <g id="patch_6">
     <path d="M 689.544 182.78961 
L 807.48 182.78961 
L 807.48 153.179221 
L 689.544 153.179221 
z
" style="fill: #f2f4f7; stroke: #cfcfcf; stroke-width: 0.8; stroke-linejoin: miter"/>
    </g>
    <g id="text_5">
     <!-- 成功率 [%] -->
     <g transform="translate(718.836375 171.590978) scale(0.12 -0.12)">
      <defs>
       <path id="NotoSansCJKjp-Bold-6210" d="M 3290 5427 
C 3290 5114 3302 4794 3315 4480 
L 691 4480 
L 691 2598 
C 691 1766 653 640 160 -128 
C 333 -218 678 -499 813 -653 
C 1344 134 1478 1389 1498 2330 
L 2336 2330 
C 2323 1523 2298 1210 2227 1120 
C 2182 1062 2118 1043 2035 1043 
C 1926 1043 1715 1050 1485 1069 
C 1594 877 1677 576 1690 352 
C 1990 346 2266 352 2438 378 
C 2624 410 2758 467 2886 627 
C 3034 819 3066 1395 3091 2746 
C 3091 2835 3091 3027 3091 3027 
L 1498 3027 
L 1498 3725 
L 3360 3725 
C 3443 2758 3584 1856 3808 1126 
C 3437 704 2995 352 2496 83 
C 2662 -64 2944 -384 3053 -550 
C 3450 -307 3808 -19 4134 320 
C 4416 -205 4781 -525 5229 -525 
C 5824 -525 6080 -243 6202 954 
C 5997 1030 5722 1210 5549 1382 
C 5517 576 5440 256 5293 256 
C 5082 256 4877 525 4698 986 
C 5165 1619 5536 2362 5805 3200 
L 5030 3386 
C 4877 2867 4672 2387 4416 1958 
C 4301 2477 4211 3078 4154 3725 
L 6144 3725 
L 6144 4480 
L 5478 4480 
L 5792 4806 
C 5555 5024 5088 5312 4736 5498 
L 4269 5037 
C 4531 4883 4858 4666 5088 4480 
L 4109 4480 
C 4096 4794 4090 5107 4096 5427 
L 3290 5427 
z
" transform="scale(0.015625)"/>
       <path id="NotoSansCJKjp-Bold-529f" d="M 166 1318 
L 352 518 
C 1056 710 1984 966 2835 1222 
L 2739 1952 
L 1850 1715 
L 1850 4019 
L 2675 4019 
L 2675 4749 
L 256 4749 
L 256 4019 
L 1088 4019 
L 1088 1523 
C 742 1440 429 1370 166 1318 
z
M 3667 5338 
L 3661 4077 
L 2765 4077 
L 2765 3341 
L 3629 3341 
C 3546 1862 3219 742 1971 38 
C 2157 -102 2400 -384 2509 -582 
C 3917 256 4294 1619 4403 3341 
L 5261 3341 
C 5203 1331 5133 525 4979 346 
C 4909 256 4838 237 4723 237 
C 4576 237 4262 237 3930 262 
C 4058 51 4154 -275 4166 -493 
C 4518 -506 4870 -506 5088 -474 
C 5331 -435 5491 -365 5651 -128 
C 5888 173 5952 1120 6029 3725 
C 6035 3827 6035 4077 6035 4077 
L 4435 4077 
L 4448 5338 
L 3667 5338 
z
" transform="scale(0.015625)"/>
       <path id="NotoSansCJKjp-Bold-7387" d="M 5254 4038 
C 5043 3776 4672 3437 4390 3219 
L 4954 2918 
C 5242 3117 5613 3411 5939 3712 
L 5254 4038 
z
M 435 3565 
C 774 3360 1203 3053 1402 2848 
L 1875 3245 
C 2138 3066 2451 2842 2682 2650 
L 2317 2285 
L 1978 2272 
L 1862 2746 
C 1267 2515 653 2285 243 2150 
L 608 1530 
C 960 1690 1382 1882 1786 2080 
L 1862 1645 
C 2477 1683 3264 1747 4051 1811 
C 4102 1696 4147 1587 4179 1491 
L 4755 1754 
C 4710 1888 4634 2048 4538 2214 
C 4928 1984 5344 1709 5562 1504 
L 6118 1971 
C 5811 2221 5210 2573 4774 2790 
L 4378 2477 
C 4275 2630 4160 2790 4058 2925 
L 3514 2694 
C 3590 2586 3674 2470 3750 2349 
L 3085 2317 
C 3494 2707 3923 3162 4282 3571 
L 3686 3846 
C 3526 3616 3322 3360 3098 3098 
L 2778 3334 
C 2970 3546 3174 3814 3373 4070 
L 3251 4115 
L 5901 4115 
L 5901 4813 
L 3578 4813 
L 3578 5434 
L 2784 5434 
L 2784 4813 
L 525 4813 
L 525 4115 
L 2624 4115 
C 2534 3955 2432 3789 2323 3629 
L 2170 3725 
L 1869 3360 
C 1638 3558 1248 3814 947 3974 
L 435 3565 
z
M 314 1280 
L 314 570 
L 2784 570 
L 2784 -576 
L 3578 -576 
L 3578 570 
L 6099 570 
L 6099 1280 
L 3578 1280 
L 3578 1690 
L 2784 1690 
L 2784 1280 
L 314 1280 
z
" transform="scale(0.015625)"/>
       <path id="NotoSansCJKjp-Bold-25" d="M 1357 1824 
C 2035 1824 2515 2381 2515 3334 
C 2515 4282 2035 4826 1357 4826 
C 678 4826 205 4282 205 3334 
C 205 2381 678 1824 1357 1824 
z
M 1357 2355 
C 1082 2355 864 2637 864 3334 
C 864 4026 1082 4294 1357 4294 
C 1632 4294 1850 4026 1850 3334 
C 1850 2637 1632 2355 1357 2355 
z
M 1510 -90 
L 2074 -90 
L 4646 4826 
L 4090 4826 
L 1510 -90 
z
M 4806 -90 
C 5478 -90 5958 467 5958 1421 
C 5958 2368 5478 2918 4806 2918 
C 4128 2918 3648 2368 3648 1421 
C 3648 467 4128 -90 4806 -90 
z
M 4806 448 
C 4525 448 4314 730 4314 1421 
C 4314 2125 4525 2381 4806 2381 
C 5082 2381 5293 2125 5293 1421 
C 5293 730 5082 448 4806 448 
z
" transform="scale(0.015625)"/>
      </defs>
      <use xlink:href="#NotoSansCJKjp-Bold-6210"/>
      <use xlink:href="#NotoSansCJKjp-Bold-529f" transform="translate(99.999985 0)"/>
      <use xlink:href="#NotoSansCJKjp-Bold-7387" transform="translate(199.999969 0)"/>
      <use xlink:href="#NotoSansCJKjp-Bold-20" transform="translate(299.999954 0)"/>
      <use xlink:href="#NotoSansCJKjp-Bold-5b" transform="translate(322.699951 0)"/>
      <use xlink:href="#NotoSansCJKjp-Bold-25" transform="translate(360.499939 0)"/>
      <use xlink:href="#NotoSansCJKjp-Bold-5d" transform="translate(456.799927 0)"/>
     </g>
    </g>
    <g id="patch_7">
     <path d="M 49.32 212.4 
L 234.648 212.4 
L 234.648 182.78961 
L 49.32 182.78961 
z
" style="fill: #ffffff; stroke: #cfcfcf; stroke-width: 0.8; stroke-linejoin: miter"/>
    </g>
    <g id="text_6">
     <!-- Regular A* -->
     <g transform="translate(112.618687 200.87043) scale(0.12 -0.12)">
      <defs>
       <path id="NotoSansCJKjp-Regular-52" d="M 1235 2464 
L 1235 4211 
L 2022 4211 
C 2758 4211 3162 3994 3162 3379 
C 3162 2765 2758 2464 2022 2464 
L 1235 2464 
z
M 3219 0 
L 3885 0 
L 2694 2054 
C 3328 2208 3750 2643 3750 3379 
C 3750 4352 3066 4691 2112 4691 
L 646 4691 
L 646 0 
L 1235 0 
L 1235 1990 
L 2080 1990 
L 3219 0 
z
" transform="scale(0.015625)"/>
       <path id="NotoSansCJKjp-Regular-65" d="M 1997 -83 
C 2464 -83 2835 70 3136 269 
L 2931 659 
C 2669 486 2400 384 2061 384 
C 1402 384 947 858 909 1600 
L 3251 1600 
C 3264 1690 3277 1805 3277 1933 
C 3277 2925 2778 3565 1888 3565 
C 1094 3565 333 2867 333 1734 
C 333 589 1069 -83 1997 -83 
z
M 902 2016 
C 973 2707 1408 3098 1901 3098 
C 2445 3098 2765 2720 2765 2016 
L 902 2016 
z
" transform="scale(0.015625)"/>
       <path id="NotoSansCJKjp-Regular-67" d="M 1760 -1600 
C 2835 -1600 3520 -1043 3520 -397 
C 3520 179 3110 429 2310 429 
L 1626 429 
C 1158 429 1018 589 1018 806 
C 1018 998 1114 1114 1242 1222 
C 1395 1146 1587 1101 1754 1101 
C 2470 1101 3027 1568 3027 2310 
C 3027 2611 2912 2867 2746 3027 
L 3456 3027 
L 3456 3475 
L 2246 3475 
C 2125 3526 1952 3565 1754 3565 
C 1056 3565 454 3085 454 2323 
C 454 1907 678 1568 909 1389 
L 909 1363 
C 723 1235 525 1005 525 717 
C 525 442 659 256 838 147 
L 838 115 
C 512 -83 326 -371 326 -672 
C 326 -1267 915 -1600 1760 -1600 
z
M 1754 1498 
C 1357 1498 1018 1818 1018 2323 
C 1018 2835 1350 3136 1754 3136 
C 2170 3136 2496 2835 2496 2323 
C 2496 1818 2157 1498 1754 1498 
z
M 1843 -1197 
C 1210 -1197 838 -960 838 -589 
C 838 -390 941 -179 1190 0 
C 1344 -38 1510 -51 1638 -51 
L 2240 -51 
C 2701 -51 2944 -166 2944 -493 
C 2944 -851 2515 -1197 1843 -1197 
z
" transform="scale(0.015625)"/>
       <path id="NotoSansCJKjp-Regular-75" d="M 1606 -83 
C 2080 -83 2426 166 2752 544 
L 2771 544 
L 2816 0 
L 3302 0 
L 3302 3475 
L 2720 3475 
L 2720 1011 
C 2387 602 2138 422 1779 422 
C 1318 422 1126 698 1126 1344 
L 1126 3475 
L 538 3475 
L 538 1274 
C 538 384 870 -83 1606 -83 
z
" transform="scale(0.015625)"/>
       <path id="NotoSansCJKjp-Regular-6c" d="M 1203 -83 
C 1363 -83 1459 -58 1542 -32 
L 1459 416 
C 1395 403 1370 403 1338 403 
C 1248 403 1178 474 1178 653 
L 1178 5094 
L 589 5094 
L 589 691 
C 589 198 768 -83 1203 -83 
z
" transform="scale(0.015625)"/>
       <path id="NotoSansCJKjp-Regular-61" d="M 1389 -83 
C 1818 -83 2208 141 2541 416 
L 2560 416 
L 2611 0 
L 3091 0 
L 3091 2138 
C 3091 3002 2739 3565 1888 3565 
C 1325 3565 838 3315 525 3110 
L 749 2707 
C 1024 2893 1389 3078 1792 3078 
C 2362 3078 2509 2650 2509 2202 
C 1030 2035 378 1658 378 902 
C 378 275 806 -83 1389 -83 
z
M 1555 390 
C 1210 390 941 544 941 941 
C 941 1389 1338 1677 2509 1811 
L 2509 845 
C 2170 544 1888 390 1555 390 
z
" transform="scale(0.015625)"/>
       <path id="NotoSansCJKjp-Regular-72" d="M 589 0 
L 1178 0 
L 1178 2234 
C 1408 2822 1760 3040 2048 3040 
C 2195 3040 2272 3021 2387 2982 
L 2496 3488 
C 2387 3546 2278 3565 2125 3565 
C 1741 3565 1382 3283 1139 2842 
L 1126 2842 
L 1069 3475 
L 589 3475 
L 589 0 
z
" transform="scale(0.015625)"/>
       <path id="NotoSansCJKjp-Regular-20" transform="scale(0.015625)"/>
       <path id="NotoSansCJKjp-Regular-41" d="M 26 0 
L 621 0 
L 1075 1434 
L 2790 1434 
L 3238 0 
L 3866 0 
L 2272 4691 
L 1613 4691 
L 26 0 
z
M 1222 1901 
L 1453 2624 
C 1619 3155 1773 3661 1920 4211 
L 1946 4211 
C 2099 3667 2246 3155 2419 2624 
L 2643 1901 
L 1222 1901 
z
" transform="scale(0.015625)"/>
       <path id="NotoSansCJKjp-Regular-2a" d="M 986 3014 
L 1498 3622 
L 1997 3014 
L 2278 3213 
L 1869 3885 
L 2566 4179 
L 2458 4506 
L 1728 4326 
L 1664 5094 
L 1318 5094 
L 1254 4320 
L 525 4506 
L 416 4179 
L 1107 3885 
L 704 3213 
L 986 3014 
z
" transform="scale(0.015625)"/>
      </defs>
      <use xlink:href="#NotoSansCJKjp-Regular-52"/>
      <use xlink:href="#NotoSansCJKjp-Regular-65" transform="translate(63.499985 0)"/>
      <use xlink:href="#NotoSansCJKjp-Regular-67" transform="translate(118.899979 0)"/>
      <use xlink:href="#NotoSansCJKjp-Regular-75" transform="translate(175.299973 0)"/>
      <use xlink:href="#NotoSansCJKjp-Regular-6c" transform="translate(235.999969 0)"/>
      <use xlink:href="#NotoSansCJKjp-Regular-61" transform="translate(264.399963 0)"/>
      <use xlink:href="#NotoSansCJKjp-Regular-72" transform="translate(320.699951 0)"/>
      <use xlink:href="#NotoSansCJKjp-Regular-20" transform="translate(359.499939 0)"/>
      <use xlink:href="#NotoSansCJKjp-Regular-41" transform="translate(381.899933 0)"/>
      <use xlink:href="#NotoSansCJKjp-Regular-2a" transform="translate(442.699921 0)"/>
     </g>
    </g>
    <g id="patch_8">
     <path d="M 234.648 212.4 
L 403.128 212.4 
L 403.128 182.78961 
L 234.648 182.78961 
z
" style="fill: #ffffff; stroke: #cfcfcf; stroke-width: 0.8; stroke-linejoin: miter"/>
    </g>
    <g id="text_7">
     <!-- 20.85 -->
     <g transform="translate(303.900187 200.996055) scale(0.12 -0.12)">
      <defs>
       <path id="NotoSansCJKjp-Regular-32" d="M 282 0 
L 3232 0 
L 3232 506 
L 1933 506 
C 1696 506 1408 480 1165 461 
C 2266 1504 3008 2458 3008 3398 
C 3008 4230 2477 4774 1638 4774 
C 1043 4774 634 4506 256 4090 
L 595 3757 
C 858 4070 1184 4301 1568 4301 
C 2150 4301 2432 3910 2432 3373 
C 2432 2566 1754 1632 282 346 
L 282 0 
z
" transform="scale(0.015625)"/>
       <path id="NotoSansCJKjp-Regular-30" d="M 1779 -83 
C 2669 -83 3238 723 3238 2362 
C 3238 3987 2669 4774 1779 4774 
C 883 4774 320 3987 320 2362 
C 320 723 883 -83 1779 -83 
z
M 1779 390 
C 1248 390 883 986 883 2362 
C 883 3731 1248 4314 1779 4314 
C 2310 4314 2675 3731 2675 2362 
C 2675 986 2310 390 1779 390 
z
" transform="scale(0.015625)"/>
       <path id="NotoSansCJKjp-Regular-2e" d="M 890 -83 
C 1120 -83 1312 96 1312 358 
C 1312 627 1120 806 890 806 
C 653 806 467 627 467 358 
C 467 96 653 -83 890 -83 
z
" transform="scale(0.015625)"/>
       <path id="NotoSansCJKjp-Regular-38" d="M 1792 -83 
C 2669 -83 3258 448 3258 1126 
C 3258 1773 2880 2125 2470 2362 
L 2470 2394 
C 2746 2611 3091 3034 3091 3526 
C 3091 4250 2605 4762 1805 4762 
C 1075 4762 518 4282 518 3571 
C 518 3078 813 2726 1152 2490 
L 1152 2464 
C 723 2234 294 1792 294 1165 
C 294 442 922 -83 1792 -83 
z
M 2112 2547 
C 1555 2765 1050 3014 1050 3571 
C 1050 4026 1363 4326 1798 4326 
C 2298 4326 2592 3962 2592 3494 
C 2592 3149 2426 2829 2112 2547 
z
M 1798 352 
C 1235 352 813 717 813 1216 
C 813 1664 1082 2035 1459 2278 
C 2125 2010 2701 1779 2701 1146 
C 2701 678 2342 352 1798 352 
z
" transform="scale(0.015625)"/>
       <path id="NotoSansCJKjp-Regular-35" d="M 1677 -83 
C 2464 -83 3213 499 3213 1523 
C 3213 2560 2573 3021 1798 3021 
C 1517 3021 1306 2950 1094 2835 
L 1216 4192 
L 2982 4192 
L 2982 4691 
L 704 4691 
L 550 2502 
L 864 2304 
C 1133 2483 1331 2579 1645 2579 
C 2234 2579 2618 2182 2618 1510 
C 2618 826 2176 403 1619 403 
C 1075 403 730 653 467 922 
L 173 538 
C 493 224 941 -83 1677 -83 
z
" transform="scale(0.015625)"/>
      </defs>
      <use xlink:href="#NotoSansCJKjp-Regular-32"/>
      <use xlink:href="#NotoSansCJKjp-Regular-30" transform="translate(55.499985 0)"/>
      <use xlink:href="#NotoSansCJKjp-Regular-2e" transform="translate(110.999969 0)"/>
      <use xlink:href="#NotoSansCJKjp-Regular-38" transform="translate(138.799957 0)"/>
      <use xlink:href="#NotoSansCJKjp-Regular-35" transform="translate(194.299942 0)"/>
     </g>
    </g>
    <g id="patch_9">
     <path d="M 403.128 212.4 
L 537.912 212.4 
L 537.912 182.78961 
L 403.128 182.78961 
z
" style="fill: #ffffff; stroke: #cfcfcf; stroke-width: 0.8; stroke-linejoin: miter"/>
    </g>
    <g id="text_8">
     <!-- 2.84 -->
     <g transform="translate(458.862187 200.996055) scale(0.12 -0.12)">
      <defs>
       <path id="NotoSansCJKjp-Regular-34" d="M 2176 0 
L 2726 0 
L 2726 1293 
L 3354 1293 
L 3354 1760 
L 2726 1760 
L 2726 4691 
L 2080 4691 
L 128 1677 
L 128 1293 
L 2176 1293 
L 2176 0 
z
M 2176 1760 
L 736 1760 
L 1805 3360 
C 1939 3590 2067 3827 2182 4051 
L 2208 4051 
C 2195 3814 2176 3430 2176 3200 
L 2176 1760 
z
" transform="scale(0.015625)"/>
      </defs>
      <use xlink:href="#NotoSansCJKjp-Regular-32"/>
      <use xlink:href="#NotoSansCJKjp-Regular-2e" transform="translate(55.499985 0)"/>
      <use xlink:href="#NotoSansCJKjp-Regular-38" transform="translate(83.299973 0)"/>
      <use xlink:href="#NotoSansCJKjp-Regular-34" transform="translate(138.799957 0)"/>
     </g>
    </g>
    <g id="patch_10">
     <path d="M 537.912 212.4 
L 689.544 212.4 
L 689.544 182.78961 
L 537.912 182.78961 
z
" style="fill: #ffffff; stroke: #cfcfcf; stroke-width: 0.8; stroke-linejoin: miter"/>
    </g>
    <g id="patch_11">
     <path d="M 689.544 212.4 
L 807.48 212.4 
L 807.48 182.78961 
L 689.544 182.78961 
z
" style="fill: #ffffff; stroke: #cfcfcf; stroke-width: 0.8; stroke-linejoin: miter"/>
    </g>
    <g id="text_9">
     <!-- 100.0 -->
     <g transform="translate(733.524187 200.996055) scale(0.12 -0.12)">
      <defs>
       <path id="NotoSansCJKjp-Regular-31" d="M 563 0 
L 3136 0 
L 3136 486 
L 2195 486 
L 2195 4691 
L 1747 4691 
C 1491 4544 1190 4435 774 4358 
L 774 3987 
L 1613 3987 
L 1613 486 
L 563 486 
L 563 0 
z
" transform="scale(0.015625)"/>
      </defs>
      <use xlink:href="#NotoSansCJKjp-Regular-31"/>
      <use xlink:href="#NotoSansCJKjp-Regular-30" transform="translate(55.499985 0)"/>
      <use xlink:href="#NotoSansCJKjp-Regular-30" transform="translate(110.999969 0)"/>
      <use xlink:href="#NotoSansCJKjp-Regular-2e" transform="translate(166.499954 0)"/>
      <use xlink:href="#NotoSansCJKjp-Regular-30" transform="translate(194.299942 0)"/>
     </g>
    </g>
    <g id="patch_12">
     <path d="M 49.32 242.01039 
L 234.648 242.01039 
L 234.648 212.4 
L 49.32 212.4 
z
" style="fill: #eef3f8; stroke: #cfcfcf; stroke-width: 0.8; stroke-linejoin: miter"/>
    </g>
    <g id="text_10">
     <!-- TA* -->
     <g transform="translate(131.939625 230.606445) scale(0.12 -0.12)">
      <defs>
       <path id="NotoSansCJKjp-Regular-54" d="M 1619 0 
L 2214 0 
L 2214 4192 
L 3635 4192 
L 3635 4691 
L 198 4691 
L 198 4192 
L 1619 4192 
L 1619 0 
z
" transform="scale(0.015625)"/>
      </defs>
      <use xlink:href="#NotoSansCJKjp-Regular-54"/>
      <use xlink:href="#NotoSansCJKjp-Regular-41" transform="translate(59.899994 0)"/>
      <use xlink:href="#NotoSansCJKjp-Regular-2a" transform="translate(120.699982 0)"/>
     </g>
    </g>
    <g id="patch_13">
     <path d="M 234.648 242.01039 
L 403.128 242.01039 
L 403.128 212.4 
L 234.648 212.4 
z
" style="fill: #eef3f8; stroke: #cfcfcf; stroke-width: 0.8; stroke-linejoin: miter"/>
    </g>
    <g id="text_11">
     <!-- 21.27 (＋2.0%) -->
     <g transform="translate(278.64675 230.606445) scale(0.12 -0.12)">
      <defs>
       <path id="NotoSansCJKjp-Regular-37" d="M 1267 0 
L 1875 0 
C 1952 1837 2150 2931 3251 4339 
L 3251 4691 
L 314 4691 
L 314 4192 
L 2592 4192 
C 1670 2912 1350 1779 1267 0 
z
" transform="scale(0.015625)"/>
       <path id="NotoSansCJKjp-Regular-28" d="M 1530 -1254 
L 1888 -1094 
C 1338 -186 1075 902 1075 1990 
C 1075 3072 1338 4154 1888 5069 
L 1530 5235 
C 941 4275 589 3245 589 1990 
C 589 730 941 -301 1530 -1254 
z
" transform="scale(0.015625)"/>
       <path id="NotoSansCJKjp-Regular-ff0b" d="M 5523 2182 
L 5523 2624 
L 3418 2624 
L 3418 4730 
L 2982 4730 
L 2982 2624 
L 877 2624 
L 877 2182 
L 2982 2182 
L 2982 77 
L 3418 77 
L 3418 2182 
L 5523 2182 
z
" transform="scale(0.015625)"/>
       <path id="NotoSansCJKjp-Regular-25" d="M 1312 1818 
C 1958 1818 2381 2362 2381 3309 
C 2381 4243 1958 4774 1312 4774 
C 672 4774 250 4243 250 3309 
C 250 2362 672 1818 1312 1818 
z
M 1312 2176 
C 941 2176 691 2560 691 3309 
C 691 4058 941 4416 1312 4416 
C 1683 4416 1933 4058 1933 3309 
C 1933 2560 1683 2176 1312 2176 
z
M 1446 -83 
L 1843 -83 
L 4435 4774 
L 4038 4774 
L 1446 -83 
z
M 4582 -83 
C 5222 -83 5645 454 5645 1402 
C 5645 2342 5222 2874 4582 2874 
C 3942 2874 3520 2342 3520 1402 
C 3520 454 3942 -83 4582 -83 
z
M 4582 275 
C 4211 275 3955 653 3955 1402 
C 3955 2150 4211 2515 4582 2515 
C 4947 2515 5210 2150 5210 1402 
C 5210 653 4947 275 4582 275 
z
" transform="scale(0.015625)"/>
       <path id="NotoSansCJKjp-Regular-29" d="M 634 -1254 
C 1222 -301 1574 730 1574 1990 
C 1574 3245 1222 4275 634 5235 
L 269 5069 
C 819 4154 1094 3072 1094 1990 
C 1094 902 819 -186 269 -1094 
L 634 -1254 
z
" transform="scale(0.015625)"/>
      </defs>
      <use xlink:href="#NotoSansCJKjp-Regular-32"/>
      <use xlink:href="#NotoSansCJKjp-Regular-31" transform="translate(55.499985 0)"/>
      <use xlink:href="#NotoSansCJKjp-Regular-2e" transform="translate(110.999969 0)"/>
      <use xlink:href="#NotoSansCJKjp-Regular-32" transform="translate(138.799957 0)"/>
      <use xlink:href="#NotoSansCJKjp-Regular-37" transform="translate(194.299942 0)"/>
      <use xlink:href="#NotoSansCJKjp-Regular-20" transform="translate(249.799927 0)"/>
      <use xlink:href="#NotoSansCJKjp-Regular-28" transform="translate(272.199921 0)"/>
      <use xlink:href="#NotoSansCJKjp-Regular-ff0b" transform="translate(305.999908 0)"/>
      <use xlink:href="#NotoSansCJKjp-Regular-32" transform="translate(405.999893 0)"/>
      <use xlink:href="#NotoSansCJKjp-Regular-2e" transform="translate(461.499878 0)"/>
      <use xlink:href="#NotoSansCJKjp-Regular-30" transform="translate(489.299866 0)"/>
      <use xlink:href="#NotoSansCJKjp-Regular-25" transform="translate(544.79985 0)"/>
      <use xlink:href="#NotoSansCJKjp-Regular-29" transform="translate(636.899841 0)"/>
     </g>
    </g>
    <g id="patch_14">
     <path d="M 403.128 242.01039 
L 537.912 242.01039 
L 537.912 212.4 
L 403.128 212.4 
z
" style="fill: #eef3f8; stroke: #cfcfcf; stroke-width: 0.8; stroke-linejoin: miter"/>
    </g>
    <g id="text_12">
     <!-- 2.38 (−16.2%) -->
     <g transform="translate(432.94875 230.606445) scale(0.12 -0.12)">
      <defs>
       <path id="NotoSansCJKjp-Regular-33" d="M 1683 -83 
C 2522 -83 3194 416 3194 1254 
C 3194 1901 2752 2310 2202 2445 
L 2202 2477 
C 2701 2650 3034 3034 3034 3603 
C 3034 4346 2458 4774 1664 4774 
C 1126 4774 710 4538 358 4218 
L 672 3846 
C 941 4115 1267 4301 1645 4301 
C 2138 4301 2438 4006 2438 3558 
C 2438 3053 2112 2662 1139 2662 
L 1139 2214 
C 2227 2214 2598 1843 2598 1274 
C 2598 736 2208 403 1645 403 
C 1114 403 762 659 486 941 
L 186 563 
C 493 224 954 -83 1683 -83 
z
" transform="scale(0.015625)"/>
       <path id="NotoSansCJKjp-Regular-2212" d="M 243 2144 
L 3315 2144 
L 3315 2579 
L 243 2579 
L 243 2144 
z
" transform="scale(0.015625)"/>
       <path id="NotoSansCJKjp-Regular-36" d="M 1926 -83 
C 2656 -83 3277 531 3277 1440 
C 3277 2426 2765 2912 1971 2912 
C 1606 2912 1197 2701 909 2349 
C 934 3802 1466 4294 2118 4294 
C 2400 4294 2682 4154 2861 3936 
L 3194 4294 
C 2931 4576 2579 4774 2093 4774 
C 1184 4774 358 4077 358 2240 
C 358 691 1030 -83 1926 -83 
z
M 922 1882 
C 1229 2317 1587 2477 1875 2477 
C 2445 2477 2720 2074 2720 1440 
C 2720 800 2374 378 1926 378 
C 1338 378 986 909 922 1882 
z
" transform="scale(0.015625)"/>
      </defs>
      <use xlink:href="#NotoSansCJKjp-Regular-32"/>
      <use xlink:href="#NotoSansCJKjp-Regular-2e" transform="translate(55.499985 0)"/>
      <use xlink:href="#NotoSansCJKjp-Regular-33" transform="translate(83.299973 0)"/>
      <use xlink:href="#NotoSansCJKjp-Regular-38" transform="translate(138.799957 0)"/>
      <use xlink:href="#NotoSansCJKjp-Regular-20" transform="translate(194.299942 0)"/>
      <use xlink:href="#NotoSansCJKjp-Regular-28" transform="translate(216.699936 0)"/>
      <use xlink:href="#NotoSansCJKjp-Regular-2212" transform="translate(250.499924 0)"/>
      <use xlink:href="#NotoSansCJKjp-Regular-31" transform="translate(305.999908 0)"/>
      <use xlink:href="#NotoSansCJKjp-Regular-36" transform="translate(361.499893 0)"/>
      <use xlink:href="#NotoSansCJKjp-Regular-2e" transform="translate(416.999878 0)"/>
      <use xlink:href="#NotoSansCJKjp-Regular-32" transform="translate(444.799866 0)"/>
      <use xlink:href="#NotoSansCJKjp-Regular-25" transform="translate(500.29985 0)"/>
      <use xlink:href="#NotoSansCJKjp-Regular-29" transform="translate(592.399841 0)"/>
     </g>
    </g>
    <g id="patch_15">
     <path d="M 537.912 242.01039 
L 689.544 242.01039 
L 689.544 212.4 
L 537.912 212.4 
z
" style="fill: #eef3f8; stroke: #cfcfcf; stroke-width: 0.8; stroke-linejoin: miter"/>
    </g>
    <g id="text_13">
     <!-- 15.46 -->
     <g transform="translate(598.740188 230.606445) scale(0.12 -0.12)">
      <use xlink:href="#NotoSansCJKjp-Regular-31"/>
      <use xlink:href="#NotoSansCJKjp-Regular-35" transform="translate(55.499985 0)"/>
      <use xlink:href="#NotoSansCJKjp-Regular-2e" transform="translate(110.999969 0)"/>
      <use xlink:href="#NotoSansCJKjp-Regular-34" transform="translate(138.799957 0)"/>
      <use xlink:href="#NotoSansCJKjp-Regular-36" transform="translate(194.299942 0)"/>
     </g>
    </g>
    <g id="patch_16">
     <path d="M 689.544 242.01039 
L 807.48 242.01039 
L 807.48 212.4 
L 689.544 212.4 
z
" style="fill: #eef3f8; stroke: #cfcfcf; stroke-width: 0.8; stroke-linejoin: miter"/>
    </g>
    <g id="text_14">
     <!-- 96.88 -->
     <g transform="translate(733.524187 230.606445) scale(0.12 -0.12)">
      <defs>
       <path id="NotoSansCJKjp-Regular-39" d="M 1504 -83 
C 2381 -83 3206 646 3206 2547 
C 3206 4038 2528 4774 1626 4774 
C 896 4774 282 4166 282 3251 
C 282 2285 794 1779 1574 1779 
C 1965 1779 2368 2003 2656 2349 
C 2611 896 2086 403 1485 403 
C 1178 403 896 538 691 762 
L 371 397 
C 634 122 992 -83 1504 -83 
z
M 2650 2842 
C 2336 2394 1984 2214 1670 2214 
C 1114 2214 832 2624 832 3251 
C 832 3898 1178 4320 1632 4320 
C 2227 4320 2586 3808 2650 2842 
z
" transform="scale(0.015625)"/>
      </defs>
      <use xlink:href="#NotoSansCJKjp-Regular-39"/>
      <use xlink:href="#NotoSansCJKjp-Regular-36" transform="translate(55.499985 0)"/>
      <use xlink:href="#NotoSansCJKjp-Regular-2e" transform="translate(110.999969 0)"/>
      <use xlink:href="#NotoSansCJKjp-Regular-38" transform="translate(138.799957 0)"/>
      <use xlink:href="#NotoSansCJKjp-Regular-38" transform="translate(194.299942 0)"/>
     </g>
    </g>
    <g id="patch_17">
     <path d="M 49.32 271.620779 
L 234.648 271.620779 
L 234.648 242.01039 
L 49.32 242.01039 
z
" style="fill: #eef3f8; stroke: #cfcfcf; stroke-width: 0.8; stroke-linejoin: miter"/>
    </g>
    <g id="text_15">
     <!-- Field D* Hybrid -->
     <g transform="translate(99.75525 260.186834) scale(0.12 -0.12)">
      <defs>
       <path id="NotoSansCJKjp-Regular-46" d="M 646 0 
L 1235 0 
L 1235 2106 
L 3027 2106 
L 3027 2605 
L 1235 2605 
L 1235 4192 
L 3347 4192 
L 3347 4691 
L 646 4691 
L 646 0 
z
" transform="scale(0.015625)"/>
       <path id="NotoSansCJKjp-Regular-69" d="M 589 0 
L 1178 0 
L 1178 3475 
L 589 3475 
L 589 0 
z
M 883 4192 
C 1114 4192 1274 4346 1274 4582 
C 1274 4806 1114 4960 883 4960 
C 653 4960 499 4806 499 4582 
C 499 4346 653 4192 883 4192 
z
" transform="scale(0.015625)"/>
       <path id="NotoSansCJKjp-Regular-64" d="M 1773 -83 
C 2189 -83 2560 141 2829 410 
L 2848 410 
L 2899 0 
L 3379 0 
L 3379 5094 
L 2790 5094 
L 2790 3757 
L 2822 3162 
C 2515 3411 2253 3565 1843 3565 
C 1050 3565 339 2861 339 1734 
C 339 576 902 -83 1773 -83 
z
M 1901 410 
C 1293 410 941 902 941 1741 
C 941 2534 1389 3072 1946 3072 
C 2234 3072 2502 2970 2790 2707 
L 2790 883 
C 2502 563 2221 410 1901 410 
z
" transform="scale(0.015625)"/>
       <path id="NotoSansCJKjp-Regular-44" d="M 646 0 
L 1843 0 
C 3258 0 4026 877 4026 2362 
C 4026 3859 3258 4691 1818 4691 
L 646 4691 
L 646 0 
z
M 1235 486 
L 1235 4211 
L 1766 4211 
C 2874 4211 3418 3552 3418 2362 
C 3418 1178 2874 486 1766 486 
L 1235 486 
z
" transform="scale(0.015625)"/>
       <path id="NotoSansCJKjp-Regular-48" d="M 646 0 
L 1235 0 
L 1235 2214 
L 3424 2214 
L 3424 0 
L 4019 0 
L 4019 4691 
L 3424 4691 
L 3424 2726 
L 1235 2726 
L 1235 4691 
L 646 4691 
L 646 0 
z
" transform="scale(0.015625)"/>
       <path id="NotoSansCJKjp-Regular-79" d="M 646 -1498 
C 1338 -1498 1702 -973 1946 -294 
L 3251 3475 
L 2682 3475 
L 2054 1549 
C 1965 1235 1862 883 1773 563 
L 1741 563 
C 1619 890 1504 1242 1395 1549 
L 691 3475 
L 83 3475 
L 1478 -6 
L 1402 -269 
C 1254 -698 1011 -1018 621 -1018 
C 525 -1018 422 -986 352 -960 
L 237 -1427 
C 346 -1472 486 -1498 646 -1498 
z
" transform="scale(0.015625)"/>
       <path id="NotoSansCJKjp-Regular-62" d="M 2118 -83 
C 2912 -83 3629 602 3629 1792 
C 3629 2867 3142 3565 2246 3565 
C 1856 3565 1472 3347 1152 3078 
L 1178 3699 
L 1178 5094 
L 589 5094 
L 589 0 
L 1056 0 
L 1107 358 
L 1133 358 
C 1434 83 1798 -83 2118 -83 
z
M 2022 410 
C 1792 410 1478 499 1178 768 
L 1178 2598 
C 1504 2906 1811 3072 2099 3072 
C 2765 3072 3021 2560 3021 1786 
C 3021 928 2598 410 2022 410 
z
" transform="scale(0.015625)"/>
      </defs>
      <use xlink:href="#NotoSansCJKjp-Regular-46"/>
      <use xlink:href="#NotoSansCJKjp-Regular-69" transform="translate(55.199997 0)"/>
      <use xlink:href="#NotoSansCJKjp-Regular-65" transform="translate(82.699982 0)"/>
      <use xlink:href="#NotoSansCJKjp-Regular-6c" transform="translate(138.099976 0)"/>
      <use xlink:href="#NotoSansCJKjp-Regular-64" transform="translate(166.499969 0)"/>
      <use xlink:href="#NotoSansCJKjp-Regular-20" transform="translate(228.499954 0)"/>
      <use xlink:href="#NotoSansCJKjp-Regular-44" transform="translate(250.899948 0)"/>
      <use xlink:href="#NotoSansCJKjp-Regular-2a" transform="translate(319.699936 0)"/>
      <use xlink:href="#NotoSansCJKjp-Regular-20" transform="translate(366.399933 0)"/>
      <use xlink:href="#NotoSansCJKjp-Regular-48" transform="translate(388.799927 0)"/>
      <use xlink:href="#NotoSansCJKjp-Regular-79" transform="translate(461.599915 0)"/>
      <use xlink:href="#NotoSansCJKjp-Regular-62" transform="translate(513.699905 0)"/>
      <use xlink:href="#NotoSansCJKjp-Regular-72" transform="translate(575.499893 0)"/>
      <use xlink:href="#NotoSansCJKjp-Regular-69" transform="translate(614.299881 0)"/>
      <use xlink:href="#NotoSansCJKjp-Regular-64" transform="translate(641.799866 0)"/>
     </g>
    </g>
    <g id="patch_18">
     <path d="M 234.648 271.620779 
L 403.128 271.620779 
L 403.128 242.01039 
L 234.648 242.01039 
z
" style="fill: #eef3f8; stroke: #cfcfcf; stroke-width: 0.8; stroke-linejoin: miter"/>
    </g>
    <g id="text_16">
     <!-- 23.60 (＋13.2%) -->
     <g transform="translate(275.31675 260.216834) scale(0.12 -0.12)">
      <use xlink:href="#NotoSansCJKjp-Regular-32"/>
      <use xlink:href="#NotoSansCJKjp-Regular-33" transform="translate(55.499985 0)"/>
      <use xlink:href="#NotoSansCJKjp-Regular-2e" transform="translate(110.999969 0)"/>
      <use xlink:href="#NotoSansCJKjp-Regular-36" transform="translate(138.799957 0)"/>
      <use xlink:href="#NotoSansCJKjp-Regular-30" transform="translate(194.299942 0)"/>
      <use xlink:href="#NotoSansCJKjp-Regular-20" transform="translate(249.799927 0)"/>
      <use xlink:href="#NotoSansCJKjp-Regular-28" transform="translate(272.199921 0)"/>
      <use xlink:href="#NotoSansCJKjp-Regular-ff0b" transform="translate(305.999908 0)"/>
      <use xlink:href="#NotoSansCJKjp-Regular-31" transform="translate(405.999893 0)"/>
      <use xlink:href="#NotoSansCJKjp-Regular-33" transform="translate(461.499878 0)"/>
      <use xlink:href="#NotoSansCJKjp-Regular-2e" transform="translate(516.999863 0)"/>
      <use xlink:href="#NotoSansCJKjp-Regular-32" transform="translate(544.79985 0)"/>
      <use xlink:href="#NotoSansCJKjp-Regular-25" transform="translate(600.299835 0)"/>
      <use xlink:href="#NotoSansCJKjp-Regular-29" transform="translate(692.399826 0)"/>
     </g>
    </g>
    <g id="patch_19">
     <path d="M 403.128 271.620779 
L 537.912 271.620779 
L 537.912 242.01039 
L 403.128 242.01039 
z
" style="fill: #eef3f8; stroke: #cfcfcf; stroke-width: 0.8; stroke-linejoin: miter"/>
    </g>
    <g id="text_17">
     <!-- 2.52 (−11.3%) -->
     <g transform="translate(432.94875 260.216834) scale(0.12 -0.12)">
      <use xlink:href="#NotoSansCJKjp-Regular-32"/>
      <use xlink:href="#NotoSansCJKjp-Regular-2e" transform="translate(55.499985 0)"/>
      <use xlink:href="#NotoSansCJKjp-Regular-35" transform="translate(83.299973 0)"/>
      <use xlink:href="#NotoSansCJKjp-Regular-32" transform="translate(138.799957 0)"/>
      <use xlink:href="#NotoSansCJKjp-Regular-20" transform="translate(194.299942 0)"/>
      <use xlink:href="#NotoSansCJKjp-Regular-28" transform="translate(216.699936 0)"/>
      <use xlink:href="#NotoSansCJKjp-Regular-2212" transform="translate(250.499924 0)"/>
      <use xlink:href="#NotoSansCJKjp-Regular-31" transform="translate(305.999908 0)"/>
      <use xlink:href="#NotoSansCJKjp-Regular-31" transform="translate(361.499893 0)"/>
      <use xlink:href="#NotoSansCJKjp-Regular-2e" transform="translate(416.999878 0)"/>
      <use xlink:href="#NotoSansCJKjp-Regular-33" transform="translate(444.799866 0)"/>
      <use xlink:href="#NotoSansCJKjp-Regular-25" transform="translate(500.29985 0)"/>
      <use xlink:href="#NotoSansCJKjp-Regular-29" transform="translate(592.399841 0)"/>
     </g>
    </g>
    <g id="patch_20">
     <path d="M 537.912 271.620779 
L 689.544 271.620779 
L 689.544 242.01039 
L 537.912 242.01039 
z
" style="fill: #eef3f8; stroke: #cfcfcf; stroke-width: 0.8; stroke-linejoin: miter"/>
    </g>
    <g id="text_18">
     <!-- 0.175 -->
     <g transform="translate(598.740188 260.216834) scale(0.12 -0.12)">
      <use xlink:href="#NotoSansCJKjp-Regular-30"/>
      <use xlink:href="#NotoSansCJKjp-Regular-2e" transform="translate(55.499985 0)"/>
      <use xlink:href="#NotoSansCJKjp-Regular-31" transform="translate(83.299973 0)"/>
      <use xlink:href="#NotoSansCJKjp-Regular-37" transform="translate(138.799957 0)"/>
      <use xlink:href="#NotoSansCJKjp-Regular-35" transform="translate(194.299942 0)"/>
     </g>
    </g>
    <g id="patch_21">
     <path d="M 689.544 271.620779 
L 807.48 271.620779 
L 807.48 242.01039 
L 689.544 242.01039 
z
" style="fill: #eef3f8; stroke: #cfcfcf; stroke-width: 0.8; stroke-linejoin: miter"/>
    </g>
    <g id="text_19">
     <!-- 100.0 -->
     <g transform="translate(733.524187 260.216834) scale(0.12 -0.12)">
      <use xlink:href="#NotoSansCJKjp-Regular-31"/>
      <use xlink:href="#NotoSansCJKjp-Regular-30" transform="translate(55.499985 0)"/>
      <use xlink:href="#NotoSansCJKjp-Regular-30" transform="translate(110.999969 0)"/>
      <use xlink:href="#NotoSansCJKjp-Regular-2e" transform="translate(166.499954 0)"/>
      <use xlink:href="#NotoSansCJKjp-Regular-30" transform="translate(194.299942 0)"/>
     </g>
    </g>
   </g>
  </g>
 </g>
</svg>
