<?xml version="1.0" encoding="utf-8" standalone="no"?>
<!DOCTYPE svg PUBLIC "-//W3C//DTD SVG 1.1//EN"
  "http://www.w3.org/Graphics/SVG/1.1/DTD/svg11.dtd">
<svg xmlns:xlink="http://www.w3.org/1999/xlink" width="899.136pt" height="465.408pt" viewBox="0 0 899.136 465.408" xmlns="http://www.w3.org/2000/svg" version="1.1">
 <metadata>
  <rdf:RDF xmlns:dc="http://purl.org/dc/elements/1.1/" xmlns:cc="http://creativecommons.org/ns#" xmlns:rdf="http://www.w3.org/1999/02/22-rdf-syntax-ns#">
   <cc:Work>
    <dc:type rdf:resource="http://purl.org/dc/dcmitype/StillImage"/>
    <dc:date>2026-02-12T21:00:05.662675</dc:date>
    <dc:format>image/svg+xml</dc:format>
    <dc:creator>
     <cc:Agent>
      <dc:title>Matplotlib v3.10.8, https://matplotlib.org/</dc:title>
     </cc:Agent>
    </dc:creator>
   </cc:Work>
  </rdf:RDF>
 </metadata>
 <defs>
  <style type="text/css">*{stroke-linejoin: round; stroke-linecap: butt}</style>
 </defs>
 <g id="figure_1">
  <g id="patch_1">
   <path d="M 0 465.408 
L 899.136 465.408 
L 899.136 0 
L 0 0 
z
" style="fill: #ffffff"/>
  </g>
  <g id="axes_1">
   <g id="text_1">
    <g id="patch_2">
     <path d="M 70.48457 132.642781 
L 156.25207 132.642781 
Q 161.85207 132.642781 161.85207 127.042781 
L 161.85207 112.861219 
Q 161.85207 107.261219 156.25207 107.261219 
L 70.48457 107.261219 
Q 64.88457 107.261219 64.88457 112.861219 
L 64.88457 127.042781 
Q 64.88457 132.642781 70.48457 132.642781 
z
" style="fill: #f2f4f7; stroke: #4e5f7c; stroke-width: 1.8; stroke-linejoin: miter"/>
    </g>
    <!-- 標高差 h_diff -->
    <g transform="translate(70.48457 124.032781) scale(0.14 -0.14)">
     <defs>
      <path id="NotoSansCJKjp-Bold-6a19" d="M 2835 2400 
L 2835 1843 
L 5856 1843 
L 5856 2400 
L 2835 2400 
z
M 4858 557 
C 5158 262 5523 -160 5677 -429 
L 6253 -32 
C 6080 243 5702 634 5395 915 
L 4858 557 
z
M 3066 928 
C 2861 614 2515 256 2176 38 
C 2330 -83 2541 -288 2650 -429 
C 3002 -179 3386 211 3654 608 
L 3066 928 
z
M 2637 4262 
L 2637 2630 
L 6022 2630 
L 6022 4262 
L 5069 4262 
L 5069 4563 
L 6189 4563 
L 6189 5178 
L 2451 5178 
L 2451 4563 
L 3526 4563 
L 3526 4262 
L 2637 4262 
z
M 4122 4563 
L 4474 4563 
L 4474 4262 
L 4122 4262 
L 4122 4563 
z
M 2419 1594 
L 2419 979 
L 3949 979 
L 3949 109 
C 3949 51 3930 38 3859 32 
C 3802 26 3590 26 3386 38 
C 3469 -141 3565 -390 3590 -576 
C 3942 -576 4211 -576 4410 -474 
C 4614 -371 4659 -198 4659 102 
L 4659 979 
L 6208 979 
L 6208 1594 
L 2419 1594 
z
M 3270 3712 
L 3603 3712 
L 3603 3187 
L 3270 3187 
L 3270 3712 
z
M 4115 3712 
L 4474 3712 
L 4474 3187 
L 4115 3187 
L 4115 3712 
z
M 4992 3712 
L 5363 3712 
L 5363 3187 
L 4992 3187 
L 4992 3712 
z
M 1069 5440 
L 1069 4109 
L 288 4109 
L 288 3398 
L 1011 3398 
C 838 2637 506 1754 141 1248 
C 250 1075 410 781 480 576 
C 704 896 902 1350 1069 1850 
L 1069 -570 
L 1760 -570 
L 1760 2163 
C 1901 1875 2048 1581 2125 1376 
L 2522 1926 
C 2419 2106 1933 2867 1760 3098 
L 1760 3398 
L 2400 3398 
L 2400 4109 
L 1760 4109 
L 1760 5440 
L 1069 5440 
z
" transform="scale(0.015625)"/>
      <path id="NotoSansCJKjp-Bold-9ad8" d="M 2170 3494 
L 4179 3494 
L 4179 3104 
L 2170 3104 
L 2170 3494 
z
M 1440 4006 
L 1440 2592 
L 4960 2592 
L 4960 4006 
L 1440 4006 
z
M 2765 5446 
L 2765 4909 
L 390 4909 
L 390 4250 
L 6010 4250 
L 6010 4909 
L 3552 4909 
L 3552 5446 
L 2765 5446 
z
M 1965 1395 
L 1965 -339 
L 2630 -339 
L 2630 -45 
L 4294 -45 
C 4365 -218 4422 -416 4442 -563 
C 4909 -563 5242 -557 5491 -442 
C 5734 -326 5805 -115 5805 237 
L 5805 2323 
L 640 2323 
L 640 -576 
L 1389 -576 
L 1389 1690 
L 5037 1690 
L 5037 250 
C 5037 173 5005 154 4909 147 
C 4838 141 4640 141 4422 147 
L 4422 1395 
L 1965 1395 
z
M 2630 877 
L 3750 877 
L 3750 474 
L 2630 474 
L 2630 877 
z
" transform="scale(0.015625)"/>
      <path id="NotoSansCJKjp-Bold-5dee" d="M 4224 5453 
C 4141 5222 3987 4902 3859 4678 
L 2496 4678 
L 2541 4698 
C 2464 4909 2285 5210 2099 5421 
L 1434 5165 
C 1542 5024 1651 4845 1728 4678 
L 608 4678 
L 608 4019 
L 2790 4019 
L 2790 3680 
L 941 3680 
L 941 3053 
L 2790 3053 
L 2790 2707 
L 339 2707 
L 339 2035 
L 1491 2035 
C 1261 1139 813 403 141 -38 
C 326 -154 659 -429 794 -570 
C 1523 -6 2048 902 2336 2035 
L 6054 2035 
L 6054 2707 
L 3584 2707 
L 3584 3053 
L 5485 3053 
L 5485 3680 
L 3584 3680 
L 3584 4019 
L 5824 4019 
L 5824 4678 
L 4666 4678 
L 5062 5242 
L 4224 5453 
z
M 2240 1696 
L 2240 1037 
L 3366 1037 
L 3366 224 
L 1626 224 
L 1626 -442 
L 5965 -442 
L 5965 224 
L 4147 224 
L 4147 1037 
L 5517 1037 
L 5517 1696 
L 2240 1696 
z
" transform="scale(0.015625)"/>
      <path id="NotoSansCJKjp-Bold-20" transform="scale(0.015625)"/>
      <path id="NotoSansCJKjp-Bold-68" d="M 506 0 
L 1446 0 
L 1446 2464 
C 1709 2726 1901 2867 2189 2867 
C 2541 2867 2694 2675 2694 2118 
L 2694 0 
L 3635 0 
L 3635 2234 
C 3635 3136 3302 3674 2528 3674 
C 2042 3674 1683 3418 1402 3149 
L 1446 3821 
L 1446 5107 
L 506 5107 
L 506 0 
z
" transform="scale(0.015625)"/>
      <path id="NotoSansCJKjp-Bold-5f" d="M 90 -992 
L 3539 -992 
L 3539 -448 
L 90 -448 
L 90 -992 
z
" transform="scale(0.015625)"/>
      <path id="NotoSansCJKjp-Bold-64" d="M 1766 -90 
C 2138 -90 2496 109 2758 371 
L 2784 371 
L 2854 0 
L 3622 0 
L 3622 5107 
L 2682 5107 
L 2682 3846 
L 2714 3283 
C 2458 3520 2208 3674 1805 3674 
C 1037 3674 301 2957 301 1792 
C 301 614 870 -90 1766 -90 
z
M 2010 685 
C 1536 685 1267 1056 1267 1805 
C 1267 2515 1606 2899 2010 2899 
C 2240 2899 2464 2829 2682 2630 
L 2682 1056 
C 2477 787 2259 685 2010 685 
z
" transform="scale(0.015625)"/>
      <path id="NotoSansCJKjp-Bold-69" d="M 506 0 
L 1446 0 
L 1446 3584 
L 506 3584 
L 506 0 
z
M 979 4166 
C 1299 4166 1523 4365 1523 4678 
C 1523 4986 1299 5190 979 5190 
C 646 5190 435 4986 435 4678 
C 435 4365 646 4166 979 4166 
z
" transform="scale(0.015625)"/>
      <path id="NotoSansCJKjp-Bold-66" d="M 179 2842 
L 666 2842 
L 666 0 
L 1600 0 
L 1600 2842 
L 2285 2842 
L 2285 3584 
L 1600 3584 
L 1600 3891 
C 1600 4288 1760 4454 2035 4454 
C 2163 4454 2298 4429 2419 4371 
L 2592 5075 
C 2432 5139 2189 5197 1907 5197 
C 1011 5197 666 4614 666 3872 
L 666 3578 
L 179 3539 
L 179 2842 
z
" transform="scale(0.015625)"/>
     </defs>
     <use xlink:href="#NotoSansCJKjp-Bold-6a19"/>
     <use xlink:href="#NotoSansCJKjp-Bold-9ad8" transform="translate(99.999985 0)"/>
     <use xlink:href="#NotoSansCJKjp-Bold-5dee" transform="translate(199.999969 0)"/>
     <use xlink:href="#NotoSansCJKjp-Bold-20" transform="translate(299.999954 0)"/>
     <use xlink:href="#NotoSansCJKjp-Bold-68" transform="translate(322.699951 0)"/>
     <use xlink:href="#NotoSansCJKjp-Bold-5f" transform="translate(386.699936 0)"/>
     <use xlink:href="#NotoSansCJKjp-Bold-64" transform="translate(443.399933 0)"/>
     <use xlink:href="#NotoSansCJKjp-Bold-69" transform="translate(507.799927 0)"/>
     <use xlink:href="#NotoSansCJKjp-Bold-66" transform="translate(538.199921 0)"/>
     <use xlink:href="#NotoSansCJKjp-Bold-66" transform="translate(575.399918 0)"/>
    </g>
   </g>
   <g id="text_2">
    <g id="patch_3">
     <path d="M 63.87832 245.787437 
L 162.85832 245.787437 
Q 168.45832 245.787437 168.45832 240.187437 
L 168.45832 225.220562 
Q 168.45832 219.620562 162.85832 219.620562 
L 63.87832 219.620562 
Q 58.27832 219.620562 58.27832 225.220562 
L 58.27832 240.187437 
Q 58.27832 245.787437 63.87832 245.787437 
z
" style="fill: #f2f4f7; stroke: #4e5f7c; stroke-width: 1.8; stroke-linejoin: miter"/>
    </g>
    <!-- 傾斜角 θ_slope -->
    <g transform="translate(63.87832 237.177437) scale(0.14 -0.14)">
     <defs>
      <path id="NotoSansCJKjp-Bold-50be" d="M 4026 2656 
L 5312 2656 
L 5312 2246 
L 4026 2246 
L 4026 2656 
z
M 4026 1715 
L 5312 1715 
L 5312 1299 
L 4026 1299 
L 4026 1715 
z
M 4026 3603 
L 5312 3603 
L 5312 3194 
L 4026 3194 
L 4026 3603 
z
M 3891 704 
C 3635 429 3117 70 2669 -115 
C 2835 -243 3059 -454 3174 -589 
C 3629 -397 4186 -26 4512 301 
L 3891 704 
z
M 4781 288 
C 5101 32 5517 -346 5709 -589 
L 6304 -179 
C 6093 64 5664 416 5344 659 
L 4781 288 
z
M 3360 4173 
L 3360 3571 
L 2970 3936 
C 2848 3770 2682 3578 2509 3392 
L 2509 4762 
L 1830 4762 
L 1830 1306 
C 1830 621 1958 410 2464 410 
C 2554 410 2739 410 2835 410 
C 3104 410 3264 518 3360 819 
L 3360 730 
L 6003 730 
L 6003 4173 
L 4934 4173 
L 5056 4538 
L 6189 4538 
L 6189 5178 
L 3085 5178 
L 3085 4538 
L 4282 4538 
L 4218 4173 
L 3360 4173 
z
M 2509 2586 
C 2771 2797 3078 3078 3360 3341 
L 3360 1702 
C 3194 1760 2995 1856 2880 1952 
C 2867 1210 2854 1050 2765 1050 
C 2733 1050 2624 1050 2592 1050 
C 2515 1050 2509 1082 2509 1306 
L 2509 2586 
z
M 1197 5414 
C 947 4506 538 3590 70 2995 
C 179 2790 358 2349 410 2163 
C 538 2323 659 2502 781 2694 
L 781 -576 
L 1466 -576 
L 1466 4051 
C 1626 4435 1766 4832 1882 5216 
L 1197 5414 
z
" transform="scale(0.015625)"/>
      <path id="NotoSansCJKjp-Bold-659c" d="M 2368 1555 
C 2560 1120 2758 550 2822 198 
L 3450 454 
C 3373 800 3162 1350 2957 1766 
L 2368 1555 
z
M 678 1741 
C 570 1242 371 704 134 352 
C 301 269 589 96 730 -13 
C 973 378 1210 1005 1350 1581 
L 678 1741 
z
M 3322 2989 
C 3674 2726 4096 2342 4275 2074 
L 4813 2560 
C 4608 2822 4173 3181 3821 3418 
L 3322 2989 
z
M 1453 5440 
C 1197 4838 730 4115 45 3584 
C 205 3469 442 3194 544 3021 
L 832 3283 
L 832 3091 
L 1530 3091 
L 1530 2650 
L 320 2650 
L 320 1965 
L 1530 1965 
L 1530 211 
C 1530 134 1504 115 1427 115 
C 1350 115 1107 115 877 122 
C 973 -77 1069 -384 1094 -582 
C 1498 -582 1779 -563 1990 -448 
C 2202 -333 2253 -141 2253 198 
L 2253 1965 
L 3322 1965 
L 3322 2650 
L 2253 2650 
L 2253 3091 
L 2976 3091 
L 2976 3629 
L 3443 4173 
C 3149 4557 2566 5075 2112 5440 
L 1453 5440 
z
M 1267 3757 
C 1517 4058 1722 4358 1894 4640 
C 2182 4378 2496 4038 2720 3757 
L 1267 3757 
z
M 3514 4576 
C 3846 4294 4243 3891 4410 3610 
L 4896 4013 
L 4896 1773 
L 3309 1427 
L 3475 704 
L 4896 1018 
L 4896 -563 
L 5651 -563 
L 5651 1190 
L 6266 1325 
L 6106 2035 
L 5651 1939 
L 5651 5421 
L 4896 5421 
L 4896 4166 
C 4691 4429 4333 4755 4038 4986 
L 3514 4576 
z
" transform="scale(0.015625)"/>
      <path id="NotoSansCJKjp-Bold-89d2" d="M 1914 3302 
L 3014 3302 
L 3014 2720 
L 1914 2720 
L 1914 3302 
z
M 1914 3974 
L 1882 3974 
C 2016 4128 2144 4294 2259 4454 
L 3514 4454 
C 3418 4288 3315 4122 3213 3974 
L 1914 3974 
z
M 4922 3302 
L 4922 2720 
L 3744 2720 
L 3744 3302 
L 4922 3302 
z
M 1958 5466 
C 1658 4832 1107 4096 288 3552 
C 461 3437 717 3168 832 2989 
C 947 3078 1062 3168 1171 3258 
L 1171 2304 
C 1171 1523 1082 576 160 -70 
C 314 -173 602 -461 704 -608 
C 1235 -237 1536 275 1709 806 
L 4922 806 
L 4922 301 
C 4922 179 4877 141 4736 134 
C 4595 134 4064 128 3616 154 
C 3731 -45 3866 -378 3904 -589 
C 4544 -589 4986 -576 5286 -454 
C 5581 -339 5683 -128 5683 282 
L 5683 3974 
L 4045 3974 
C 4243 4237 4429 4525 4570 4774 
L 4051 5120 
L 3923 5088 
L 2656 5088 
L 2784 5318 
L 1958 5466 
z
M 1907 2074 
L 3014 2074 
L 3014 1466 
L 1856 1466 
C 1888 1670 1901 1875 1907 2074 
z
M 4922 2074 
L 4922 1466 
L 3744 1466 
L 3744 2074 
L 4922 2074 
z
" transform="scale(0.015625)"/>
      <path id="NotoSansCJKjp-Bold-3b8" d="M 1965 -90 
C 2931 -90 3565 774 3565 2573 
C 3565 4326 2931 5197 1965 5197 
C 998 5197 378 4333 378 2573 
C 378 774 998 -90 1965 -90 
z
M 1965 678 
C 1606 678 1331 1024 1293 2259 
L 2643 2259 
C 2605 1024 2323 678 1965 678 
z
M 1293 2893 
C 1331 4102 1613 4442 1965 4442 
C 2323 4442 2605 4102 2643 2893 
L 1293 2893 
z
" transform="scale(0.015625)"/>
      <path id="NotoSansCJKjp-Bold-73" d="M 1530 -90 
C 2458 -90 2957 410 2957 1043 
C 2957 1702 2432 1946 1958 2125 
C 1574 2266 1248 2362 1248 2624 
C 1248 2829 1402 2970 1728 2970 
C 1990 2970 2240 2842 2496 2662 
L 2918 3232 
C 2624 3462 2221 3674 1702 3674 
C 883 3674 365 3219 365 2579 
C 365 1978 870 1702 1325 1530 
C 1702 1382 2074 1261 2074 992 
C 2074 768 1914 614 1555 614 
C 1216 614 915 762 595 1005 
L 166 410 
C 525 115 1050 -90 1530 -90 
z
" transform="scale(0.015625)"/>
      <path id="NotoSansCJKjp-Bold-6c" d="M 1395 -90 
C 1613 -90 1766 -51 1875 -6 
L 1760 691 
C 1696 678 1670 678 1632 678 
C 1542 678 1446 749 1446 966 
L 1446 5107 
L 506 5107 
L 506 1005 
C 506 339 736 -90 1395 -90 
z
" transform="scale(0.015625)"/>
      <path id="NotoSansCJKjp-Bold-6f" d="M 2003 -90 
C 2899 -90 3725 602 3725 1792 
C 3725 2982 2899 3674 2003 3674 
C 1101 3674 282 2982 282 1792 
C 282 602 1101 -90 2003 -90 
z
M 2003 678 
C 1510 678 1242 1114 1242 1792 
C 1242 2464 1510 2906 2003 2906 
C 2490 2906 2765 2464 2765 1792 
C 2765 1114 2490 678 2003 678 
z
" transform="scale(0.015625)"/>
      <path id="NotoSansCJKjp-Bold-70" d="M 506 -1376 
L 1446 -1376 
L 1446 -282 
L 1414 301 
C 1683 51 1990 -90 2304 -90 
C 3091 -90 3827 621 3827 1850 
C 3827 2950 3296 3674 2419 3674 
C 2029 3674 1664 3469 1363 3213 
L 1344 3213 
L 1274 3584 
L 506 3584 
L 506 -1376 
z
M 2099 685 
C 1901 685 1677 755 1446 954 
L 1446 2534 
C 1690 2778 1907 2899 2150 2899 
C 2643 2899 2861 2522 2861 1837 
C 2861 1056 2522 685 2099 685 
z
" transform="scale(0.015625)"/>
      <path id="NotoSansCJKjp-Bold-65" d="M 2067 -90 
C 2509 -90 2963 64 3315 307 
L 2995 883 
C 2733 723 2483 640 2195 640 
C 1658 640 1274 941 1197 1523 
L 3405 1523 
C 3430 1613 3450 1786 3450 1958 
C 3450 2957 2938 3674 1952 3674 
C 1101 3674 282 2950 282 1792 
C 282 608 1062 -90 2067 -90 
z
M 1178 2157 
C 1254 2675 1587 2944 1965 2944 
C 2432 2944 2643 2637 2643 2157 
L 1178 2157 
z
" transform="scale(0.015625)"/>
     </defs>
     <use xlink:href="#NotoSansCJKjp-Bold-50be"/>
     <use xlink:href="#NotoSansCJKjp-Bold-659c" transform="translate(99.999985 0)"/>
     <use xlink:href="#NotoSansCJKjp-Bold-89d2" transform="translate(199.999969 0)"/>
     <use xlink:href="#NotoSansCJKjp-Bold-20" transform="translate(299.999954 0)"/>
     <use xlink:href="#NotoSansCJKjp-Bold-3b8" transform="translate(322.699951 0)"/>
     <use xlink:href="#NotoSansCJKjp-Bold-5f" transform="translate(384.199936 0)"/>
     <use xlink:href="#NotoSansCJKjp-Bold-73" transform="translate(440.899933 0)"/>
     <use xlink:href="#NotoSansCJKjp-Bold-6c" transform="translate(490.399918 0)"/>
     <use xlink:href="#NotoSansCJKjp-Bold-6f" transform="translate(521.899902 0)"/>
     <use xlink:href="#NotoSansCJKjp-Bold-70" transform="translate(584.499893 0)"/>
     <use xlink:href="#NotoSansCJKjp-Bold-65" transform="translate(648.899887 0)"/>
    </g>
   </g>
   <g id="text_3">
    <g id="patch_4">
     <path d="M 56.206757 358.706781 
L 170.529883 358.706781 
Q 176.129883 358.706781 176.129883 353.106781 
L 176.129883 337.805219 
Q 176.129883 332.205219 170.529883 332.205219 
L 56.206757 332.205219 
Q 50.606757 332.205219 50.606757 337.805219 
L 50.606757 353.106781 
Q 50.606757 358.706781 56.206757 358.706781 
z
" style="fill: #f2f4f7; stroke: #4e5f7c; stroke-width: 1.8; stroke-linejoin: miter"/>
    </g>
    <!-- 表面粗さ r_rough -->
    <g transform="translate(56.206757 349.705219) scale(0.14 -0.14)">
     <defs>
      <path id="NotoSansCJKjp-Bold-8868" d="M 787 147 
L 1018 -563 
C 1818 -390 2906 -160 3904 77 
L 3834 768 
L 2438 467 
L 2438 1670 
C 2746 1869 3034 2086 3277 2317 
C 3706 890 4410 -90 5766 -557 
C 5875 -346 6099 -32 6266 128 
C 5626 307 5133 621 4749 1043 
C 5152 1261 5619 1555 6022 1843 
L 5382 2323 
C 5126 2080 4736 1786 4378 1549 
C 4224 1811 4096 2099 3994 2413 
L 6035 2413 
L 6035 3066 
L 3571 3066 
L 3571 3424 
L 5587 3424 
L 5587 4032 
L 3571 4032 
L 3571 4365 
L 5837 4365 
L 5837 5011 
L 3571 5011 
L 3571 5440 
L 2797 5440 
L 2797 5011 
L 589 5011 
L 589 4365 
L 2797 4365 
L 2797 4032 
L 890 4032 
L 890 3424 
L 2797 3424 
L 2797 3066 
L 352 3066 
L 352 2413 
L 2304 2413 
C 1709 1990 883 1632 109 1427 
C 269 1274 493 986 602 806 
C 954 915 1312 1062 1664 1235 
L 1664 314 
L 787 147 
z
" transform="scale(0.015625)"/>
      <path id="NotoSansCJKjp-Bold-9762" d="M 2662 2016 
L 3648 2016 
L 3648 1536 
L 2662 1536 
L 2662 2016 
z
M 2662 2618 
L 2662 3066 
L 3648 3066 
L 3648 2618 
L 2662 2618 
z
M 2662 934 
L 3648 934 
L 3648 461 
L 2662 461 
L 2662 934 
z
M 320 5069 
L 320 4346 
L 2662 4346 
C 2637 4154 2598 3955 2566 3770 
L 582 3770 
L 582 -576 
L 1325 -576 
L 1325 -250 
L 5030 -250 
L 5030 -576 
L 5811 -576 
L 5811 3770 
L 3366 3770 
L 3546 4346 
L 6106 4346 
L 6106 5069 
L 320 5069 
z
M 1325 461 
L 1325 3066 
L 1978 3066 
L 1978 461 
L 1325 461 
z
M 5030 461 
L 4339 461 
L 4339 3066 
L 5030 3066 
L 5030 461 
z
" transform="scale(0.015625)"/>
      <path id="NotoSansCJKjp-Bold-7c97" d="M 294 4947 
C 448 4480 570 3853 589 3456 
L 1158 3597 
C 1133 4006 998 4614 826 5082 
L 294 4947 
z
M 2298 5120 
C 2227 4659 2080 4006 1939 3603 
L 2432 3469 
C 2592 3846 2784 4454 2950 4979 
L 2298 5120 
z
M 301 3302 
L 301 2586 
L 1043 2586 
C 845 1997 518 1318 198 922 
C 314 710 480 365 550 128 
C 794 486 1030 1011 1222 1549 
L 1222 -557 
L 1933 -557 
L 1933 1651 
C 2112 1376 2291 1082 2387 890 
L 2848 1491 
C 2720 1658 2163 2266 1933 2490 
L 1933 2586 
L 2797 2586 
L 2797 3302 
L 1933 3302 
L 1933 5427 
L 1222 5427 
L 1222 3302 
L 301 3302 
z
M 3840 2861 
L 4960 2861 
L 4960 1914 
L 3840 1914 
L 3840 2861 
z
M 3840 3546 
L 3840 4474 
L 4960 4474 
L 4960 3546 
L 3840 3546 
z
M 3840 1229 
L 4960 1229 
L 4960 262 
L 3840 262 
L 3840 1229 
z
M 3104 5184 
L 3104 262 
L 2509 262 
L 2509 -448 
L 6208 -448 
L 6208 262 
L 5728 262 
L 5728 5184 
L 3104 5184 
z
" transform="scale(0.015625)"/>
      <path id="NotoSansCJKjp-Bold-3055" d="M 2195 2061 
L 1395 2246 
C 1178 1811 1056 1446 1056 1056 
C 1056 134 1882 -371 3187 -378 
C 3968 -378 4544 -294 4909 -224 
L 4954 582 
C 4499 493 3936 429 3238 429 
C 2362 429 1882 659 1882 1197 
C 1882 1472 1990 1760 2195 2061 
z
M 915 4243 
L 928 3424 
C 2022 3334 2899 3341 3661 3398 
C 3840 2970 4070 2547 4262 2240 
C 4064 2253 3642 2291 3328 2317 
L 3264 1638 
C 3802 1594 4608 1510 4966 1440 
L 5363 2016 
C 5248 2144 5126 2285 5018 2445 
C 4858 2675 4634 3072 4448 3488 
C 4851 3546 5261 3622 5587 3718 
L 5485 4525 
C 5082 4403 4634 4301 4173 4230 
C 4064 4550 3968 4896 3904 5235 
L 3040 5133 
C 3123 4922 3194 4691 3245 4544 
L 3373 4154 
C 2694 4109 1875 4122 915 4243 
z
" transform="scale(0.015625)"/>
      <path id="NotoSansCJKjp-Bold-72" d="M 506 0 
L 1446 0 
L 1446 2138 
C 1651 2656 1984 2842 2259 2842 
C 2413 2842 2515 2822 2643 2784 
L 2797 3597 
C 2694 3642 2579 3674 2381 3674 
C 2010 3674 1626 3418 1363 2950 
L 1344 2950 
L 1274 3584 
L 506 3584 
L 506 0 
z
" transform="scale(0.015625)"/>
      <path id="NotoSansCJKjp-Bold-75" d="M 1574 -90 
C 2067 -90 2406 154 2714 518 
L 2739 518 
L 2810 0 
L 3578 0 
L 3578 3584 
L 2637 3584 
L 2637 1165 
C 2394 845 2202 717 1914 717 
C 1562 717 1402 909 1402 1466 
L 1402 3584 
L 467 3584 
L 467 1350 
C 467 448 800 -90 1574 -90 
z
" transform="scale(0.015625)"/>
      <path id="NotoSansCJKjp-Bold-67" d="M 1766 -1555 
C 2963 -1555 3718 -1005 3718 -282 
C 3718 346 3245 614 2381 614 
L 1766 614 
C 1350 614 1203 717 1203 902 
C 1203 1056 1267 1133 1357 1216 
C 1517 1158 1683 1133 1818 1133 
C 2592 1133 3206 1536 3206 2349 
C 3206 2573 3136 2771 3046 2893 
L 3654 2893 
L 3654 3584 
L 2368 3584 
C 2214 3635 2029 3674 1818 3674 
C 1062 3674 378 3219 378 2381 
C 378 1958 608 1619 858 1440 
L 858 1414 
C 640 1261 461 1011 461 749 
C 461 448 595 262 787 141 
L 787 109 
C 448 -77 275 -333 275 -634 
C 275 -1267 922 -1555 1766 -1555 
z
M 1818 1715 
C 1510 1715 1261 1952 1261 2381 
C 1261 2797 1504 3027 1818 3027 
C 2138 3027 2387 2797 2387 2381 
C 2387 1952 2138 1715 1818 1715 
z
M 1907 -954 
C 1389 -954 1056 -787 1056 -493 
C 1056 -339 1126 -198 1286 -70 
C 1421 -102 1568 -115 1779 -115 
L 2221 -115 
C 2605 -115 2816 -186 2816 -442 
C 2816 -717 2451 -954 1907 -954 
z
" transform="scale(0.015625)"/>
     </defs>
     <use xlink:href="#NotoSansCJKjp-Bold-8868"/>
     <use xlink:href="#NotoSansCJKjp-Bold-9762" transform="translate(99.999985 0)"/>
     <use xlink:href="#NotoSansCJKjp-Bold-7c97" transform="translate(199.999969 0)"/>
     <use xlink:href="#NotoSansCJKjp-Bold-3055" transform="translate(299.999954 0)"/>
     <use xlink:href="#NotoSansCJKjp-Bold-20" transform="translate(399.999939 0)"/>
     <use xlink:href="#NotoSansCJKjp-Bold-72" transform="translate(422.699936 0)"/>
     <use xlink:href="#NotoSansCJKjp-Bold-5f" transform="translate(466.299927 0)"/>
     <use xlink:href="#NotoSansCJKjp-Bold-72" transform="translate(522.999924 0)"/>
     <use xlink:href="#NotoSansCJKjp-Bold-6f" transform="translate(566.599915 0)"/>
     <use xlink:href="#NotoSansCJKjp-Bold-75" transform="translate(629.199905 0)"/>
     <use xlink:href="#NotoSansCJKjp-Bold-67" transform="translate(692.899902 0)"/>
     <use xlink:href="#NotoSansCJKjp-Bold-68" transform="translate(752.599899 0)"/>
    </g>
   </g>
   <g id="patch_5">
    <path d="M 221.01651 121.299119 
Q 281.469531 176.329248 340.434344 230.004667 
" style="fill: none; stroke: #2f3e5a; stroke-width: 1.8; stroke-linecap: round"/>
    <path d="M 338.822679 225.833032 
L 340.434344 230.004667 
L 336.130037 228.791018 
" style="fill: none; stroke: #2f3e5a; stroke-width: 1.8; stroke-linecap: round"/>
   </g>
   <g id="patch_6">
    <path d="M 221.53626 232.704 
Q 281.469425 232.704 339.390128 232.704 
" style="fill: none; stroke: #2f3e5a; stroke-width: 1.8; stroke-linecap: round"/>
    <path d="M 335.390128 230.704 
L 339.390128 232.704 
L 335.390128 234.704 
" style="fill: none; stroke: #2f3e5a; stroke-width: 1.8; stroke-linecap: round"/>
   </g>
   <g id="patch_7">
    <path d="M 221.01651 344.108881 
Q 281.469531 289.078752 340.434344 235.403333 
" style="fill: none; stroke: #2f3e5a; stroke-width: 1.8; stroke-linecap: round"/>
    <path d="M 336.130037 236.616982 
L 340.434344 235.403333 
L 338.822679 239.574968 
" style="fill: none; stroke: #2f3e5a; stroke-width: 1.8; stroke-linecap: round"/>
   </g>
   <g id="text_4">
    <g id="patch_8">
     <path d="M 342.594253 246.6165 
L 645.015347 246.6165 
Q 651.015347 246.6165 651.015347 240.6165 
L 651.015347 224.7915 
Q 651.015347 218.7915 645.015347 218.7915 
L 342.594253 218.7915 
Q 336.594253 218.7915 336.594253 224.7915 
L 336.594253 240.6165 
Q 336.594253 246.6165 342.594253 246.6165 
z
" style="fill: #f2f4f7; stroke: #4e5f7c; stroke-width: 1.8; stroke-linejoin: miter"/>
    </g>
    <!-- Tc = 0.4 h_diff + 0.4 θ_slope + 0.2 r_rough -->
    <g transform="translate(342.594253 236.971969) scale(0.15 -0.15)">
     <defs>
      <path id="NotoSansCJKjp-Bold-54" d="M 1523 0 
L 2470 0 
L 2470 3949 
L 3808 3949 
L 3808 4742 
L 192 4742 
L 192 3949 
L 1523 3949 
L 1523 0 
z
" transform="scale(0.015625)"/>
      <path id="NotoSansCJKjp-Bold-63" d="M 2029 -90 
C 2426 -90 2861 45 3200 346 
L 2829 966 
C 2630 800 2394 678 2131 678 
C 1613 678 1242 1114 1242 1792 
C 1242 2464 1613 2906 2163 2906 
C 2362 2906 2528 2822 2707 2675 
L 3155 3270 
C 2893 3507 2554 3674 2112 3674 
C 1139 3674 282 2982 282 1792 
C 282 602 1043 -90 2029 -90 
z
" transform="scale(0.015625)"/>
      <path id="NotoSansCJKjp-Bold-3d" d="M 250 2893 
L 3526 2893 
L 3526 3558 
L 250 3558 
L 250 2893 
z
M 250 1235 
L 3526 1235 
L 3526 1907 
L 250 1907 
L 250 1235 
z
" transform="scale(0.015625)"/>
      <path id="NotoSansCJKjp-Bold-30" d="M 1888 -90 
C 2854 -90 3494 755 3494 2394 
C 3494 4019 2854 4826 1888 4826 
C 922 4826 282 4026 282 2394 
C 282 755 922 -90 1888 -90 
z
M 1888 646 
C 1478 646 1171 1056 1171 2394 
C 1171 3712 1478 4102 1888 4102 
C 2298 4102 2598 3712 2598 2394 
C 2598 1056 2298 646 1888 646 
z
" transform="scale(0.015625)"/>
      <path id="NotoSansCJKjp-Bold-2e" d="M 1043 -90 
C 1376 -90 1626 179 1626 525 
C 1626 877 1376 1139 1043 1139 
C 704 1139 454 877 454 525 
C 454 179 704 -90 1043 -90 
z
" transform="scale(0.015625)"/>
      <path id="NotoSansCJKjp-Bold-34" d="M 2157 0 
L 3034 0 
L 3034 1229 
L 3597 1229 
L 3597 1946 
L 3034 1946 
L 3034 4742 
L 1901 4742 
L 134 1869 
L 134 1229 
L 2157 1229 
L 2157 0 
z
M 2157 1946 
L 1050 1946 
L 1786 3123 
C 1920 3379 2048 3642 2163 3898 
L 2195 3898 
C 2176 3616 2157 3187 2157 2912 
L 2157 1946 
z
" transform="scale(0.015625)"/>
      <path id="NotoSansCJKjp-Bold-2b" d="M 1536 704 
L 2234 704 
L 2234 2061 
L 3526 2061 
L 3526 2733 
L 2234 2733 
L 2234 4096 
L 1536 4096 
L 1536 2733 
L 250 2733 
L 250 2061 
L 1536 2061 
L 1536 704 
z
" transform="scale(0.015625)"/>
      <path id="NotoSansCJKjp-Bold-32" d="M 275 0 
L 3450 0 
L 3450 794 
L 2426 794 
C 2202 794 1888 768 1645 736 
C 2509 1587 3226 2509 3226 3366 
C 3226 4250 2630 4826 1734 4826 
C 1088 4826 666 4576 224 4102 
L 749 3597 
C 986 3859 1267 4083 1613 4083 
C 2067 4083 2323 3789 2323 3322 
C 2323 2586 1568 1696 275 544 
L 275 0 
z
" transform="scale(0.015625)"/>
     </defs>
     <use xlink:href="#NotoSansCJKjp-Bold-54"/>
     <use xlink:href="#NotoSansCJKjp-Bold-63" transform="translate(62.499985 0)"/>
     <use xlink:href="#NotoSansCJKjp-Bold-20" transform="translate(115.199982 0)"/>
     <use xlink:href="#NotoSansCJKjp-Bold-3d" transform="translate(137.899979 0)"/>
     <use xlink:href="#NotoSansCJKjp-Bold-20" transform="translate(196.899963 0)"/>
     <use xlink:href="#NotoSansCJKjp-Bold-30" transform="translate(219.59996 0)"/>
     <use xlink:href="#NotoSansCJKjp-Bold-2e" transform="translate(278.599945 0)"/>
     <use xlink:href="#NotoSansCJKjp-Bold-34" transform="translate(311.09993 0)"/>
     <use xlink:href="#NotoSansCJKjp-Bold-20" transform="translate(370.099915 0)"/>
     <use xlink:href="#NotoSansCJKjp-Bold-68" transform="translate(392.799911 0)"/>
     <use xlink:href="#NotoSansCJKjp-Bold-5f" transform="translate(456.799896 0)"/>
     <use xlink:href="#NotoSansCJKjp-Bold-64" transform="translate(513.499893 0)"/>
     <use xlink:href="#NotoSansCJKjp-Bold-69" transform="translate(577.899887 0)"/>
     <use xlink:href="#NotoSansCJKjp-Bold-66" transform="translate(608.299881 0)"/>
     <use xlink:href="#NotoSansCJKjp-Bold-66" transform="translate(645.499878 0)"/>
     <use xlink:href="#NotoSansCJKjp-Bold-20" transform="translate(682.699875 0)"/>
     <use xlink:href="#NotoSansCJKjp-Bold-2b" transform="translate(705.399872 0)"/>
     <use xlink:href="#NotoSansCJKjp-Bold-20" transform="translate(764.399857 0)"/>
     <use xlink:href="#NotoSansCJKjp-Bold-30" transform="translate(787.099854 0)"/>
     <use xlink:href="#NotoSansCJKjp-Bold-2e" transform="translate(846.099838 0)"/>
     <use xlink:href="#NotoSansCJKjp-Bold-34" transform="translate(878.599823 0)"/>
     <use xlink:href="#NotoSansCJKjp-Bold-20" transform="translate(937.599808 0)"/>
     <use xlink:href="#NotoSansCJKjp-Bold-3b8" transform="translate(960.299805 0)"/>
     <use xlink:href="#NotoSansCJKjp-Bold-5f" transform="translate(1021.799789 0)"/>
     <use xlink:href="#NotoSansCJKjp-Bold-73" transform="translate(1078.499786 0)"/>
     <use xlink:href="#NotoSansCJKjp-Bold-6c" transform="translate(1127.999771 0)"/>
     <use xlink:href="#NotoSansCJKjp-Bold-6f" transform="translate(1159.499756 0)"/>
     <use xlink:href="#NotoSansCJKjp-Bold-70" transform="translate(1222.099747 0)"/>
     <use xlink:href="#NotoSansCJKjp-Bold-65" transform="translate(1286.499741 0)"/>
     <use xlink:href="#NotoSansCJKjp-Bold-20" transform="translate(1344.599731 0)"/>
     <use xlink:href="#NotoSansCJKjp-Bold-2b" transform="translate(1367.299728 0)"/>
     <use xlink:href="#NotoSansCJKjp-Bold-20" transform="translate(1426.299713 0)"/>
     <use xlink:href="#NotoSansCJKjp-Bold-30" transform="translate(1448.99971 0)"/>
     <use xlink:href="#NotoSansCJKjp-Bold-2e" transform="translate(1507.999695 0)"/>
     <use xlink:href="#NotoSansCJKjp-Bold-32" transform="translate(1540.49968 0)"/>
     <use xlink:href="#NotoSansCJKjp-Bold-20" transform="translate(1599.499664 0)"/>
     <use xlink:href="#NotoSansCJKjp-Bold-72" transform="translate(1622.199661 0)"/>
     <use xlink:href="#NotoSansCJKjp-Bold-5f" transform="translate(1665.799652 0)"/>
     <use xlink:href="#NotoSansCJKjp-Bold-72" transform="translate(1722.499649 0)"/>
     <use xlink:href="#NotoSansCJKjp-Bold-6f" transform="translate(1766.09964 0)"/>
     <use xlink:href="#NotoSansCJKjp-Bold-75" transform="translate(1828.699631 0)"/>
     <use xlink:href="#NotoSansCJKjp-Bold-67" transform="translate(1892.399628 0)"/>
     <use xlink:href="#NotoSansCJKjp-Bold-68" transform="translate(1952.099625 0)"/>
    </g>
   </g>
   <g id="patch_9">
    <path d="M 610.81956 232.704 
Q 661.904387 232.704 710.976752 232.704 
" style="fill: none; stroke: #2f3e5a; stroke-width: 1.8; stroke-linecap: round"/>
    <path d="M 706.976752 230.704 
L 710.976752 232.704 
L 706.976752 234.704 
" style="fill: none; stroke: #2f3e5a; stroke-width: 1.8; stroke-linecap: round"/>
   </g>
   <g id="text_5">
    <g id="patch_10">
     <path d="M 715.424711 246.301266 
L 856.110649 246.301266 
Q 862.110649 246.301266 862.110649 240.301266 
L 862.110649 225.106734 
Q 862.110649 219.106734 856.110649 219.106734 
L 715.424711 219.106734 
Q 709.424711 219.106734 709.424711 225.106734 
L 709.424711 240.301266 
Q 709.424711 246.301266 715.424711 246.301266 
z
" style="fill: #e9f0fa; stroke: #2f3e5a; stroke-width: 2.2; stroke-linejoin: miter"/>
    </g>
    <!-- 統合指標 Tc（提案） -->
    <g transform="translate(715.424711 237.076266) scale(0.15 -0.15)">
     <defs>
      <path id="NotoSansCJKjp-Bold-7d71" d="M 4480 2195 
L 4480 346 
C 4480 -314 4608 -538 5171 -538 
C 5274 -538 5485 -538 5600 -538 
C 6054 -538 6234 -282 6291 646 
C 6099 698 5792 819 5651 934 
C 5638 243 5619 141 5523 141 
C 5472 141 5338 141 5299 141 
C 5216 141 5203 160 5203 352 
L 5203 2195 
L 4480 2195 
z
M 1837 1555 
C 1984 1178 2144 678 2208 358 
L 2778 563 
C 2701 883 2534 1357 2374 1728 
L 1837 1555 
z
M 442 1677 
C 384 1133 282 557 102 179 
C 262 122 550 -13 685 -102 
C 864 307 1011 954 1075 1562 
L 442 1677 
z
M 3302 2189 
C 3264 1075 3181 384 2208 -19 
C 2368 -147 2560 -416 2637 -589 
C 3802 -77 3981 832 4026 2189 
L 3302 2189 
z
M 2624 3066 
L 2688 2368 
L 5382 2586 
C 5478 2419 5562 2259 5613 2125 
L 6246 2470 
C 6067 2886 5645 3488 5280 3936 
L 4691 3622 
L 4986 3219 
L 3917 3142 
L 4320 4006 
L 6118 4006 
L 6118 4691 
L 4678 4691 
L 4678 5440 
L 3898 5440 
L 3898 4691 
L 2586 4691 
L 2586 4006 
L 3456 4006 
C 3373 3706 3251 3366 3136 3091 
L 2624 3066 
z
M 160 2618 
L 224 1946 
L 1158 2010 
L 1158 -576 
L 1830 -576 
L 1830 2054 
L 2150 2074 
C 2182 1958 2208 1850 2227 1754 
L 2771 1997 
C 2701 2362 2458 2925 2208 3354 
L 1702 3149 
C 1779 3008 1856 2848 1926 2682 
L 1306 2656 
C 1715 3181 2157 3827 2515 4390 
L 1888 4672 
C 1734 4358 1536 3994 1312 3635 
C 1248 3718 1178 3802 1101 3891 
C 1325 4243 1587 4742 1818 5184 
L 1152 5434 
C 1043 5094 864 4666 685 4307 
L 538 4442 
L 166 3917 
C 435 3661 736 3322 928 3046 
L 627 2630 
L 160 2618 
z
" transform="scale(0.015625)"/>
      <path id="NotoSansCJKjp-Bold-5408" d="M 1606 3142 
L 1606 2694 
L 4813 2694 
L 4813 3142 
C 5133 2906 5472 2701 5798 2528 
C 5933 2765 6112 3021 6298 3219 
C 5274 3629 4237 4448 3546 5427 
L 2746 5427 
C 2272 4640 1235 3674 128 3136 
C 294 2976 512 2694 614 2515 
C 954 2701 1293 2912 1606 3142 
z
M 3181 4678 
C 3494 4250 3968 3789 4499 3373 
L 1907 3373 
C 2432 3789 2880 4250 3181 4678 
z
M 1184 2054 
L 1184 -582 
L 1939 -582 
L 1939 -346 
L 4474 -346 
L 4474 -582 
L 5267 -582 
L 5267 2054 
L 1184 2054 
z
M 1939 333 
L 1939 1382 
L 4474 1382 
L 4474 333 
L 1939 333 
z
" transform="scale(0.015625)"/>
      <path id="NotoSansCJKjp-Bold-6307" d="M 5248 5158 
C 4826 4960 4179 4755 3539 4595 
L 3539 5434 
L 2771 5434 
L 2771 3686 
C 2771 2950 3008 2733 3904 2733 
C 4083 2733 4954 2733 5146 2733 
C 5882 2733 6106 2976 6202 3885 
C 5990 3923 5670 4045 5504 4160 
C 5459 3526 5408 3424 5094 3424 
C 4877 3424 4147 3424 3974 3424 
C 3603 3424 3539 3456 3539 3693 
L 3539 3968 
C 4307 4122 5165 4339 5818 4602 
L 5248 5158 
z
M 3488 742 
L 5126 742 
L 5126 320 
L 3488 320 
L 3488 742 
z
M 3488 1338 
L 3488 1734 
L 5126 1734 
L 5126 1338 
L 3488 1338 
z
M 2758 2362 
L 2758 -570 
L 3488 -570 
L 3488 -294 
L 5126 -294 
L 5126 -538 
L 5888 -538 
L 5888 2362 
L 2758 2362 
z
M 1037 5440 
L 1037 4230 
L 237 4230 
L 237 3520 
L 1037 3520 
L 1037 2374 
L 141 2170 
L 320 1434 
L 1037 1619 
L 1037 250 
C 1037 160 998 134 915 128 
C 832 128 570 128 320 141 
C 410 -58 506 -371 531 -563 
C 986 -563 1286 -544 1504 -429 
C 1722 -307 1786 -122 1786 256 
L 1786 1824 
L 2547 2029 
L 2451 2733 
L 1786 2560 
L 1786 3520 
L 2445 3520 
L 2445 4230 
L 1786 4230 
L 1786 5440 
L 1037 5440 
z
" transform="scale(0.015625)"/>
      <path id="NotoSansCJKjp-Bold-ff08" d="M 4243 2432 
C 4243 1062 4813 38 5504 -640 
L 6112 -371 
C 5472 320 4966 1203 4966 2432 
C 4966 3661 5472 4544 6112 5235 
L 5504 5504 
C 4813 4826 4243 3802 4243 2432 
z
" transform="scale(0.015625)"/>
      <path id="NotoSansCJKjp-Bold-63d0" d="M 3309 3885 
L 5043 3885 
L 5043 3565 
L 3309 3565 
L 3309 3885 
z
M 3309 4691 
L 5043 4691 
L 5043 4378 
L 3309 4378 
L 3309 4691 
z
M 2611 5242 
L 2611 3021 
L 5779 3021 
L 5779 5242 
L 2611 5242 
z
M 2675 1907 
C 2586 1037 2317 320 1779 -102 
C 1939 -205 2227 -442 2342 -563 
C 2630 -301 2854 45 3027 454 
C 3456 -333 4102 -486 4954 -486 
L 6067 -486 
C 6093 -294 6189 32 6278 186 
C 5997 173 5197 173 4979 173 
C 4826 173 4678 179 4538 192 
L 4538 941 
L 5760 941 
L 5760 1542 
L 4538 1542 
L 4538 2099 
L 6106 2099 
L 6106 2720 
L 2298 2720 
L 2298 2099 
L 3814 2099 
L 3814 422 
C 3584 570 3392 800 3251 1171 
C 3302 1376 3341 1594 3373 1824 
L 2675 1907 
z
M 902 5434 
L 902 4224 
L 211 4224 
L 211 3520 
L 902 3520 
L 902 2374 
L 147 2189 
L 314 1453 
L 902 1619 
L 902 326 
C 902 243 877 218 800 218 
C 723 211 499 211 262 218 
C 358 19 442 -301 461 -486 
C 870 -486 1158 -461 1350 -339 
C 1549 -224 1606 -32 1606 320 
L 1606 1824 
L 2285 2022 
L 2182 2714 
L 1606 2560 
L 1606 3520 
L 2246 3520 
L 2246 4224 
L 1606 4224 
L 1606 5434 
L 902 5434 
z
" transform="scale(0.015625)"/>
      <path id="NotoSansCJKjp-Bold-6848" d="M 294 1504 
L 294 870 
L 2253 870 
C 1702 518 902 243 134 109 
C 294 -38 506 -326 608 -512 
C 1402 -320 2208 58 2797 531 
L 2797 -570 
L 3565 -570 
L 3565 570 
C 4173 70 4998 -314 5805 -506 
C 5914 -307 6131 -13 6298 147 
C 5523 269 4717 531 4154 870 
L 6125 870 
L 6125 1504 
L 3565 1504 
L 3565 1946 
L 2963 1946 
C 3238 2010 3475 2086 3680 2176 
C 4307 1990 4890 1798 5280 1638 
L 5734 2176 
C 5376 2310 4896 2464 4378 2605 
C 4595 2803 4755 3034 4877 3302 
L 6003 3302 
L 6003 3904 
L 3002 3904 
L 3219 4205 
L 2611 4378 
L 5222 4378 
L 5222 4026 
L 5958 4026 
L 5958 5005 
L 3584 5005 
L 3584 5434 
L 2810 5434 
L 2810 5005 
L 454 5005 
L 454 4026 
L 1165 4026 
L 1165 4378 
L 2483 4378 
L 2138 3904 
L 410 3904 
L 410 3302 
L 1677 3302 
C 1498 3085 1325 2874 1178 2707 
L 1901 2509 
L 1984 2605 
L 2586 2470 
C 2086 2368 1440 2298 576 2253 
C 672 2093 794 1830 826 1658 
C 1626 1715 2272 1792 2797 1907 
L 2797 1504 
L 294 1504 
z
M 2541 3302 
L 4051 3302 
C 3942 3110 3789 2950 3565 2816 
C 3155 2918 2746 3008 2368 3078 
L 2541 3302 
z
" transform="scale(0.015625)"/>
      <path id="NotoSansCJKjp-Bold-ff09" d="M 2157 2432 
C 2157 3802 1587 4826 896 5504 
L 288 5235 
C 928 4544 1434 3661 1434 2432 
C 1434 1203 928 320 288 -371 
L 896 -640 
C 1587 38 2157 1062 2157 2432 
z
" transform="scale(0.015625)"/>
     </defs>
     <use xlink:href="#NotoSansCJKjp-Bold-7d71"/>
     <use xlink:href="#NotoSansCJKjp-Bold-5408" transform="translate(99.999985 0)"/>
     <use xlink:href="#NotoSansCJKjp-Bold-6307" transform="translate(199.999969 0)"/>
     <use xlink:href="#NotoSansCJKjp-Bold-6a19" transform="translate(299.999954 0)"/>
     <use xlink:href="#NotoSansCJKjp-Bold-20" transform="translate(399.999939 0)"/>
     <use xlink:href="#NotoSansCJKjp-Bold-54" transform="translate(422.699936 0)"/>
     <use xlink:href="#NotoSansCJKjp-Bold-63" transform="translate(485.199921 0)"/>
     <use xlink:href="#NotoSansCJKjp-Bold-ff08" transform="translate(537.899918 0)"/>
     <use xlink:href="#NotoSansCJKjp-Bold-63d0" transform="translate(637.899902 0)"/>
     <use xlink:href="#NotoSansCJKjp-Bold-6848" transform="translate(737.899887 0)"/>
     <use xlink:href="#NotoSansCJKjp-Bold-ff09" transform="translate(837.899872 0)"/>
    </g>
   </g>
  </g>
 </g>
</svg>
