<?xml version="1.0" encoding="utf-8" standalone="no"?>
<!DOCTYPE svg PUBLIC "-//W3C//DTD SVG 1.1//EN"
  "http://www.w3.org/Graphics/SVG/1.1/DTD/svg11.dtd">
<svg xmlns:xlink="http://www.w3.org/1999/xlink" width="856.8pt" height="352.8pt" viewBox="0 0 856.8 352.8" xmlns="http://www.w3.org/2000/svg" version="1.1">
 <metadata>
  <rdf:RDF xmlns:dc="http://purl.org/dc/elements/1.1/" xmlns:cc="http://creativecommons.org/ns#" xmlns:rdf="http://www.w3.org/1999/02/22-rdf-syntax-ns#">
   <cc:Work>
    <dc:type rdf:resource="http://purl.org/dc/dcmitype/StillImage"/>
    <dc:date>2026-02-12T21:00:05.425137</dc:date>
    <dc:format>image/svg+xml</dc:format>
    <dc:creator>
     <cc:Agent>
      <dc:title>Matplotlib v3.10.8, https://matplotlib.org/</dc:title>
     </cc:Agent>
    </dc:creator>
   </cc:Work>
  </rdf:RDF>
 </metadata>
 <defs>
  <style type="text/css">*{stroke-linejoin: round; stroke-linecap: butt}</style>
 </defs>
 <g id="figure_1">
  <g id="patch_1">
   <path d="M 0 352.8 
L 856.8 352.8 
L 856.8 0 
L 0 0 
z
" style="fill: #ffffff"/>
  </g>
  <g id="axes_1">
   <g id="text_1">
    <g id="patch_2">
     <path d="M 120.253484 103.0125 
L 197.410516 103.0125 
Q 201.960516 103.0125 201.960516 98.4625 
L 201.960516 85.1375 
Q 201.960516 80.5875 197.410516 80.5875 
L 120.253484 80.5875 
Q 115.703484 80.5875 115.703484 85.1375 
L 115.703484 98.4625 
Q 115.703484 103.0125 120.253484 103.0125 
z
" style="fill: #f2f4f7; stroke: #4e5f7c; stroke-width: 1.5; stroke-linejoin: miter"/>
    </g>
    <!-- 標高差 h_diff -->
    <g transform="translate(120.253484 95.484687) scale(0.13 -0.13)">
     <defs>
      <path id="NotoSansCJKjp-Regular-6a19" d="M 2810 2330 
L 2810 1958 
L 5818 1958 
L 5818 2330 
L 2810 2330 
z
M 4947 710 
C 5267 403 5651 -26 5830 -294 
L 6189 -38 
C 6003 237 5613 640 5286 934 
L 4947 710 
z
M 3149 954 
C 2938 634 2541 243 2170 0 
C 2272 -77 2400 -198 2470 -288 
C 2861 -26 3264 365 3514 749 
L 3149 954 
z
M 2643 4250 
L 2643 2714 
L 5984 2714 
L 5984 4250 
L 4966 4250 
L 4966 4698 
L 6144 4698 
L 6144 5094 
L 2438 5094 
L 2438 4698 
L 3590 4698 
L 3590 4250 
L 2643 4250 
z
M 3981 4698 
L 4570 4698 
L 4570 4250 
L 3981 4250 
L 3981 4698 
z
M 2406 1498 
L 2406 1094 
L 4038 1094 
L 4038 -32 
C 4038 -96 4019 -115 3936 -122 
C 3859 -128 3622 -128 3309 -115 
C 3373 -237 3437 -397 3456 -518 
C 3859 -518 4115 -512 4282 -448 
C 4448 -378 4486 -256 4486 -38 
L 4486 1094 
L 6144 1094 
L 6144 1498 
L 2406 1498 
z
M 3046 3872 
L 3622 3872 
L 3622 3085 
L 3046 3085 
L 3046 3872 
z
M 3974 3872 
L 4570 3872 
L 4570 3085 
L 3974 3085 
L 3974 3872 
z
M 4928 3872 
L 5562 3872 
L 5562 3085 
L 4928 3085 
L 4928 3872 
z
M 1229 5376 
L 1229 3987 
L 333 3987 
L 333 3539 
L 1178 3539 
C 992 2669 602 1658 198 1120 
C 275 1011 390 832 442 704 
C 736 1120 1011 1792 1229 2483 
L 1229 -506 
L 1670 -506 
L 1670 2528 
C 1862 2214 2086 1818 2176 1606 
L 2438 1965 
C 2330 2144 1843 2874 1670 3098 
L 1670 3539 
L 2394 3539 
L 2394 3987 
L 1670 3987 
L 1670 5376 
L 1229 5376 
z
" transform="scale(0.015625)"/>
      <path id="NotoSansCJKjp-Regular-9ad8" d="M 1939 3635 
L 4448 3635 
L 4448 3021 
L 1939 3021 
L 1939 3635 
z
M 1478 3987 
L 1478 2662 
L 4928 2662 
L 4928 3987 
L 1478 3987 
z
M 2918 5382 
L 2918 4768 
L 416 4768 
L 416 4346 
L 5978 4346 
L 5978 4768 
L 3411 4768 
L 3411 5382 
L 2918 5382 
z
M 704 2266 
L 704 -512 
L 1171 -512 
L 1171 1856 
L 5261 1856 
L 5261 70 
C 5261 -19 5235 -45 5120 -51 
C 5018 -58 4653 -58 4237 -45 
C 4301 -179 4371 -365 4390 -499 
C 4922 -499 5267 -499 5478 -422 
C 5683 -346 5741 -205 5741 64 
L 5741 2266 
L 704 2266 
z
M 2406 1088 
L 3994 1088 
L 3994 435 
L 2406 435 
L 2406 1088 
z
M 1984 1440 
L 1984 -243 
L 2406 -243 
L 2406 83 
L 4422 83 
L 4422 1440 
L 1984 1440 
z
" transform="scale(0.015625)"/>
      <path id="NotoSansCJKjp-Regular-5dee" d="M 4422 5389 
C 4320 5133 4115 4768 3949 4538 
L 4019 4512 
L 2349 4512 
L 2451 4557 
C 2362 4787 2144 5114 1933 5357 
L 1523 5190 
C 1683 4992 1850 4723 1952 4512 
L 646 4512 
L 646 4090 
L 2944 4090 
L 2944 3526 
L 960 3526 
L 960 3117 
L 2944 3117 
L 2944 2541 
L 358 2541 
L 358 2106 
L 1658 2106 
C 1421 1114 954 314 250 -179 
C 365 -256 563 -429 653 -518 
C 1382 64 1901 960 2182 2106 
L 6042 2106 
L 6042 2541 
L 3437 2541 
L 3437 3117 
L 5478 3117 
L 5478 3526 
L 3437 3526 
L 3437 4090 
L 5798 4090 
L 5798 4512 
L 4442 4512 
C 4595 4717 4774 4986 4928 5235 
L 4422 5389 
z
M 2163 1619 
L 2163 1197 
L 3462 1197 
L 3462 70 
L 1549 70 
L 1549 -352 
L 5914 -352 
L 5914 70 
L 3949 70 
L 3949 1197 
L 5485 1197 
L 5485 1619 
L 2163 1619 
z
" transform="scale(0.015625)"/>
      <path id="NotoSansCJKjp-Regular-20" transform="scale(0.015625)"/>
      <path id="NotoSansCJKjp-Regular-68" d="M 589 0 
L 1178 0 
L 1178 2522 
C 1523 2874 1766 3053 2125 3053 
C 2586 3053 2784 2778 2784 2125 
L 2784 0 
L 3366 0 
L 3366 2202 
C 3366 3085 3034 3565 2304 3565 
C 1830 3565 1472 3302 1152 2982 
L 1178 3699 
L 1178 5094 
L 589 5094 
L 589 0 
z
" transform="scale(0.015625)"/>
      <path id="NotoSansCJKjp-Regular-5f" d="M 83 -896 
L 3488 -896 
L 3488 -512 
L 83 -512 
L 83 -896 
z
" transform="scale(0.015625)"/>
      <path id="NotoSansCJKjp-Regular-64" d="M 1773 -83 
C 2189 -83 2560 141 2829 410 
L 2848 410 
L 2899 0 
L 3379 0 
L 3379 5094 
L 2790 5094 
L 2790 3757 
L 2822 3162 
C 2515 3411 2253 3565 1843 3565 
C 1050 3565 339 2861 339 1734 
C 339 576 902 -83 1773 -83 
z
M 1901 410 
C 1293 410 941 902 941 1741 
C 941 2534 1389 3072 1946 3072 
C 2234 3072 2502 2970 2790 2707 
L 2790 883 
C 2502 563 2221 410 1901 410 
z
" transform="scale(0.015625)"/>
      <path id="NotoSansCJKjp-Regular-69" d="M 589 0 
L 1178 0 
L 1178 3475 
L 589 3475 
L 589 0 
z
M 883 4192 
C 1114 4192 1274 4346 1274 4582 
C 1274 4806 1114 4960 883 4960 
C 653 4960 499 4806 499 4582 
C 499 4346 653 4192 883 4192 
z
" transform="scale(0.015625)"/>
      <path id="NotoSansCJKjp-Regular-66" d="M 211 3002 
L 685 3002 
L 685 0 
L 1267 0 
L 1267 3002 
L 2003 3002 
L 2003 3475 
L 1267 3475 
L 1267 4026 
C 1267 4474 1427 4710 1760 4710 
C 1882 4710 2022 4678 2150 4614 
L 2278 5069 
C 2118 5133 1914 5178 1696 5178 
C 1005 5178 685 4736 685 4032 
L 685 3475 
L 211 3443 
L 211 3002 
z
" transform="scale(0.015625)"/>
     </defs>
     <use xlink:href="#NotoSansCJKjp-Regular-6a19"/>
     <use xlink:href="#NotoSansCJKjp-Regular-9ad8" transform="translate(99.999985 0)"/>
     <use xlink:href="#NotoSansCJKjp-Regular-5dee" transform="translate(199.999969 0)"/>
     <use xlink:href="#NotoSansCJKjp-Regular-20" transform="translate(299.999954 0)"/>
     <use xlink:href="#NotoSansCJKjp-Regular-68" transform="translate(322.399948 0)"/>
     <use xlink:href="#NotoSansCJKjp-Regular-5f" transform="translate(383.099945 0)"/>
     <use xlink:href="#NotoSansCJKjp-Regular-64" transform="translate(438.999939 0)"/>
     <use xlink:href="#NotoSansCJKjp-Regular-69" transform="translate(500.999924 0)"/>
     <use xlink:href="#NotoSansCJKjp-Regular-66" transform="translate(528.499908 0)"/>
     <use xlink:href="#NotoSansCJKjp-Regular-66" transform="translate(560.999893 0)"/>
    </g>
   </g>
   <g id="text_2">
    <g id="patch_3">
     <path d="M 113.994187 187.918203 
L 203.669812 187.918203 
Q 208.219812 187.918203 208.219812 183.368203 
L 208.219812 169.431797 
Q 208.219812 164.881797 203.669812 164.881797 
L 113.994187 164.881797 
Q 109.444187 164.881797 109.444187 169.431797 
L 109.444187 183.368203 
Q 109.444187 187.918203 113.994187 187.918203 
z
" style="fill: #f2f4f7; stroke: #4e5f7c; stroke-width: 1.5; stroke-linejoin: miter"/>
    </g>
    <!-- 傾斜角 θ_slope -->
    <g transform="translate(113.994187 180.390391) scale(0.13 -0.13)">
     <defs>
      <path id="NotoSansCJKjp-Regular-50be" d="M 3789 2746 
L 5491 2746 
L 5491 2106 
L 3789 2106 
L 3789 2746 
z
M 3789 1747 
L 5491 1747 
L 5491 1101 
L 3789 1101 
L 3789 1747 
z
M 3789 3738 
L 5491 3738 
L 5491 3110 
L 3789 3110 
L 3789 3738 
z
M 3930 582 
C 3667 301 3130 -38 2656 -224 
C 2758 -307 2906 -448 2976 -538 
C 3456 -346 4006 6 4346 339 
L 3930 582 
z
M 4870 320 
C 5222 70 5658 -294 5875 -525 
L 6246 -262 
C 6029 -26 5581 320 5235 557 
L 4870 320 
z
M 1882 4717 
L 1882 1133 
C 1882 640 1978 493 2374 493 
C 2458 493 2746 493 2829 493 
C 3194 493 3296 768 3328 1645 
C 3206 1677 3034 1747 2938 1830 
C 2925 1069 2906 909 2784 909 
C 2726 909 2496 909 2438 909 
C 2330 909 2310 941 2310 1133 
L 2310 2630 
C 2618 2874 3008 3226 3315 3539 
L 2989 3846 
C 2816 3635 2560 3360 2310 3123 
L 2310 4717 
L 1882 4717 
z
M 1389 5338 
C 1101 4352 634 3379 109 2739 
C 186 2618 307 2362 346 2246 
C 550 2496 749 2797 934 3123 
L 934 -525 
L 1370 -525 
L 1370 3994 
C 1542 4390 1696 4806 1824 5222 
L 1389 5338 
z
M 3366 4115 
L 3366 723 
L 5933 723 
L 5933 4115 
L 4691 4115 
L 4890 4653 
L 6144 4653 
L 6144 5069 
L 3066 5069 
L 3066 4653 
L 4390 4653 
C 4352 4480 4294 4288 4243 4115 
L 3366 4115 
z
" transform="scale(0.015625)"/>
      <path id="NotoSansCJKjp-Regular-659c" d="M 2438 1606 
C 2669 1184 2899 627 2976 275 
L 3373 448 
C 3290 787 3053 1331 2816 1747 
L 2438 1606 
z
M 794 1734 
C 672 1216 454 678 186 314 
C 294 262 480 147 563 77 
C 832 467 1082 1069 1229 1638 
L 794 1734 
z
M 3379 3059 
C 3770 2816 4224 2432 4429 2163 
L 4755 2477 
C 4544 2746 4077 3110 3693 3341 
L 3379 3059 
z
M 3603 4659 
C 3974 4390 4397 3987 4589 3706 
L 4934 4006 
C 4736 4282 4307 4666 3930 4922 
L 3603 4659 
z
M 1581 5376 
C 1318 4768 813 4000 96 3430 
C 198 3360 346 3200 416 3098 
C 557 3213 691 3341 813 3462 
L 813 3232 
L 1664 3232 
L 1664 2541 
L 326 2541 
L 326 2106 
L 1664 2106 
L 1664 26 
C 1664 -58 1638 -77 1555 -83 
C 1472 -83 1210 -83 915 -77 
C 979 -205 1050 -390 1069 -518 
C 1485 -518 1741 -506 1901 -429 
C 2067 -358 2125 -230 2125 19 
L 2125 2106 
L 3283 2106 
L 3283 2541 
L 2125 2541 
L 2125 3232 
L 2957 3232 
L 2957 3661 
L 998 3661 
C 1376 4083 1664 4518 1875 4896 
C 2291 4538 2746 4026 2970 3699 
L 3334 4090 
C 3053 4461 2496 4998 2042 5376 
L 1581 5376 
z
M 3290 1331 
L 3392 883 
L 5069 1242 
L 5069 -499 
L 5542 -499 
L 5542 1344 
L 6227 1491 
L 6131 1933 
L 5542 1811 
L 5542 5370 
L 5069 5370 
L 5069 1709 
L 3290 1331 
z
" transform="scale(0.015625)"/>
      <path id="NotoSansCJKjp-Regular-89d2" d="M 1696 3482 
L 3110 3482 
L 3110 2630 
L 1696 2630 
L 1696 3482 
z
M 1696 3910 
L 1683 3910 
C 1888 4134 2074 4365 2234 4595 
L 3795 4595 
C 3667 4365 3501 4109 3341 3910 
L 1696 3910 
z
M 5101 3482 
L 5101 2630 
L 3571 2630 
L 3571 3482 
L 5101 3482 
z
M 2157 5395 
C 1837 4749 1222 3955 358 3373 
C 474 3302 627 3149 704 3034 
C 890 3168 1062 3309 1222 3450 
L 1222 2310 
C 1222 1498 1120 506 211 -198 
C 307 -269 480 -442 550 -544 
C 1062 -147 1357 371 1517 902 
L 5101 902 
L 5101 102 
C 5101 -19 5062 -58 4922 -64 
C 4774 -70 4275 -70 3757 -58 
C 3827 -186 3917 -390 3942 -525 
C 4595 -525 5011 -518 5254 -442 
C 5491 -365 5574 -218 5574 96 
L 5574 3910 
L 3872 3910 
C 4096 4192 4314 4518 4461 4813 
L 4134 5024 
L 4058 4998 
L 2502 4998 
L 2675 5299 
L 2157 5395 
z
M 1696 2214 
L 3110 2214 
L 3110 1325 
L 1613 1325 
C 1670 1632 1690 1933 1696 2214 
z
M 5101 2214 
L 5101 1325 
L 3571 1325 
L 3571 2214 
L 5101 2214 
z
" transform="scale(0.015625)"/>
      <path id="NotoSansCJKjp-Regular-3b8" d="M 1869 -83 
C 2758 -83 3309 736 3309 2566 
C 3309 4269 2758 5178 1869 5178 
C 973 5178 429 4269 429 2566 
C 429 736 973 -83 1869 -83 
z
M 1869 403 
C 1389 403 1030 896 998 2368 
L 2733 2368 
C 2701 896 2349 403 1869 403 
z
M 998 2784 
C 1037 4141 1395 4698 1869 4698 
C 2342 4698 2694 4141 2733 2784 
L 998 2784 
z
" transform="scale(0.015625)"/>
      <path id="NotoSansCJKjp-Regular-73" d="M 1498 -83 
C 2317 -83 2758 384 2758 947 
C 2758 1606 2208 1811 1702 2003 
C 1312 2150 954 2278 954 2605 
C 954 2880 1158 3110 1600 3110 
C 1907 3110 2150 2976 2387 2803 
L 2669 3168 
C 2406 3386 2022 3565 1594 3565 
C 832 3565 397 3130 397 2579 
C 397 1984 922 1754 1408 1574 
C 1792 1434 2202 1267 2202 915 
C 2202 614 1978 371 1517 371 
C 1101 371 794 538 486 787 
L 205 397 
C 531 122 1005 -83 1498 -83 
z
" transform="scale(0.015625)"/>
      <path id="NotoSansCJKjp-Regular-6c" d="M 1203 -83 
C 1363 -83 1459 -58 1542 -32 
L 1459 416 
C 1395 403 1370 403 1338 403 
C 1248 403 1178 474 1178 653 
L 1178 5094 
L 589 5094 
L 589 691 
C 589 198 768 -83 1203 -83 
z
" transform="scale(0.015625)"/>
      <path id="NotoSansCJKjp-Regular-6f" d="M 1939 -83 
C 2790 -83 3546 582 3546 1734 
C 3546 2893 2790 3565 1939 3565 
C 1088 3565 333 2893 333 1734 
C 333 582 1088 -83 1939 -83 
z
M 1939 403 
C 1338 403 934 934 934 1734 
C 934 2534 1338 3072 1939 3072 
C 2541 3072 2950 2534 2950 1734 
C 2950 934 2541 403 1939 403 
z
" transform="scale(0.015625)"/>
      <path id="NotoSansCJKjp-Regular-70" d="M 589 -1466 
L 1178 -1466 
L 1178 -288 
L 1158 320 
C 1472 58 1805 -83 2118 -83 
C 2912 -83 3629 602 3629 1792 
C 3629 2867 3142 3565 2246 3565 
C 1843 3565 1453 3334 1139 3072 
L 1126 3072 
L 1069 3475 
L 589 3475 
L 589 -1466 
z
M 2022 410 
C 1792 410 1485 499 1178 768 
L 1178 2598 
C 1510 2906 1811 3072 2099 3072 
C 2765 3072 3021 2560 3021 1786 
C 3021 928 2598 410 2022 410 
z
" transform="scale(0.015625)"/>
      <path id="NotoSansCJKjp-Regular-65" d="M 1997 -83 
C 2464 -83 2835 70 3136 269 
L 2931 659 
C 2669 486 2400 384 2061 384 
C 1402 384 947 858 909 1600 
L 3251 1600 
C 3264 1690 3277 1805 3277 1933 
C 3277 2925 2778 3565 1888 3565 
C 1094 3565 333 2867 333 1734 
C 333 589 1069 -83 1997 -83 
z
M 902 2016 
C 973 2707 1408 3098 1901 3098 
C 2445 3098 2765 2720 2765 2016 
L 902 2016 
z
" transform="scale(0.015625)"/>
     </defs>
     <use xlink:href="#NotoSansCJKjp-Regular-50be"/>
     <use xlink:href="#NotoSansCJKjp-Regular-659c" transform="translate(99.999985 0)"/>
     <use xlink:href="#NotoSansCJKjp-Regular-89d2" transform="translate(199.999969 0)"/>
     <use xlink:href="#NotoSansCJKjp-Regular-20" transform="translate(299.999954 0)"/>
     <use xlink:href="#NotoSansCJKjp-Regular-3b8" transform="translate(322.399948 0)"/>
     <use xlink:href="#NotoSansCJKjp-Regular-5f" transform="translate(380.699936 0)"/>
     <use xlink:href="#NotoSansCJKjp-Regular-73" transform="translate(436.59993 0)"/>
     <use xlink:href="#NotoSansCJKjp-Regular-6c" transform="translate(483.399918 0)"/>
     <use xlink:href="#NotoSansCJKjp-Regular-6f" transform="translate(511.799911 0)"/>
     <use xlink:href="#NotoSansCJKjp-Regular-70" transform="translate(572.399902 0)"/>
     <use xlink:href="#NotoSansCJKjp-Regular-65" transform="translate(634.399887 0)"/>
    </g>
   </g>
   <g id="text_3">
    <g id="patch_4">
     <path d="M 107.201687 272.635 
L 210.462312 272.635 
Q 215.012312 272.635 215.012312 268.085 
L 215.012312 253.915 
Q 215.012312 249.365 210.462312 249.365 
L 107.201687 249.365 
Q 102.651687 249.365 102.651687 253.915 
L 102.651687 268.085 
Q 102.651687 272.635 107.201687 272.635 
z
" style="fill: #f2f4f7; stroke: #4e5f7c; stroke-width: 1.5; stroke-linejoin: miter"/>
    </g>
    <!-- 表面粗さ r_rough -->
    <g transform="translate(107.201687 264.835) scale(0.13 -0.13)">
     <defs>
      <path id="NotoSansCJKjp-Regular-8868" d="M 896 -64 
L 1050 -512 
C 1811 -320 2912 -45 3923 224 
L 3872 653 
L 2272 256 
L 2272 1715 
C 2637 1946 2970 2208 3232 2470 
C 3680 1005 4512 -26 5875 -493 
C 5946 -358 6086 -166 6195 -70 
C 5472 147 4896 538 4461 1062 
C 4896 1312 5421 1664 5824 1990 
L 5446 2285 
C 5133 1997 4640 1638 4224 1376 
C 4000 1709 3821 2086 3686 2502 
L 5997 2502 
L 5997 2918 
L 3430 2918 
L 3430 3501 
L 5523 3501 
L 5523 3898 
L 3430 3898 
L 3430 4422 
L 5773 4422 
L 5773 4845 
L 3430 4845 
L 3430 5376 
L 2944 5376 
L 2944 4845 
L 640 4845 
L 640 4422 
L 2944 4422 
L 2944 3898 
L 928 3898 
L 928 3501 
L 2944 3501 
L 2944 2918 
L 403 2918 
L 403 2502 
L 2630 2502 
C 1990 1971 1024 1491 179 1254 
C 282 1152 422 979 493 858 
C 909 998 1363 1197 1798 1434 
L 1798 141 
L 896 -64 
z
" transform="scale(0.015625)"/>
      <path id="NotoSansCJKjp-Regular-9762" d="M 2490 2138 
L 3846 2138 
L 3846 1414 
L 2490 1414 
L 2490 2138 
z
M 2490 2528 
L 2490 3238 
L 3846 3238 
L 3846 2528 
L 2490 2528 
z
M 2490 1024 
L 3846 1024 
L 3846 275 
L 2490 275 
L 2490 1024 
z
M 371 4954 
L 371 4493 
L 2842 4493 
C 2797 4230 2726 3930 2662 3686 
L 666 3686 
L 666 -512 
L 1126 -512 
L 1126 -173 
L 5248 -173 
L 5248 -512 
L 5734 -512 
L 5734 3686 
L 3155 3686 
L 3405 4493 
L 6048 4493 
L 6048 4954 
L 371 4954 
z
M 1126 275 
L 1126 3238 
L 2048 3238 
L 2048 275 
L 1126 275 
z
M 5248 275 
L 4288 275 
L 4288 3238 
L 5248 3238 
L 5248 275 
z
" transform="scale(0.015625)"/>
      <path id="NotoSansCJKjp-Regular-7c97" d="M 403 4896 
C 570 4448 717 3859 749 3475 
L 1133 3571 
C 1088 3955 934 4538 755 4986 
L 403 4896 
z
M 2432 5011 
C 2336 4570 2150 3936 2003 3552 
L 2323 3450 
C 2496 3814 2694 4416 2854 4896 
L 2432 5011 
z
M 358 3226 
L 358 2778 
L 1267 2778 
C 1043 2067 640 1222 262 774 
C 346 653 461 448 512 307 
C 813 717 1126 1382 1363 2042 
L 1363 -506 
L 1818 -506 
L 1818 2086 
C 2054 1728 2342 1280 2458 1050 
L 2778 1440 
C 2630 1632 2029 2394 1818 2630 
L 1818 2778 
L 2778 2778 
L 2778 3226 
L 1818 3226 
L 1818 5363 
L 1363 5363 
L 1363 3226 
L 358 3226 
z
M 3603 3021 
L 5114 3021 
L 5114 1798 
L 3603 1798 
L 3603 3021 
z
M 3603 3456 
L 3603 4672 
L 5114 4672 
L 5114 3456 
L 3603 3456 
z
M 3603 1357 
L 5114 1357 
L 5114 96 
L 3603 96 
L 3603 1357 
z
M 3142 5120 
L 3142 96 
L 2451 96 
L 2451 -352 
L 6144 -352 
L 6144 96 
L 5600 96 
L 5600 5120 
L 3142 5120 
z
" transform="scale(0.015625)"/>
      <path id="NotoSansCJKjp-Regular-3055" d="M 1997 1997 
L 1498 2112 
C 1318 1734 1190 1402 1190 1050 
C 1190 179 1958 -262 3174 -269 
C 3885 -269 4429 -198 4826 -128 
L 4851 384 
C 4403 282 3853 218 3200 224 
C 2253 230 1696 499 1696 1107 
C 1696 1414 1805 1690 1997 1997 
z
M 1011 4038 
L 1024 3526 
C 2029 3443 2950 3443 3712 3514 
C 3930 2982 4237 2419 4486 2054 
C 4256 2080 3782 2118 3424 2150 
L 3386 1722 
C 3846 1690 4621 1619 4928 1549 
L 5190 1907 
C 5094 2016 4998 2125 4909 2246 
C 4672 2579 4390 3072 4192 3565 
C 4621 3622 5126 3712 5517 3827 
L 5459 4326 
C 5024 4179 4493 4077 4032 4013 
C 3904 4384 3789 4806 3738 5107 
L 3194 5037 
C 3251 4870 3309 4672 3354 4538 
L 3546 3962 
C 2842 3910 1952 3923 1011 4038 
z
" transform="scale(0.015625)"/>
      <path id="NotoSansCJKjp-Regular-72" d="M 589 0 
L 1178 0 
L 1178 2234 
C 1408 2822 1760 3040 2048 3040 
C 2195 3040 2272 3021 2387 2982 
L 2496 3488 
C 2387 3546 2278 3565 2125 3565 
C 1741 3565 1382 3283 1139 2842 
L 1126 2842 
L 1069 3475 
L 589 3475 
L 589 0 
z
" transform="scale(0.015625)"/>
      <path id="NotoSansCJKjp-Regular-75" d="M 1606 -83 
C 2080 -83 2426 166 2752 544 
L 2771 544 
L 2816 0 
L 3302 0 
L 3302 3475 
L 2720 3475 
L 2720 1011 
C 2387 602 2138 422 1779 422 
C 1318 422 1126 698 1126 1344 
L 1126 3475 
L 538 3475 
L 538 1274 
C 538 384 870 -83 1606 -83 
z
" transform="scale(0.015625)"/>
      <path id="NotoSansCJKjp-Regular-67" d="M 1760 -1600 
C 2835 -1600 3520 -1043 3520 -397 
C 3520 179 3110 429 2310 429 
L 1626 429 
C 1158 429 1018 589 1018 806 
C 1018 998 1114 1114 1242 1222 
C 1395 1146 1587 1101 1754 1101 
C 2470 1101 3027 1568 3027 2310 
C 3027 2611 2912 2867 2746 3027 
L 3456 3027 
L 3456 3475 
L 2246 3475 
C 2125 3526 1952 3565 1754 3565 
C 1056 3565 454 3085 454 2323 
C 454 1907 678 1568 909 1389 
L 909 1363 
C 723 1235 525 1005 525 717 
C 525 442 659 256 838 147 
L 838 115 
C 512 -83 326 -371 326 -672 
C 326 -1267 915 -1600 1760 -1600 
z
M 1754 1498 
C 1357 1498 1018 1818 1018 2323 
C 1018 2835 1350 3136 1754 3136 
C 2170 3136 2496 2835 2496 2323 
C 2496 1818 2157 1498 1754 1498 
z
M 1843 -1197 
C 1210 -1197 838 -960 838 -589 
C 838 -390 941 -179 1190 0 
C 1344 -38 1510 -51 1638 -51 
L 2240 -51 
C 2701 -51 2944 -166 2944 -493 
C 2944 -851 2515 -1197 1843 -1197 
z
" transform="scale(0.015625)"/>
     </defs>
     <use xlink:href="#NotoSansCJKjp-Regular-8868"/>
     <use xlink:href="#NotoSansCJKjp-Regular-9762" transform="translate(99.999985 0)"/>
     <use xlink:href="#NotoSansCJKjp-Regular-7c97" transform="translate(199.999969 0)"/>
     <use xlink:href="#NotoSansCJKjp-Regular-3055" transform="translate(299.999954 0)"/>
     <use xlink:href="#NotoSansCJKjp-Regular-20" transform="translate(399.999939 0)"/>
     <use xlink:href="#NotoSansCJKjp-Regular-72" transform="translate(422.399933 0)"/>
     <use xlink:href="#NotoSansCJKjp-Regular-5f" transform="translate(461.199921 0)"/>
     <use xlink:href="#NotoSansCJKjp-Regular-72" transform="translate(517.099915 0)"/>
     <use xlink:href="#NotoSansCJKjp-Regular-6f" transform="translate(555.899902 0)"/>
     <use xlink:href="#NotoSansCJKjp-Regular-75" transform="translate(616.499893 0)"/>
     <use xlink:href="#NotoSansCJKjp-Regular-67" transform="translate(677.19989 0)"/>
     <use xlink:href="#NotoSansCJKjp-Regular-68" transform="translate(733.599884 0)"/>
    </g>
   </g>
   <g id="text_4">
    <g id="patch_5">
     <path d="M 376.160109 195.551031 
L 514.335891 195.551031 
Q 518.885891 195.551031 518.885891 191.001031 
L 518.885891 161.798969 
Q 518.885891 157.248969 514.335891 157.248969 
L 376.160109 157.248969 
Q 371.610109 157.248969 371.610109 161.798969 
L 371.610109 191.001031 
Q 371.610109 195.551031 376.160109 195.551031 
z
" style="fill: #f2f4f7; stroke: #4e5f7c; stroke-width: 1.5; stroke-linejoin: miter"/>
    </g>
    <!-- 重み付き和 -->
    <g transform="translate(412.748 172.146156) scale(0.13 -0.13)">
     <defs>
      <path id="NotoSansCJKjp-Regular-91cd" d="M 1018 3456 
L 1018 1466 
L 2938 1466 
L 2938 1024 
L 813 1024 
L 813 640 
L 2938 640 
L 2938 83 
L 333 83 
L 333 -307 
L 6074 -307 
L 6074 83 
L 3418 83 
L 3418 640 
L 5670 640 
L 5670 1024 
L 3418 1024 
L 3418 1466 
L 5427 1466 
L 5427 3456 
L 3418 3456 
L 3418 3846 
L 6042 3846 
L 6042 4243 
L 3418 4243 
L 3418 4736 
C 4166 4794 4870 4870 5421 4966 
L 5165 5338 
C 4154 5158 2342 5037 851 4998 
C 896 4902 947 4730 954 4621 
C 1581 4634 2266 4659 2938 4698 
L 2938 4243 
L 371 4243 
L 371 3846 
L 2938 3846 
L 2938 3456 
L 1018 3456 
z
M 1485 2304 
L 2938 2304 
L 2938 1818 
L 1485 1818 
L 1485 2304 
z
M 3418 2304 
L 4941 2304 
L 4941 1818 
L 3418 1818 
L 3418 2304 
z
M 1485 3110 
L 2938 3110 
L 2938 2630 
L 1485 2630 
L 1485 3110 
z
M 3418 3110 
L 4941 3110 
L 4941 2630 
L 3418 2630 
L 3418 3110 
z
" transform="scale(0.015625)"/>
      <path id="NotoSansCJKjp-Regular-307f" d="M 5427 3290 
L 4909 3347 
C 4922 3168 4915 2950 4909 2758 
C 4896 2605 4883 2445 4851 2278 
C 4339 2522 3744 2726 3098 2797 
C 3366 3392 3648 4045 3827 4333 
C 3878 4410 3936 4474 3994 4544 
L 3674 4806 
C 3590 4774 3475 4749 3354 4736 
C 3085 4717 2246 4672 1907 4672 
C 1779 4672 1594 4678 1427 4691 
L 1453 4173 
C 1606 4186 1786 4205 1926 4211 
C 2221 4230 3002 4262 3258 4275 
C 3059 3878 2816 3322 2592 2816 
C 1331 2784 461 2061 461 1120 
C 461 582 819 243 1293 243 
C 1626 243 1869 358 2099 685 
C 2342 1043 2656 1798 2906 2362 
C 3571 2304 4198 2074 4736 1773 
C 4531 1082 4070 397 3059 -32 
L 3482 -384 
C 4410 77 4902 685 5165 1517 
C 5414 1350 5638 1178 5830 1011 
L 6067 1562 
C 5862 1709 5600 1882 5293 2054 
C 5363 2426 5402 2835 5427 3290 
z
M 2394 2368 
C 2170 1869 1926 1274 1696 973 
C 1562 806 1459 749 1312 749 
C 1107 749 928 902 928 1184 
C 928 1734 1459 2298 2394 2368 
z
" transform="scale(0.015625)"/>
      <path id="NotoSansCJKjp-Regular-4ed8" d="M 2611 2598 
C 2938 2086 3354 1395 3546 992 
L 3994 1235 
C 3789 1626 3360 2298 3027 2797 
L 2611 2598 
z
M 4806 5299 
L 4806 3955 
L 2208 3955 
L 2208 3469 
L 4806 3469 
L 4806 147 
C 4806 0 4749 -45 4595 -51 
C 4448 -58 3923 -64 3379 -38 
C 3450 -173 3539 -390 3571 -518 
C 4269 -525 4698 -518 4954 -442 
C 5197 -365 5299 -224 5299 147 
L 5299 3469 
L 6106 3469 
L 6106 3955 
L 5299 3955 
L 5299 5299 
L 4806 5299 
z
M 1888 5338 
C 1510 4339 896 3360 237 2733 
C 333 2618 480 2368 538 2253 
C 762 2477 979 2746 1190 3034 
L 1190 -499 
L 1670 -499 
L 1670 3776 
C 1933 4224 2163 4704 2355 5190 
L 1888 5338 
z
" transform="scale(0.015625)"/>
      <path id="NotoSansCJKjp-Regular-304d" d="M 1952 1696 
L 1453 1798 
C 1312 1517 1197 1248 1203 883 
C 1210 64 1914 -307 3168 -307 
C 3712 -307 4218 -269 4666 -198 
L 4685 314 
C 4224 218 3757 179 3162 179 
C 2157 179 1683 442 1683 973 
C 1683 1254 1798 1472 1952 1696 
z
M 3213 4467 
L 3258 4307 
C 2643 4275 1914 4294 1146 4384 
L 1178 3917 
C 1978 3846 2765 3834 3379 3872 
L 3552 3373 
L 3680 3040 
C 2957 2976 1984 2970 1024 3072 
L 1050 2592 
C 2035 2522 3085 2534 3866 2605 
C 4006 2291 4173 1978 4365 1683 
C 4160 1709 3744 1754 3405 1792 
L 3360 1402 
C 3802 1350 4403 1293 4762 1197 
L 5024 1587 
C 4934 1677 4858 1760 4787 1862 
C 4621 2106 4474 2381 4339 2656 
C 4787 2720 5190 2803 5498 2886 
L 5421 3366 
C 5120 3270 4672 3155 4141 3091 
L 3994 3475 
L 3853 3917 
C 4294 3974 4749 4070 5114 4173 
L 5043 4634 
C 4634 4499 4186 4403 3731 4346 
C 3661 4602 3603 4864 3578 5107 
L 3034 5037 
C 3098 4858 3162 4659 3213 4467 
z
" transform="scale(0.015625)"/>
      <path id="NotoSansCJKjp-Regular-548c" d="M 3398 4781 
L 3398 -224 
L 3866 -224 
L 3866 301 
L 5293 301 
L 5293 -179 
L 5779 -179 
L 5779 4781 
L 3398 4781 
z
M 3866 762 
L 3866 4320 
L 5293 4320 
L 5293 762 
L 3866 762 
z
M 2810 5318 
C 2246 5088 1235 4896 384 4781 
C 435 4672 499 4506 518 4397 
C 858 4435 1222 4486 1581 4550 
L 1581 3482 
L 320 3482 
L 320 3034 
L 1459 3034 
C 1165 2227 653 1350 166 858 
C 250 736 371 550 429 410 
C 845 851 1267 1587 1581 2342 
L 1581 -499 
L 2054 -499 
L 2054 2323 
C 2330 1958 2688 1472 2835 1229 
L 3130 1626 
C 2976 1824 2291 2630 2054 2874 
L 2054 3034 
L 3174 3034 
L 3174 3482 
L 2054 3482 
L 2054 4646 
C 2458 4730 2829 4826 3130 4941 
L 2810 5318 
z
" transform="scale(0.015625)"/>
     </defs>
     <use xlink:href="#NotoSansCJKjp-Regular-91cd"/>
     <use xlink:href="#NotoSansCJKjp-Regular-307f" transform="translate(99.999985 0)"/>
     <use xlink:href="#NotoSansCJKjp-Regular-4ed8" transform="translate(199.999969 0)"/>
     <use xlink:href="#NotoSansCJKjp-Regular-304d" transform="translate(299.999954 0)"/>
     <use xlink:href="#NotoSansCJKjp-Regular-548c" transform="translate(399.999939 0)"/>
    </g>
    <!-- （α=0.4, β=0.4, γ=0.2） -->
    <g transform="translate(376.160109 188.023219) scale(0.13 -0.13)">
     <defs>
      <path id="NotoSansCJKjp-Regular-ff08" d="M 4448 2432 
C 4448 1184 4954 166 5722 -614 
L 6106 -416 
C 5370 346 4915 1293 4915 2432 
C 4915 3571 5370 4518 6106 5280 
L 5722 5478 
C 4954 4698 4448 3680 4448 2432 
z
" transform="scale(0.015625)"/>
      <path id="NotoSansCJKjp-Regular-3b1" d="M 1664 -83 
C 2118 -83 2483 154 2746 621 
L 2771 621 
C 2771 141 3046 -83 3456 -83 
C 3661 -83 3808 -38 3898 6 
L 3814 454 
C 3744 422 3654 403 3578 403 
C 3386 403 3232 525 3232 762 
C 3232 1395 3482 2560 3667 3475 
L 3091 3475 
L 2944 2650 
L 2925 2650 
C 2733 3309 2285 3565 1856 3565 
C 1050 3565 333 2867 333 1677 
C 333 531 877 -83 1664 -83 
z
M 1786 410 
C 1248 410 934 870 934 1683 
C 934 2598 1408 3072 1914 3072 
C 2240 3072 2598 2899 2790 2144 
L 2733 1485 
C 2694 896 2240 410 1786 410 
z
" transform="scale(0.015625)"/>
      <path id="NotoSansCJKjp-Regular-3d" d="M 243 2912 
L 3315 2912 
L 3315 3347 
L 243 3347 
L 243 2912 
z
M 243 1376 
L 3315 1376 
L 3315 1811 
L 243 1811 
L 243 1376 
z
" transform="scale(0.015625)"/>
      <path id="NotoSansCJKjp-Regular-30" d="M 1779 -83 
C 2669 -83 3238 723 3238 2362 
C 3238 3987 2669 4774 1779 4774 
C 883 4774 320 3987 320 2362 
C 320 723 883 -83 1779 -83 
z
M 1779 390 
C 1248 390 883 986 883 2362 
C 883 3731 1248 4314 1779 4314 
C 2310 4314 2675 3731 2675 2362 
C 2675 986 2310 390 1779 390 
z
" transform="scale(0.015625)"/>
      <path id="NotoSansCJKjp-Regular-2e" d="M 890 -83 
C 1120 -83 1312 96 1312 358 
C 1312 627 1120 806 890 806 
C 653 806 467 627 467 358 
C 467 96 653 -83 890 -83 
z
" transform="scale(0.015625)"/>
      <path id="NotoSansCJKjp-Regular-34" d="M 2176 0 
L 2726 0 
L 2726 1293 
L 3354 1293 
L 3354 1760 
L 2726 1760 
L 2726 4691 
L 2080 4691 
L 128 1677 
L 128 1293 
L 2176 1293 
L 2176 0 
z
M 2176 1760 
L 736 1760 
L 1805 3360 
C 1939 3590 2067 3827 2182 4051 
L 2208 4051 
C 2195 3814 2176 3430 2176 3200 
L 2176 1760 
z
" transform="scale(0.015625)"/>
      <path id="NotoSansCJKjp-Regular-2c" d="M 480 -1216 
C 1056 -973 1414 -493 1414 122 
C 1414 550 1229 806 922 806 
C 685 806 480 653 480 397 
C 480 141 678 -13 909 -13 
L 979 -6 
C 973 -390 736 -698 339 -870 
L 480 -1216 
z
" transform="scale(0.015625)"/>
      <path id="NotoSansCJKjp-Regular-3b2" d="M 570 -1280 
L 1158 -1280 
C 1146 -691 1139 -141 1120 448 
C 1478 51 1926 -83 2362 -83 
C 3066 -83 3725 448 3725 1382 
C 3725 2112 3296 2630 2611 2726 
L 2611 2758 
C 3046 3027 3302 3430 3302 3949 
C 3302 4781 2669 5178 1997 5178 
C 1024 5178 570 4474 570 3514 
L 570 -1280 
z
M 2227 410 
C 1862 410 1459 518 1120 941 
C 1120 1786 1126 2605 1139 3437 
C 1146 4262 1466 4710 2010 4710 
C 2394 4710 2733 4442 2733 3904 
C 2733 3443 2451 2944 1715 2797 
L 1805 2342 
C 1920 2381 2042 2394 2163 2394 
C 2822 2394 3142 1971 3142 1414 
C 3142 774 2733 410 2227 410 
z
" transform="scale(0.015625)"/>
      <path id="NotoSansCJKjp-Regular-3b3" d="M 1408 -1280 
L 2003 -1280 
C 2003 -877 1984 -384 1933 32 
C 2790 1427 3130 2304 3309 3475 
L 2726 3475 
C 2650 2502 2259 1562 1811 691 
L 1779 691 
C 1574 1773 1062 2957 627 3565 
L 45 3411 
C 742 2490 1440 742 1440 -416 
C 1440 -800 1434 -960 1408 -1280 
z
" transform="scale(0.015625)"/>
      <path id="NotoSansCJKjp-Regular-32" d="M 282 0 
L 3232 0 
L 3232 506 
L 1933 506 
C 1696 506 1408 480 1165 461 
C 2266 1504 3008 2458 3008 3398 
C 3008 4230 2477 4774 1638 4774 
C 1043 4774 634 4506 256 4090 
L 595 3757 
C 858 4070 1184 4301 1568 4301 
C 2150 4301 2432 3910 2432 3373 
C 2432 2566 1754 1632 282 346 
L 282 0 
z
" transform="scale(0.015625)"/>
      <path id="NotoSansCJKjp-Regular-ff09" d="M 1952 2432 
C 1952 3680 1446 4698 678 5478 
L 294 5280 
C 1030 4518 1485 3571 1485 2432 
C 1485 1293 1030 346 294 -416 
L 678 -614 
C 1446 166 1952 1184 1952 2432 
z
" transform="scale(0.015625)"/>
     </defs>
     <use xlink:href="#NotoSansCJKjp-Regular-ff08"/>
     <use xlink:href="#NotoSansCJKjp-Regular-3b1" transform="translate(99.999985 0)"/>
     <use xlink:href="#NotoSansCJKjp-Regular-3d" transform="translate(162.499969 0)"/>
     <use xlink:href="#NotoSansCJKjp-Regular-30" transform="translate(217.999954 0)"/>
     <use xlink:href="#NotoSansCJKjp-Regular-2e" transform="translate(273.499939 0)"/>
     <use xlink:href="#NotoSansCJKjp-Regular-34" transform="translate(301.299927 0)"/>
     <use xlink:href="#NotoSansCJKjp-Regular-2c" transform="translate(356.799911 0)"/>
     <use xlink:href="#NotoSansCJKjp-Regular-20" transform="translate(384.599899 0)"/>
     <use xlink:href="#NotoSansCJKjp-Regular-3b2" transform="translate(406.999893 0)"/>
     <use xlink:href="#NotoSansCJKjp-Regular-3d" transform="translate(470.099884 0)"/>
     <use xlink:href="#NotoSansCJKjp-Regular-30" transform="translate(525.599869 0)"/>
     <use xlink:href="#NotoSansCJKjp-Regular-2e" transform="translate(581.099854 0)"/>
     <use xlink:href="#NotoSansCJKjp-Regular-34" transform="translate(608.899841 0)"/>
     <use xlink:href="#NotoSansCJKjp-Regular-2c" transform="translate(664.399826 0)"/>
     <use xlink:href="#NotoSansCJKjp-Regular-20" transform="translate(692.199814 0)"/>
     <use xlink:href="#NotoSansCJKjp-Regular-3b3" transform="translate(714.599808 0)"/>
     <use xlink:href="#NotoSansCJKjp-Regular-3d" transform="translate(768.599792 0)"/>
     <use xlink:href="#NotoSansCJKjp-Regular-30" transform="translate(824.099777 0)"/>
     <use xlink:href="#NotoSansCJKjp-Regular-2e" transform="translate(879.599762 0)"/>
     <use xlink:href="#NotoSansCJKjp-Regular-32" transform="translate(907.39975 0)"/>
     <use xlink:href="#NotoSansCJKjp-Regular-ff09" transform="translate(962.899734 0)"/>
    </g>
   </g>
   <g id="text_5">
    <g id="patch_6">
     <path d="M 657.908125 188.475 
L 788.571875 188.475 
Q 793.471875 188.475 793.471875 183.575 
L 793.471875 169.225 
Q 793.471875 164.325 788.571875 164.325 
L 657.908125 164.325 
Q 653.008125 164.325 653.008125 169.225 
L 653.008125 183.575 
Q 653.008125 188.475 657.908125 188.475 
z
" style="fill: #e9f0fa; stroke: #2f3e5a; stroke-width: 2; stroke-linejoin: miter"/>
    </g>
    <!-- 統合指標 Tc（提案） -->
    <g transform="translate(657.908125 180.368125) scale(0.14 -0.14)">
     <defs>
      <path id="NotoSansCJKjp-Regular-7d71" d="M 4589 2214 
L 4589 147 
C 4589 -333 4691 -474 5133 -474 
C 5222 -474 5594 -474 5683 -474 
C 6067 -474 6182 -250 6227 582 
C 6099 614 5907 685 5811 768 
C 5792 70 5773 -38 5638 -38 
C 5555 -38 5261 -38 5203 -38 
C 5062 -38 5043 -13 5043 147 
L 5043 2214 
L 4589 2214 
z
M 1907 1651 
C 2074 1274 2240 787 2304 467 
L 2669 595 
C 2605 909 2438 1395 2259 1760 
L 1907 1651 
z
M 582 1715 
C 506 1152 378 582 160 192 
C 269 154 454 64 544 6 
C 749 416 909 1037 992 1645 
L 582 1715 
z
M 3398 2208 
C 3354 966 3200 224 2170 -179 
C 2272 -262 2400 -422 2451 -538 
C 3590 -64 3802 806 3859 2208 
L 3398 2208 
z
M 2573 2886 
L 2611 2438 
C 3366 2490 4435 2560 5472 2643 
C 5581 2458 5677 2285 5741 2144 
L 6150 2374 
C 5958 2784 5504 3398 5107 3853 
L 4736 3648 
C 4896 3462 5056 3251 5203 3040 
L 3635 2944 
C 3808 3283 3987 3718 4147 4096 
L 6048 4096 
L 6048 4531 
L 4493 4531 
L 4493 5376 
L 4006 5376 
L 4006 4531 
L 2547 4531 
L 2547 4096 
L 3597 4096 
C 3482 3718 3302 3251 3136 2912 
L 2573 2886 
z
M 218 2509 
L 262 2074 
L 1267 2138 
L 1267 -525 
L 1696 -525 
L 1696 2163 
L 2202 2195 
C 2259 2054 2298 1926 2323 1818 
L 2688 1978 
C 2598 2330 2342 2880 2080 3296 
L 1741 3155 
C 1850 2982 1952 2778 2042 2579 
L 1088 2541 
C 1523 3104 2010 3853 2374 4461 
L 1971 4646 
C 1798 4301 1568 3891 1312 3494 
C 1216 3622 1082 3770 941 3917 
C 1178 4269 1453 4781 1670 5203 
L 1248 5376 
C 1114 5018 883 4538 678 4179 
L 486 4346 
L 243 4026 
C 538 3763 870 3398 1069 3117 
C 928 2899 781 2694 646 2522 
L 218 2509 
z
" transform="scale(0.015625)"/>
      <path id="NotoSansCJKjp-Regular-5408" d="M 1587 3283 
L 1587 2854 
L 4819 2854 
L 4819 3283 
L 1587 3283 
z
M 3187 4890 
C 3789 4070 4915 3168 5914 2637 
C 5997 2778 6118 2944 6234 3066 
C 5216 3520 4090 4410 3405 5363 
L 2912 5363 
C 2413 4531 1338 3552 218 2982 
C 320 2880 454 2714 518 2605 
C 1613 3194 2656 4109 3187 4890 
z
M 1254 2048 
L 1254 -518 
L 1728 -518 
L 1728 -250 
L 4685 -250 
L 4685 -518 
L 5171 -518 
L 5171 2048 
L 1254 2048 
z
M 1728 179 
L 1728 1613 
L 4685 1613 
L 4685 179 
L 1728 179 
z
" transform="scale(0.015625)"/>
      <path id="NotoSansCJKjp-Regular-6307" d="M 5357 4998 
C 4870 4781 4058 4557 3296 4397 
L 3296 5350 
L 2822 5350 
L 2822 3533 
C 2822 2976 3021 2835 3763 2835 
C 3917 2835 5094 2835 5254 2835 
C 5888 2835 6048 3046 6118 3904 
C 5984 3930 5779 4006 5677 4077 
C 5638 3386 5581 3270 5229 3270 
C 4973 3270 3981 3270 3789 3270 
C 3373 3270 3296 3315 3296 3533 
L 3296 4000 
C 4128 4160 5075 4378 5722 4640 
L 5357 4998 
z
M 3277 858 
L 5363 858 
L 5363 186 
L 3277 186 
L 3277 858 
z
M 3277 1248 
L 3277 1888 
L 5363 1888 
L 5363 1248 
L 3277 1248 
z
M 2822 2298 
L 2822 -506 
L 3277 -506 
L 3277 -211 
L 5363 -211 
L 5363 -480 
L 5837 -480 
L 5837 2298 
L 2822 2298 
z
M 1178 5376 
L 1178 4083 
L 282 4083 
L 282 3629 
L 1178 3629 
L 1178 2253 
L 198 1984 
L 339 1517 
L 1178 1766 
L 1178 51 
C 1178 -38 1139 -64 1056 -70 
C 973 -70 710 -70 416 -64 
C 474 -192 544 -390 563 -506 
C 992 -512 1248 -493 1421 -422 
C 1587 -346 1645 -218 1645 58 
L 1645 1907 
L 2496 2170 
L 2438 2618 
L 1645 2387 
L 1645 3629 
L 2406 3629 
L 2406 4083 
L 1645 4083 
L 1645 5376 
L 1178 5376 
z
" transform="scale(0.015625)"/>
      <path id="NotoSansCJKjp-Regular-54" d="M 1619 0 
L 2214 0 
L 2214 4192 
L 3635 4192 
L 3635 4691 
L 198 4691 
L 198 4192 
L 1619 4192 
L 1619 0 
z
" transform="scale(0.015625)"/>
      <path id="NotoSansCJKjp-Regular-63" d="M 1958 -83 
C 2374 -83 2771 83 3085 352 
L 2829 749 
C 2611 557 2330 403 2010 403 
C 1370 403 934 934 934 1734 
C 934 2534 1395 3072 2029 3072 
C 2298 3072 2522 2950 2720 2771 
L 3014 3155 
C 2771 3373 2458 3565 2003 3565 
C 1107 3565 333 2893 333 1734 
C 333 582 1037 -83 1958 -83 
z
" transform="scale(0.015625)"/>
      <path id="NotoSansCJKjp-Regular-63d0" d="M 3059 3949 
L 5197 3949 
L 5197 3443 
L 3059 3443 
L 3059 3949 
z
M 3059 4800 
L 5197 4800 
L 5197 4294 
L 3059 4294 
L 3059 4800 
z
M 2618 5165 
L 2618 3072 
L 5658 3072 
L 5658 5165 
L 2618 5165 
z
M 2746 1901 
C 2643 954 2355 230 1786 -224 
C 1888 -288 2074 -435 2144 -512 
C 2483 -211 2739 179 2918 666 
C 3334 -237 4013 -416 4947 -416 
L 6067 -416 
C 6086 -288 6150 -90 6214 19 
C 5990 13 5126 13 4966 13 
C 4749 13 4544 19 4352 51 
L 4352 1056 
L 5696 1056 
L 5696 1453 
L 4352 1453 
L 4352 2208 
L 6010 2208 
L 6010 2611 
L 2330 2611 
L 2330 2208 
L 3898 2208 
L 3898 173 
C 3533 333 3251 621 3066 1158 
C 3117 1376 3155 1606 3187 1850 
L 2746 1901 
z
M 1050 5370 
L 1050 4083 
L 256 4083 
L 256 3635 
L 1050 3635 
L 1050 2227 
C 723 2125 422 2042 186 1978 
L 307 1504 
L 1050 1747 
L 1050 90 
C 1050 0 1018 -26 941 -26 
C 864 -32 614 -32 339 -26 
C 397 -154 461 -352 474 -467 
C 877 -474 1126 -454 1280 -378 
C 1440 -307 1498 -173 1498 90 
L 1498 1894 
L 2208 2131 
L 2144 2566 
L 1498 2368 
L 1498 3635 
L 2208 3635 
L 2208 4083 
L 1498 4083 
L 1498 5370 
L 1050 5370 
z
" transform="scale(0.015625)"/>
      <path id="NotoSansCJKjp-Regular-6848" d="M 512 4896 
L 512 3974 
L 966 3974 
L 966 4486 
L 5453 4486 
L 5453 3974 
L 5920 3974 
L 5920 4896 
L 3430 4896 
L 3430 5376 
L 2950 5376 
L 2950 4896 
L 512 4896 
z
M 333 1472 
L 333 1062 
L 2566 1062 
C 1997 570 1069 154 218 -32 
C 314 -128 454 -307 518 -422 
C 1395 -192 2342 307 2944 902 
L 2944 -506 
L 3424 -506 
L 3424 934 
C 4038 320 5018 -192 5914 -435 
C 5978 -314 6118 -128 6221 -32 
C 5357 154 4416 570 3834 1062 
L 6074 1062 
L 6074 1472 
L 3424 1472 
L 3424 2003 
L 2944 2003 
L 2944 1472 
L 333 1472 
z
M 2618 4416 
L 2176 3814 
L 442 3814 
L 442 3424 
L 1875 3424 
C 1664 3155 1453 2899 1274 2701 
L 1722 2560 
L 1850 2714 
C 2182 2643 2541 2560 2893 2470 
C 2355 2310 1619 2202 614 2144 
C 672 2042 749 1869 768 1754 
C 2042 1850 2931 2016 3558 2298 
C 4275 2106 4941 1894 5389 1715 
L 5677 2067 
C 5254 2227 4672 2406 4045 2573 
C 4365 2803 4589 3078 4749 3424 
L 5990 3424 
L 5990 3814 
L 2726 3814 
L 3072 4275 
L 2618 4416 
z
M 2426 3424 
L 4230 3424 
C 4077 3136 3846 2899 3494 2714 
C 3021 2829 2534 2931 2099 3014 
L 2426 3424 
z
" transform="scale(0.015625)"/>
     </defs>
     <use xlink:href="#NotoSansCJKjp-Regular-7d71"/>
     <use xlink:href="#NotoSansCJKjp-Regular-5408" transform="translate(99.999985 0)"/>
     <use xlink:href="#NotoSansCJKjp-Regular-6307" transform="translate(199.999969 0)"/>
     <use xlink:href="#NotoSansCJKjp-Regular-6a19" transform="translate(299.999954 0)"/>
     <use xlink:href="#NotoSansCJKjp-Regular-20" transform="translate(399.999939 0)"/>
     <use xlink:href="#NotoSansCJKjp-Regular-54" transform="translate(422.399933 0)"/>
     <use xlink:href="#NotoSansCJKjp-Regular-63" transform="translate(482.299927 0)"/>
     <use xlink:href="#NotoSansCJKjp-Regular-ff08" transform="translate(533.299911 0)"/>
     <use xlink:href="#NotoSansCJKjp-Regular-63d0" transform="translate(633.299896 0)"/>
     <use xlink:href="#NotoSansCJKjp-Regular-6848" transform="translate(733.299881 0)"/>
     <use xlink:href="#NotoSansCJKjp-Regular-ff09" transform="translate(833.299866 0)"/>
    </g>
   </g>
   <g id="patch_7">
    <path d="M 261.921368 91.8 
Q 323.100669 91.8 382.491115 91.8 
" style="fill: none; stroke: #2f3e5a; stroke-width: 1.6; stroke-linecap: round"/>
    <path d="M 378.491115 89.8 
L 382.491115 91.8 
L 378.491115 93.8 
" style="fill: none; stroke: #2f3e5a; stroke-width: 1.6; stroke-linecap: round"/>
   </g>
   <g id="patch_8">
    <path d="M 261.921368 176.4 
Q 323.100669 176.4 382.491115 176.4 
" style="fill: none; stroke: #2f3e5a; stroke-width: 1.6; stroke-linecap: round"/>
    <path d="M 378.491115 174.4 
L 382.491115 176.4 
L 378.491115 178.4 
" style="fill: none; stroke: #2f3e5a; stroke-width: 1.6; stroke-linecap: round"/>
   </g>
   <g id="patch_9">
    <path d="M 261.921368 261 
Q 323.100669 261 382.491115 261 
" style="fill: none; stroke: #2f3e5a; stroke-width: 1.6; stroke-linecap: round"/>
    <path d="M 378.491115 259 
L 382.491115 261 
L 378.491115 263 
" style="fill: none; stroke: #2f3e5a; stroke-width: 1.6; stroke-linecap: round"/>
   </g>
   <g id="patch_10">
    <path d="M 548.335312 176.4 
Q 592.667434 176.4 635.210701 176.4 
" style="fill: none; stroke: #2f3e5a; stroke-width: 1.6; stroke-linecap: round"/>
    <path d="M 631.210701 174.4 
L 635.210701 176.4 
L 631.210701 178.4 
" style="fill: none; stroke: #2f3e5a; stroke-width: 1.6; stroke-linecap: round"/>
   </g>
   <g id="text_6">
    <!-- Tc = 0.4h_diff + 0.4θ_slope + 0.2 r_rough -->
    <g style="fill: #2f3e5a" transform="translate(316.73625 328.650375) scale(0.12 -0.12)">
     <defs>
      <path id="NotoSansCJKjp-Regular-2b" d="M 1542 742 
L 2010 742 
L 2010 2144 
L 3315 2144 
L 3315 2579 
L 2010 2579 
L 2010 3981 
L 1542 3981 
L 1542 2579 
L 243 2579 
L 243 2144 
L 1542 2144 
L 1542 742 
z
" transform="scale(0.015625)"/>
     </defs>
     <use xlink:href="#NotoSansCJKjp-Regular-54"/>
     <use xlink:href="#NotoSansCJKjp-Regular-63" transform="translate(59.899994 0)"/>
     <use xlink:href="#NotoSansCJKjp-Regular-20" transform="translate(110.899979 0)"/>
     <use xlink:href="#NotoSansCJKjp-Regular-3d" transform="translate(133.299973 0)"/>
     <use xlink:href="#NotoSansCJKjp-Regular-20" transform="translate(188.799957 0)"/>
     <use xlink:href="#NotoSansCJKjp-Regular-30" transform="translate(211.199951 0)"/>
     <use xlink:href="#NotoSansCJKjp-Regular-2e" transform="translate(266.699936 0)"/>
     <use xlink:href="#NotoSansCJKjp-Regular-34" transform="translate(294.499924 0)"/>
     <use xlink:href="#NotoSansCJKjp-Regular-68" transform="translate(349.999908 0)"/>
     <use xlink:href="#NotoSansCJKjp-Regular-5f" transform="translate(410.699905 0)"/>
     <use xlink:href="#NotoSansCJKjp-Regular-64" transform="translate(466.599899 0)"/>
     <use xlink:href="#NotoSansCJKjp-Regular-69" transform="translate(528.599884 0)"/>
     <use xlink:href="#NotoSansCJKjp-Regular-66" transform="translate(556.099869 0)"/>
     <use xlink:href="#NotoSansCJKjp-Regular-66" transform="translate(588.599854 0)"/>
     <use xlink:href="#NotoSansCJKjp-Regular-20" transform="translate(621.099838 0)"/>
     <use xlink:href="#NotoSansCJKjp-Regular-2b" transform="translate(643.499832 0)"/>
     <use xlink:href="#NotoSansCJKjp-Regular-20" transform="translate(698.999817 0)"/>
     <use xlink:href="#NotoSansCJKjp-Regular-30" transform="translate(721.399811 0)"/>
     <use xlink:href="#NotoSansCJKjp-Regular-2e" transform="translate(776.899796 0)"/>
     <use xlink:href="#NotoSansCJKjp-Regular-34" transform="translate(804.699783 0)"/>
     <use xlink:href="#NotoSansCJKjp-Regular-3b8" transform="translate(860.199768 0)"/>
     <use xlink:href="#NotoSansCJKjp-Regular-5f" transform="translate(918.499756 0)"/>
     <use xlink:href="#NotoSansCJKjp-Regular-73" transform="translate(974.39975 0)"/>
     <use xlink:href="#NotoSansCJKjp-Regular-6c" transform="translate(1021.199738 0)"/>
     <use xlink:href="#NotoSansCJKjp-Regular-6f" transform="translate(1049.599731 0)"/>
     <use xlink:href="#NotoSansCJKjp-Regular-70" transform="translate(1110.199722 0)"/>
     <use xlink:href="#NotoSansCJKjp-Regular-65" transform="translate(1172.199707 0)"/>
     <use xlink:href="#NotoSansCJKjp-Regular-20" transform="translate(1227.599701 0)"/>
     <use xlink:href="#NotoSansCJKjp-Regular-2b" transform="translate(1249.999695 0)"/>
     <use xlink:href="#NotoSansCJKjp-Regular-20" transform="translate(1305.49968 0)"/>
     <use xlink:href="#NotoSansCJKjp-Regular-30" transform="translate(1327.899673 0)"/>
     <use xlink:href="#NotoSansCJKjp-Regular-2e" transform="translate(1383.399658 0)"/>
     <use xlink:href="#NotoSansCJKjp-Regular-32" transform="translate(1411.199646 0)"/>
     <use xlink:href="#NotoSansCJKjp-Regular-20" transform="translate(1466.699631 0)"/>
     <use xlink:href="#NotoSansCJKjp-Regular-72" transform="translate(1489.099625 0)"/>
     <use xlink:href="#NotoSansCJKjp-Regular-5f" transform="translate(1527.899612 0)"/>
     <use xlink:href="#NotoSansCJKjp-Regular-72" transform="translate(1583.799606 0)"/>
     <use xlink:href="#NotoSansCJKjp-Regular-6f" transform="translate(1622.599594 0)"/>
     <use xlink:href="#NotoSansCJKjp-Regular-75" transform="translate(1683.199585 0)"/>
     <use xlink:href="#NotoSansCJKjp-Regular-67" transform="translate(1743.899582 0)"/>
     <use xlink:href="#NotoSansCJKjp-Regular-68" transform="translate(1800.299576 0)"/>
    </g>
   </g>
  </g>
 </g>
</svg>
